<svg xmlns="http://www.w3.org/2000/svg" xmlns:xlink="http://www.w3.org/1999/xlink" viewBox="0 0 16 16"><defs><path id="a" d="M12.25 7.25c.41 0 .75.34.75.75a5 5 0 0 1-1.14 3.18l1.79 3.1.1 1.68-1.4-.92-1.64-2.84a5 5 0 0 1-5.42 0l-1.64 2.84-1.4.92.1-1.67 4-6.93 1.3.75-1.61 2.79a3.5 3.5 0 0 0 3.92 0L8.35 8.1l1.3-.74 1.38 2.4q.46-.79.47-1.76c0-.41.34-.75.75-.75"/><path id="b" d="M7.5 2h1c.28 0 .5.22.5.5V4h1c.28 0 .5.22.5.5V7Q9 9 8 9T5.5 7V4.5c0-.28.22-.5.5-.5h1V2.5c0-.28.22-.5.5-.5M8 5a1 1 0 1 0 0 2 1 1 0 0 0 0-2"/></defs><circle cx="8" cy="8" r="7" fill="#22c55e" fill-opacity=".4" fill-rule="evenodd"/><path fill="#0f172a" fill-opacity="0.1" d="M15 8A7 7 0 1 1 1 8a7 7 0 0 1 14 0M2 8a6 6 0 1 0 12 0A6 6 0 0 0 2 8"/><use xlink:href="#a" fill="#0f172a" fill-rule="evenodd"/><use xlink:href="#a" fill="#0f172a" fill-opacity="0.1" fill-rule="evenodd"/><use xlink:href="#b" fill="#22c55e" fill-rule="evenodd"/><use xlink:href="#b" fill="#0f172a" fill-opacity="0.1" fill-rule="evenodd"/></svg>