<svg xmlns="http://www.w3.org/2000/svg" viewBox="0 0 16 16"><path fill="#14b8a6" fill-rule="evenodd" d="M13 4.61V1.5a.5.5 0 0 0-.5-.5h-3a.5.5 0 0 0-.5.5v3.86c0 .32.3.56.62.48l3-.75a.5.5 0 0 0 .38-.48"/><path fill="#0f172a" fill-opacity="0.1" d="M13 1.5v3.11a.5.5 0 0 1-.38.48l-3 .75A.5.5 0 0 1 9 5.36V1.5c0-.28.22-.5.5-.5h3c.28 0 .5.22.5.5M10 2v2.72l2-.5V2z"/><path fill="#14b8a6" fill-opacity=".4" fill-rule="evenodd" d="m12.62 8.9-3-.74a.5.5 0 0 0-.62.48V9.9q0 .1.04.19l1.83 4.6a.5.5 0 0 0 .47.31h1.16a.5.5 0 0 0 .5-.5V9.39a.5.5 0 0 0-.38-.48"/><path fill="#0f172a" fill-opacity="0.1" d="m9.62 8.16 3 .75a.5.5 0 0 1 .38.48v5.11a.5.5 0 0 1-.5.5h-1.16a.5.5 0 0 1-.47-.31l-1.83-4.6L9 9.9V8.64c0-.32.3-.56.62-.48M10 9.8l1.68 4.2H12V9.78l-2-.5z"/><path fill="#14b8a6" fill-rule="evenodd" d="M3 4.61V1.5c0-.28.22-.5.5-.5h3c.28 0 .5.22.5.5v3.86a.5.5 0 0 1-.62.48l-3-.75A.5.5 0 0 1 3 4.61"/><path fill="#0f172a" fill-opacity="0.1" d="M7 1.5v3.86a.5.5 0 0 1-.62.48l-3-.75A.5.5 0 0 1 3 4.61V1.5c0-.28.22-.5.5-.5h3c.28 0 .5.22.5.5M4 2v2.22l2 .5V2z"/><path fill="#14b8a6" fill-opacity=".4" fill-rule="evenodd" d="m3.38 8.9 3-.74a.5.5 0 0 1 .62.48V9.9l-.04.19-1.83 4.6a.5.5 0 0 1-.47.31H3.5a.5.5 0 0 1-.5-.5V9.39a.5.5 0 0 1 .38-.48"/><path fill="#0f172a" fill-opacity="0.1" d="M7 8.64V9.9l-.04.19-1.83 4.6a.5.5 0 0 1-.47.31H3.5a.5.5 0 0 1-.5-.5V9.39a.5.5 0 0 1 .38-.48l3-.75a.5.5 0 0 1 .62.48M4 9.78V14h.32L6 9.8v-.52z"/><path fill="#14b8a6" fill-rule="evenodd" d="m10 7 3-1v2zM6 7 3 6v2z"/></svg>