<svg xmlns="http://www.w3.org/2000/svg" xmlns:xlink="http://www.w3.org/1999/xlink" viewBox="0 0 16 16"><defs><path id="a" d="M5 9a1 1 0 1 0 0-2 1 1 0 0 0 0 2m6 0a1 1 0 1 0 0-2 1 1 0 0 0 0 2"/><path id="b" d="M6.25 10h3.5c0 .5-.5 1.5-1.75 1.5s-1.75-1-1.75-1.5"/></defs><path fill="#d946ef" fill-opacity=".4" d="M16 8.6c0-2.2-1.37-4.13-3.48-5.28-.86-.47-1.53-.9-2.1-1.24C9.38 1.4 8.73 1 8 1s-1.56.52-2.64 1.2q-.93.6-1.88 1.12C1.38 4.47 0 6.41 0 8.6 0 12.13 3.58 15 8 15s8-2.87 8-6.4"/><path fill="#0f172a" fill-opacity="0.1" d="M10.43 2.08c.56.35 1.23.77 2.1 1.24C14.62 4.47 16 6.41 16 8.6c0 3.53-3.58 6.4-8 6.4s-8-2.87-8-6.4c0-2.2 1.37-4.13 3.48-5.28A33 33 0 0 0 5.36 2.2C6.44 1.52 7.26 1 8 1c.72 0 1.37.41 2.43 1.08m-4.53.96q-.95.62-1.94 1.16C2.1 5.21 1 6.85 1 8.6 1 11.53 4.1 14 8 14s7-2.47 7-5.4c0-1.75-1.1-3.39-2.96-4.4-.73-.4-1.2-.69-2.15-1.28C8.7 2.17 8.35 2 8 2s-.8.23-2.1 1.04"/><use xlink:href="#a" fill="#0f172a" fill-rule="evenodd"/><use xlink:href="#a" fill="#0f172a" fill-opacity="0.1" fill-rule="evenodd"/><use xlink:href="#b" fill="#d946ef" fill-rule="evenodd"/><use xlink:href="#b" fill="#0f172a" fill-opacity="0.1" fill-rule="evenodd"/></svg>