<svg xmlns="http://www.w3.org/2000/svg" viewBox="0 0 16 16"><path fill="#64748b" fill-rule="evenodd" d="M8 1a7 7 0 1 1-6.71 9h3.25a4 4 0 1 0 0-4H1.29A7 7 0 0 1 8 1"/><path fill="#0f172a" fill-opacity="0.1" d="M15 8a7 7 0 0 1-13.71 2h3.25a4 4 0 1 0 0-4H1.29A7 7 0 0 1 15 8M2.8 5H4a4.99 4.99 0 1 1 0 6H2.8a6 6 0 1 0 0-6"/><circle cx="8" cy="8" r="2" fill="#64748b" fill-opacity=".4" fill-rule="evenodd"/><path fill="#0f172a" fill-opacity="0.1" d="M10 8a2 2 0 1 1-4 0 2 2 0 0 1 4 0M7 8a1 1 0 1 0 2 0 1 1 0 0 0-2 0"/></svg>