<svg xmlns="http://www.w3.org/2000/svg" viewBox="0 0 16 16"><path fill="#3b82f6" fill-rule="evenodd" d="m13 13-.5 2H7.48a1 1 0 0 1-.78-.38l-2.48-3.1A1 1 0 0 1 4 10.9V4z"/><path fill="#0f172a" fill-opacity="0.1" d="m13 13-.5 2H7.48a1 1 0 0 1-.78-.38l-2.48-3.1A1 1 0 0 1 4 10.9V4zM5 6.41v4.49L7.48 14h4.24l.17-.7z"/><path fill="#3b82f6" fill-opacity=".4" fill-rule="evenodd" d="M4 4h6.9a1 1 0 0 1 .62.22l3.1 2.48a1 1 0 0 1 .38.78v5.02l-2 .5z"/><path fill="#0f172a" fill-opacity="0.1" d="m11.52 4.22 3.1 2.48a1 1 0 0 1 .38.78v5.02l-2 .5-9-9h6.9a1 1 0 0 1 .62.22m2.48 7.5V7.48L10.9 5H6.4l6.9 6.9z"/><path fill="#3b82f6" fill-opacity=".4" fill-rule="evenodd" d="M4 4 1.36 6.82a1.5 1.5 0 0 0 .16 2.2L4 11z"/><path fill="#0f172a" fill-opacity="0.1" d="M4 11 1.52 9.01a1.5 1.5 0 0 1-.16-2.2L4 4zM2.09 7.5a.5.5 0 0 0 .05.73l.86.69v-2.4z"/><path fill="#3b82f6" fill-opacity=".8" fill-rule="evenodd" d="M6.82 1.36 4 4h7L9.01 1.52a1.5 1.5 0 0 0-2.2-.16"/><path fill="#0f172a" fill-opacity="0.1" d="M9.01 1.52 11 4H4l2.82-2.64a1.5 1.5 0 0 1 2.2.16m-1.51.57L6.53 3h2.39l-.69-.86a.5.5 0 0 0-.73-.05"/></svg>