<svg xmlns="http://www.w3.org/2000/svg" xmlns:xlink="http://www.w3.org/1999/xlink" viewBox="0 0 16 16"><defs><path id="a" d="M6 5c0-1 .75-2 2-2s2 1 2 2z"/></defs><path fill="#f43f5e" fill-opacity=".4" d="M3 13c-1.5-1.5-2-3-2-5s.5-3.5 2-5H0v9.99z"/><path fill="#0f172a" fill-opacity="0.1" d="M1 8c0 2 .5 3.5 2 5l-3-.01V3h3C1.5 4.5 1 6 1 8"/><path fill="#f43f5e" d="M14 13c.53-.56 1.07-1.24 1.5-2L13 10c-1 1.5-2.29 1.99-4 2-1.5 0-3-1.25-3-4h9c0-1.5 0-3.5-1.5-5H16v9.99z"/><path fill="#0f172a" fill-opacity="0.1" d="M16 12.99 14 13c.53-.56 1.07-1.24 1.5-2L13 10c-1 1.5-2.29 1.99-4 2-1.5 0-3-1.25-3-4h9c0-1.5 0-3.5-1.5-5H16zM7.09 9c.24 1.32 1 2 1.9 2 1.53-.01 2.43-.44 3.18-1.55l.3-.45zm6.1 0 .18.07 1.63.65V9z"/><use xlink:href="#a" fill="#f43f5e"/><use xlink:href="#a" fill="#0f172a" fill-opacity="0.1"/></svg>