<svg xmlns="http://www.w3.org/2000/svg" viewBox="0 0 16 16"><path fill="#f43f5e" fill-rule="evenodd" d="M8 6V1H5.5a2.5 2.5 0 0 0 0 5z"/><path fill="#0f172a" fill-opacity="0.1" d="M8 6H5.5a2.5 2.5 0 0 1 0-5H8zM7 2H5.5a1.5 1.5 0 0 0 0 3H7z"/><path fill="#8b5cf6" fill-opacity=".4" fill-rule="evenodd" d="M8 11V6H5.5a2.5 2.5 0 0 0 0 5z"/><path fill="#0f172a" fill-opacity="0.1" d="M8 11H5.5a2.5 2.5 0 0 1 0-5H8zM7 7H5.5a1.5 1.5 0 0 0 0 3H7z"/><circle cx="10.5" cy="8.5" r="2.5" fill="#3b82f6" fill-opacity=".4" fill-rule="evenodd"/><path fill="#0f172a" fill-opacity="0.1" d="M13 8.5a2.5 2.5 0 1 1-5 0 2.5 2.5 0 0 1 5 0m-4 0a1.5 1.5 0 1 0 3 0 1.5 1.5 0 0 0-3 0"/><path fill="#f97316" fill-rule="evenodd" d="M8 6V1h2.5a2.5 2.5 0 1 1 0 5z"/><path fill="#0f172a" fill-opacity="0.1" d="M13 3.5A2.5 2.5 0 0 1 10.5 6H8V1h2.5A2.5 2.5 0 0 1 13 3.5M10.5 5a1.5 1.5 0 0 0 0-3H9v3z"/><path fill="#22c55e" fill-rule="evenodd" d="M5.5 16A2.5 2.5 0 0 0 8 13.5V11H5.5a2.5 2.5 0 1 0 0 5"/><path fill="#0f172a" fill-opacity="0.1" d="M8 13.5A2.5 2.5 0 1 1 5.5 11H8zM5.5 12A1.5 1.5 0 1 0 7 13.5V12z"/></svg>