<svg xmlns="http://www.w3.org/2000/svg" xmlns:xlink="http://www.w3.org/1999/xlink" viewBox="0 0 16 16"><defs><path id="a" d="M11 9a3 3 0 0 0 4 2.83V14a2 2 0 0 1-2 2H9a2 2 0 0 1-2-2v-4c0-1.1.9-2 2-2h2.17A3 3 0 0 0 11 9"/><path id="c" d="M9.5 3H13a2 2 0 0 1 2 2H1V4a3 3 0 0 1 3-3h1.5C8 1 8 3 9.5 3"/><circle id="b" cx="14" cy="9" r="2"/></defs><use xlink:href="#a" fill="#3b82f6" fill-rule="evenodd"/><use xlink:href="#a" fill="#0f172a" fill-opacity="0.1" fill-rule="evenodd"/><use xlink:href="#b" fill="#f43f5e" fill-rule="evenodd"/><use xlink:href="#b" fill="#0f172a" fill-opacity="0.1" fill-rule="evenodd"/><use xlink:href="#c" fill="#3b82f6" fill-opacity=".4" fill-rule="evenodd"/><use xlink:href="#c" fill="#0f172a" fill-opacity="0.1" fill-rule="evenodd"/><path fill="#3b82f6" fill-opacity=".8" fill-rule="evenodd" d="M2 6h7a4 4 0 0 0-4 4v4a4 4 0 0 0 .13 1H3.9a3 3 0 0 1-2.93-2.35L.04 8.43 0 8.16v-.32A2 2 0 0 1 2 6"/><path fill="#0f172a" fill-opacity="0.1" d="M2 6h7a4 4 0 0 0-2.65 1H2a1 1 0 0 0-.97 1.22l.93 4.21A2 2 0 0 0 3.91 14H5v.27a4 4 0 0 0 .13.73H3.9a3 3 0 0 1-2.93-2.35L.04 8.43 0 8.16v-.32A2 2 0 0 1 2 6"/></svg>