<svg xmlns="http://www.w3.org/2000/svg" xmlns:xlink="http://www.w3.org/1999/xlink" viewBox="0 0 16 16"><defs><path id="a" d="M14.5 7c.83 0 1.5.67 1.5 1.5V16h-1V8.5a.5.5 0 0 0-.5-.5h-5a.5.5 0 0 0-.5.5V16H8V8.5C8 7.67 8.67 7 9.5 7zM14 9v7h-4V9zm-2 2v2h1v-2z"/><path id="b" d="M9.5 3H13a2 2 0 0 1 2 2H1V4a3 3 0 0 1 3-3h1.5C8 1 8 3 9.5 3"/></defs><use xlink:href="#a" fill="#be6f46" fill-rule="evenodd"/><use xlink:href="#a" fill="#0f172a" fill-opacity="0.1" fill-rule="evenodd"/><use xlink:href="#b" fill="#be6f46" fill-opacity=".4" fill-rule="evenodd"/><use xlink:href="#b" fill="#0f172a" fill-opacity="0.1" fill-rule="evenodd"/><path fill="#be6f46" fill-opacity=".8" fill-rule="evenodd" d="M6 8.5V15H3.9a3 3 0 0 1-2.92-2.35L.04 8.43 0 8.16v-.32A2 2 0 0 1 2 6h5.05A3.5 3.5 0 0 0 6 8.5"/><path fill="#0f172a" fill-opacity="0.1" d="M6.45 6.78 6.34 7H1.99a1 1 0 0 0-.97 1.22l.93 4.21A2 2 0 0 0 3.91 14H6v1H3.9a3 3 0 0 1-2.92-2.35L.04 8.43 0 8.16v-.32A2 2 0 0 1 2 6h5.05q-.35.35-.6.78"/></svg>