<svg xmlns="http://www.w3.org/2000/svg" xmlns:xlink="http://www.w3.org/1999/xlink" viewBox="0 0 16 16"><defs><path id="a" d="M12 8v3l2.75-3H16v1.25l-2.58 2.74L16 14.75V16h-1.25l-2.52-2.75-.23.25V16h-.5L10 12V8zm-4.54 4.31.6 1.47.5-1a.5.5 0 0 1 .9.03l1 2.5a.5.5 0 1 1-.92.38l-.6-1.47-.5 1a.5.5 0 0 1-.9-.03l-1-2.5a.5.5 0 1 1 .92-.38"/><path id="b" d="M9.5 3H12a3 3 0 0 1 3 3h-.25a2 2 0 0 0-.47.06A3 3 0 0 0 12 5H4a3 3 0 0 0-3 3V4a3 3 0 0 1 3-3h1.5C8 1 8 3 9.5 3"/></defs><use xlink:href="#a" fill="#14b8a6" fill-rule="evenodd"/><use xlink:href="#a" fill="#0f172a" fill-opacity="0.1" fill-rule="evenodd"/><use xlink:href="#b" fill="#14b8a6" fill-opacity=".4" fill-rule="evenodd"/><use xlink:href="#b" fill="#0f172a" fill-opacity="0.1" fill-rule="evenodd"/><path fill="#14b8a6" fill-opacity=".8" fill-rule="evenodd" d="M12 5a3 3 0 0 1 2.28 1.06q-.52.12-.9.5A2 2 0 0 0 12 6h-2a2 2 0 0 0-2 2v2.21a2.5 2.5 0 0 0-3.32 3.22L5.3 15H4a3 3 0 0 1-3-3V8a3 3 0 0 1 3-3z"/><path fill="#0f172a" fill-opacity="0.1" d="M12.68 6.12h-.02A2 2 0 0 0 12 6H4a2 2 0 0 0-2 2v4c0 1.1.9 2 2 2h.9l.4 1H4a3 3 0 0 1-3-3V8a3 3 0 0 1 3-3h8a3 3 0 0 1 2.28 1.06q-.52.12-.9.5-.3-.3-.7-.44"/></svg>