<svg xmlns="http://www.w3.org/2000/svg" xmlns:xlink="http://www.w3.org/1999/xlink" viewBox="0 0 16 16"><defs><path id="a" d="m12 7 4 1.57c0 3.94-.11 6.02-4 7.43-3.75-1.4-4-3.49-4-7.43z"/><path id="b" d="M9.5 3H12a3 3 0 0 1 3 3v.03l-1.33-.52A3 3 0 0 0 12 5H4a3 3 0 0 0-3 3V4a3 3 0 0 1 3-3h1.5C8 1 8 3 9.5 3"/></defs><use xlink:href="#a" fill="#22c55e" fill-rule="evenodd"/><use xlink:href="#a" fill="#0f172a" fill-opacity="0.1" fill-rule="evenodd"/><use xlink:href="#b" fill="#22c55e" fill-opacity=".4" fill-rule="evenodd"/><use xlink:href="#b" fill="#0f172a" fill-opacity="0.1" fill-rule="evenodd"/><path fill="#22c55e" fill-opacity=".8" fill-rule="evenodd" d="M6.77 14.05q.22.5.52.95H4a3 3 0 0 1-3-3V8a3 3 0 0 1 3-3h8q.95.02 1.67.5l-.94-.36a2 2 0 0 0-1.28-.06l-.18.06-4 1.57A2 2 0 0 0 6 8.57c0 2.71.15 4.1.77 5.48"/><path fill="#0f172a" fill-opacity="0.1" d="M4 14h2.74l.03.05q.22.5.52.95H4a3 3 0 0 1-3-3V8a3 3 0 0 1 3-3h8q.95.02 1.67.5l-.94-.36a2 2 0 0 0-1.28-.06l-.18.06L9.08 6H4a2 2 0 0 0-2 2v4c0 1.1.9 2 2 2"/></svg>