<svg xmlns="http://www.w3.org/2000/svg" xmlns:xlink="http://www.w3.org/1999/xlink" viewBox="0 0 16 16"><defs><path id="a" d="M11.91 14.53q.77.71 1.77 1.1a4 4 0 0 1-3.17.08 3 3 0 0 0 1.4-1.18m-1.82-4.33.01-.17a3 3 0 0 1 1.8 4.5 5.6 5.6 0 0 1-1.8-4.33"/><path id="b" d="M11.9 14.53a5.6 5.6 0 0 1-1.8-4.5 3 3 0 0 0-1.57.02 3.96 3.96 0 0 0 1.98 5.67 3 3 0 0 0 1.4-1.19"/><path id="c" d="M12.21 6a5.6 5.6 0 0 0-2.1 4.03 3 3 0 0 1 1.8 4.5q.77.71 1.77 1.1A4 4 0 0 0 16 12.16c.03-1-.35-1.9-.9-2.66-.58-.8-2.9-3.5-2.9-3.5"/><path id="d" d="M9.5 3H12a3 3 0 0 1 3 3v.2l-.03-.03-.94-1.12-.22-.26-.07-.08a2 2 0 0 0-2.77-.28q-.33.27-.64.57H4a3 3 0 0 0-3 3V4a3 3 0 0 1 3-3h1.5C8 1 8 3 9.5 3"/></defs><use xlink:href="#a" fill="#f97316"/><use xlink:href="#a" fill="#0f172a" fill-opacity="0.1"/><use xlink:href="#b" fill="#eab308"/><use xlink:href="#b" fill="#0f172a" fill-opacity="0.1"/><use xlink:href="#c" fill="#f43f5e"/><use xlink:href="#c" fill="#0f172a" fill-opacity="0.1"/><use xlink:href="#d" fill="#f97316" fill-opacity=".4" fill-rule="evenodd"/><use xlink:href="#d" fill="#0f172a" fill-opacity="0.1" fill-rule="evenodd"/><path fill="#f97316" fill-opacity=".8" fill-rule="evenodd" d="m8.62 7.6-.15.42-.48.1a2 2 0 0 0-1.2.94 6 6 0 0 0 0 5.94H4a3 3 0 0 1-3-3V8a3 3 0 0 1 3-3h6.33a8 8 0 0 0-1.71 2.6"/><path fill="#0f172a" fill-opacity="0.1" d="M9.49 6H4a2 2 0 0 0-2 2v4c0 1.1.9 2 2 2h2.34q.18.52.46 1H4a3 3 0 0 1-3-3V8a3 3 0 0 1 3-3h6.33q-.46.45-.84 1"/></svg>