<svg xmlns="http://www.w3.org/2000/svg" xmlns:xlink="http://www.w3.org/1999/xlink" viewBox="0 0 16 16"><defs><path id="a" d="m13.8 7.15 1.92.96a.5.5 0 0 1 .28.45v5.88a.5.5 0 0 1-.28.45l-1.5.75-.41.2a.5.5 0 0 1-.56-.07l-3.38-3.12-1.53 1.1a.5.5 0 0 1-.57 0l-.07-.05-.33-.33a.5.5 0 0 1 .01-.72l1.25-1.15-1.25-1.15a.5.5 0 0 1-.07-.65l.06-.07.33-.33a.5.5 0 0 1 .64-.05l1.53 1.1 3.38-3.12a.5.5 0 0 1 .56-.08m-.3 2.9-2.02 1.45 2.02 1.45z"/><path id="b" d="M9.5 3H13a2 2 0 0 1 2 2H1V4a3 3 0 0 1 3-3h1.5C8 1 8 3 9.5 3"/></defs><use xlink:href="#a" fill="#3b82f6" fill-rule="evenodd"/><use xlink:href="#a" fill="#0f172a" fill-opacity="0.1" fill-rule="evenodd"/><use xlink:href="#b" fill="#3b82f6" fill-opacity=".4" fill-rule="evenodd"/><use xlink:href="#b" fill="#0f172a" fill-opacity="0.1" fill-rule="evenodd"/><path fill="#3b82f6" fill-opacity=".8" fill-rule="evenodd" d="M11.64 6 9.75 7.75l-.25-.17a2.5 2.5 0 0 0-3.2.28l-.64.66c-.84.83-.8 2.2.09 2.98a2.05 2.05 0 0 0-.1 2.98l.52.52H3.91a3 3 0 0 1-2.93-2.35L.04 8.43 0 8.16v-.32A2 2 0 0 1 2 6z"/><path fill="#0f172a" fill-opacity="0.1" d="m11.64 6-1.08 1H1.99a1 1 0 0 0-.97 1.22l.93 4.21A2 2 0 0 0 3.91 14H5.3q.13.26.36.48l.51.52H3.91a3 3 0 0 1-2.93-2.35L.04 8.43 0 8.16v-.32A2 2 0 0 1 2 6z"/></svg>