<svg xmlns="http://www.w3.org/2000/svg" xmlns:xlink="http://www.w3.org/1999/xlink" viewBox="0 0 16 16"><defs><path id="b" d="M9.5 3H13a2 2 0 0 1 2 2H1V4a3 3 0 0 1 3-3h1.5C8 1 8 3 9.5 3"/><path id="a" d="M11 9.25V10h2v-.75c0-.69.56-1.25 1.25-1.25h.5c.69 0 1.25.56 1.25 1.25v.5c0 .69-.56 1.25-1.25 1.25H14v2h.75c.69 0 1.25.56 1.25 1.25v.5c0 .69-.56 1.25-1.25 1.25h-.5c-.69 0-1.25-.56-1.25-1.25V14h-2v.75c0 .69-.56 1.25-1.25 1.25h-.5C8.56 16 8 15.44 8 14.75v-.5c0-.69.56-1.25 1.25-1.25H10v-2h-.75C8.56 11 8 10.44 8 9.75v-.5C8 8.56 8.56 8 9.25 8h.5c.69 0 1.25.56 1.25 1.25M14 14v.75q.02.23.25.25h.5q.23-.02.25-.25v-.5a.25.25 0 0 0-.25-.25zm-4.75 0a.25.25 0 0 0-.25.25v.5q.02.23.25.25h.5q.23-.02.25-.25V14zM11 11v2h2v-2zM9.25 9a.25.25 0 0 0-.25.25v.5q.02.23.25.25H10v-.75A.25.25 0 0 0 9.75 9zm5 0a.25.25 0 0 0-.25.25V10h.75q.23-.02.25-.25v-.5a.25.25 0 0 0-.25-.25z"/></defs><use fill="#64748b" href="#a"/><use fill="#0f172a" fill-opacity="0.1" href="#a"/><use xlink:href="#b" fill="#64748b" fill-opacity=".4" fill-rule="evenodd"/><use xlink:href="#b" fill="#0f172a" fill-opacity="0.1" fill-rule="evenodd"/><path fill="#64748b" fill-opacity=".8" fill-rule="evenodd" d="M2 6h7.25A3.25 3.25 0 0 0 6 9.25v.5c0 .87.35 1.67.9 2.25-.55.58-.9 1.38-.9 2.25v.5l.01.25h-2.1a3 3 0 0 1-2.93-2.35L.04 8.43 0 8.16v-.32A2 2 0 0 1 2 6m12 0h.12-.09c-.78.06-1.5.4-2.03.9A3.2 3.2 0 0 0 9.78 6z"/><path fill="#0f172a" fill-opacity="0.1" d="M2 6h7.25c-.92 0-1.75.38-2.35 1H2a1 1 0 0 0-.98 1.22l.93 4.21A2 2 0 0 0 3.91 14H6l-.01.25v.5L6 15H3.9a3 3 0 0 1-2.93-2.35L.04 8.43 0 8.16v-.32A2 2 0 0 1 2 6m12 0h.12-.09c-.78.06-1.5.4-2.03.9A3.2 3.2 0 0 0 9.78 6z"/></svg>