<svg xmlns="http://www.w3.org/2000/svg" xmlns:xlink="http://www.w3.org/1999/xlink" viewBox="0 0 16 16"><defs><path id="a" d="M12 6.5a1 1 0 0 1 1 1V8h2a1 1 0 0 1 .12 2H15q0 2.02-1.3 3.45.7.32 1.59.6a1 1 0 0 1-.58 1.9q-1.56-.46-2.71-1.14-1.14.68-2.71 1.15a1 1 0 0 1-.58-1.92q.9-.27 1.6-.59A5 5 0 0 1 9 10a1 1 0 1 1 0-2h2v-.5a1 1 0 0 1 1-1M11 10q-.01 1.34 1 2.34 1.01-1 1-2.34z"/><path id="b" d="M9.5 3H13a2 2 0 0 1 2 2h-1.34a3 3 0 0 0-3.32 0H1V4a3 3 0 0 1 3-3h1.5C8 1 8 3 9.5 3"/></defs><use xlink:href="#a" fill="#8b5cf6" fill-rule="evenodd"/><use xlink:href="#a" fill="#0f172a" fill-opacity="0.1" fill-rule="evenodd"/><use xlink:href="#b" fill="#8b5cf6" fill-opacity=".4" fill-rule="evenodd"/><use xlink:href="#b" fill="#0f172a" fill-opacity="0.1" fill-rule="evenodd"/><path fill="#8b5cf6" fill-opacity=".8" fill-rule="evenodd" d="M2 6h7a3 3 0 0 0-1.88 5.33q.1.58.3 1.12A3 3 0 0 0 6 15H3.9a3 3 0 0 1-2.92-2.35L.04 8.43 0 8.16v-.33A2 2 0 0 1 2 6"/><path fill="#0f172a" fill-opacity="0.1" d="M2 6h7a3 3 0 0 0-2.24 1H2a1 1 0 0 0-.97 1.22l.93 4.21A2 2 0 0 0 3.91 14h2.26Q6 14.49 6 15H3.9a3 3 0 0 1-2.92-2.35L.04 8.43 0 8.16v-.33A2 2 0 0 1 2 6"/></svg>