<svg xmlns="http://www.w3.org/2000/svg" xmlns:xlink="http://www.w3.org/1999/xlink" viewBox="0 0 16 16"><defs><path id="a" d="M11.6 7.18a1 1 0 0 1 .8 0l3 1.3a1 1 0 0 1 .6.92v2.35c0 2.12-1.5 3.75-4 4.25-2.5-.5-4-2.13-4-4.25V9.4a1 1 0 0 1 .6-.91zm2.24 2.4a.75.75 0 0 0-1.01.33l-1 2-.76-.9a.75.75 0 1 0-1.14.98l1.5 1.75c.35.4 1 .33 1.24-.15l1.5-3a.75.75 0 0 0-.33-1.01"/><path id="b" d="M9.5 3H12a3 3 0 0 1 3 3v.13l-1.19-.52A3 3 0 0 0 12 5H4a3 3 0 0 0-3 3V4a3 3 0 0 1 3-3h1.5C8 1 8 3 9.5 3"/></defs><use xlink:href="#a" fill="#22c55e" fill-rule="evenodd"/><use xlink:href="#a" fill="#0f172a" fill-opacity="0.1" fill-rule="evenodd"/><use xlink:href="#b" fill="#22c55e" fill-opacity=".4" fill-rule="evenodd"/><use xlink:href="#b" fill="#0f172a" fill-opacity="0.1" fill-rule="evenodd"/><path fill="#22c55e" fill-opacity=".8" fill-rule="evenodd" d="M12 5c.68 0 1.3.23 1.81.6l-.6-.26a3 3 0 0 0-2.22-.07l-.2.07-3 1.32A3 3 0 0 0 6 9.4v2.35q.01 1.84.94 3.25H4a3 3 0 0 1-3-3V8a3 3 0 0 1 3-3z"/><path fill="#0f172a" fill-opacity="0.1" d="M12 5c.68 0 1.3.23 1.81.6l-.6-.26a3 3 0 0 0-2.22-.07l-.2.07L9.3 6H4a2 2 0 0 0-2 2v4c0 1.1.9 2 2 2h2.42q.2.53.52 1H4a3 3 0 0 1-3-3V8a3 3 0 0 1 3-3z"/></svg>