<svg xmlns="http://www.w3.org/2000/svg" xmlns:xlink="http://www.w3.org/1999/xlink" viewBox="0 0 16 16"><defs><path id="a" d="M12.5 8c.83 0 1.5.67 1.5 1.5v.5h1a1 1 0 0 1 1 1v.75q-.02.23-.25.25h-2.5a.25.25 0 0 0-.25.25v.5q-.02.23-.25.25h-1.5a.25.25 0 0 1-.25-.25v-.5a.25.25 0 0 0-.25-.25h-2.5a.25.25 0 0 1-.25-.25V11a1 1 0 0 1 1-1h1v-.5c0-.83.67-1.5 1.5-1.5zm-1 1a.5.5 0 0 0-.5.5v.5h2v-.5a.5.5 0 0 0-.5-.5zm-3.25 4h1.5q.23.02.25.25v.5q.02.23.25.25h3.5q.23-.02.25-.25v-.5q.02-.23.25-.25h1.5q.23.02.25.25V15a1 1 0 0 1-1 1H9a1 1 0 0 1-1-1v-1.75q.02-.23.25-.25"/><path id="b" d="M9.5 3H12a3 3 0 0 1 3 3v1.05l-.23-.22A3 3 0 0 0 12 5H4a3 3 0 0 0-3 3V4a3 3 0 0 1 3-3h1.5C8 1 8 3 9.5 3"/></defs><use xlink:href="#a" fill="#eab308" fill-rule="evenodd"/><use xlink:href="#a" fill="#0f172a" fill-opacity="0.1" fill-rule="evenodd"/><use xlink:href="#b" fill="#eab308" fill-opacity=".4" fill-rule="evenodd"/><use xlink:href="#b" fill="#0f172a" fill-opacity="0.1" fill-rule="evenodd"/><path fill="#eab308" fill-opacity=".8" fill-rule="evenodd" d="M6 13.25V15H4a3 3 0 0 1-3-3V8a3 3 0 0 1 3-3h8a3 3 0 0 1 2.76 1.83c-.6-.52-1.4-.83-2.26-.83h-1a3.5 3.5 0 0 0-3.2 2.09A3 3 0 0 0 6 11v.75q0 .4.13.75-.12.35-.13.75"/><path fill="#0f172a" fill-opacity="0.1" d="M12.5 6H4a2 2 0 0 0-2 2v4c0 1.1.9 2 2 2h2v1H4a3 3 0 0 1-3-3V8a3 3 0 0 1 3-3h8a3 3 0 0 1 2.76 1.83c-.6-.52-1.4-.83-2.26-.83"/></svg>