<svg xmlns="http://www.w3.org/2000/svg" xmlns:xlink="http://www.w3.org/1999/xlink" viewBox="0 0 16 16"><defs><path id="a" d="M16 10v3l-4.5 3L7 13v-3l4.5 3z"/><path id="b" d="M9.25 11.5 11.5 13l2.25-1.5L11.5 10z"/><path id="c" d="m11.5 7 4.5 3v3l-4.5-3L7 13v-3z"/><path id="d" d="M9.5 3H12a3 3 0 0 1 3 3v.93l-.27-.19A3 3 0 0 0 12 5H4a3 3 0 0 0-3 3V4a3 3 0 0 1 3-3h1.5C8 1 8 3 9.5 3"/></defs><use xlink:href="#a" fill="#f97316" fill-rule="evenodd"/><use xlink:href="#a" fill="#0f172a" fill-opacity="0.1" fill-rule="evenodd"/><use xlink:href="#b" fill="#f97316" fill-opacity=".4" fill-rule="evenodd"/><use xlink:href="#b" fill="#0f172a" fill-opacity="0.1" fill-rule="evenodd"/><use xlink:href="#c" fill="#f97316" fill-opacity=".6" fill-rule="evenodd"/><use xlink:href="#c" fill="#0f172a" fill-opacity="0.1" fill-rule="evenodd"/><use xlink:href="#d" fill="#f97316" fill-opacity=".4" fill-rule="evenodd"/><use xlink:href="#d" fill="#0f172a" fill-opacity="0.1" fill-rule="evenodd"/><path fill="#f97316" fill-opacity=".8" fill-rule="evenodd" d="M12 5a3 3 0 0 1 2.73 1.74l-2.12-1.4a2 2 0 0 0-2.07-.1l-.15.1-4.5 3A2 2 0 0 0 5 10v3a2 2 0 0 0 .9 1.66l.5.34H4a3 3 0 0 1-3-3V8a3 3 0 0 1 3-3z"/><path fill="#0f172a" fill-opacity="0.1" d="M12 5a3 3 0 0 1 2.73 1.74l-2.12-1.4a2 2 0 0 0-2.07-.1l-.15.1-1 .66H4a2 2 0 0 0-2 2v4c0 1.1.9 2 2 2h1.27a2 2 0 0 0 .62.66l.5.34H4a3 3 0 0 1-3-3V8a3 3 0 0 1 3-3z"/></svg>