<svg xmlns="http://www.w3.org/2000/svg" xmlns:xlink="http://www.w3.org/1999/xlink" viewBox="0 0 16 16"><defs><path id="a" d="m11.85 12.56 1.42 1.41c.2.2.2.52 0 .71l-1.42 1.42a.5.5 0 0 1-.7 0l-1.42-1.42a.5.5 0 0 1 0-.7l1.42-1.42c.2-.2.51-.2.7 0M9.03 9.73l1.41 1.42c.2.2.2.5 0 .7l-1.41 1.42a.5.5 0 0 1-.71 0L6.9 11.85a.5.5 0 0 1 0-.7l1.4-1.42c.2-.2.52-.2.72 0m5.65 0 1.42 1.42c.2.2.2.5 0 .7l-1.42 1.42a.5.5 0 0 1-.7 0l-1.42-1.42a.5.5 0 0 1 0-.7l1.42-1.42c.2-.2.5-.2.7 0M11.85 6.9l1.42 1.42c.2.2.2.5 0 .7l-1.42 1.42a.5.5 0 0 1-.7 0L9.73 9.02a.5.5 0 0 1 0-.7l1.42-1.42c.2-.2.51-.2.7 0"/><path id="b" d="M9.5 3H12a3 3 0 0 1 3 3v1.22l-.15-.15a3 3 0 0 0-2.09-1.97 2.5 2.5 0 0 0-2.33-.1H4a3 3 0 0 0-3 3V4a3 3 0 0 1 3-3h1.5C8 1 8 3 9.5 3"/></defs><use xlink:href="#a" fill="#f97316" fill-rule="evenodd"/><use xlink:href="#a" fill="#0f172a" fill-opacity="0.1" fill-rule="evenodd"/><use xlink:href="#b" fill="#f97316" fill-opacity=".4" fill-rule="evenodd"/><use xlink:href="#b" fill="#0f172a" fill-opacity="0.1" fill-rule="evenodd"/><path fill="#f97316" fill-opacity=".8" fill-rule="evenodd" d="m9.86 5.37-.13.12L5.5 9.73a2.5 2.5 0 0 0 0 3.54L7.22 15H4a3 3 0 0 1-3-3V8a3 3 0 0 1 3-3h6.43q-.3.15-.57.37m3.08-.16-.18-.11.1.02a3 3 0 0 1 2 1.95l-1.6-1.58q-.14-.15-.32-.28"/><path fill="#0f172a" fill-opacity="0.1" d="m9.86 5.37-.13.12-.5.51H4a2 2 0 0 0-2 2v4c0 1.1.9 2 2 2h2.22l1 1H4a3 3 0 0 1-3-3V8a3 3 0 0 1 3-3h6.43q-.3.15-.57.37m3.08-.16-.18-.11.1.02a3 3 0 0 1 2 1.95l-1.6-1.58q-.14-.15-.32-.28"/></svg>