<svg xmlns="http://www.w3.org/2000/svg" xmlns:xlink="http://www.w3.org/1999/xlink" viewBox="0 0 16 16"><defs><path id="a" d="M15 8a1 1 0 0 1 1 1v1a1 1 0 0 1-1 1v4a1 1 0 0 1-1 1h-4a1 1 0 0 1-1-1v-4a1 1 0 0 1-1-1V9a1 1 0 0 1 1-1zm-4 4v1h2v-1zm4-3H9v1h6z"/><path id="b" d="M9.5 3H13a2 2 0 0 1 2 2H1V4a3 3 0 0 1 3-3h1.5C8 1 8 3 9.5 3"/></defs><use xlink:href="#a" fill="#f97316" fill-rule="evenodd"/><use xlink:href="#a" fill="#0f172a" fill-opacity="0.1" fill-rule="evenodd"/><use xlink:href="#b" fill="#f97316" fill-opacity=".4" fill-rule="evenodd"/><use xlink:href="#b" fill="#0f172a" fill-opacity="0.1" fill-rule="evenodd"/><path fill="#f97316" fill-opacity=".8" fill-rule="evenodd" d="M2 6h7a3 3 0 0 0-3 3v1a3 3 0 0 0 1 2.23V15H3.9a3 3 0 0 1-2.92-2.35L.04 8.43 0 8.16v-.33A2 2 0 0 1 2 6"/><path fill="#0f172a" fill-opacity="0.1" d="M2 6h7a3 3 0 0 0-2.24 1H2a1 1 0 0 0-.97 1.22l.93 4.21A2 2 0 0 0 3.91 14H7v1H3.9a3 3 0 0 1-2.92-2.35L.04 8.43 0 8.16v-.33A2 2 0 0 1 2 6"/></svg>