<svg xmlns="http://www.w3.org/2000/svg" xmlns:xlink="http://www.w3.org/1999/xlink" viewBox="0 0 16 16"><defs><path id="a" d="M12 7.5v8a.5.5 0 1 1-1 0v-8a.5.5 0 1 1 1 0m-2.63.57a1 1 0 0 1 .56 1.3l-.85 2.13.85 2.13a1 1 0 0 1-1.86.74l-1-2.5a1 1 0 0 1 0-.74l1-2.5a1 1 0 0 1 1.3-.56m5.56.56 1 2.5q.15.37 0 .74l-1 2.5a1 1 0 0 1-1.86-.74l.85-2.13-.85-2.13a1 1 0 0 1 1.86-.74"/><path id="b" d="M9.5 3H12a3 3 0 0 1 3 3v.17a3 3 0 0 0-.75-.16A3 3 0 0 0 12 5H4a3 3 0 0 0-3 3V4a3 3 0 0 1 3-3h1.5C8 1 8 3 9.5 3"/></defs><use xlink:href="#a" fill="#eab308" fill-rule="evenodd"/><use xlink:href="#a" fill="#0f172a" fill-opacity="0.1" fill-rule="evenodd"/><use xlink:href="#b" fill="#eab308" fill-opacity=".4" fill-rule="evenodd"/><use xlink:href="#b" fill="#0f172a" fill-opacity="0.1" fill-rule="evenodd"/><path fill="#eab308" fill-opacity=".8" fill-rule="evenodd" d="M4 5h7.5c-.83 0-1.57.4-2.03 1.04a3 3 0 0 0-3.26 1.85l-1 2.5a3 3 0 0 0 0 2.22L6.17 15H4a3 3 0 0 1-3-3V8a3 3 0 0 1 3-3m8 0a3 3 0 0 1 2.25 1.01 3 3 0 0 0-.72.03 2.5 2.5 0 0 0-2-1.04z"/><path fill="#0f172a" fill-opacity="0.1" d="M4 5h7.5c-.82 0-1.54.4-2 1H4a2 2 0 0 0-2 2v4c0 1.1.9 2 2 2h1.77l.4 1H4a3 3 0 0 1-3-3V8a3 3 0 0 1 3-3m8 0a3 3 0 0 1 2.25 1.01 3 3 0 0 0-.72.03 2.5 2.5 0 0 0-2-1.04z"/></svg>