<svg xmlns="http://www.w3.org/2000/svg" xmlns:xlink="http://www.w3.org/1999/xlink" viewBox="0 0 16 16"><defs><path id="a" d="M9.5 3H13a2 2 0 0 1 2 2H1V4a3 3 0 0 1 3-3h1.5C8 1 8 3 9.5 3"/></defs><path fill="#f97316" d="M9.8 15.5A6 6 0 0 1 7 13.11q.46.36 1.03.62c1.52.7 3.03.65 4.1 0a22 22 0 0 1-3.77-3.89c-.2-.2-.35-.45-.5-.67 3.72 2.7 3.56 3.39 1.08-.45a26 26 0 0 0 4.25 3.45l.16.1.11-.35A4.7 4.7 0 0 0 12.53 8c2.05 1.23 3.26 3.53 2.75 5.46l-.02.18c1 1.26.74 2.58.6 2.33-.54-1.07-1.56-.74-2.07-.52a4.5 4.5 0 0 1-3.99.04"/><use xlink:href="#a" fill="#f97316" fill-opacity=".4" fill-rule="evenodd"/><use xlink:href="#a" fill="#0f172a" fill-opacity="0.1" fill-rule="evenodd"/><path fill="#f97316" fill-opacity=".8" fill-rule="evenodd" d="m6.12 10.17.09.14.02.04.13.2q.22.31.44.56c-1.32.15-2.38 1.67-1.49 3.08q.27.42.6.81h-2a3 3 0 0 1-2.93-2.35L.04 8.43 0 8.16v-.32A2 2 0 0 1 2 6h10.28c-.82.1-1.5.74-1.7 1.52l-.22-.2a1.94 1.94 0 0 0-2.67-.15c-1.32.12-2.37 1.63-1.57 3M14.01 6a2 2 0 0 1 2 1.83l-.01.33q0 .14-.04.27v.02l-.18-.23a8 8 0 0 0-2.22-1.94 2 2 0 0 0-.8-.28z"/><path fill="#0f172a" fill-opacity="0.1" d="m10.89 6.86-.1.14h-.82a1.9 1.9 0 0 0-2.04 0H2a1 1 0 0 0-.97 1.22l.93 4.21A2 2 0 0 0 3.91 14h1.3l.1.19q.27.42.6.81h-2a3 3 0 0 1-2.93-2.35L.04 8.43 0 8.16v-.32A2 2 0 0 1 2 6h10.28c-.57.07-1.07.4-1.4.86M14 6a2 2 0 0 1 2 1.83l-.01.33q0 .14-.04.27v.02l-.18-.23a8 8 0 0 0-2.22-1.94 2 2 0 0 0-.8-.28z"/></svg>