<svg xmlns="http://www.w3.org/2000/svg" xmlns:xlink="http://www.w3.org/1999/xlink" viewBox="0 0 16 16"><defs><path id="a" d="M11 6a1.25 1.25 0 0 1 .5 2.4V9H14a1 1 0 0 1 1 1v1h.5c.28 0 .5.22.5.5v2a.5.5 0 0 1-.5.5H15v1a1 1 0 0 1-1 1H8a1 1 0 0 1-1-1v-1h-.5a.5.5 0 0 1-.5-.5v-2c0-.28.22-.5.5-.5H7v-1a1 1 0 0 1 1-1h2.5v-.6A1.25 1.25 0 0 1 11 6m1.5 8h-3a.5.5 0 1 0 0 1h3a.5.5 0 1 0 0-1M9 11a1 1 0 1 0 0 2 1 1 0 0 0 0-2m4 0a1 1 0 1 0 0 2 1 1 0 0 0 0-2"/><path id="b" d="M9.5 3H13a2 2 0 0 1 2 2h-1.65a3.24 3.24 0 0 0-4.7 0H1V4a3 3 0 0 1 3-3h1.5C8 1 8 3 9.5 3"/></defs><use xlink:href="#a" fill="#8b5cf6" fill-rule="evenodd"/><use xlink:href="#a" fill="#0f172a" fill-opacity="0.1" fill-rule="evenodd"/><use xlink:href="#b" fill="#8b5cf6" fill-opacity=".4" fill-rule="evenodd"/><use xlink:href="#b" fill="#0f172a" fill-opacity="0.1" fill-rule="evenodd"/><path fill="#8b5cf6" fill-opacity=".8" fill-rule="evenodd" d="M7.76 7.01a3 3 0 0 0-2.71 2.46A2.5 2.5 0 0 0 4 11.5v2q.02.86.5 1.5h-.6a3 3 0 0 1-2.92-2.35L.04 8.43 0 8.16v-.32A2 2 0 0 1 2 6h6q-.2.48-.24 1.01m8.23.75a3 3 0 0 0-1.76-.75q-.04-.54-.24-1a2 2 0 0 1 2 1.75"/><path fill="#0f172a" fill-opacity="0.1" d="m7.79 6.8-.03.2H2a1 1 0 0 0-.97 1.22l.93 4.21A2 2 0 0 0 3.91 14h.14q.12.56.45 1h-.6a3 3 0 0 1-2.92-2.35L.04 8.43 0 8.16v-.32A2 2 0 0 1 2 6h6q-.16.37-.21.8m8.2.96a3 3 0 0 0-1.76-.75q-.04-.54-.24-1a2 2 0 0 1 2 1.75"/></svg>