<svg xmlns="http://www.w3.org/2000/svg" xmlns:xlink="http://www.w3.org/1999/xlink" viewBox="0 0 16 16"><defs><path id="a" d="M8.5 7c.65 0 1.2.42 1.41 1H13a2 2 0 1 1 0 4h-3a1 1 0 0 0 0 2h3.09a1.5 1.5 0 1 1 0 1H10a2 2 0 1 1 0-4h3a1 1 0 0 0 0-2H9.91A1.5 1.5 0 1 1 8.5 7"/><path id="b" d="M9.5 3H12a3 3 0 0 1 3 3v.54q-.26-.16-.55-.27A3 3 0 0 0 12 5H4a3 3 0 0 0-3 3V4a3 3 0 0 1 3-3h1.5C8 1 8 3 9.5 3"/></defs><use xlink:href="#a" fill="#d946ef" fill-rule="evenodd"/><use xlink:href="#a" fill="#0f172a" fill-opacity="0.1" fill-rule="evenodd"/><use xlink:href="#b" fill="#d946ef" fill-opacity=".4" fill-rule="evenodd"/><use xlink:href="#b" fill="#0f172a" fill-opacity="0.1" fill-rule="evenodd"/><path fill="#d946ef" fill-opacity=".8" fill-rule="evenodd" d="M4 5h4.5a3.5 3.5 0 0 0-2.11 6.29A3.9 3.9 0 0 0 6.54 15H4a3 3 0 0 1-3-3V8a3 3 0 0 1 3-3m8 0a3 3 0 0 1 2.45 1.27A4 4 0 0 0 13 6h-2.05a3.5 3.5 0 0 0-2.42-1z"/><path fill="#0f172a" fill-opacity="0.1" d="M4 5h4.5c-.95 0-1.82.38-2.45 1H4a2 2 0 0 0-2 2v4c0 1.1.9 2 2 2h2.13q.14.54.4 1H4a3 3 0 0 1-3-3V8a3 3 0 0 1 3-3m8 0a3 3 0 0 1 2.45 1.27A4 4 0 0 0 13 6h-2.05a3.5 3.5 0 0 0-2.42-1z"/></svg>