<svg xmlns="http://www.w3.org/2000/svg" xmlns:xlink="http://www.w3.org/1999/xlink" viewBox="0 0 16 16"><defs><path id="a" d="M14.5 8c.83 0 1.5.67 1.5 1.5V11h-4a1 1 0 0 0-1 .88V14H9.5A1.5 1.5 0 0 1 8 12.5v-3C8 8.67 8.67 8 9.5 8z"/><path id="b" d="M12 15.6v-3.1c0-.28.22-.5.5-.5h3.1c.33 0 .5.4.26.64l-.86.86 1 1V16h-1.5l-1-1-.86.86a.37.37 0 0 1-.64-.27"/><path id="c" d="M9.5 3H13a2 2 0 0 1 2 2H1V4a3 3 0 0 1 3-3h1.5C8 1 8 3 9.5 3"/></defs><use xlink:href="#a" fill="#64748b" fill-rule="evenodd"/><use xlink:href="#a" fill="#0f172a" fill-opacity="0.1" fill-rule="evenodd"/><use xlink:href="#b" fill="#3b82f6" fill-rule="evenodd"/><use xlink:href="#b" fill="#0f172a" fill-opacity="0.1" fill-rule="evenodd"/><use xlink:href="#c" fill="#3b82f6" fill-opacity=".4" fill-rule="evenodd"/><use xlink:href="#c" fill="#0f172a" fill-opacity="0.1" fill-rule="evenodd"/><path fill="#3b82f6" fill-opacity=".8" fill-rule="evenodd" d="M2 6h7.5A3.5 3.5 0 0 0 6 9.5v3c0 .98.4 1.87 1.05 2.5H3.91a3 3 0 0 1-2.93-2.35L.04 8.43 0 8.16v-.32A2 2 0 0 1 2 6"/><path fill="#0f172a" fill-opacity="0.1" d="M2 6h7.5c-.95 0-1.82.38-2.45 1H2a1 1 0 0 0-.97 1.22l.93 4.21A2 2 0 0 0 3.91 14h2.43q.27.57.71 1H3.91a3 3 0 0 1-2.93-2.35L.04 8.43 0 8.16v-.32A2 2 0 0 1 2 6"/></svg>