<svg xmlns="http://www.w3.org/2000/svg" xmlns:xlink="http://www.w3.org/1999/xlink" viewBox="0 0 16 16"><defs><path id="a" d="M16 16v-4.5a4.5 4.5 0 1 0-9 0V16z"/><path id="b" d="m11.15 15.15-1.3-1.3a.5.5 0 0 1 .36-.85h2.58a.5.5 0 0 1 .36.85l-1.3 1.3a.5.5 0 0 1-.7 0"/><path id="c" d="M9.5 12a1 1 0 1 0 0-2 1 1 0 0 0 0 2m4 0a1 1 0 1 0 0-2 1 1 0 0 0 0 2"/><path id="d" d="M9.5 3H12a3 3 0 0 1 3 3v.02a7 7 0 0 0-1.97-.84A3 3 0 0 0 12 5H4a3 3 0 0 0-3 3V4a3 3 0 0 1 3-3h1.5C8 1 8 3 9.5 3"/></defs><use xlink:href="#a" fill="#eab308" fill-opacity=".25" fill-rule="evenodd"/><use xlink:href="#a" fill="#0f172a" fill-opacity="0.1" fill-rule="evenodd"/><use xlink:href="#b" fill="#eab308"/><use xlink:href="#b" fill="#0f172a" fill-opacity="0.1"/><use xlink:href="#c" fill="#0f172a" fill-rule="evenodd"/><use xlink:href="#c" fill="#0f172a" fill-opacity="0.1" fill-rule="evenodd"/><use xlink:href="#d" fill="#eab308" fill-opacity=".4" fill-rule="evenodd"/><use xlink:href="#d" fill="#0f172a" fill-opacity="0.1" fill-rule="evenodd"/><path fill="#eab308" fill-opacity=".8" fill-rule="evenodd" d="M12 5a3 3 0 0 1 1.03.18A6.48 6.48 0 0 0 5 11.5V15H4a3 3 0 0 1-3-3V8a3 3 0 0 1 3-3z"/><path fill="#0f172a" fill-opacity="0.1" d="M12 5a3 3 0 0 1 1.03.18 6.5 6.5 0 0 0-5 .82H4a2 2 0 0 0-2 2v4c0 1.1.9 2 2 2h1v1H4a3 3 0 0 1-3-3V8a3 3 0 0 1 3-3z"/></svg>