<svg xmlns="http://www.w3.org/2000/svg" xmlns:xlink="http://www.w3.org/1999/xlink" viewBox="0 0 16 16"><defs><path id="a" d="m11.69 7.25 3.06 2.57A3.5 3.5 0 0 1 12.5 16a3.5 3.5 0 0 1-3.18-2.04l-.54.64a1 1 0 0 1-1.53-1.29L9.19 11H8a1 1 0 0 1 0-2h2.66l-.26-.22a1 1 0 0 1 1.29-1.53M12.5 11a1.5 1.5 0 1 0 0 3 1.5 1.5 0 0 0 0-3"/><path id="b" d="M9.5 3H13a2 2 0 0 1 2 2H1V4a3 3 0 0 1 3-3h1.5C8 1 8 3 9.5 3"/></defs><use xlink:href="#a" fill="#f97316" fill-rule="evenodd"/><use xlink:href="#a" fill="#0f172a" fill-opacity="0.1" fill-rule="evenodd"/><use xlink:href="#b" fill="#f97316" fill-opacity=".4" fill-rule="evenodd"/><use xlink:href="#b" fill="#0f172a" fill-opacity="0.1" fill-rule="evenodd"/><path fill="#f97316" fill-opacity=".8" fill-rule="evenodd" d="m8.82 6-.08.09q-.34.41-.52.91H8a3 3 0 0 0-2.25 4.98l-.03.05A3 3 0 0 0 5.2 15H3.9a3 3 0 0 1-2.92-2.35L.04 8.43 0 8.16v-.32A2 2 0 0 1 2 6zM16 7.83v.42L13.3 6h.7a2 2 0 0 1 2 1.83"/><path fill="#0f172a" fill-opacity="0.1" d="M8.22 7H2a1 1 0 0 0-.97 1.22l.93 4.21A2 2 0 0 0 3.91 14H5q0 .51.2 1H3.9a3 3 0 0 1-2.93-2.35L.04 8.43 0 8.16v-.32A2 2 0 0 1 2 6h6.82l-.08.09q-.34.41-.52.91m7.78.83v.42L13.3 6h.7a2 2 0 0 1 2 1.83"/></svg>