<svg xmlns="http://www.w3.org/2000/svg" xmlns:xlink="http://www.w3.org/1999/xlink" viewBox="0 0 16 16"><defs><path id="a" d="M9.5 8c.28 0 .5.22.5.5V9h4.5c.83 0 1.5.67 1.5 1.5v4c0 .83-.67 1.5-1.5 1.5h-6A1.5 1.5 0 0 1 7 14.5v-4c0-.65.42-1.2 1-1.41V8.5c0-.28.22-.5.5-.5zm2 3a1.5 1.5 0 1 0 0 3 1.5 1.5 0 0 0 0-3"/><path id="c" d="M9.5 3H13a2 2 0 0 1 2 2H1V4a3 3 0 0 1 3-3h1.5C8 1 8 3 9.5 3"/><circle id="b" cx="14" cy="9" r="1"/></defs><use xlink:href="#a" fill="#22c55e" fill-rule="evenodd"/><use xlink:href="#a" fill="#0f172a" fill-opacity="0.1" fill-rule="evenodd"/><circle cx="14" cy="9" r="2" fill="#eab308" fill-opacity=".4" fill-rule="evenodd"/><use xlink:href="#b" fill="#eab308" fill-rule="evenodd"/><use xlink:href="#b" fill="#0f172a" fill-opacity="0.1" fill-rule="evenodd"/><use xlink:href="#c" fill="#22c55e" fill-opacity=".4" fill-rule="evenodd"/><use xlink:href="#c" fill="#0f172a" fill-opacity="0.1" fill-rule="evenodd"/><path fill="#22c55e" fill-opacity=".8" fill-rule="evenodd" d="M2 6h6.5a2.5 2.5 0 0 0-2.45 2A3.5 3.5 0 0 0 5 10.5v4q0 .26.04.5H3.9a3 3 0 0 1-2.93-2.35L.04 8.43 0 8.16v-.32A2 2 0 0 1 2 6m8.92.45c-.4-.29-.9-.45-1.42-.45h1.86q-.24.21-.44.45"/><path fill="#0f172a" fill-opacity="0.1" d="M2 6h6.5c-.82 0-1.54.4-2 1H2a1 1 0 0 0-.98 1.22l.93 4.21A2 2 0 0 0 3.91 14H5v.5q0 .26.04.5H3.9a3 3 0 0 1-2.93-2.35L.04 8.43 0 8.16v-.32A2 2 0 0 1 2 6m8.92.45c-.4-.29-.9-.45-1.42-.45h1.86q-.24.21-.44.45"/></svg>