<svg xmlns="http://www.w3.org/2000/svg" xmlns:xlink="http://www.w3.org/1999/xlink" viewBox="0 0 16 16"><defs><path id="a" d="M15.85 7.85 10.71 13H13v-1a.5.5 0 1 1 1 0v1.5a.5.5 0 0 1-.5.5H9.7l-1 1H15v-4.5a.5.5 0 1 1 1 0v5a.5.5 0 0 1-.5.5h-8a.5.5 0 0 1-.35-.85l2-2L12.28 10H10v1a.5.5 0 1 1-1 0V9.5c0-.28.22-.5.5-.5h3.8l1-1H8v4.5a.5.5 0 1 1-1 0v-5c0-.28.22-.5.5-.5h8a.5.5 0 0 1 .35.85"/><path id="b" d="M9.5 3H13a2 2 0 0 1 2 2H1V4a3 3 0 0 1 3-3h1.5C8 1 8 3 9.5 3"/></defs><use xlink:href="#a" fill="#64748b" fill-rule="evenodd"/><use xlink:href="#a" fill="#0f172a" fill-opacity="0.1" fill-rule="evenodd"/><use xlink:href="#b" fill="#64748b" fill-opacity=".4" fill-rule="evenodd"/><use xlink:href="#b" fill="#0f172a" fill-opacity="0.1" fill-rule="evenodd"/><path fill="#64748b" fill-opacity=".8" fill-rule="evenodd" d="M5 7.5v5q.02.86.5 1.5-.35.47-.46 1H3.91a3 3 0 0 1-2.93-2.35L.04 8.43 0 8.16v-.32A2 2 0 0 1 2 6h3.5q-.48.64-.5 1.5"/><path fill="#0f172a" fill-opacity="0.1" d="M5.1 6.78 5.05 7H1.99a1 1 0 0 0-.97 1.22l.93 4.21A2 2 0 0 0 3.91 14h1.6l-.13.17q-.25.4-.34.83H3.91a3 3 0 0 1-2.93-2.35L.04 8.43 0 8.16v-.32A2 2 0 0 1 2 6h3.5q-.26.35-.4.78"/></svg>