<svg xmlns="http://www.w3.org/2000/svg" xmlns:xlink="http://www.w3.org/1999/xlink" viewBox="0 0 16 16"><defs><linearGradient id="b" x1="50%" x2="50%" y1="97.96%" y2="50%"><stop offset="0%" stop-color="#22c55e"/><stop offset="60.03%" stop-color="#22c55e"/><stop offset="100%" stop-color="#22c55e" stop-opacity="0"/></linearGradient><linearGradient id="c" x1="1.59%" x2="50%" y1="50%" y2="50%"><stop offset="0%" stop-color="#eab308"/><stop offset="39.96%" stop-color="#eab308"/><stop offset="100%" stop-color="#eab308" stop-opacity="0"/></linearGradient><linearGradient id="d" x1="50%" x2="50%" y1="1.54%" y2="50%"><stop offset="0%" stop-color="#f43f5e"/><stop offset="59.65%" stop-color="#f43f5e"/><stop offset="100%" stop-color="#f43f5e" stop-opacity="0"/></linearGradient><linearGradient id="e" x1="98.75%" x2="37.78%" y1="50%" y2="50%"><stop offset="0%" stop-color="#3b82f6"/><stop offset="68.76%" stop-color="#3b82f6"/><stop offset="100%" stop-color="#3b82f6" stop-opacity="0"/></linearGradient><path id="a" d="M12.8 9.2a6.4 6.4 0 0 0 2.67 1.42c.37.11.37.65 0 .76q-1.8.55-2.67 1.42a6.4 6.4 0 0 0-1.42 2.66c-.11.38-.65.38-.76 0A6.4 6.4 0 0 0 9.2 12.8a6.4 6.4 0 0 0-2.66-1.42c-.38-.11-.38-.65 0-.76A6.4 6.4 0 0 0 9.2 9.2a6.4 6.4 0 0 0 1.42-2.67c.11-.37.65-.37.76 0q.55 1.8 1.42 2.67"/><path id="f" d="M9.5 3H13a2 2 0 0 1 2 2h-2.25c-.92-1-2.58-1-3.5 0H1V4a3 3 0 0 1 3-3h1.5C8 1 8 3 9.5 3"/></defs><use xlink:href="#a" fill="#3b82f6" fill-rule="evenodd"/><use xlink:href="#a" fill="url(#b)" fill-rule="evenodd"/><use xlink:href="#a" fill="url(#c)" fill-rule="evenodd"/><use xlink:href="#a" fill="url(#d)" fill-rule="evenodd"/><use xlink:href="#a" fill="url(#e)" fill-rule="evenodd"/><use xlink:href="#a" fill="#0f172a" fill-opacity="0.1" fill-rule="evenodd"/><use xlink:href="#f" fill="#3b82f6" fill-opacity=".4" fill-rule="evenodd"/><use xlink:href="#f" fill="#0f172a" fill-opacity="0.1" fill-rule="evenodd"/><path fill="#3b82f6" fill-opacity=".8" fill-rule="evenodd" d="M2 6h6.69l.02-.05a5 5 0 0 1-.92 1.84 5 5 0 0 1-1.84.92c-2.27.7-2.25 3.9 0 4.58q1.36.43 1.84.92.26.27.51.79H3.9a3 3 0 0 1-2.92-2.35L.04 8.43 0 8.16v-.32A2 2 0 0 1 2 6m12 0a2 2 0 0 1 2 1.82v.35q0 .14-.04.26l-.05.23-.16-.05a5 5 0 0 1-1.4-.7l-.14-.12q-.47-.46-.9-1.79z"/><path fill="#0f172a" fill-opacity="0.1" d="M2 6h6.69l.02-.05q-.2.6-.4 1.05H1.98a1 1 0 0 0-.97 1.22l.93 4.21A2 2 0 0 0 3.91 14h3.62l.26.21q.26.27.51.79H3.9a3 3 0 0 1-2.92-2.35L.04 8.43 0 8.16v-.32A2 2 0 0 1 2 6m12 0a2 2 0 0 1 2 1.82v.35q0 .14-.04.26l-.05.23-.16-.05q-.45-.15-.78-.32l.01-.07A1 1 0 0 0 14.01 7h-.31a7 7 0 0 1-.39-1z"/></svg>