<svg xmlns="http://www.w3.org/2000/svg" xmlns:xlink="http://www.w3.org/1999/xlink" viewBox="0 0 16 16"><defs><path id="a" d="M11.5 7a1.25 1.25 0 0 1 .5 2.4v1.23l1.07-.62a1.25 1.25 0 1 1 .5.87l-1.07.62 1.07.62a1.25 1.25 0 1 1-.5.87L12 12.37v1.23a1.25 1.25 0 1 1-1 0v-1.23l-1.07.61a1.25 1.25 0 1 1-.5-.86l1.07-.62-1.07-.62a1.25 1.25 0 1 1 .5-.86l1.07.61V9.4a1.25 1.25 0 0 1 .5-2.4"/><path id="b" d="M9.5 3H13a2 2 0 0 1 2 2H1V4a3 3 0 0 1 3-3h1.5C8 1 8 3 9.5 3"/></defs><use xlink:href="#a" fill="#f97316" fill-rule="evenodd"/><use xlink:href="#a" fill="#0f172a" fill-opacity="0.1" fill-rule="evenodd"/><use xlink:href="#b" fill="#f97316" fill-opacity=".4" fill-rule="evenodd"/><use xlink:href="#b" fill="#0f172a" fill-opacity="0.1" fill-rule="evenodd"/><path fill="#f97316" fill-opacity=".8" fill-rule="evenodd" d="M8.69 6.63a3.24 3.24 0 0 0-2.82 4.87 3.2 3.2 0 0 0 .16 3.5H3.91a3 3 0 0 1-2.93-2.35L.04 8.43 0 8.16v-.32A2 2 0 0 1 2 6h7.16q-.27.29-.47.63M14 6a2 2 0 0 1 1.7.94q-.67-.3-1.4-.31a3 3 0 0 0-.47-.63z"/><path fill="#0f172a" fill-opacity="0.1" d="M8.69 6.63q-.8 0-1.52.37H1.99a1 1 0 0 0-.97 1.22l.93 4.21A2 2 0 0 0 3.91 14h1.64a3 3 0 0 0 .48 1H3.91a3 3 0 0 1-2.93-2.35L.04 8.43 0 8.16v-.32A2 2 0 0 1 2 6h7.16q-.27.29-.47.63M14 6a2 2 0 0 1 1.7.94q-.67-.3-1.4-.31a3 3 0 0 0-.47-.63z"/></svg>