<svg xmlns="http://www.w3.org/2000/svg" xmlns:xlink="http://www.w3.org/1999/xlink" viewBox="0 0 16 16"><defs><path id="a" d="M9.5 3H13a2 2 0 0 1 2 2h-.2a2.3 2.3 0 0 0-2.91-.7l-.89.44-.89-.45a2.3 2.3 0 0 0-2.9.7L1 5V4a3 3 0 0 1 3-3h1.5C8 1 8 3 9.5 3"/></defs><path fill="#22c55e" fill-rule="evenodd" d="m13.21 6.25.58 1.77q.05.14.2.19l1.76.58a.3.3 0 0 1 .17.42l-.84 1.65a.3.3 0 0 0 0 .28l.84 1.65a.3.3 0 0 1-.17.42l-1.77.58a.3.3 0 0 0-.19.2l-.58 1.76a.3.3 0 0 1-.42.17l-1.65-.84a.3.3 0 0 0-.28 0l-1.65.84a.3.3 0 0 1-.42-.17l-.58-1.77a.3.3 0 0 0-.2-.19l-1.76-.58a.3.3 0 0 1-.17-.42l.84-1.65a.3.3 0 0 0 0-.28l-.84-1.65a.3.3 0 0 1 .17-.42l1.77-.58A.3.3 0 0 0 8.2 8l.58-1.76a.3.3 0 0 1 .42-.17l1.65.84a.3.3 0 0 0 .28 0l1.65-.84a.3.3 0 0 1 .42.17M13 8.88a1 1 0 0 0-1.37.36l-1.05 1.78-.58-.68a1 1 0 0 0-1.52 1.3L10 13.4a1 1 0 0 0 1.62-.15l1.75-3A1 1 0 0 0 13 8.9"/><use xlink:href="#a" fill="#22c55e" fill-opacity=".4" fill-rule="evenodd"/><use xlink:href="#a" fill="#0f172a" fill-opacity="0.1" fill-rule="evenodd"/><path fill="#22c55e" fill-opacity=".8" fill-rule="evenodd" d="m6.76 6-.18.58-.95.3a2.3 2.3 0 0 0-1.34 3.23l.45.89-.45.89A2.3 2.3 0 0 0 5.35 15H3.9a3 3 0 0 1-2.93-2.35L.04 8.43 0 8.16v-.32A2 2 0 0 1 2 6z"/><path fill="#0f172a" fill-opacity="0.1" d="m6.76 6-.18.58-.95.3-.29.12H2a1 1 0 0 0-.97 1.22l.93 4.21A2 2 0 0 0 3.91 14h.4q.34.65 1.04 1H3.9a3 3 0 0 1-2.93-2.35L.04 8.43 0 8.16v-.32A2 2 0 0 1 2 6z"/></svg>