<svg xmlns="http://www.w3.org/2000/svg" xmlns:xlink="http://www.w3.org/1999/xlink" viewBox="0 0 16 16"><defs><path id="a" d="M14.5 7A1.5 1.5 0 1 1 13 8.34a3.5 3.5 0 1 0 2 3.16.5.5 0 1 1 1 0 4.5 4.5 0 1 1-2.56-4.06A1.5 1.5 0 0 1 14.5 7m-2.58 2.22 1 1.5A.5.5 0 0 1 13 11v2.5a.5.5 0 1 1-1 0V13h-1v.5a.5.5 0 1 1-1 0V11q0-.15.08-.28l1-1.5c.2-.3.64-.3.84 0m-.42 1.18-.5.75V12h1v-.85z"/><path id="b" d="M9.5 3H13a2 2 0 0 1 2 2H1V4a3 3 0 0 1 3-3h1.5C8 1 8 3 9.5 3"/></defs><use xlink:href="#a" fill="#8b5cf6" fill-rule="evenodd"/><use xlink:href="#a" fill="#0f172a" fill-opacity="0.1" fill-rule="evenodd"/><use xlink:href="#b" fill="#8b5cf6" fill-opacity=".4" fill-rule="evenodd"/><use xlink:href="#b" fill="#0f172a" fill-opacity="0.1" fill-rule="evenodd"/><path fill="#8b5cf6" fill-opacity=".8" fill-rule="evenodd" d="M5 11.5c0 1.29.38 2.5 1.02 3.5H3.91a3 3 0 0 1-2.93-2.35L.04 8.43 0 8.16v-.32A2 2 0 0 1 2 6h6.03A6.5 6.5 0 0 0 5 11.5"/><path fill="#0f172a" fill-opacity="0.1" d="M7.03 6.78 6.81 7H1.99a1 1 0 0 0-.97 1.22l.93 4.21A2 2 0 0 0 3.91 14H5.5q.21.53.52 1H3.91a3 3 0 0 1-2.93-2.35L.04 8.43 0 8.16v-.32A2 2 0 0 1 2 6h6.03q-.53.34-1 .78"/></svg>