<svg xmlns="http://www.w3.org/2000/svg" xmlns:xlink="http://www.w3.org/1999/xlink" viewBox="0 0 16 16"><defs><path id="a" d="M12 14h2v-3h-1.5a.5.5 0 0 1-.5-.5v-1c0-.28.22-.5.5-.5h3c.28 0 .5.22.5.5V14a2 2 0 1 1-4 0"/><path id="b" d="M10.5 9c.28 0 .5.22.5.5v1a.5.5 0 0 1-.5.5H10v3h.5c.28 0 .5.22.5.5v1a.5.5 0 0 1-.5.5h-3a.5.5 0 0 1-.5-.5v-1c0-.28.22-.5.5-.5H8v-3h-.5a.5.5 0 0 1-.5-.5v-1c0-.28.22-.5.5-.5z"/><path id="c" d="M9.5 3H12a3 3 0 0 1 3 3v1h-.17A3 3 0 0 0 12 5H4a3 3 0 0 0-3 3V4a3 3 0 0 1 3-3h1.5C8 1 8 3 9.5 3"/></defs><use xlink:href="#a" fill="#3b82f6" fill-rule="evenodd"/><use xlink:href="#a" fill="#0f172a" fill-opacity="0.1" fill-rule="evenodd"/><use xlink:href="#b" fill="#d946ef" fill-rule="evenodd"/><use xlink:href="#b" fill="#0f172a" fill-opacity="0.1" fill-rule="evenodd"/><use xlink:href="#c" fill="#d946ef" fill-opacity=".4" fill-rule="evenodd"/><use xlink:href="#c" fill="#0f172a" fill-opacity="0.1" fill-rule="evenodd"/><path fill="#d946ef" fill-opacity=".8" fill-rule="evenodd" d="M12 5a3 3 0 0 1 2.83 2H12.5q-.54 0-1 .2-.46-.2-1-.2h-3A2.5 2.5 0 0 0 5 9.5v1c0 .82.4 1.54 1 2-.6.46-1 1.18-1 2v.5H4a3 3 0 0 1-3-3V8a3 3 0 0 1 3-3z"/><path fill="#0f172a" fill-opacity="0.1" d="M12 5a3 3 0 0 1 2.83 2h-1.1A2 2 0 0 0 12 6H4a2 2 0 0 0-2 2v4c0 1.1.9 2 2 2h1.05q-.05.24-.05.5v.5H4a3 3 0 0 1-3-3V8a3 3 0 0 1 3-3z"/></svg>