<svg xmlns="http://www.w3.org/2000/svg" xmlns:xlink="http://www.w3.org/1999/xlink" viewBox="0 0 16 16"><defs><path id="a" d="M14.3 11.97 16 13l-5 3-5-3 1.7-1.03L11 14zM11 7l5 3-5 3-5-3z"/><path id="b" d="M9.5 3H13a2 2 0 0 1 2 2H1V4a3 3 0 0 1 3-3h1.5C8 1 8 3 9.5 3"/></defs><use xlink:href="#a" fill="#8b5cf6" fill-rule="evenodd"/><use xlink:href="#a" fill="#0f172a" fill-opacity="0.1" fill-rule="evenodd"/><use xlink:href="#b" fill="#8b5cf6" fill-opacity=".4" fill-rule="evenodd"/><use xlink:href="#b" fill="#0f172a" fill-opacity="0.1" fill-rule="evenodd"/><path fill="#8b5cf6" fill-opacity=".8" fill-rule="evenodd" d="M8.78 6 4.6 8.5a1.75 1.75 0 0 0 0 3 1.75 1.75 0 0 0 0 3l.84.5H3.9a3 3 0 0 1-2.93-2.35L.04 8.43 0 8.16v-.32A2 2 0 0 1 2 6zM14 6a2 2 0 0 1 1.97 1.65L13.22 6z"/><path fill="#0f172a" fill-opacity="0.1" d="M8.78 6 7.1 7H2a1 1 0 0 0-.97 1.22l.93 4.21A2 2 0 0 0 3.91 14h.17q.2.3.53.5l.84.5H3.9a3 3 0 0 1-2.93-2.35L.04 8.43 0 8.16v-.32A2 2 0 0 1 2 6zM14 6a2 2 0 0 1 1.97 1.65L13.22 6z"/></svg>