<svg xmlns="http://www.w3.org/2000/svg" xmlns:xlink="http://www.w3.org/1999/xlink" viewBox="0 0 16 16"><defs><path id="a" d="M11 8v7a1 1 0 0 1-1.7.7l-2-2a1 1 0 0 1 1.4-1.4l.3.29V8a1 1 0 1 1 2 0m2.7-.7 2 2a1 1 0 1 1-1.4 1.4l-.3-.29V15a1 1 0 0 1-2 0V8a1 1 0 0 1 1.7-.7"/><path id="b" d="M9.5 3H13a2 2 0 0 1 2 2H1V4a3 3 0 0 1 3-3h1.5C8 1 8 3 9.5 3"/></defs><use xlink:href="#a" fill="#22c55e" fill-rule="evenodd"/><use xlink:href="#a" fill="#0f172a" fill-opacity="0.1" fill-rule="evenodd"/><use xlink:href="#b" fill="#22c55e" fill-opacity=".4" fill-rule="evenodd"/><use xlink:href="#b" fill="#0f172a" fill-opacity="0.1" fill-rule="evenodd"/><path fill="#22c55e" fill-opacity=".8" fill-rule="evenodd" d="M7 8v2.17q-.63.22-1.12.7A3 3 0 0 0 5.76 15H3.91a3 3 0 0 1-2.93-2.35L.04 8.43 0 8.16v-.32A2 2 0 0 1 2 6h5.76A3 3 0 0 0 7 8"/><path fill="#0f172a" fill-opacity="0.1" d="M7.26 6.78 7.17 7H2a1 1 0 0 0-.97 1.22l.93 4.21A2 2 0 0 0 3.91 14h1.26q.2.54.6 1H3.9a3 3 0 0 1-2.93-2.35L.04 8.43 0 8.16v-.32A2 2 0 0 1 2 6h5.76a3 3 0 0 0-.5.78"/></svg>