<svg xmlns="http://www.w3.org/2000/svg" xmlns:xlink="http://www.w3.org/1999/xlink" viewBox="0 0 16 16"><defs><path id="a" d="M7 15s1.52-.8 3.04-.8l1.15-3.85q.08-.3.31-.31.23.01.31.3l1.15 3.86c1.8 0 3.04.8 3.04.8l-2.52-7.16c-.17-.5-.65-.84-1.18-.84h-1.6c-.53 0-1 .33-1.18.84z"/><path id="b" d="M9.5 3H12a3 3 0 0 1 3 3v.44A3.3 3.3 0 0 0 12.5 5H4a3 3 0 0 0-3 3V4a3 3 0 0 1 3-3h1.5C8 1 8 3 9.5 3"/></defs><use xlink:href="#a" fill="#8b5cf6" fill-rule="evenodd"/><use xlink:href="#a" fill="#0f172a" fill-opacity="0.1" fill-rule="evenodd"/><path fill="#f43f5e" fill-rule="evenodd" d="M10.93 14h1.14c.4 0 .63.45.41.78l-.56.85a.5.5 0 0 1-.84 0l-.56-.85a.5.5 0 0 1 .41-.78"/><use xlink:href="#b" fill="#8b5cf6" fill-opacity=".4" fill-rule="evenodd"/><use xlink:href="#b" fill="#0f172a" fill-opacity="0.1" fill-rule="evenodd"/><path fill="#8b5cf6" fill-opacity=".8" fill-rule="evenodd" d="M4 5h6.7c-1.38 0-2.61.87-3.07 2.17L5.06 14.5q-.1.26-.11.5H4a3 3 0 0 1-3-3V8a3 3 0 0 1 3-3"/><path fill="#0f172a" fill-opacity="0.1" d="M4 5h6.7c-.9 0-1.75.37-2.35 1H4a2 2 0 0 0-2 2v4c0 1.1.9 2 2 2h1.23l-.17.5q-.1.26-.11.5H4a3 3 0 0 1-3-3V8a3 3 0 0 1 3-3"/></svg>