<svg xmlns="http://www.w3.org/2000/svg" xmlns:xlink="http://www.w3.org/1999/xlink" viewBox="0 0 16 16"><defs><path id="a" d="M14 8a2 2 0 0 1 2 2v4a2 2 0 0 1-2 2h-4a2 2 0 0 1-2-2v-4c0-1.1.9-2 2-2zm-1.75 1h-.5a.75.75 0 0 0-.75.75v2q-.02.23-.25.25H9.63a.48.48 0 0 0-.3.86l2.51 2.02q.16.1.32 0l2.52-2.02a.48.48 0 0 0-.3-.86h-1.13a.25.25 0 0 1-.25-.25v-2a.75.75 0 0 0-.75-.75"/><path id="b" d="M9.5 3H13a2 2 0 0 1 2 2H1V4a3 3 0 0 1 3-3h1.5C8 1 8 3 9.5 3"/></defs><use xlink:href="#a" fill="#14b8a6" fill-rule="evenodd"/><use xlink:href="#a" fill="#0f172a" fill-opacity="0.1" fill-rule="evenodd"/><use xlink:href="#b" fill="#14b8a6" fill-opacity=".4" fill-rule="evenodd"/><use xlink:href="#b" fill="#0f172a" fill-opacity="0.1" fill-rule="evenodd"/><path fill="#14b8a6" fill-opacity=".8" fill-rule="evenodd" d="M2 6h8a4 4 0 0 0-4 4v4a4 4 0 0 0 .13 1H3.9a3 3 0 0 1-2.93-2.35L.04 8.43 0 8.16v-.32A2 2 0 0 1 2 6"/><path fill="#0f172a" fill-opacity="0.1" d="M2 6h8c-1.01 0-1.94.38-2.65 1H2a1 1 0 0 0-.97 1.22l.93 4.21A2 2 0 0 0 3.91 14H6a4 4 0 0 0 .13 1H3.9a3 3 0 0 1-2.93-2.35L.04 8.43 0 8.16v-.32A2 2 0 0 1 2 6"/></svg>