<svg xmlns="http://www.w3.org/2000/svg" xmlns:xlink="http://www.w3.org/1999/xlink" viewBox="0 0 16 16"><defs><path id="a" d="m14 14-.93 1.86a.3.3 0 0 1-.22.14H11.4a1 1 0 0 1-.7-.3l-3.3-3.3a1 1 0 0 1-.26-.95L8 8z"/><path id="b" d="m14 14 1.86-.93a.3.3 0 0 0 .14-.22V11.4a1 1 0 0 0-.3-.7l-3.3-3.3a1 1 0 0 0-.95-.26L8 8z"/><path id="c" d="M9.5 3H12a3 3 0 0 1 3 3v1.17L14.83 7A3 3 0 0 0 12 5H4a3 3 0 0 0-3 3V4a3 3 0 0 1 3-3h1.5C8 1 8 3 9.5 3"/></defs><use xlink:href="#a" fill="#14b8a6" fill-rule="evenodd"/><use xlink:href="#a" fill="#0f172a" fill-opacity="0.1" fill-rule="evenodd"/><use xlink:href="#b" fill="#3b82f6" fill-rule="evenodd"/><use xlink:href="#b" fill="#0f172a" fill-opacity="0.1" fill-rule="evenodd"/><use xlink:href="#c" fill="#14b8a6" fill-opacity=".4" fill-rule="evenodd"/><use xlink:href="#c" fill="#0f172a" fill-opacity="0.1" fill-rule="evenodd"/><path fill="#14b8a6" fill-opacity=".8" fill-rule="evenodd" d="M12 5a3 3 0 0 1 2.83 2L13.8 5.99a3 3 0 0 0-2.46-.86l-.2.03-.18.04-3.46.86a2 2 0 0 0-1.45 1.45l-.86 3.46a3 3 0 0 0 .79 2.84L7.17 15H4a3 3 0 0 1-3-3V8a3 3 0 0 1 3-3z"/><path fill="#0f172a" fill-opacity="0.1" d="M12 5a3 3 0 0 1 2.83 2L13.8 5.99a3 3 0 0 0-2.46-.86l-.2.03-.18.04-3.22.8H4a2 2 0 0 0-2 2v4c0 1.1.9 2 2 2h2.17l1 1H4a3 3 0 0 1-3-3V8a3 3 0 0 1 3-3z"/></svg>