<svg xmlns="http://www.w3.org/2000/svg" xmlns:xlink="http://www.w3.org/1999/xlink" viewBox="0 0 16 16"><defs><path id="a" d="M10 12v1h4.52a1.5 1.5 0 1 1-1.43 1H10.9a1.5 1.5 0 1 1-1.9-.91V8H7.5a.5.5 0 0 1 0-1h2c.28 0 .5.22.5.5V8h5.64c.17 0 .3.17.23.34l-1.19 3.17a.8.8 0 0 1-.7.49z"/><path id="b" d="M9.5 3H13a2 2 0 0 1 2 2H1V4a3 3 0 0 1 3-3h1.5C8 1 8 3 9.5 3"/></defs><use xlink:href="#a" fill="#eab308" fill-rule="evenodd"/><use xlink:href="#a" fill="#0f172a" fill-opacity="0.1" fill-rule="evenodd"/><use xlink:href="#b" fill="#eab308" fill-opacity=".4" fill-rule="evenodd"/><use xlink:href="#b" fill="#0f172a" fill-opacity="0.1" fill-rule="evenodd"/><path fill="#eab308" fill-opacity=".8" fill-rule="evenodd" d="M5 7.5c0 1.2.86 2.22 2 2.45v2.1A3.5 3.5 0 0 0 6.04 15H3.9a3 3 0 0 1-2.93-2.35L.04 8.43 0 8.16v-.32A2 2 0 0 1 2 6h3.5q-.48.64-.5 1.5"/><path fill="#0f172a" fill-opacity="0.1" d="M5.1 6.78 5.05 7H1.99a1 1 0 0 0-.97 1.22l.93 4.21A2 2 0 0 0 3.91 14h2.13a4 4 0 0 0 0 1H3.9a3 3 0 0 1-2.93-2.35L.04 8.43 0 8.16v-.32A2 2 0 0 1 2 6h3.5q-.26.35-.4.78"/></svg>