<svg xmlns="http://www.w3.org/2000/svg" xmlns:xlink="http://www.w3.org/1999/xlink" viewBox="0 0 16 16"><defs><path id="a" d="M14.5 13c.28 0 .5.22.5.5v.5h.5a.5.5 0 1 1 0 1H15v.5a.5.5 0 1 1-1 0V15h-.5a.5.5 0 1 1 0-1h.5v-.5c0-.28.22-.5.5-.5m-2.92-5.53.36 1.23a2 2 0 0 0 1.36 1.36l1.23.36a.6.6 0 0 1 0 1.16l-1.23.36a2 2 0 0 0-1.36 1.36l-.36 1.23a.6.6 0 0 1-1.16 0l-.36-1.23a2 2 0 0 0-1.36-1.36l-1.23-.36a.6.6 0 0 1 0-1.16l1.23-.36a2 2 0 0 0 1.36-1.36l.36-1.23a.6.6 0 0 1 1.16 0"/><path id="b" d="M9.5 3H12a3 3 0 0 1 3 3v2a3 3 0 0 0-3-3H4a3 3 0 0 0-3 3V4a3 3 0 0 1 3-3h1.5C8 1 8 3 9.5 3"/></defs><use xlink:href="#a" fill="#8b5cf6" fill-rule="evenodd"/><use xlink:href="#a" fill="#0f172a" fill-opacity="0.1" fill-rule="evenodd"/><use xlink:href="#b" fill="#8b5cf6" fill-opacity=".4" fill-rule="evenodd"/><use xlink:href="#b" fill="#0f172a" fill-opacity="0.1" fill-rule="evenodd"/><path fill="#8b5cf6" fill-opacity=".8" fill-rule="evenodd" d="M12 5a3 3 0 0 1 3 3v.48l-1.14-.34-.36-1.23c-.73-2.5-4.27-2.5-5 0l-.36 1.23-1.23.36c-2.5.73-2.5 4.27 0 5l1.23.36.34 1.14H4a3 3 0 0 1-3-3V8a3 3 0 0 1 3-3z"/><path fill="#0f172a" fill-opacity="0.1" d="M12 5a3 3 0 0 1 3 3v.48l-1-.3V8a2 2 0 0 0-.65-1.47c-.81-1.8-3.25-1.97-4.38-.53H4a2 2 0 0 0-2 2v4c0 1.1.9 2 2 2h4.19l.29 1H4a3 3 0 0 1-3-3V8a3 3 0 0 1 3-3z"/></svg>