<svg xmlns="http://www.w3.org/2000/svg" xmlns:xlink="http://www.w3.org/1999/xlink" viewBox="0 0 16 16"><defs><path id="b" d="M9.5 3H12a3 3 0 0 1 3 3v2a3 3 0 0 0-3-3H4a3 3 0 0 0-3 3V4a3 3 0 0 1 3-3h1.5C8 1 8 3 9.5 3"/><path id="a" d="M16 15a1 1 0 0 1-1 1h-2.5a1 1 0 0 1 0-2H15a1 1 0 0 1 1 1M9.7 7.3l3.5 3.5a1 1 0 0 1-.09 1.49l-4.5 3.5A1 1 0 1 1 7.4 14.2l3.6-2.8-2.7-2.7a1 1 0 0 1 1.42-1.42"/></defs><use fill="#3b82f6" href="#a"/><use fill="#0f172a" fill-opacity="0.1" href="#a"/><use xlink:href="#b" fill="#3b82f6" fill-opacity=".4" fill-rule="evenodd"/><use xlink:href="#b" fill="#0f172a" fill-opacity="0.1" fill-rule="evenodd"/><path fill="#3b82f6" fill-opacity=".8" fill-rule="evenodd" d="M12 5a3 3 0 0 1 3 3v1.84q-.15-.25-.38-.46l-3.5-3.5a3 3 0 0 0-4.24 4.24l1.1 1.1-1.82 1.41A3 3 0 0 0 5 15H4a3 3 0 0 1-3-3V8a3 3 0 0 1 3-3z"/><path fill="#0f172a" fill-opacity="0.1" d="M12 5a3 3 0 0 1 3 3v1.84q-.15-.25-.38-.46L14 8.76V8a2 2 0 0 0-2-2h-.76l-.12-.12a3 3 0 0 0-4.24 0L6.76 6H4a2 2 0 0 0-2 2v4c0 1.1.9 2 2 2h1.17Q5 14.48 5 15H4a3 3 0 0 1-3-3V8a3 3 0 0 1 3-3z"/></svg>