<svg xmlns="http://www.w3.org/2000/svg" xmlns:xlink="http://www.w3.org/1999/xlink" viewBox="0 0 16 16"><defs><path id="a" d="M14 12v3a1 1 0 0 1-1 1h-1v-1.5a1.5 1.5 0 0 0-3 0V16H8a1 1 0 0 1-1-1v-3z"/><path id="b" d="M8.05 8h4.9a1 1 0 0 1 .84.47l1.73 2.77a.5.5 0 0 1-.42.76H5.9a.5.5 0 0 1-.42-.76L7.2 8.47A1 1 0 0 1 8.05 8"/><path id="c" d="M9.5 3H12a3 3 0 0 1 3 3v.81a3 3 0 0 0-.4-.32A3 3 0 0 0 12 5H4a3 3 0 0 0-3 3V4a3 3 0 0 1 3-3h1.5C8 1 8 3 9.5 3"/></defs><use xlink:href="#a" fill="#8b5cf6" fill-rule="evenodd"/><use xlink:href="#a" fill="#0f172a" fill-opacity="0.1" fill-rule="evenodd"/><use xlink:href="#b" fill="#d946ef" fill-rule="evenodd"/><use xlink:href="#b" fill="#0f172a" fill-opacity="0.1" fill-rule="evenodd"/><use xlink:href="#c" fill="#d946ef" fill-opacity=".4" fill-rule="evenodd"/><use xlink:href="#c" fill="#0f172a" fill-opacity="0.1" fill-rule="evenodd"/><path fill="#d946ef" fill-opacity=".8" fill-rule="evenodd" d="M5 13.83V15H4a3 3 0 0 1-3-3V8a3 3 0 0 1 3-3h8a3 3 0 0 1 2.6 1.5 3 3 0 0 0-1.46-.5H8.05a3 3 0 0 0-2.54 1.41l-1.73 2.77A2.5 2.5 0 0 0 5 13.83"/><path fill="#0f172a" fill-opacity="0.1" d="M13.14 6H4a2 2 0 0 0-2 2v4c0 1.1.9 2 2 2h1v1H4a3 3 0 0 1-3-3V8a3 3 0 0 1 3-3h8a3 3 0 0 1 2.6 1.5 3 3 0 0 0-1.46-.5"/></svg>