<svg xmlns="http://www.w3.org/2000/svg" xmlns:xlink="http://www.w3.org/1999/xlink" viewBox="0 0 16 16"><defs><path id="a" d="m12.44 8.45 1.13 2.58.98-2.55a.75.75 0 1 1 1.4.54l-2.5 6.5a.75.75 0 0 1-1.4-.54l.75-1.95-1.74-3.98a.75.75 0 0 1 1.38-.6M9.62 9.84l-.09-.06q-.34-.27-.78-.28a1.25 1.25 0 1 0 .78 2.23.75.75 0 1 1 .94 1.17A2.74 2.74 0 0 1 6 10.75a2.75 2.75 0 0 1 4.47-2.14.75.75 0 0 1-.85 1.23"/><path id="b" d="M9.5 3H12a3 3 0 0 1 3 3v.01q-.33.03-.64.14A3 3 0 0 0 12 5H4a3 3 0 0 0-3 3V4a3 3 0 0 1 3-3h1.5C8 1 8 3 9.5 3"/></defs><use xlink:href="#a" fill="#22c55e" fill-rule="evenodd"/><use xlink:href="#a" fill="#0f172a" fill-opacity="0.1" fill-rule="evenodd"/><use xlink:href="#b" fill="#22c55e" fill-opacity=".4" fill-rule="evenodd"/><use xlink:href="#b" fill="#0f172a" fill-opacity="0.1" fill-rule="evenodd"/><path fill="#22c55e" fill-opacity=".8" fill-rule="evenodd" d="M12 5a3 3 0 0 1 2.36 1.15q-.47.16-.86.48a2.7 2.7 0 0 0-3.04-.3A4.75 4.75 0 0 0 6.63 15H4a3 3 0 0 1-3-3V8a3 3 0 0 1 3-3z"/><path fill="#0f172a" fill-opacity="0.1" d="M12 6H4a2 2 0 0 0-2 2v4c0 1.1.9 2 2 2h1.29q.57.61 1.34 1H4a3 3 0 0 1-3-3V8a3 3 0 0 1 3-3h8a3 3 0 0 1 2.36 1.15q-.47.16-.86.48l-.19-.14A2 2 0 0 0 12 6"/></svg>