<svg xmlns="http://www.w3.org/2000/svg" xmlns:xlink="http://www.w3.org/1999/xlink" viewBox="0 0 16 16"><defs><path id="a" d="M12.5 7A2.5 2.5 0 0 1 15 9.5v.5a1 1 0 0 1 1 1v4a1 1 0 0 1-1 1h-5a1 1 0 0 1-1-1v-4a1 1 0 0 1 1-1v-.5A2.5 2.5 0 0 1 12.5 7m0 1c-.83 0-1.5.67-1.5 1.5v.5h3v-.5c0-.83-.67-1.5-1.5-1.5m0 6a1 1 0 1 0 0-2 1 1 0 0 0 0 2"/><path id="b" d="M9.5 3H12a3 3 0 0 1 2.99 2.75A4.5 4.5 0 0 0 12.22 5H4a3 3 0 0 0-3 3V4a3 3 0 0 1 3-3h1.5C8 1 8 3 9.5 3"/></defs><use xlink:href="#a" fill="#f43f5e" fill-rule="evenodd"/><use xlink:href="#a" fill="#0f172a" fill-opacity="0.1" fill-rule="evenodd"/><use xlink:href="#b" fill="#f43f5e" fill-opacity=".4" fill-rule="evenodd"/><use xlink:href="#b" fill="#0f172a" fill-opacity="0.1" fill-rule="evenodd"/><path fill="#f43f5e" fill-opacity=".8" fill-rule="evenodd" d="M7 11v4H4a3 3 0 0 1-3-3V8a3 3 0 0 1 3-3h8.22a4.5 4.5 0 0 0-4.14 3.7A3 3 0 0 0 7 11"/><path fill="#0f172a" fill-opacity="0.1" d="M4 14h3v1H4a3 3 0 0 1-3-3V8a3 3 0 0 1 3-3h8.22a4.6 4.6 0 0 0-2.55 1H4a2 2 0 0 0-2 2v4c0 1.1.9 2 2 2"/></svg>