<svg xmlns="http://www.w3.org/2000/svg" xmlns:xlink="http://www.w3.org/1999/xlink" viewBox="0 0 16 16"><defs><path id="a" d="M12.72 15.38c-.37.65-1.05.83-1.7.46-.65-.38-.62-.93-1.27-1.3-.65-.38-1.12-.08-1.77-.45-.65-.38-.83-1.06-.45-1.7.37-.66 2.08-1.12 2.89-1.52.9-.44 2.1.27 2.16 1.26.06.9.52 2.6.14 3.25M9 8.6a.9.9 0 0 1 .32 1.2l-.25.43a.88.88 0 0 1-1.52-.87l.25-.43A.9.9 0 0 1 9 8.6m6.27 3.63c.42.24.57.78.32 1.2l-.25.43a.87.87 0 0 1-1.51-.88l.25-.43a.87.87 0 0 1 1.2-.32m-2.95-4.88c.42.24.56.78.32 1.2L12 9.62a.87.87 0 0 1-1.51-.88l.62-1.08a.9.9 0 0 1 1.2-.32m2.38 1.37c.42.25.56.78.32 1.2L14.4 11a.88.88 0 0 1-1.52-.87l.63-1.09a.87.87 0 0 1 1.2-.32"/><path id="b" d="M9.5 3H12a3 3 0 0 1 3 3v.7l-.33-.06A3 3 0 0 0 12 5H4a3 3 0 0 0-3 3V4a3 3 0 0 1 3-3h1.5C8 1 8 3 9.5 3"/></defs><use xlink:href="#a" fill="#64748b" fill-rule="evenodd"/><use xlink:href="#a" fill="#0f172a" fill-opacity="0.1" fill-rule="evenodd"/><use xlink:href="#b" fill="#64748b" fill-opacity=".4" fill-rule="evenodd"/><use xlink:href="#b" fill="#0f172a" fill-opacity="0.1" fill-rule="evenodd"/><path fill="#64748b" fill-opacity=".8" fill-rule="evenodd" d="M12 5a3 3 0 0 1 2.67 1.64l-.34-.03q-.37-.6-1.02-1a2.87 2.87 0 0 0-3.9 1.01 2.9 2.9 0 0 0-3.35 1.3l-.25.44c-.55.94-.5 2.07.04 2.94l-.06.08A3.2 3.2 0 0 0 6.02 15H4a3 3 0 0 1-3-3V8a3 3 0 0 1 3-3z"/><path fill="#0f172a" fill-opacity="0.1" d="M12 5a3 3 0 0 1 2.67 1.64l-.34-.03q-.37-.6-1.02-1A2.9 2.9 0 0 0 9.9 6H4a2 2 0 0 0-2 2v4c0 1.1.9 2 2 2h1.48q.18.54.54 1H4a3 3 0 0 1-3-3V8a3 3 0 0 1 3-3z"/></svg>