<svg xmlns="http://www.w3.org/2000/svg" xmlns:xlink="http://www.w3.org/1999/xlink" viewBox="0 0 16 16"><defs><path id="b" d="M9.5 3H13a2 2 0 0 1 2 2H1V4a3 3 0 0 1 3-3h1.5C8 1 8 3 9.5 3"/><path id="a" d="M15.5 8.14a1 1 0 0 1 .36 1.36l-3.5 6a1 1 0 0 1-1.63.14l-2.5-3a1 1 0 0 1 1.54-1.28l1.58 1.9 2.79-4.76a1 1 0 0 1 1.36-.36"/></defs><use fill="#14b8a6" href="#a"/><use fill="#0f172a" fill-opacity="0.1" href="#a"/><use xlink:href="#b" fill="#14b8a6" fill-opacity=".4" fill-rule="evenodd"/><use xlink:href="#b" fill="#0f172a" fill-opacity="0.1" fill-rule="evenodd"/><path fill="#14b8a6" fill-opacity=".8" fill-rule="evenodd" d="M14 6q.24 0 .46.05a3 3 0 0 0-2.05 1.44L11.05 9.8a3 3 0 0 0-4.35 4.11L7.6 15H3.9a3 3 0 0 1-2.92-2.35L.04 8.43 0 8.16v-.32A2 2 0 0 1 2 6z"/><path fill="#0f172a" fill-opacity="0.1" d="M14 6q.24 0 .46.05a3 3 0 0 0-1.7.95H2a1 1 0 0 0-.97 1.22l.93 4.21A2 2 0 0 0 3.91 14h2.85l.83 1H3.91a3 3 0 0 1-2.93-2.35L.04 8.43 0 8.16v-.32A2 2 0 0 1 2 6z"/></svg>