<svg xmlns="http://www.w3.org/2000/svg" xmlns:xlink="http://www.w3.org/1999/xlink" viewBox="0 0 16 16"><defs><path id="a" d="M10.18 15.34c.84-1.64.81-2.82.46-3.65a3.5 3.5 0 0 0-1.41-1.56l-.05.12-1.12 2.43a.65.65 0 0 0 .13.74L10 15.2q.09.08.2.13"/><path id="b" d="M12.45 12.01q.34.03.66.15c.69.25 1.31.8 1.83 1.88l.1-.18q.48-.68.91-1.38a.3.3 0 0 0-.02-.37 7 7 0 0 1-.88-1.4 5 5 0 0 1-.27-1.82.7.7 0 0 0-.16-.44l-1.78-2.2-.03-.03q.18.52.04 1.06-.13.42-.36.8l-.14.28q-.35.65-.4 1.39c-.02.57.1 1.3.5 2.26"/><path id="c" d="M12.45 12.01a5 5 0 0 1-.5-2.26q.05-.74.4-1.39l.14-.27q.24-.4.36-.81.14-.54-.04-1.06a.7.7 0 0 0-.97-.04L9.7 8.03q-.18.16-.22.4l-.25 1.65-.01.05c.48.3 1.08.79 1.4 1.56q.12.24.17.49a5 5 0 0 1 1.65-.17"/><path id="d" d="M14.55 15.29q.07-.66.39-1.25c-.52-1.07-1.14-1.63-1.83-1.88a4 4 0 0 0-2.31.01c.18.8.07 1.83-.62 3.17q.12.06.26.07l1.08.08c.58.03 1.46.33 2.04.49.46.12.92-.23.99-.7"/><path id="e" d="M9.5 3H12a3 3 0 0 1 2.99 2.73l-.6-.73-.01-.02-.02-.02-.01-.02h-.01l-.03-.04-.04-.04a2.7 2.7 0 0 0-3.75-.19l-.38.33H4a3 3 0 0 0-3 3V4a3 3 0 0 1 3-3h1.5C8 1 8 3 9.5 3"/></defs><use xlink:href="#a" fill="#8b5cf6" fill-opacity=".6" fill-rule="evenodd"/><use xlink:href="#a" fill="#0f172a" fill-opacity="0.1" fill-rule="evenodd"/><use xlink:href="#b" fill="#8b5cf6" fill-opacity=".8" fill-rule="evenodd"/><use xlink:href="#b" fill="#0f172a" fill-opacity="0.1" fill-rule="evenodd"/><use xlink:href="#c" fill="#8b5cf6" fill-rule="evenodd"/><use xlink:href="#c" fill="#0f172a" fill-opacity="0.1" fill-rule="evenodd"/><use xlink:href="#d" fill="#8b5cf6" fill-opacity=".4" fill-rule="evenodd"/><use xlink:href="#d" fill="#0f172a" fill-opacity="0.1" fill-rule="evenodd"/><use xlink:href="#e" fill="#8b5cf6" fill-opacity=".4" fill-rule="evenodd"/><use xlink:href="#e" fill="#0f172a" fill-opacity="0.1" fill-rule="evenodd"/><path fill="#8b5cf6" fill-opacity=".8" fill-rule="evenodd" d="M10.14 5 8.4 6.52c-.47.41-.79.98-.88 1.6l-.23 1.46-1.04 2.26c-.47 1-.26 2.2.53 3l.17.16H4a3 3 0 0 1-3-3V8a3 3 0 0 1 3-3z"/><path fill="#0f172a" fill-opacity="0.1" d="M10.14 5 9 6H4a2 2 0 0 0-2 2v4c0 1.1.9 2 2 2h2.22q.2.46.56.83l.17.17H4a3 3 0 0 1-3-3V8a3 3 0 0 1 3-3z"/></svg>