<svg xmlns="http://www.w3.org/2000/svg" xmlns:xlink="http://www.w3.org/1999/xlink" viewBox="0 0 16 16"><defs><path id="a" d="M9 8.5q1.14 0 2.06.57a4.5 4.5 0 0 0-1.52 6.48 4.5 4.5 0 0 1-1.5-6.94q.47-.1.96-.11"/><path id="b" d="M10.15 15.17a4 4 0 0 1-.53-2.07 4.5 4.5 0 0 0 6.37-1.93 4.5 4.5 0 0 1-5.26 4.76q-.33-.33-.58-.76"/><path id="c" d="M15.35 10.83q-.59.99-1.52 1.5a4.5 4.5 0 0 0-4.86-4.55 4.5 4.5 0 0 1 6.76 2.17q-.15.46-.38.88"/><path id="d" d="M9.5 3H13a2 2 0 0 1 2 2H1V4a3 3 0 0 1 3-3h1.5C8 1 8 3 9.5 3"/></defs><use xlink:href="#a" fill="#8b5cf6" fill-rule="evenodd"/><use xlink:href="#a" fill="#0f172a" fill-opacity="0.1" fill-rule="evenodd"/><use xlink:href="#b" fill="#eab308" fill-rule="evenodd"/><use xlink:href="#b" fill="#0f172a" fill-opacity="0.1" fill-rule="evenodd"/><use xlink:href="#c" fill="#f43f5e" fill-rule="evenodd"/><use xlink:href="#c" fill="#0f172a" fill-opacity="0.1" fill-rule="evenodd"/><use xlink:href="#d" fill="#8b5cf6" fill-opacity=".4" fill-rule="evenodd"/><use xlink:href="#d" fill="#0f172a" fill-opacity="0.1" fill-rule="evenodd"/><path fill="#8b5cf6" fill-opacity=".8" fill-rule="evenodd" d="M5 11.5c0 1.29.38 2.5 1.02 3.5H3.91a3 3 0 0 1-2.93-2.35L.04 8.43 0 8.16v-.32A2 2 0 0 1 2 6h6.03A6.5 6.5 0 0 0 5 11.5"/><path fill="#0f172a" fill-opacity="0.1" d="M6.8 7H2a1 1 0 0 0-.98 1.22l.93 4.21A2 2 0 0 0 3.91 14H5.5q.21.53.52 1H3.91a3 3 0 0 1-2.93-2.35L.04 8.43 0 8.16v-.32A2 2 0 0 1 2 6h6.03q-.67.42-1.22 1"/></svg>