<svg xmlns="http://www.w3.org/2000/svg" xmlns:xlink="http://www.w3.org/1999/xlink" viewBox="0 0 16 16"><defs><path id="a" d="m13.85 10.5.07.04c1.73 1 2.59 2.88 1.77 4.29-.53.92-1.5 1.25-2.93 1.25-.4 0-.72-.3-.75-.69l-.14.09c-1.71.98-3.74.76-4.56-.65-.6-1.02-.31-2.31.6-3.33.2-.23.5-.3.77-.23l-.02-.31C8.66 9 9.86 7.5 11.5 7.5c1.18 0 2.16.89 2.6 2.17.1.32 0 .65-.25.84m-4.82 1.98c-.52.59-.65 1.2-.42 1.6.34.6 1.45.71 2.52.1q.59-.37 1.15-1.66a.75.75 0 0 1 1.37.62 8 8 0 0 1-.8 1.44h-.1c.96 0 1.45-.17 1.64-.5.34-.58-.13-1.62-1.21-2.24a4 4 0 0 0-2.02-.35A.75.75 0 1 1 11 10c.5-.05 1.1-.02 1.66.1l.02.06C12.43 9.43 11.96 9 11.5 9c-.73 0-1.34.77-1.34 1.96 0 .48.43 1.41.9 2.05a.75.75 0 0 1-1.21.89q-.48-.66-.82-1.42"/><path id="b" d="M9.5 3H13a2 2 0 0 1 2 2H1V4a3 3 0 0 1 3-3h1.5C8 1 8 3 9.5 3"/></defs><use xlink:href="#a" fill="#8b5cf6" fill-rule="evenodd"/><use xlink:href="#a" fill="#0f172a" fill-opacity="0.1" fill-rule="evenodd"/><use xlink:href="#b" fill="#8b5cf6" fill-opacity=".4" fill-rule="evenodd"/><use xlink:href="#b" fill="#0f172a" fill-opacity="0.1" fill-rule="evenodd"/><path fill="#8b5cf6" fill-opacity=".8" fill-rule="evenodd" d="M6.75 9.84q-.18.14-.35.33A5 5 0 0 0 5.2 15H3.9a3 3 0 0 1-2.92-2.35L.04 8.43 0 8.16v-.32A2 2 0 0 1 2 6h7.4a5.3 5.3 0 0 0-2.65 3.84M14.01 6a2 2 0 0 1 2 1.83l-.01.33q0 .14-.04.27l-.07.31A5.2 5.2 0 0 0 13.52 6z"/><path fill="#0f172a" fill-opacity="0.1" d="M8.11 7H1.99a1 1 0 0 0-.97 1.22l.93 4.21A2 2 0 0 0 3.91 14H5q.03.5.2 1H3.9a3 3 0 0 1-2.93-2.35L.04 8.43 0 8.16v-.32A2 2 0 0 1 2 6h7.4q-.73.39-1.29 1m5.9-1a2 2 0 0 1 2 1.83l-.01.33q0 .14-.04.27l-.07.31A5.2 5.2 0 0 0 13.52 6z"/></svg>