<svg xmlns="http://www.w3.org/2000/svg" xmlns:xlink="http://www.w3.org/1999/xlink" viewBox="0 0 16 16"><defs><path id="a" d="M14 14h2v2h-2zm0-3h2v2h-2zm-3-3h2v2h-2zm0 3h2v2h-2z"/><path id="b" d="M8 11h2v2H8zm0 3h2v2H8zm3 0h2v2h-2zm-6 0h2v2H5z"/><path id="c" d="M9.5 3H12a3 3 0 0 1 3 3v2a3 3 0 0 0-3-3H4a3 3 0 0 0-3 3V4a3 3 0 0 1 3-3h1.5C8 1 8 3 9.5 3"/></defs><use xlink:href="#a" fill="#64748b" fill-opacity=".4" fill-rule="evenodd"/><use xlink:href="#a" fill="#0f172a" fill-opacity="0.1" fill-rule="evenodd"/><use xlink:href="#b" fill="#64748b" fill-rule="evenodd"/><use xlink:href="#b" fill="#0f172a" fill-opacity="0.1" fill-rule="evenodd"/><use xlink:href="#c" fill="#64748b" fill-opacity=".4" fill-rule="evenodd"/><use xlink:href="#c" fill="#0f172a" fill-opacity="0.1" fill-rule="evenodd"/><path fill="#64748b" fill-opacity=".8" fill-rule="evenodd" d="M15 7.82V8a2 2 0 0 0-2-2h-2a2 2 0 0 0-2 2v1H8a2 2 0 0 0-2 2v1H5a2 2 0 0 0-2 2v.83A3 3 0 0 1 1 12V8a3 3 0 0 1 3-3h8a3 3 0 0 1 3 2.82"/><path fill="#0f172a" fill-opacity="0.1" d="M15 7.82V8a2 2 0 0 0-2-2H4a2 2 0 0 0-2 2v4a2 2 0 0 0 1.02 1.74L3 14v.83A3 3 0 0 1 1 12V8a3 3 0 0 1 3-3h8a3 3 0 0 1 3 2.82"/></svg>