<svg xmlns="http://www.w3.org/2000/svg" xmlns:xlink="http://www.w3.org/1999/xlink" viewBox="0 0 16 16"><defs><path id="a" d="m15.7 8.57.06.2c.15.53.72 3.15-.7 5.72-.64 1.17-2.43 2.29-2.9.79-1.63 1.34-3.84.76-2.8-1.53l-.14.06c-1.43.53-1.6-.43-1.35-.98l.03-.06a5 5 0 0 0 .64-1.83c.11-.77.12-1.5.32-2.16.85-3.64 5.71-3.7 6.84-.21M12.5 8a.5.5 0 0 0-.5.5v1a.5.5 0 1 0 1 0v-1a.5.5 0 0 0-.5-.5m2 0a.5.5 0 0 0-.5.5v1a.5.5 0 1 0 1 0v-1a.5.5 0 0 0-.5-.5"/><path id="b" d="M9.5 3H12a3 3 0 0 1 2.6 1.51 5.6 5.6 0 0 0-5.51.5L4 5a3 3 0 0 0-3 3V4a3 3 0 0 1 3-3h1.5C8 1 8 3 9.5 3"/></defs><use xlink:href="#a" fill="#8b5cf6" fill-rule="evenodd"/><use xlink:href="#a" fill="#0f172a" fill-opacity="0.1" fill-rule="evenodd"/><use xlink:href="#b" fill="#8b5cf6" fill-opacity=".4" fill-rule="evenodd"/><use xlink:href="#b" fill="#0f172a" fill-opacity="0.1" fill-rule="evenodd"/><path fill="#8b5cf6" fill-opacity=".8" fill-rule="evenodd" d="m6.64 9.94-.08.7a3 3 0 0 1-.15.67l-.27.51v.01a2.9 2.9 0 0 0 .11 3l.13.17H4a3 3 0 0 1-3-3V8a3 3 0 0 1 3-3h5.09a5.6 5.6 0 0 0-2.14 3.2 8 8 0 0 0-.3 1.75"/><path fill="#0f172a" fill-opacity="0.1" d="M8.22 5.78 8.03 6H4a2 2 0 0 0-2 2v4c0 1.1.9 2 2 2h1.87q.1.44.38.83l.13.17H4a3 3 0 0 1-3-3V8a3 3 0 0 1 3-3h5.09q-.47.34-.87.78"/></svg>