<svg xmlns="http://www.w3.org/2000/svg" xmlns:xlink="http://www.w3.org/1999/xlink" viewBox="0 0 16 16"><defs><path id="a" d="M14.5 7c.83 0 1.5.67 1.5 1.5v4c0 .83-.67 1.5-1.5 1.5H13l-3 2v-2h-.5A1.5 1.5 0 0 1 8 12.5v-4C8 7.67 8.67 7 9.5 7zm-4 4a.5.5 0 1 0 0 1h2a.5.5 0 1 0 0-1zm3-2h-3a.5.5 0 1 0 0 1h3a.5.5 0 1 0 0-1"/><path id="b" d="M9.5 3H12a3 3 0 0 1 2.84 2.02L14.5 5H4a3 3 0 0 0-3 3V4a3 3 0 0 1 3-3h1.5C8 1 8 3 9.5 3"/></defs><use xlink:href="#a" fill="#3b82f6"/><use xlink:href="#a" fill="#0f172a" fill-opacity="0.1"/><use xlink:href="#b" fill="#3b82f6" fill-opacity=".4" fill-rule="evenodd"/><use xlink:href="#b" fill="#0f172a" fill-opacity="0.1" fill-rule="evenodd"/><path fill="#3b82f6" fill-opacity=".8" fill-rule="evenodd" d="M4 5h5.5A3.5 3.5 0 0 0 6 8.5v4c0 .98.4 1.87 1.05 2.5H4a3 3 0 0 1-3-3V8a3 3 0 0 1 3-3"/><path fill="#0f172a" fill-opacity="0.1" d="M4 5h5.5c-.95 0-1.82.38-2.45 1H4a2 2 0 0 0-2 2v4c0 1.1.9 2 2 2h2.34q.27.57.71 1H4a3 3 0 0 1-3-3V8a3 3 0 0 1 3-3"/></svg>