<svg xmlns="http://www.w3.org/2000/svg" xmlns:xlink="http://www.w3.org/1999/xlink" viewBox="0 0 16 16"><defs><path id="a" d="M11.5 7a4.5 4.5 0 1 1 0 9 4.5 4.5 0 0 1 0-9m-.7 7.7.04.05.04.04.02.01.06.04.02.01.05.03.03.02.07.03.03.01h.02l.03.02h.02l.04.01.03.01.06.01h.11l.03.01h.12l.02-.01.06-.01h.03l.03-.01.06-.02h.02l.09-.05h.01l.03-.02.05-.03h.02l.04-.03.13-.11-.1.08.1-.08 2.12-2.12a1 1 0 1 0-1.42-1.42l-.41.41V9.5a1 1 0 0 0-.88-1h-.12a1 1 0 0 0-1 1v2.09l-.41-.42a1 1 0 0 0-1.32-.08l-.1.08a1 1 0 0 0 0 1.42z"/><path id="b" d="M9.5 3H12a3 3 0 0 1 3 3v.02a7 7 0 0 0-1.97-.84A3 3 0 0 0 12 5H4a3 3 0 0 0-3 3V4a3 3 0 0 1 3-3h1.5C8 1 8 3 9.5 3"/></defs><use xlink:href="#a" fill="#22c55e" fill-rule="evenodd"/><use xlink:href="#a" fill="#0f172a" fill-opacity="0.1" fill-rule="evenodd"/><use xlink:href="#b" fill="#22c55e" fill-opacity=".4" fill-rule="evenodd"/><use xlink:href="#b" fill="#0f172a" fill-opacity="0.1" fill-rule="evenodd"/><path fill="#22c55e" fill-opacity=".8" fill-rule="evenodd" d="M4 5h7.5a6.5 6.5 0 0 0-5.48 10H4a3 3 0 0 1-3-3V8a3 3 0 0 1 3-3"/><path fill="#0f172a" fill-opacity="0.1" d="M4 5h7.5c-1.27 0-2.46.37-3.47 1H4a2 2 0 0 0-2 2v4c0 1.1.9 2 2 2h1.5q.21.53.52 1H4a3 3 0 0 1-3-3V8a3 3 0 0 1 3-3"/></svg>