<svg xmlns="http://www.w3.org/2000/svg" xmlns:xlink="http://www.w3.org/1999/xlink" viewBox="0 0 16 16"><defs><path id="a" d="m9.5 8.25-2.32 3.47a.5.5 0 0 0 0 .56l2.32 3.47a.6.6 0 0 0 1 0l2.32-3.47a.5.5 0 0 0 0-.56L10.5 8.25a.6.6 0 0 0-1 0"/><path id="c" d="M9.5 3H13a2 2 0 0 1 2 2H1V4a3 3 0 0 1 3-3h1.5C8 1 8 3 9.5 3"/><path id="b" d="M12.86 8.11a.75.75 0 0 0-.25 1.03L14.37 12l-1.76 2.86a.75.75 0 1 0 1.28.78l2-3.25a.8.8 0 0 0 0-.78l-2-3.25a.75.75 0 0 0-1.03-.25"/></defs><use xlink:href="#a" fill="#eab308" fill-rule="evenodd"/><use xlink:href="#a" fill="#0f172a" fill-opacity="0.1" fill-rule="evenodd"/><use fill="#f97316" href="#b"/><use fill="#0f172a" fill-opacity="0.1" href="#b"/><use xlink:href="#c" fill="#f97316" fill-opacity=".4" fill-rule="evenodd"/><use xlink:href="#c" fill="#0f172a" fill-opacity="0.1" fill-rule="evenodd"/><path fill="#f97316" fill-opacity=".8" fill-rule="evenodd" d="M2 6h7.7c-.62.07-1.22.36-1.66.87l-.2.27-2.32 3.47a2.5 2.5 0 0 0 0 2.78L6.6 15H3.9a3 3 0 0 1-2.92-2.35L.04 8.43 0 8.16v-.32A2 2 0 0 1 2 6m12 0a2 2 0 0 1 2 1.83v.14l-.4-.66A2.8 2.8 0 0 0 13.55 6h-.2a2.8 2.8 0 0 0-1.75.53q-.6-.46-1.32-.54z"/><path fill="#0f172a" fill-opacity="0.1" d="M2 6h7.7c-.62.07-1.22.36-1.66.87l-.1.13H2a1 1 0 0 0-.97 1.22l.93 4.21A2 2 0 0 0 3.91 14h2.02l.67 1H3.9a3 3 0 0 1-2.92-2.35L.04 8.43 0 8.16v-.32A2 2 0 0 1 2 6m12 0a2 2 0 0 1 2 1.83v.14l-.4-.66A2.8 2.8 0 0 0 13.55 6h-.2a2.8 2.8 0 0 0-1.75.53q-.6-.46-1.32-.54z"/></svg>