<svg xmlns="http://www.w3.org/2000/svg" xmlns:xlink="http://www.w3.org/1999/xlink" viewBox="0 0 16 16"><defs><path id="a" d="M15 8.5a.5.5 0 0 1-.5.5h-6a.5.5 0 0 1 0-1h6c.28 0 .5.22.5.5m0 6a.5.5 0 0 1-.5.5h-6a.5.5 0 1 1 0-1h6c.28 0 .5.22.5.5"/><path id="b" d="M12.24 11.62c-.34 2.04-.89 3.12-2.37 3.49a1.5 1.5 0 1 1-.18-1.53c.63-.26.85-.88 1.07-2.2.34-2.04.89-3.12 2.37-3.49a1.5 1.5 0 1 1 .18 1.53c-.63.26-.85.88-1.07 2.2"/><path id="c" d="M9.5 3H13a2 2 0 0 1 2 2H1V4a3 3 0 0 1 3-3h1.5C8 1 8 3 9.5 3"/></defs><use xlink:href="#a" fill="#64748b" fill-rule="evenodd"/><use xlink:href="#a" fill="#0f172a" fill-opacity="0.1" fill-rule="evenodd"/><use xlink:href="#b" fill="#84cc16" fill-rule="evenodd"/><use xlink:href="#b" fill="#0f172a" fill-opacity="0.1" fill-rule="evenodd"/><use xlink:href="#c" fill="#84cc16" fill-opacity=".4" fill-rule="evenodd"/><use xlink:href="#c" fill="#0f172a" fill-opacity="0.1" fill-rule="evenodd"/><path fill="#84cc16" fill-opacity=".8" fill-rule="evenodd" d="M2 6h6.5a2.5 2.5 0 1 0 0 5h.3v.01L8.5 11a3.5 3.5 0 0 0-3.46 4H3.9a3 3 0 0 1-2.93-2.35L.04 8.43 0 8.16v-.32A2 2 0 0 1 2 6"/><path fill="#0f172a" fill-opacity="0.1" d="M2 6h6.5c-.82 0-1.54.4-2 1H2a1 1 0 0 0-.98 1.22l.93 4.21A2 2 0 0 0 3.91 14h1.13a4 4 0 0 0 0 1H3.9a3 3 0 0 1-2.93-2.35L.04 8.43 0 8.16v-.32A2 2 0 0 1 2 6"/></svg>