<svg xmlns="http://www.w3.org/2000/svg" xmlns:xlink="http://www.w3.org/1999/xlink" viewBox="0 0 16 16"><defs><path id="b" d="M9.5 3H12a3 3 0 0 1 3 3h-.76C13.7 5.4 12.9 5 12 5H4a3 3 0 0 0-3 3V4a3 3 0 0 1 3-3h1.5C8 1 8 3 9.5 3"/><path id="a" d="M16 9a1 1 0 0 1-1 1h-.5q-.38-.01-.7.34-.52.52-.82 1.88C12.43 14.67 11.18 16 9.5 16H9a1 1 0 0 1 0-2h.5q.38.01.7-.34.52-.52.82-1.88C11.57 9.33 12.82 8 14.5 8h.5a1 1 0 0 1 1 1"/></defs><use fill="#14b8a6" href="#a"/><use fill="#0f172a" fill-opacity="0.1" href="#a"/><use xlink:href="#b" fill="#14b8a6" fill-opacity=".4" fill-rule="evenodd"/><use xlink:href="#b" fill="#0f172a" fill-opacity="0.1" fill-rule="evenodd"/><path fill="#14b8a6" fill-opacity=".8" fill-rule="evenodd" d="m9.16 11-.09.35q-.09.39-.19.66A3 3 0 0 0 6 15H4a3 3 0 0 1-3-3V8a3 3 0 0 1 3-3h8a3 3 0 0 1 2.24 1 5 5 0 0 0-3.37 1.6Q9.67 8.9 9.16 11"/><path fill="#0f172a" fill-opacity="0.1" d="M6 14.8v.2H4a3 3 0 0 1-3-3V8a3 3 0 0 1 3-3h8a3 3 0 0 1 2.24 1q-.66.04-1.28.25A2 2 0 0 0 12 6H4a2 2 0 0 0-2 2v4c0 1.1.9 2 2 2h2.17q-.13.38-.16.8"/></svg>