<svg xmlns="http://www.w3.org/2000/svg" xmlns:xlink="http://www.w3.org/1999/xlink" viewBox="0 0 16 16"><defs><path id="a" d="M14.5 12a1.5 1.5 0 1 0 0-3 1.5 1.5 0 0 0 0 3m-6-2H12v1H8.5a.5.5 0 1 1 0-1"/><path id="b" d="M9.5 13a1.5 1.5 0 1 0 0 3 1.5 1.5 0 0 0 0-3m6 2H12v-1h3.5a.5.5 0 1 1 0 1"/><path id="c" d="M9.5 3H12a3 3 0 0 1 3 3v1.04l-.16-.02A3 3 0 0 0 12 5H4a3 3 0 0 0-3 3V4a3 3 0 0 1 3-3h1.5C8 1 8 3 9.5 3"/></defs><use xlink:href="#a" fill="#64748b" fill-rule="evenodd"/><use xlink:href="#a" fill="#0f172a" fill-opacity="0.1" fill-rule="evenodd"/><use xlink:href="#b" fill="#eab308" fill-rule="evenodd"/><use xlink:href="#b" fill="#0f172a" fill-opacity="0.1" fill-rule="evenodd"/><use xlink:href="#c" fill="#64748b" fill-opacity=".4" fill-rule="evenodd"/><use xlink:href="#c" fill="#0f172a" fill-opacity="0.1" fill-rule="evenodd"/><path fill="#64748b" fill-opacity=".8" fill-rule="evenodd" d="M12 5a3 3 0 0 1 2.84 2.02L14.5 7c-.95 0-1.82.38-2.45 1H8.5a2.5 2.5 0 0 0-1.73 4.3 3.5 3.5 0 0 0-.73 2.7H4a3 3 0 0 1-3-3V8a3 3 0 0 1 3-3z"/><path fill="#0f172a" fill-opacity="0.1" d="M12 5a3 3 0 0 1 2.84 2.02 3 3 0 0 0-1.07.06A2 2 0 0 0 12 6H4a2 2 0 0 0-2 2v4c0 1.1.9 2 2 2h2.04a4 4 0 0 0 0 1H4a3 3 0 0 1-3-3V8a3 3 0 0 1 3-3z"/></svg>