<svg xmlns="http://www.w3.org/2000/svg" xmlns:xlink="http://www.w3.org/1999/xlink" viewBox="0 0 16 16"><defs><path id="a" d="M14 8a2 2 0 0 1 2 2v4a2 2 0 0 1-2 2h-4a2 2 0 0 1-2-2v-4c0-1.1.9-2 2-2zm-1 3a2 2 0 1 0 0 4 2 2 0 0 0 0-4m-3-2a1 1 0 1 0 0 2 1 1 0 0 0 0-2M7 6a1 1 0 1 1 0 2 1 1 0 0 1 0-2"/><path id="b" d="M9.5 3H13a2 2 0 0 1 2 2H9.23a3 3 0 0 0-4.47 0H1V4a3 3 0 0 1 3-3h1.5C8 1 8 3 9.5 3"/></defs><use xlink:href="#a" fill="#3b82f6" fill-rule="evenodd"/><use xlink:href="#a" fill="#0f172a" fill-opacity="0.1" fill-rule="evenodd"/><use xlink:href="#b" fill="#3b82f6" fill-opacity=".4" fill-rule="evenodd"/><use xlink:href="#b" fill="#0f172a" fill-opacity="0.1" fill-rule="evenodd"/><path fill="#3b82f6" fill-opacity=".8" fill-rule="evenodd" d="M6 9.83V14a4 4 0 0 0 .13 1H3.9a3 3 0 0 1-2.93-2.35L.04 8.43 0 8.16v-.32A2 2 0 0 1 2 6h2.17a3 3 0 0 0 1.84 3.83"/><path fill="#0f172a" fill-opacity="0.1" d="M4 7H2a1 1 0 0 0-.98 1.22l.93 4.21A2 2 0 0 0 3.91 14H6v.27a4 4 0 0 0 .13.73H3.9a3 3 0 0 1-2.93-2.35L.04 8.43 0 8.16v-.32A2 2 0 0 1 2 6h2.17A3 3 0 0 0 4 7"/></svg>