<svg xmlns="http://www.w3.org/2000/svg" xmlns:xlink="http://www.w3.org/1999/xlink" viewBox="0 0 16 16"><defs><path id="a" d="M10 15.5V12h-.13c-.21-.01-.45-.08-.87-.5V15c0 .5-.25 1-1 1s-1-.5-1-1v-.25c0-.14.11-.25.25-.25H8v-5A2.5 2.5 0 0 1 10.5 7C11.75 7 13 8 13 9c1.5 0 3 1 3 2.5v4a.5.5 0 0 1-.5.5h-1a.5.5 0 0 1-.5-.5v-1a.5.5 0 0 0-.5-.5h-1a.5.5 0 0 0-.5.5v1a.5.5 0 0 1-.5.5h-1a.5.5 0 0 1-.5-.5m.5-7a1 1 0 1 0 0 2 1 1 0 0 0 0-2"/><path id="b" d="M9.5 3H12a3 3 0 0 1 3 3v1.38l-.07-.03A3 3 0 0 0 12 5H4a3 3 0 0 0-3 3V4a3 3 0 0 1 3-3h1.5C8 1 8 3 9.5 3"/></defs><use xlink:href="#a" fill="#3b82f6" fill-rule="evenodd"/><use xlink:href="#a" fill="#0f172a" fill-opacity="0.1" fill-rule="evenodd"/><use xlink:href="#b" fill="#3b82f6" fill-opacity=".4" fill-rule="evenodd"/><use xlink:href="#b" fill="#0f172a" fill-opacity="0.1" fill-rule="evenodd"/><path fill="#3b82f6" fill-opacity=".8" fill-rule="evenodd" d="M5 14.75V15H4a3 3 0 0 1-3-3V8a3 3 0 0 1 3-3h6.5A4.5 4.5 0 0 0 6 9.5v3.38c-.6.4-1 1.09-1 1.87M12 5a3 3 0 0 1 2.93 2.35l-.45-.15A4.8 4.8 0 0 0 10.53 5z"/><path fill="#0f172a" fill-opacity="0.1" d="M5 14.75V15H4a3 3 0 0 1-3-3V8a3 3 0 0 1 3-3h6.5a4.5 4.5 0 0 0-2.83 1H4a2 2 0 0 0-2 2v4c0 1.1.9 2 2 2h1.13q-.12.35-.13.75M12 5a3 3 0 0 1 2.93 2.35l-.45-.15A4.8 4.8 0 0 0 10.53 5z"/></svg>