<svg xmlns="http://www.w3.org/2000/svg" xmlns:xlink="http://www.w3.org/1999/xlink" viewBox="0 0 16 16"><defs><path id="b" d="M9.5 3H12a3 3 0 0 1 3 3v.28l-1.49-.87-.01-.01a3 3 0 0 0-.9-.34h-.02l-.16-.03h-.04L12 5H4a3 3 0 0 0-3 3V4a3 3 0 0 1 3-3h1.5C8 1 8 3 9.5 3"/><path id="a" d="m12.5 7.14 3 1.75c.31.18.5.5.5.86v2.5a1 1 0 0 1-.5.86l-3 1.75a1 1 0 0 1-1 0L10 14v1a1 1 0 0 1-2 0V9.75a1 1 0 0 1 .5-.86l3-1.75a1 1 0 0 1 1 0M10 10.32v1.36l2 1.16 2-1.16v-1.36l-2-1.16z"/></defs><use fill="#f97316" href="#a"/><use fill="#0f172a" fill-opacity="0.1" href="#a"/><use xlink:href="#b" fill="#f97316" fill-opacity=".4" fill-rule="evenodd"/><use xlink:href="#b" fill="#0f172a" fill-opacity="0.1" fill-rule="evenodd"/><path fill="#f97316" fill-opacity=".8" fill-rule="evenodd" d="M6 9.75V15H4a3 3 0 0 1-3-3V8a3 3 0 0 1 3-3h8a3 3 0 0 0-1.32.3l-.2.1-3 1.76A3 3 0 0 0 6 9.75"/><path fill="#0f172a" fill-opacity="0.1" d="M4 14h2v1H4a3 3 0 0 1-3-3V8a3 3 0 0 1 3-3h8a3 3 0 0 0-1.32.3l-.2.1-1 .6H4a2 2 0 0 0-2 2v4c0 1.1.9 2 2 2"/></svg>