<svg xmlns="http://www.w3.org/2000/svg" xmlns:xlink="http://www.w3.org/1999/xlink" viewBox="0 0 16 16"><defs><path id="a" d="m8 10.76.35-.36a.75.75 0 0 1 1.06 1.06l-.35.36a1.5 1.5 0 1 0 2.12 2.12l.36-.35a.75.75 0 0 1 1.06 1.06l-.36.35A3 3 0 1 1 8 10.76m2.83-2.83a3 3 0 1 1 4.24 4.24l-.35.36a.75.75 0 0 1-1.06-1.07l.35-.35A1.5 1.5 0 1 0 11.89 9l-.35.35a.75.75 0 0 1-1.07-1.06zm.88 2.3a.75.75 0 0 1 1.06 1.06l-1.41 1.41a.75.75 0 0 1-1.06-1.06z"/><path id="b" d="M9.5 3H12a3 3 0 0 1 2.95 2.47 5 5 0 0 0-2.34-.4A3 3 0 0 0 12 5H4a3 3 0 0 0-3 3V4a3 3 0 0 1 3-3h1.5C8 1 8 3 9.5 3"/></defs><use xlink:href="#a" fill="#3b82f6" fill-rule="evenodd"/><use xlink:href="#a" fill="#0f172a" fill-opacity="0.1" fill-rule="evenodd"/><use xlink:href="#b" fill="#3b82f6" fill-opacity=".4" fill-rule="evenodd"/><use xlink:href="#b" fill="#0f172a" fill-opacity="0.1" fill-rule="evenodd"/><path fill="#3b82f6" fill-opacity=".8" fill-rule="evenodd" d="M12 5q.3 0 .6.06c-1 .07-1.98.44-2.8 1.11l-.39.34-.35.36q-.6.6-.74 1.37c-.5.1-.99.36-1.38.75l-.35.35a5 5 0 0 0-1 5.66H4a3 3 0 0 1-3-3V8a3 3 0 0 1 3-3z"/><path fill="#0f172a" fill-opacity="0.1" d="M12 5q.3 0 .6.06c-.9.06-1.8.38-2.58.94H4a2 2 0 0 0-2 2v4c0 1.1.9 2 2 2h1.25q.13.51.34 1H4a3 3 0 0 1-3-3V8a3 3 0 0 1 3-3z"/></svg>