<svg xmlns="http://www.w3.org/2000/svg" xmlns:xlink="http://www.w3.org/1999/xlink" viewBox="0 0 16 16"><defs><path id="a" d="M12.5 7c.83 0 1.5.67 1.5 1.5V9h1a1 1 0 0 1 1 1v1h-.5a1.5 1.5 0 0 0 0 3h.5v1a1 1 0 0 1-1 1h-5a1 1 0 0 1-1-1v-1h-.5A1.5 1.5 0 0 1 7 12.64v-.14c0-.83.67-1.5 1.5-1.5H9v-1a1 1 0 0 1 1-1h1v-.5c0-.78.6-1.42 1.36-1.5z"/><path id="b" d="M9.5 3H12a3 3 0 0 1 3 3v.05c-.59-.6-1.4-1-2.3-1.04L12.45 5H4a3 3 0 0 0-3 3V4a3 3 0 0 1 3-3h1.5C8 1 8 3 9.5 3"/></defs><use xlink:href="#a" fill="#22c55e" fill-rule="evenodd"/><use xlink:href="#a" fill="#0f172a" fill-opacity="0.1" fill-rule="evenodd"/><use xlink:href="#b" fill="#22c55e" fill-opacity=".4" fill-rule="evenodd"/><use xlink:href="#b" fill="#0f172a" fill-opacity="0.1" fill-rule="evenodd"/><path fill="#22c55e" fill-opacity=".8" fill-rule="evenodd" d="m12.23 5-.06.02A3.5 3.5 0 0 0 9.3 7.08 3 3 0 0 0 7.1 9.3 3.5 3.5 0 0 0 5 12.5v.24l.01.05v.04c.09.85.47 1.61 1.04 2.17H4a3 3 0 0 1-3-3V8a3 3 0 0 1 3-3z"/><path fill="#0f172a" fill-opacity="0.1" d="m12.23 5-.06.02c-.83.07-1.56.44-2.12.98H4a2 2 0 0 0-2 2v4c0 1.1.9 2 2 2h1.34q.27.57.71 1H4a3 3 0 0 1-3-3V8a3 3 0 0 1 3-3z"/></svg>