<svg xmlns="http://www.w3.org/2000/svg" xmlns:xlink="http://www.w3.org/1999/xlink" viewBox="0 0 16 16"><defs><path id="a" d="M9.5 8a1.5 1.5 0 0 1 1.48 1.75l1.15.95.38.34 2.26-1.87a.75.75 0 0 1 .96 1.16l-4.75 3.92.02.25a1.5 1.5 0 1 1-.98-1.4l1.32-1.1-1.32-1.1-.38.1H9.5a1.5 1.5 0 0 1 0-3m4.6 4.32 1.63 1.35a.75.75 0 0 1-.96 1.16l-1.85-1.53z"/><path id="b" d="M9.5 3H13a2 2 0 0 1 2 2H1V4a3 3 0 0 1 3-3h1.5C8 1 8 3 9.5 3"/></defs><use xlink:href="#a" fill="#f97316"/><use xlink:href="#a" fill="#0f172a" fill-opacity="0.1"/><use xlink:href="#b" fill="#f97316" fill-opacity=".4" fill-rule="evenodd"/><use xlink:href="#b" fill="#0f172a" fill-opacity="0.1" fill-rule="evenodd"/><path fill="#f97316" fill-opacity=".8" fill-rule="evenodd" d="M14 6a2 2 0 0 1 1.77 1.05 2.7 2.7 0 0 0-2.27.58l-.74.6A3.5 3.5 0 1 0 7.06 12a3.5 3.5 0 0 0-1.02 3H3.9a3 3 0 0 1-2.93-2.35L.04 8.43 0 8.16v-.32A2 2 0 0 1 2 6z"/><path fill="#0f172a" fill-opacity="0.1" d="M14 6a2 2 0 0 1 1.77 1.05 3 3 0 0 0-1.3.06A1 1 0 0 0 14 7h-2.06a3.5 3.5 0 0 0-4.9 0H2a1 1 0 0 0-.97 1.22l.93 4.21A2 2 0 0 0 3.91 14h2.13a4 4 0 0 0 0 1H3.9a3 3 0 0 1-2.93-2.35L.04 8.43 0 8.16v-.32A2 2 0 0 1 2 6z"/></svg>