<svg xmlns="http://www.w3.org/2000/svg" xmlns:xlink="http://www.w3.org/1999/xlink" viewBox="0 0 16 16"><defs><path id="a" d="M10.25 8c.53 0 .89.53.7 1.02l-2.1 5.48h1.4a.75.75 0 1 1 0 1.5h-2.5a.75.75 0 0 1-.7-1.02l2.1-5.48h-1.4a.75.75 0 0 1 0-1.5zm3.25 0a2.5 2.5 0 0 1 2.5 2.5v2h-3.5v1a1 1 0 0 0 2 0H16a2.5 2.5 0 1 1-5 0v-3A2.5 2.5 0 0 1 13.5 8m0 1.5a1 1 0 0 0-1 1v.5h2v-.5a1 1 0 0 0-1-1"/><path id="b" d="M9.5 3H12a3 3 0 0 1 3 3v.26a5 5 0 0 0-.7-.19A3 3 0 0 0 12 5H4a3 3 0 0 0-3 3V4a3 3 0 0 1 3-3h1.5C8 1 8 3 9.5 3"/></defs><use xlink:href="#a" fill="#3b82f6" fill-rule="evenodd"/><use xlink:href="#a" fill="#0f172a" fill-opacity="0.1" fill-rule="evenodd"/><use xlink:href="#b" fill="#3b82f6" fill-opacity=".4" fill-rule="evenodd"/><use xlink:href="#b" fill="#0f172a" fill-opacity="0.1" fill-rule="evenodd"/><path fill="#3b82f6" fill-opacity=".8" fill-rule="evenodd" d="M12 5a3 3 0 0 1 2.3 1.07 4.6 4.6 0 0 0-2.64.32q-.6-.38-1.41-.39h-2.5a2.75 2.75 0 0 0-1.36 5.14l-1.2 3.12q-.15.38-.18.74H4a3 3 0 0 1-3-3V8a3 3 0 0 1 3-3z"/><path fill="#0f172a" fill-opacity="0.1" d="M12 6H4a2 2 0 0 0-2 2v4c0 1.1.9 2 2 2h1.28l-.1.26q-.14.38-.17.74H4a3 3 0 0 1-3-3V8a3 3 0 0 1 3-3h8a3 3 0 0 1 2.3 1.07 5 5 0 0 0-1.7.02Q12.3 6 12 6"/></svg>