<svg xmlns="http://www.w3.org/2000/svg" xmlns:xlink="http://www.w3.org/1999/xlink" viewBox="0 0 16 16"><defs><path id="a" d="M12.5 8c.83 0 1.5.67 1.5 1.5v.5h.25c.97 0 1.75.78 1.75 1.75v2.5c0 .97-.78 1.75-1.75 1.75h-4.5C8.78 16 8 15.22 8 14.25v-2.5c0-.97.78-1.75 1.75-1.75H10v-.5c0-.83.67-1.5 1.5-1.5zm-1 1a.5.5 0 0 0-.5.5v.5h2v-.5a.5.5 0 0 0-.5-.5z"/><path id="b" d="M9.5 3H13a2 2 0 0 1 2 2H1V4a3 3 0 0 1 3-3h1.5C8 1 8 3 9.5 3"/></defs><use xlink:href="#a" fill="#f43f5e" fill-rule="evenodd"/><use xlink:href="#a" fill="#0f172a" fill-opacity="0.1" fill-rule="evenodd"/><use xlink:href="#b" fill="#f43f5e" fill-opacity=".4" fill-rule="evenodd"/><use xlink:href="#b" fill="#0f172a" fill-opacity="0.1" fill-rule="evenodd"/><path fill="#f43f5e" fill-opacity=".8" fill-rule="evenodd" d="M2 6h9.5a3.5 3.5 0 0 0-3.3 2.34c-1.3.58-2.2 1.9-2.2 3.41v2.5q0 .38.08.75H3.9a3 3 0 0 1-2.93-2.35L.04 8.43 0 8.16v-.32A2 2 0 0 1 2 6m13.96 2.42.04.02-.2-.1A3.5 3.5 0 0 0 12.53 6h1.48a2 2 0 0 1 2 1.84v.32z"/><path fill="#0f172a" fill-opacity="0.1" d="M2 6h9.5c-.95 0-1.82.38-2.45 1H2a1 1 0 0 0-.97 1.22l.93 4.21A2 2 0 0 0 3.91 14H6v.25q0 .38.08.75H3.9a3 3 0 0 1-2.93-2.35L.04 8.43 0 8.16v-.32A2 2 0 0 1 2 6m13.96 2.42.04.02-.2-.1A3.5 3.5 0 0 0 12.53 6h1.48a2 2 0 0 1 2 1.84v.32z"/></svg>