<svg xmlns="http://www.w3.org/2000/svg" xmlns:xlink="http://www.w3.org/1999/xlink" viewBox="0 0 16 16"><defs><path id="a" d="M16 9.5a.5.5 0 0 1-.5.5h-1.25a.25.25 0 0 0-.25.25V12h1.5a.5.5 0 1 1 0 1H14v1.75q.02.23.25.25h1.25a.5.5 0 1 1 0 1h-1.25c-.69 0-1.25-.56-1.25-1.25v-4.5c0-.69.56-1.25 1.25-1.25h1.25c.28 0 .5.22.5.5m-4 0v5.25c0 .69-.56 1.25-1.25 1.25h-.5C9.56 16 9 15.44 9 14.75V9.5a.5.5 0 0 1 1 0v5.25q.02.23.25.25h.5q.23-.02.25-.25V9.5a.5.5 0 1 1 1 0m-4 0a.5.5 0 0 1-.5.5h-1c-.22 0-.5.28-.5.5v4c0 .22.28.5.5.5h1a.5.5 0 1 1 0 1h-1c-.78 0-1.5-.72-1.5-1.5v-4C5 9.72 5.72 9 6.5 9h1c.28 0 .5.22.5.5"/><path id="b" d="M9.5 3H13a2 2 0 0 1 2 2H1V4a3 3 0 0 1 3-3h1.5C8 1 8 3 9.5 3"/></defs><use xlink:href="#a" fill="#3b82f6" fill-rule="evenodd"/><use xlink:href="#a" fill="#0f172a" fill-opacity="0.1" fill-rule="evenodd"/><use xlink:href="#b" fill="#3b82f6" fill-opacity=".4" fill-rule="evenodd"/><use xlink:href="#b" fill="#0f172a" fill-opacity="0.1" fill-rule="evenodd"/><path fill="#3b82f6" fill-opacity=".8" fill-rule="evenodd" d="M14 6a2 2 0 0 1 1.75 1.01L15.5 7h-1.25a3 3 0 0 0-1.47.35 2.5 2.5 0 0 0-2.28-.14 2.5 2.5 0 0 0-2 0Q8.04 7 7.5 7h-1A3.57 3.57 0 0 0 3 10.5v4q0 .19.02.37a3 3 0 0 1-2.04-2.22L.04 8.43 0 8.16v-.32A2 2 0 0 1 2 6z"/><path fill="#0f172a" fill-opacity="0.1" d="M14.25 7H2a1 1 0 0 0-.98 1.22l.93 4.21A2 2 0 0 0 3 13.78v.72q0 .19.02.37a3 3 0 0 1-2.04-2.22L.04 8.43 0 8.16v-.32A2 2 0 0 1 2 6h12a2 2 0 0 1 1.75 1.01L15.5 7z"/></svg>