<svg xmlns="http://www.w3.org/2000/svg" xmlns:xlink="http://www.w3.org/1999/xlink" viewBox="0 0 16 16"><defs><path id="a" d="M7 13h1v1h3v-1h1v1h3v-1h1v1.5c0 1-2 1.5-4.5 1.5S7 15.5 7 14.5zm8-5h1v4h-2v1h-1v-1h-3v1H9v-1H7V8h1l.5.5L9 8V7h2v1h1V7h2v1l.5.5zm-5 1a1 1 0 1 0 0 2 1 1 0 0 0 0-2m3 0a1 1 0 1 0 0 2 1 1 0 0 0 0-2"/><path id="b" d="M9.5 3H12a3 3 0 0 1 2.9 2.21A2 2 0 0 0 14 5H4a3 3 0 0 0-3 3V4a3 3 0 0 1 3-3h1.5C8 1 8 3 9.5 3"/></defs><use xlink:href="#a" fill="#3b82f6"/><use xlink:href="#a" fill="#0f172a" fill-opacity="0.1"/><use xlink:href="#b" fill="#3b82f6" fill-opacity=".4" fill-rule="evenodd"/><use xlink:href="#b" fill="#0f172a" fill-opacity="0.1" fill-rule="evenodd"/><path fill="#3b82f6" fill-opacity=".8" fill-rule="evenodd" d="M4 5h5a2 2 0 0 0-1.73 1H7a2 2 0 0 0-2 2v4q0 .26.07.5A2 2 0 0 0 5 13v1.5q0 .26.05.5H4a3 3 0 0 1-3-3V8a3 3 0 0 1 3-3"/><path fill="#0f172a" fill-opacity="0.1" d="M7.27 6H4a2 2 0 0 0-2 2v4c0 1.1.9 2 2 2h1v.5q0 .26.05.5H4a3 3 0 0 1-3-3V8a3 3 0 0 1 3-3h5a2 2 0 0 0-1.73 1"/></svg>