<svg xmlns="http://www.w3.org/2000/svg" xmlns:xlink="http://www.w3.org/1999/xlink" viewBox="0 0 16 16"><defs><path id="a" d="M12.5 7q1.75 0 2.25 1.5h.75a.5.5 0 0 1 .4.8l-.9 1.2c1 4-1.5 5.5-4 5.5H8.05a1 1 0 0 1-.84-1.53L10 10V9c0-.5.75-2 2.5-2M11 11l-2 3h.34c.9-.01 1.81-.1 2.41-1 .5-.75.25-2-.75-2m2-3a1 1 0 1 0 0 2 1 1 0 0 0 0-2"/><path id="b" d="M9.5 3H13a2 2 0 0 1 2 2H1V4a3 3 0 0 1 3-3h1.5C8 1 8 3 9.5 3"/></defs><use xlink:href="#a" fill="#eab308" fill-rule="evenodd"/><use xlink:href="#a" fill="#0f172a" fill-opacity="0.1" fill-rule="evenodd"/><use xlink:href="#b" fill="#eab308" fill-opacity=".4" fill-rule="evenodd"/><use xlink:href="#b" fill="#0f172a" fill-opacity="0.1" fill-rule="evenodd"/><path fill="#eab308" fill-opacity=".8" fill-rule="evenodd" d="M9.13 6.45A4 4 0 0 0 8 9v.43L5.51 13.4c-.32.5-.46 1.06-.46 1.59H3.9a3 3 0 0 1-2.93-2.35L.04 8.43 0 8.16v-.32A2 2 0 0 1 2 6h7.6q-.25.21-.48.45"/><path fill="#0f172a" fill-opacity="0.1" d="M9.13 6.45q-.24.26-.44.55H2a1 1 0 0 0-.97 1.22l.93 4.21A2 2 0 0 0 3.91 14h1.31q-.17.5-.17 1H3.9a3 3 0 0 1-2.93-2.35L.04 8.43 0 8.16v-.32A2 2 0 0 1 2 6h7.6q-.25.21-.48.45"/></svg>