<svg xmlns="http://www.w3.org/2000/svg" xmlns:xlink="http://www.w3.org/1999/xlink" viewBox="0 0 16 16"><defs><path id="a" d="M16 9.25v3.25c0 .83-.67 1.5-1.5 1.5h-1.25a.25.25 0 0 0-.25.25v.5q-.02.23-.25.25h-.5a.25.25 0 0 1-.25-.25v-4.5q.02-.23.25-.25h.5q.23.02.25.25v.5q.02.23.25.25h.5q.23-.02.25-.25v-1.5q.02-.23.25-.25h1.5q.23.02.25.25m-9 6.5V12.5c0-.83.67-1.5 1.5-1.5h1.25q.23-.02.25-.25v-.5q.02-.23.25-.25h.5q.23.02.25.25v4.5q-.02.23-.25.25h-.5a.25.25 0 0 1-.25-.25v-.5a.25.25 0 0 0-.25-.25h-.5a.25.25 0 0 0-.25.25v1.5q-.02.23-.25.25h-1.5a.25.25 0 0 1-.25-.25"/><path id="b" d="M9.5 3H13a2 2 0 0 1 2 2H1V4a3 3 0 0 1 3-3h1.5C8 1 8 3 9.5 3"/></defs><use xlink:href="#a" fill="#14b8a6" fill-rule="evenodd"/><use xlink:href="#a" fill="#0f172a" fill-opacity="0.1" fill-rule="evenodd"/><use xlink:href="#b" fill="#14b8a6" fill-opacity=".4" fill-rule="evenodd"/><use xlink:href="#b" fill="#0f172a" fill-opacity="0.1" fill-rule="evenodd"/><path fill="#14b8a6" fill-opacity=".8" fill-rule="evenodd" d="M14 6a2 2 0 0 1 1.74 1h-1.49c-.78 0-1.47.4-1.87 1h-.13q-.4 0-.75.13a2 2 0 0 0-.75-.13h-.5c-.78 0-1.47.4-1.87 1A3.5 3.5 0 0 0 5 12.5V15H3.9a3 3 0 0 1-2.92-2.35L.04 8.43 0 8.16v-.32A2 2 0 0 1 2 6z"/><path fill="#0f172a" fill-opacity="0.1" d="M14.25 7H2a1 1 0 0 0-.98 1.22l.93 4.21A2 2 0 0 0 3.91 14H5v1H3.9a3 3 0 0 1-2.92-2.35L.04 8.43 0 8.16v-.32A2 2 0 0 1 2 6h12a2 2 0 0 1 1.74 1z"/></svg>