<svg xmlns="http://www.w3.org/2000/svg" xmlns:xlink="http://www.w3.org/1999/xlink" viewBox="0 0 16 16"><defs><path id="a" d="M15.5 15a.5.5 0 1 1 0 1h-7a.5.5 0 1 1 0-1zm-6-5c.28 0 .5.22.5.5v3a.5.5 0 0 1-.5.5h-1a.5.5 0 0 1-.5-.5v-3c0-.28.22-.5.5-.5zm3 0c.28 0 .5.22.5.5v3a.5.5 0 0 1-.5.5h-1a.5.5 0 0 1-.5-.5v-3c0-.28.22-.5.5-.5zm3 0c.28 0 .5.22.5.5v3a.5.5 0 0 1-.5.5h-1a.5.5 0 0 1-.5-.5v-3c0-.28.22-.5.5-.5zm0-2a.5.5 0 1 1 0 1h-7a.5.5 0 0 1 0-1z"/><path id="b" d="M9.5 3H12a3 3 0 0 1 3 3h-.76A3 3 0 0 0 12 5H4a3 3 0 0 0-3 3V4a3 3 0 0 1 3-3h1.5C8 1 8 3 9.5 3"/></defs><use xlink:href="#a" fill="#84cc16" fill-rule="evenodd"/><use xlink:href="#a" fill="#0f172a" fill-opacity="0.1" fill-rule="evenodd"/><use xlink:href="#b" fill="#84cc16" fill-opacity=".4" fill-rule="evenodd"/><use xlink:href="#b" fill="#0f172a" fill-opacity="0.1" fill-rule="evenodd"/><path fill="#84cc16" fill-opacity=".8" fill-rule="evenodd" d="M12 5a3 3 0 0 1 2.24 1H8.5A2.5 2.5 0 0 0 6 8.5V15H4a3 3 0 0 1-3-3V8a3 3 0 0 1 3-3z"/><path fill="#0f172a" fill-opacity="0.1" d="M14.24 6H4a2 2 0 0 0-2 2v4c0 1.1.9 2 2 2h2v1H4a3 3 0 0 1-3-3V8a3 3 0 0 1 3-3h8a3 3 0 0 1 2.24 1"/></svg>