<svg xmlns="http://www.w3.org/2000/svg" xmlns:xlink="http://www.w3.org/1999/xlink" viewBox="0 0 16 16"><defs><path id="a" d="m5.1 1.4 1.75 1.75Q7.15 3 7.5 3a1.5 1.5 0 0 1 1.35 2.15l1 1q.3-.15.65-.15a1.5 1.5 0 1 1-1.35.85l-1-1-.15.06V9.1a1.5 1.5 0 1 1-1 0V5.9a1.5 1.5 0 0 1-.85-2.06L4.4 2.1z"/></defs><path fill="#f97316" fill-opacity=".4" fill-rule="evenodd" d="m14.67 10.83-3.84 3.84a4 4 0 0 1-5.66 0l-3.84-3.84a4 4 0 0 1 0-5.66l3.84-3.84a4 4 0 0 1 5.66 0l3.84 3.84a4 4 0 0 1 0 5.66"/><path fill="#0f172a" fill-opacity="0.1" d="m10.83 1.33 3.84 3.84a4 4 0 0 1 0 5.66l-3.84 3.84a4 4 0 0 1-5.66 0l-3.84-3.84a4 4 0 0 1 0-5.66l3.84-3.84a4 4 0 0 1 5.66 0m-4.95.7L2.04 5.89a3 3 0 0 0 0 4.24l3.84 3.84a3 3 0 0 0 4.24 0l3.84-3.84a3 3 0 0 0 0-4.24l-3.84-3.84a3 3 0 0 0-4.24 0"/><use xlink:href="#a" fill="#f97316" fill-rule="evenodd"/><use xlink:href="#a" fill="#0f172a" fill-opacity="0.1" fill-rule="evenodd"/></svg>