<svg xmlns="http://www.w3.org/2000/svg" viewBox="0 0 16 16"><path fill="#f97316" fill-opacity=".4" fill-rule="evenodd" d="M2 1h2.7a1 1 0 0 1 .55.17l2.2 1.46a1 1 0 0 0 1.1 0l2.2-1.46A1 1 0 0 1 11.3 1H14a1 1 0 0 1 1 1v2.7a1 1 0 0 1-.17.55l-1.46 2.2a1 1 0 0 0 0 1.1l1.46 2.2a1 1 0 0 1 .17.55V14a1 1 0 0 1-1 1h-2.7a1 1 0 0 1-.55-.17l-2.2-1.46a1 1 0 0 0-1.1 0l-2.2 1.46a1 1 0 0 1-.55.17H2a1 1 0 0 1-1-1v-2.7a1 1 0 0 1 .17-.55l1.46-2.2a1 1 0 0 0 0-1.1l-1.46-2.2A1 1 0 0 1 1 4.7V2a1 1 0 0 1 1-1"/><path fill="#0f172a" fill-opacity="0.1" d="m5.25 1.17 2.2 1.46a1 1 0 0 0 1.1 0l2.2-1.46A1 1 0 0 1 11.3 1H14a1 1 0 0 1 1 1v2.7a1 1 0 0 1-.17.55l-1.46 2.2a1 1 0 0 0 0 1.1l1.46 2.2a1 1 0 0 1 .17.55V14a1 1 0 0 1-1 1h-2.7a1 1 0 0 1-.55-.17l-2.2-1.46a1 1 0 0 0-1.1 0l-2.2 1.46a1 1 0 0 1-.55.17H2a1 1 0 0 1-1-1v-2.7a1 1 0 0 1 .17-.55l1.46-2.2a1 1 0 0 0 0-1.1l-1.46-2.2A1 1 0 0 1 1 4.7V2a1 1 0 0 1 1-1h2.7a1 1 0 0 1 .55.17M2 2v2.7l1.46 2.2a2 2 0 0 1 0 2.2L2 11.3V14h2.7l2.2-1.46a2 2 0 0 1 2.2 0L11.3 14H14v-2.7l-1.46-2.2a2 2 0 0 1 0-2.2L14 4.7V2h-2.7L9.1 3.46a2 2 0 0 1-2.2 0L4.7 2z"/><path fill="#f97316" fill-rule="evenodd" d="m12.8 8.7-4.1 4.1a1 1 0 0 1-1.4 0L3.2 8.7a1 1 0 0 1 0-1.4l4.1-4.1a1 1 0 0 1 1.4 0l4.1 4.1a1 1 0 0 1 0 1.4"/><path fill="#0f172a" fill-opacity="0.1" d="m8.7 3.2 4.1 4.1a1 1 0 0 1 0 1.4l-4.1 4.1a1 1 0 0 1-1.4 0L3.2 8.7a1 1 0 0 1 0-1.4l4.1-4.1a1 1 0 0 1 1.4 0M3.92 8 8 12.09 12.09 8 8 3.91z"/></svg>