<svg xmlns="http://www.w3.org/2000/svg" xmlns:xlink="http://www.w3.org/1999/xlink" viewBox="0 0 16 16"><defs><path id="a" d="M6.32 5.34 2.4 12.18l-.88-1.52L2.56 8.8H.48L0 8l.48-.8h2.96l1.04-1.86zm.24 5.48h7.76l-.88 1.52h-2.08l1.04 1.86-.48.8h-.88L9.6 12.34H7.44zm4.56-2.98L7.2 1h1.76L10 2.85 11.04 1h.88l.48.8-1.52 2.58L12 6.23z"/><path id="b" d="M9.44 5.18H1.6l.88-1.52h2.08L3.52 1.8 4 1h.88L6.4 3.57h2.16zm.24 5.48 3.92-6.84.88 1.52-1.04 1.86h2.08L16 8l-.48.8h-2.96l-1.04 1.86zm-4.8-2.5 3.92 6.76H7.04L6 13.07l-.88 1.85H4.08l-.48-.8 1.52-2.58L4 9.77z"/></defs><use xlink:href="#a" fill="#14b8a6"/><use xlink:href="#a" fill="#0f172a" fill-opacity="0.1"/><use xlink:href="#b" fill="#3b82f6"/><use xlink:href="#b" fill="#0f172a" fill-opacity="0.1"/></svg>