<svg xmlns="http://www.w3.org/2000/svg" viewBox="0 0 16 16"><path fill="#f43f5e" fill-opacity=".4" fill-rule="evenodd" d="M5 1h6a4 4 0 0 1 4 4v6a4 4 0 0 1-4 4H5a4 4 0 0 1-4-4V5a4 4 0 0 1 4-4"/><path fill="#0f172a" fill-opacity="0.1" d="M15 5v6a4 4 0 0 1-4 4H5a4 4 0 0 1-4-4V5a4 4 0 0 1 4-4h6a4 4 0 0 1 4 4M5 2a3 3 0 0 0-3 3v6a3 3 0 0 0 3 3h6a3 3 0 0 0 3-3V5a3 3 0 0 0-3-3z"/><path fill="#0f172a" fill-rule="evenodd" d="M5.5 4h5c.83 0 1.5.67 1.5 1.5V11a1 1 0 0 1-2 0V7a1 1 0 1 0-2 0v3.5c0 .83-.67 1.5-1.5 1.5h-1A1.5 1.5 0 0 1 4 10.5v-5C4 4.67 4.67 4 5.5 4"/><path fill="#0f172a" fill-opacity="0.1" d="M12 5.5V11a1 1 0 0 1-2 0V7a1 1 0 1 0-2 0v3.5c0 .83-.67 1.5-1.5 1.5h-1A1.5 1.5 0 0 1 4 10.5v-5C4 4.67 4.67 4 5.5 4h5c.83 0 1.5.67 1.5 1.5M5.5 5a.5.5 0 0 0-.5.5v5c0 .28.22.5.5.5h1a.5.5 0 0 0 .5-.5V7a2 2 0 1 1 4 0V5.5a.5.5 0 0 0-.5-.5z"/></svg>