<svg xmlns="http://www.w3.org/2000/svg" viewBox="0 0 16 16"><path fill="#f97316" fill-opacity=".4" fill-rule="evenodd" d="M6 1h6a3 3 0 0 1 3 3v6a3 3 0 0 1-3 3V7a3 3 0 0 0-3-3H3a3 3 0 0 1 3-3"/><path fill="#0f172a" fill-opacity="0.1" d="M15 4v6a3 3 0 0 1-3 3V7a3 3 0 0 0-3-3H3a3 3 0 0 1 3-3h6a3 3 0 0 1 3 3M6 2a2 2 0 0 0-1.73 1H9a4 4 0 0 1 4 4v4.73A2 2 0 0 0 14 10V4a2 2 0 0 0-2-2z"/><path fill="#f97316" fill-rule="evenodd" d="M4.75 11h.5c.5 1.5 1.5 2.5 2 4H4q-.25 0-.5-.04c.26-1.97 1.25-2.72 1.25-3.96m2 0C9 11 9.25 9 10 9h1.5c.75 0 .75-1.25 0-1.25s-1.25-1-2.25-.75-.5 2-1.5 2-1-3-2.25-3-.75 2-1.75 2S3.25 6 2 6c-.91 0-.76 1.06-1 1.64V6a3 3 0 0 1 3-3h6a3 3 0 0 1 3 3v6a3 3 0 0 1-3 3H8c0-1-1-1.5-1.25-4m-4 4v-.27A3 3 0 0 1 1 12v-.64q.3-.35.5-.86.5.75 2 .5c0 1.5-.75 2.25-.75 4"/><path fill="#0f172a" fill-opacity="0.1" d="M3.5 11c0 1.5-.75 2.25-.75 4v-.27A3 3 0 0 1 1 12v-.64q.3-.35.5-.86.5.75 2 .5M13 6v6a3 3 0 0 1-3 3H8c0-1-1-1.5-1.25-4C9 11 9.25 9 10 9h1.5c.75 0 .75-1.25 0-1.25s-1.25-1-2.25-.75-.5 2-1.5 2-1-3-2.25-3-.75 2-1.75 2S3.25 6 2 6c-.91 0-.76 1.06-1 1.64V6a3 3 0 0 1 3-3h6a3 3 0 0 1 3 3m-5.75 9H4q-.25 0-.5-.04c.26-1.97 1.25-2.72 1.25-3.96h.5c.5 1.5 1.5 2.5 2 4m4.25-5h-1.28l-.53.66a3.7 3.7 0 0 1-1.8 1.19q.15.56.37 1.04c.03.08.39.77.53 1.11H10a2 2 0 0 0 2-2V9.92a2 2 0 0 1-.5.08m-6.35 3.1-.4.9h.93zM2 12q0 .38.14.72l.03-.11.04-.13.14-.45-.35-.06zm2-8a2 2 0 0 0-1.74 1.02q.74.1 1.2.68.17.23.29.52.11-.29.3-.52.52-.69 1.45-.7c.67 0 1.19.35 1.56.9a6 6 0 0 1 .64 1.38q.08-.23.2-.43.38-.62 1.1-.82.7-.17 1.31.06a3 3 0 0 1 .93.5l.27.16h-.01q.27 0 .5.08V6a2 2 0 0 0-2-2z"/></svg>