<svg xmlns="http://www.w3.org/2000/svg" viewBox="0 0 16 16"><path fill="#3b82f6" fill-opacity=".4" fill-rule="evenodd" d="M16 8q0 3.12-1.38 6.68a.5.5 0 0 1-.46.32H13a1 1 0 0 1-1-1 1 1 0 0 0-2 0 1 1 0 0 1-1 1H7.99a1.5 1.5 0 0 1-1.39-.94Q6 12.58 6 12c0-.3-.32-2.03-.45-4C8 8 4.6 3 7 3c0-2 2.63-2 3-2 2.75 0 6 2.5 6 7"/><path fill="#0f172a" fill-opacity="0.1" d="M16 8q0 3.12-1.38 6.68a.5.5 0 0 1-.46.32H13a1 1 0 0 1-1-1 1 1 0 0 0-2 0 1 1 0 0 1-1 1H7.99a1.5 1.5 0 0 1-1.39-.94Q6 12.58 6 12c0-.3-.32-2.03-.45-4C8 8 4.6 3 7 3c0-2 2.63-2 3-2 2.75 0 6 2.5 6 7m-6-6a5 5 0 0 0-1.19.16c-.57.17-.81.4-.81.84a1 1 0 0 1-.91 1c-.01.23.04.58.18 1.3.2 1.06.27 1.5.2 2.05q-.14.95-.86 1.38l.13 1.2c.03.24.26 1.88.26 2.07l.02.16.09.37q.13.46.42 1.16c.07.19.26.31.46.31H9l.01-.2A2 2 0 0 1 13 14h.81q1.2-3.22 1.19-6c0-1.85-.62-3.4-1.69-4.49A4.8 4.8 0 0 0 10 2"/><path fill="#3b82f6" fill-rule="evenodd" d="M5 15c-2 0-4-1.5-4-8 0-3.25 2-5.5 5.75-5.5C8.25 1.5 10 3 10 6c0 1.58-1.5 5-3.5 5h-1c-.75 0-1.5.25-1.5 1s.25 1 1 1a1 1 0 0 1 0 2M5 5a1 1 0 1 0 0 2 1 1 0 0 0 0-2"/><path fill="#0f172a" fill-opacity="0.1" d="M10 6c0 1.58-1.5 5-3.5 5h-1c-.75 0-1.5.25-1.5 1s.25 1 1 1a1 1 0 0 1 0 2c-2 0-4-1.5-4-8 0-3.25 2-5.5 5.75-5.5C8.25 1.5 10 3 10 6m-5 8h-.18zM2 7c0 2.87.4 4.8 1.1 5.9l.14.21Q3 12.66 3 12c0-.73.37-1.32.98-1.66Q4.65 10 5.5 10h1c.48 0 1.1-.5 1.64-1.42C8.66 7.71 9 6.63 9 6c0-1.18-.31-2.1-.83-2.73-.42-.5-.95-.77-1.42-.77C3.68 2.5 2 4.18 2 7m5-1a2 2 0 1 1-4 0 2 2 0 0 1 4 0M4 6a1 1 0 1 0 2 0 1 1 0 0 0-2 0"/></svg>