<svg xmlns="http://www.w3.org/2000/svg" xmlns:xlink="http://www.w3.org/1999/xlink" viewBox="0 0 16 16"><defs><linearGradient id="a" x1="50%" x2="50%" y1="0%" y2="100%"><stop offset="0%" stop-color="#22c55e"/><stop offset="20.35%" stop-color="#eab308"/><stop offset="40.13%" stop-color="#f43f5e"/><stop offset="59.99%" stop-color="#8b5cf6"/><stop offset="80.36%" stop-color="#3b82f6"/><stop offset="100%" stop-color="#d946ef"/></linearGradient><path id="b" d="M2.5 1H10a5 5 0 0 1 0 10H8.5c-.83 0-1.5.67-1.5 1.5v1c0 .83-.67 1.5-1.5 1.5h-3A1.5 1.5 0 0 1 1 13.5v-11C1 1.67 1.67 1 2.5 1M7 5v2h2a1 1 0 1 0 0-2z"/></defs><use xlink:href="#b" fill="url(#a)" fill-rule="evenodd"/><use xlink:href="#b" fill="#8b5cf6" fill-opacity=".4" fill-rule="evenodd"/><path fill="#0f172a" fill-opacity="0.1" d="M15 6a5 5 0 0 1-5 5H8.5c-.83 0-1.5.67-1.5 1.5v1c0 .83-.67 1.5-1.5 1.5h-3A1.5 1.5 0 0 1 1 13.5v-11C1 1.67 1.67 1 2.5 1H10a5 5 0 0 1 5 5M2.5 2a.5.5 0 0 0-.5.5v11c0 .28.22.5.5.5h3a.5.5 0 0 0 .5-.5v-1A2.5 2.5 0 0 1 8.5 10H10a4 4 0 1 0 0-8zM11 6a2 2 0 0 1-2 2H7a1 1 0 0 1-1-1V5a1 1 0 0 1 1-1h2a2 2 0 0 1 2 2M7 5v2h2a1 1 0 1 0 0-2z"/></svg>