<svg xmlns="http://www.w3.org/2000/svg" xmlns:xlink="http://www.w3.org/1999/xlink" viewBox="0 0 16 16"><defs><path id="a" d="M11 6a3 3 0 0 1 1 5.83l1.65 1.41a1 1 0 1 1-1.3 1.52L9.13 12H8v2a1 1 0 1 1-2 0V7a1 1 0 0 1 1-1zM8 8v2h3a1 1 0 0 0 0-2z"/></defs><ellipse cx="8" cy="7.5" fill="#64748b" fill-opacity=".4" fill-rule="evenodd" rx="7.5" ry="5.5"/><path fill="#0f172a" fill-opacity="0.1" d="M15.5 7.5c0 3.04-3.36 5.5-7.5 5.5S.5 10.54.5 7.5 3.86 2 8 2s7.5 2.46 7.5 5.5m-14 0C1.5 9.9 4.35 12 8 12s6.5-2.1 6.5-4.5S11.65 3 8 3 1.5 5.1 1.5 7.5"/><use xlink:href="#a" fill="#3b82f6" fill-rule="evenodd"/><use xlink:href="#a" fill="#0f172a" fill-opacity="0.1" fill-rule="evenodd"/></svg>