<svg xmlns="http://www.w3.org/2000/svg" viewBox="0 0 16 16"><path fill="#f43f5e" fill-opacity=".4" fill-rule="evenodd" d="M2.5 2h11c.83 0 1.5.67 1.5 1.5v1c0 .83-.67 1.5-1.5 1.5h-11A1.5 1.5 0 0 1 1 4.5v-1C1 2.67 1.67 2 2.5 2"/><path fill="#0f172a" fill-opacity="0.1" d="M15 3.5v1c0 .83-.67 1.5-1.5 1.5h-11A1.5 1.5 0 0 1 1 4.5v-1C1 2.67 1.67 2 2.5 2h11c.83 0 1.5.67 1.5 1.5M2.5 3a.5.5 0 0 0-.5.5v1c0 .28.22.5.5.5h11a.5.5 0 0 0 .5-.5v-1a.5.5 0 0 0-.5-.5z"/><path fill="#3b82f6" fill-opacity=".6" fill-rule="evenodd" d="M2.5 6h11c.83 0 1.5.67 1.5 1.5v1c0 .83-.67 1.5-1.5 1.5h-11A1.5 1.5 0 0 1 1 8.5v-1C1 6.67 1.67 6 2.5 6"/><path fill="#0f172a" fill-opacity="0.1" d="M15 7.5v1c0 .83-.67 1.5-1.5 1.5h-11A1.5 1.5 0 0 1 1 8.5v-1C1 6.67 1.67 6 2.5 6h11c.83 0 1.5.67 1.5 1.5M2.5 7a.5.5 0 0 0-.5.5v1c0 .28.22.5.5.5h11a.5.5 0 0 0 .5-.5v-1a.5.5 0 0 0-.5-.5z"/><path fill="#22c55e" fill-rule="evenodd" d="M2.5 10h11c.83 0 1.5.67 1.5 1.5v1c0 .83-.67 1.5-1.5 1.5h-11A1.5 1.5 0 0 1 1 12.5v-1c0-.83.67-1.5 1.5-1.5"/><path fill="#0f172a" fill-opacity="0.1" d="M15 11.5v1c0 .83-.67 1.5-1.5 1.5h-11A1.5 1.5 0 0 1 1 12.5v-1c0-.83.67-1.5 1.5-1.5h11c.83 0 1.5.67 1.5 1.5M2.5 11a.5.5 0 0 0-.5.5v1c0 .28.22.5.5.5h11a.5.5 0 0 0 .5-.5v-1a.5.5 0 0 0-.5-.5z"/><path fill="#f97316" fill-rule="evenodd" d="M8 2h4v12H8z"/><path fill="#0f172a" fill-opacity="0.1" d="M12 14H8V2h4zM9 3v10h2V3z"/><path fill="#f8fafc" fill-rule="evenodd" d="M9.5 7.5h1V9h1.25q.23-.02.25-.25V6h1v2.75c0 .69-.56 1.25-1.25 1.25h-3.5C7.56 10 7 9.44 7 8.75V6h1v2.75q.02.23.25.25H9.5z"/></svg>