<svg xmlns="http://www.w3.org/2000/svg" xmlns:xlink="http://www.w3.org/1999/xlink" viewBox="0 0 16 16"><defs><path id="a" d="M8 4.45V0L5.77 3.3z"/><path id="b" d="m8 4.45 2.23-1.15L8 0z"/></defs><use xlink:href="#a" fill="#f97316" fill-opacity=".4"/><use xlink:href="#a" fill="#0f172a" fill-opacity="0.1"/><path fill="#f43f5e" d="M8 5.77v4.46l5.12-2.67-2.24-3.3z"/><path fill="#0f172a" fill-opacity="0.1" d="M13.12 7.56 8 10.23V5.77l2.88-1.5zM9 6.38v2.2l2.66-1.38-1.1-1.63z"/><use xlink:href="#b" fill="#f97316"/><use xlink:href="#b" fill="#0f172a" fill-opacity="0.1"/><path fill="#f43f5e" d="m13.77 8.54-5.77 3V16l8-4.16z"/><path fill="#0f172a" fill-opacity="0.1" d="M16 11.84 8 16v-4.45l5.77-3zm-7 .31v2.2l5.54-2.88-1.1-1.63z"/><path fill="#f43f5e" fill-opacity=".4" d="M0 11.84 8 16v-4.45l-5.77-3z"/><path fill="#0f172a" fill-opacity="0.1" d="M8 11.55V16l-8-4.16 2.23-3.3zm-6.54-.08L7 14.35v-2.2L2.56 9.84z"/><path fill="#f43f5e" fill-opacity=".4" d="m5.12 4.27-2.24 3.3L8 10.22V5.77z"/><path fill="#0f172a" fill-opacity="0.1" d="M8 5.77v4.46L2.88 7.56l2.24-3.3zM4.34 7.2 7 8.58v-2.2l-1.56-.81z"/></svg>