<svg xmlns="http://www.w3.org/2000/svg" viewBox="0 0 16 16"><path fill="#3b82f6" fill-rule="evenodd" d="M10.46.23 2.61 6.51a.5.5 0 0 0 .09.84l4.77 2.39c.47.23.9-.37.53-.74L6.3 7.3a.5.5 0 0 1-.04-.65L10.82.58c.17-.24-.13-.53-.36-.35"/><path fill="#0f172a" fill-opacity="0.1" d="M10.82.58 6.26 6.65a.5.5 0 0 0 .05.66L8 9c.37.37-.06.97-.53.74L2.7 7.34a.5.5 0 0 1-.09-.83L10.46.23c.23-.18.53.11.36.35M3.85 6.8l1.42.72a1.5 1.5 0 0 1 .19-1.47L6.47 4.7z"/><path fill="#3b82f6" fill-opacity=".4" fill-rule="evenodd" d="m5.54 15.77 7.85-6.28a.5.5 0 0 0-.09-.84L8.53 6.26c-.47-.23-.9.37-.53.74l1.7 1.7a.5.5 0 0 1 .04.65l-4.56 6.07c-.17.24.13.53.36.35"/><path fill="#0f172a" fill-opacity="0.1" d="m8.53 6.26 4.77 2.4a.5.5 0 0 1 .09.83l-7.85 6.28c-.23.18-.53-.11-.36-.35l4.56-6.07a.5.5 0 0 0-.05-.66L8 7c-.37-.37.06-.97.53-.74m2.01 3.69L9.53 11.3l2.62-2.1-1.42-.72c.2.48.13 1.03-.19 1.47"/></svg>