<svg xmlns="http://www.w3.org/2000/svg" xmlns:xlink="http://www.w3.org/1999/xlink" viewBox="0 0 16 16"><defs><circle id="a" cx="8" cy="9" r="1"/><circle id="b" cx="8" cy="6" r="1"/></defs><path fill="#64748b" fill-opacity=".4" fill-rule="evenodd" d="M8 15 5 1H3L0 3.5 2 6 1 8z"/><path fill="#0f172a" fill-opacity="0.1" d="M8 15 1 8l1-2-2-2.5L3 1h2zM3.36 2 1.4 3.64l1.4 1.74.4.5-.3.57-.67 1.35 4.1 4.1L4.18 2z"/><path fill="#64748b" fill-opacity=".4" fill-rule="evenodd" d="m8 15 3-14h2l3 2.5L14 6l1 2z"/><path fill="#0f172a" fill-opacity="0.1" d="M16 3.5 14 6l1 2-7 7 3-14h2zM11.8 2l-2.1 9.9 4.1-4.1-.68-1.35-.3-.58.4-.5 1.4-1.73L12.64 2z"/><path fill="#64748b" fill-rule="evenodd" d="m8 4 2.55 1.28a1 1 0 0 0 1.45-.9V1.62a1 1 0 0 0-1.45-.9L8 2 5.45.72a1 1 0 0 0-1.45.9v2.76a1 1 0 0 0 1.45.9z"/><path fill="#0f172a" fill-opacity="0.1" d="M12 1.62v2.76a1 1 0 0 1-1.45.9L8 4 5.45 5.28A1 1 0 0 1 4 4.38V1.62a1 1 0 0 1 1.45-.9L8 2 10.55.72a1 1 0 0 1 1.45.9M5 4.38l2.55-1.27.21-.11-.2-.1L5 1.61zM8.45 2.9l-.21.1.2.1L11 4.39V1.62z"/><use xlink:href="#a" fill="#64748b" fill-rule="evenodd"/><use xlink:href="#a" fill="#0f172a" fill-opacity="0.1" fill-rule="evenodd"/><use xlink:href="#b" fill="#64748b" fill-rule="evenodd"/><use xlink:href="#b" fill="#0f172a" fill-opacity="0.1" fill-rule="evenodd"/></svg>