<svg xmlns="http://www.w3.org/2000/svg" viewBox="0 0 16 16"><path fill="#be6f46" fill-rule="evenodd" d="M7 12h2v2.5a.5.5 0 0 1-.5.5h-1a.5.5 0 0 1-.5-.5z"/><path fill="#0f172a" fill-opacity="0.1" d="M9 14.5a.5.5 0 0 1-.5.5h-1a.5.5 0 0 1-.5-.5V12h2z"/><path fill="#22c55e" fill-opacity=".4" fill-rule="evenodd" d="M7.6 2.5a.5.5 0 0 1 .8 0l4.46 5.7a.5.5 0 0 1-.39.8h-.18l1.46 1.78a.75.75 0 0 1-.48 1.21l-.1.01H2.83a.75.75 0 0 1-.58-1.22L3.7 9h-.17a.5.5 0 0 1-.44-.74l.05-.07z"/><path fill="#0f172a" fill-opacity="0.1" d="m8.4 2.5 4.46 5.7a.5.5 0 0 1-.39.8h-.18l1.46 1.78a.75.75 0 0 1-.48 1.21l-.1.01H2.83a.75.75 0 0 1-.58-1.22L3.7 9h-.17a.5.5 0 0 1-.44-.74l.05-.07L7.6 2.5a.5.5 0 0 1 .78 0M4.55 8H5.8L4.48 9.63 3.36 11h9.28l-1.12-1.37L10.18 8h1.26L8 3.62z"/><path fill="#22c55e" fill-opacity=".6" fill-rule="evenodd" d="M7.6 2.5 3.15 8.2a.5.5 0 0 0 .39.8h8.94a.5.5 0 0 0 .4-.8l-4.5-5.7a.5.5 0 0 0-.78 0"/><path fill="#0f172a" fill-opacity="0.1" d="m8.4 2.5 4.46 5.7a.5.5 0 0 1-.39.8H3.53a.5.5 0 0 1-.4-.8l4.48-5.7a.5.5 0 0 1 .78 0M4.55 8h6.88L8 3.62z"/><path fill="#22c55e" fill-rule="evenodd" d="M7.62 1.2 4.21 5.16a.5.5 0 0 0 .38.83h6.82a.5.5 0 0 0 .38-.83L8.38 1.2a.5.5 0 0 0-.76 0"/><path fill="#0f172a" fill-opacity="0.1" d="m8.38 1.2 3.41 3.97a.5.5 0 0 1-.38.83H4.6a.5.5 0 0 1-.38-.83l3.4-3.97a.5.5 0 0 1 .76 0M5.68 5h4.65L8 2.29z"/></svg>