<svg xmlns="http://www.w3.org/2000/svg" xmlns:xlink="http://www.w3.org/1999/xlink" viewBox="0 0 16 16"><defs><path id="a" d="M5.64 11.49 7.3 8.72l-.06-.07-3-3.5a1 1 0 1 1 1.52-1.3L8.39 6.9 10.14 4a1 1 0 1 1 1.72 1l-4.5 7.5a1 1 0 0 1-1.72-1.02"/></defs><path fill="#f43f5e" fill-opacity=".4" fill-rule="evenodd" d="M5 1h6a4 4 0 0 1 4 4v6a4 4 0 0 1-4 4H5a4 4 0 0 1-4-4V5a4 4 0 0 1 4-4"/><path fill="#0f172a" fill-opacity="0.1" d="M15 5v6a4 4 0 0 1-4 4H5a4 4 0 0 1-4-4V5a4 4 0 0 1 4-4h6a4 4 0 0 1 4 4M5 2a3 3 0 0 0-3 3v6a3 3 0 0 0 3 3h6a3 3 0 0 0 3-3V5a3 3 0 0 0-3-3z"/><use xlink:href="#a" fill="#f43f5e" fill-rule="evenodd"/><use xlink:href="#a" fill="#0f172a" fill-opacity="0.1" fill-rule="evenodd"/></svg>