<svg xmlns="http://www.w3.org/2000/svg" viewBox="0 0 16 16"><path fill="#8b5cf6" fill-rule="evenodd" d="M8.15.05c.18.11.82 1.55.82 1.55s.7-.4.77-.25c.9 2.73.07 4.66-1.12 6.2 1.58 1.48 1.85 2.99 1.55 4.9 1.48 0 2.25-1.45 4.14-1.54.85-.01.9.98.25 1.14-1.31.18-2.61 1.65-5.26 2.4-.35.52-2.39.46-4 .6-1.7.02-1.26-1.3-.65-1.53-.4-.22-.41-.43-.5-.41-.42 2.27-1.58 1.58-2.3 1.38-.54-.29.05-.97.05-.97-.54.23-.96-.78-.9-1.77.06-.8.95-1.56.95-1.56-.06-1.97.52-3.26 2.05-4.33-.53-.63-1.15-1.65-.34-2.83 1.06-.3 1.27-1.55 3.28-1.44 0 0 .63-1.92 1.2-1.54"/><path fill="#0f172a" fill-opacity="0.1" d="M8.15.05c.18.11.82 1.55.82 1.55s.7-.4.77-.25c.9 2.73.07 4.66-1.12 6.2 1.58 1.48 1.85 2.99 1.55 4.9 1.48 0 2.25-1.45 4.14-1.54.85-.01.9.98.25 1.14-1.31.18-2.61 1.65-5.26 2.4-.35.52-2.39.46-4 .6-1.7.02-1.26-1.3-.65-1.53-.4-.22-.41-.43-.5-.41-.42 2.27-1.58 1.58-2.3 1.38-.54-.29.05-.97.05-.97-.54.23-.96-.78-.9-1.77.06-.8.95-1.56.95-1.56-.06-1.97.52-3.26 2.05-4.33-.53-.63-1.15-1.65-.34-2.83 1.06-.3 1.27-1.55 3.28-1.44 0 0 .63-1.92 1.2-1.54M6.93 1.69l-.05.9c-.7-.04-1.01.09-1.5.5l-.22.2q-.42.36-.8.55c-.2.43-.05.84.4 1.37a1 1 0 0 1-.18 1.46c-1.23.87-1.68 1.82-1.63 3.5a1 1 0 0 1-.35.78l-.01.01-.32.35q-.25.33-.27.5c-.01.26.02.53.08.72.55.1.93.66.8 1.21h.01l.1-.18q.1-.22.18-.63a1 1 0 0 1 .7-.78 1 1 0 0 1 1.08.3l.08.1.03.05h.01l.06.04a1 1 0 0 1 .38 1.4l1.04-.07a20 20 0 0 0 1.62-.13q.28-.05.41-.09a1 1 0 0 1 .45-.26l.6-.2a1 1 0 0 1-.45-1c.29-1.78-.03-2.87-1.24-4a1 1 0 0 1-.1-1.35A5.2 5.2 0 0 0 9.02 2.6a1 1 0 0 1-1-.65l-.09-.2-.05.14v.01-.01l-.2-.27q-.21.19-.76.07"/></svg>