<svg xmlns="http://www.w3.org/2000/svg" viewBox="0 0 16 16"><path fill="#94a3b8" fill-opacity=".4" fill-rule="evenodd" d="M6.03 1h3.94A3.5 3.5 0 0 1 13 2.76l2 3.5a3.5 3.5 0 0 1 0 3.48l-2 3.5A3.5 3.5 0 0 1 9.97 15H6.03A3.5 3.5 0 0 1 3 13.24l-2-3.5a3.5 3.5 0 0 1 0-3.48l2-3.5A3.5 3.5 0 0 1 6.03 1"/><path fill="#f8fafc" fill-opacity="0.1" d="m13 2.76 2 3.5a3.5 3.5 0 0 1 0 3.48l-2 3.5A3.5 3.5 0 0 1 9.98 15H6.03A3.5 3.5 0 0 1 3 13.24l-2-3.5a3.5 3.5 0 0 1 0-3.48l2-3.5A3.5 3.5 0 0 1 6.03 1h3.94A3.5 3.5 0 0 1 13 2.76M6.04 2c-.9 0-1.72.48-2.17 1.26l-2 3.5a2.5 2.5 0 0 0 0 2.48l2 3.5A2.5 2.5 0 0 0 6.03 14h3.94c.9 0 1.72-.48 2.17-1.26l2-3.5a2.5 2.5 0 0 0 0-2.48l-2-3.5A2.5 2.5 0 0 0 9.97 2z"/><path fill="#94a3b8" fill-rule="evenodd" d="m8.98 4.05 2 1.13A2 2 0 0 1 12 6.92v2.16a2 2 0 0 1-1.02 1.74l-2 1.13a2 2 0 0 1-1.96 0l-2-1.13A2 2 0 0 1 4 9.08V6.92a2 2 0 0 1 1.02-1.74l2-1.13a2 2 0 0 1 1.96 0"/><path fill="#f8fafc" fill-opacity="0.1" d="m8.98 4.05 2 1.13A2 2 0 0 1 12 6.92v2.16a2 2 0 0 1-1.02 1.74l-2 1.13a2 2 0 0 1-1.96 0l-2-1.13A2 2 0 0 1 4 9.08V6.92a2 2 0 0 1 1.02-1.74l2-1.13a2 2 0 0 1 1.96 0m-1.47.87-2 1.13a1 1 0 0 0-.51.87v2.16c0 .36.2.7.51.87l2 1.13a1 1 0 0 0 .98 0l2-1.13a1 1 0 0 0 .51-.87V6.92a1 1 0 0 0-.51-.87l-2-1.13-.06-.03a1 1 0 0 0-.92.03"/></svg>