<svg xmlns="http://www.w3.org/2000/svg" xmlns:xlink="http://www.w3.org/1999/xlink" viewBox="0 0 16 16"><defs><path id="a" d="M12.58 9.54 15.31 15H7.69l.36-.72 2.37-4.74A1.5 1.5 0 0 1 11.5 7a1.5 1.5 0 0 1 1.08 2.54m-.9.45h-.36L9.3 14h4.38z"/><path id="b" d="M9.5 3H12a3 3 0 0 1 3 3v2a3 3 0 0 0-3-3H4a3 3 0 0 0-3 3V4a3 3 0 0 1 3-3h1.5C8 1 8 3 9.5 3"/></defs><use xlink:href="#a" fill="#94a3b8" fill-rule="evenodd"/><use xlink:href="#a" fill="#f8fafc" fill-opacity="0.1" fill-rule="evenodd"/><path fill="#f8fafc" fill-rule="evenodd" d="M8.5 16a1.5 1.5 0 1 0 0-3 1.5 1.5 0 0 0 0 3m6 0a1.5 1.5 0 1 0 0-3 1.5 1.5 0 0 0 0 3"/><use xlink:href="#b" fill="#94a3b8" fill-opacity=".4" fill-rule="evenodd"/><use xlink:href="#b" fill="#f8fafc" fill-opacity="0.1" fill-rule="evenodd"/><path fill="#94a3b8" fill-opacity=".8" fill-rule="evenodd" d="M4 5h7.5a3.5 3.5 0 0 0-3.33 4.57l-.81 1.63A3.5 3.5 0 0 0 5.04 15H4a3 3 0 0 1-3-3V8a3 3 0 0 1 3-3m8 0a3 3 0 0 1 3 3v1.9l-.17-.33Q15 9.06 15 8.5A3.5 3.5 0 0 0 11.53 5z"/><path fill="#f8fafc" fill-opacity="0.1" d="M4 5h7.5c-.95 0-1.82.38-2.45 1H4a2 2 0 0 0-2 2v4c0 1.1.9 2 2 2h1.04a4 4 0 0 0 0 1H4a3 3 0 0 1-3-3V8a3 3 0 0 1 3-3m8 0a3 3 0 0 1 3 3v1.9l-.17-.33Q15 9.06 15 8.5A3.5 3.5 0 0 0 11.53 5z"/></svg>