<svg xmlns="http://www.w3.org/2000/svg" xmlns:xlink="http://www.w3.org/1999/xlink" viewBox="0 0 16 16"><defs><path id="a" d="M12 7.75c.5 0 1 0 1.5.25.5-1 1.75-1 1.75-1 .5.75.25 1.25 0 1.5.75.5.75 1.25.75 2 0 2.25-1.5 2.5-3 2.5.5 0 1 .5 1 1v1.5a.5.5 0 0 1-.5.5h-3a.5.5 0 0 1-.5-.5v-.46c-.65 0-1.13-.25-1.57-.7l-.3-.3-.1-.1a.5.5 0 1 1 .44-.89q.2.1.36.27l.31.32c.26.26.5.4.86.4V14c0-.5.5-1 1-1-1.5 0-3-.5-3-2.75 0-.5 0-1.25.64-1.74-.14-.26-.39-.76.11-1.51 0 0 1.25 0 1.75 1 .5-.25 1-.25 1.5-.25"/><path id="b" d="M9.5 3H13a2 2 0 0 1 2 2H1V4a3 3 0 0 1 3-3h1.5C8 1 8 3 9.5 3"/></defs><use xlink:href="#a" fill="#94a3b8"/><use xlink:href="#a" fill="#f8fafc" fill-opacity="0.1"/><use xlink:href="#b" fill="#94a3b8" fill-opacity=".4" fill-rule="evenodd"/><use xlink:href="#b" fill="#f8fafc" fill-opacity="0.1" fill-rule="evenodd"/><path fill="#94a3b8" fill-opacity=".8" fill-rule="evenodd" d="M2 6h5.02l.07-.1q-.7 1.04-.63 2.16-.23.4-.33.87c-.1.45-.13.77-.13 1.32q0 .95.26 1.74-.15.18-.25.4A2.5 2.5 0 0 0 6.25 15H3.91a3 3 0 0 1-2.93-2.35L.04 8.43 0 8.16v-.32A2 2 0 0 1 2 6"/><path fill="#f8fafc" fill-opacity="0.1" d="M2 6h5.02l.07-.1q-.36.53-.52 1.1H1.99a1 1 0 0 0-.97 1.22l.93 4.21A2 2 0 0 0 3.91 14h1.9q.1.54.44 1H3.91a3 3 0 0 1-2.93-2.35L.04 8.43 0 8.16v-.32A2 2 0 0 1 2 6"/></svg>