<svg xmlns="http://www.w3.org/2000/svg" xmlns:xlink="http://www.w3.org/1999/xlink" viewBox="0 0 16 16"><defs><path id="b" d="M9.5 3H12a3 3 0 0 1 3 2.82V6h-.76A3 3 0 0 0 12 5H4a3 3 0 0 0-3 3V4a3 3 0 0 1 3-3h1.5C8 1 8 3 9.5 3"/><path id="a" d="M16 9a1 1 0 0 1-1 1v3a1 1 0 0 1 1 1q0 .7-.23 1.2c-.25.5-.71.8-1.27.8a1.4 1.4 0 0 1-1.27-.8A3 3 0 0 1 13 14v-4h-1.02q-.1 3.48-1.09 5.45a1 1 0 0 1-1.78-.9q.71-1.42.86-4.23l-.08.13a1 1 0 0 1-1.78-.9A2.6 2.6 0 0 1 10.5 8H15a1 1 0 0 1 1 1"/></defs><use fill="#94a3b8" href="#a"/><use fill="#f8fafc" fill-opacity="0.1" href="#a"/><use xlink:href="#b" fill="#94a3b8" fill-opacity=".4" fill-rule="evenodd"/><use xlink:href="#b" fill="#f8fafc" fill-opacity="0.1" fill-rule="evenodd"/><path fill="#94a3b8" fill-opacity=".8" fill-rule="evenodd" d="m7.4 13.5-.08.16Q6.99 14.32 7 15H4a3 3 0 0 1-3-3V8a3 3 0 0 1 3-3h8a3 3 0 0 1 2.24 1H10.5C8.67 6 7.15 7 6.32 8.66a3 3 0 0 0 1.33 4.02q-.1.48-.26.82"/><path fill="#f8fafc" fill-opacity="0.1" d="M14.24 6H4a2 2 0 0 0-2 2v4c0 1.1.9 2 2 2h3.17Q7 14.5 7 15H4a3 3 0 0 1-3-3V8a3 3 0 0 1 3-3h8a3 3 0 0 1 2.24 1"/></svg>