<svg xmlns="http://www.w3.org/2000/svg" xmlns:xlink="http://www.w3.org/1999/xlink" viewBox="0 0 16 16"><defs><path id="a" d="M13.71 9.6a1 1 0 0 1-.38-.09l-2.87-1.43a.3.3 0 0 0-.28.03l-3.37 3-.24.12-1.86.33a.24.24 0 0 0-.2.24q.02.18.2.2h2.07l.24-.06 1.57-.88a.3.3 0 0 1 .24 0l1.2.6a.5.5 0 0 1 .28.45v.78q0 .1.05.21l1.28 2.76q.07.13.23.14h.29c.17 0 .29-.17.23-.33l-.8-2.27a.5.5 0 0 1 .02-.4l.43-.85a.5.5 0 0 1 .22-.22l2.11-1.06a.3.3 0 0 1 .26.02l.61.46q.08.05.15.05h.42c.22 0 .35-.24.24-.42l-1.44-2.3a.25.25 0 0 0-.45.06l-.2.68a.3.3 0 0 1-.24.18"/><path id="b" d="M9.5 3H13a2 2 0 0 1 2 2H1V4a3 3 0 0 1 3-3h1.5C8 1 8 3 9.5 3"/></defs><use xlink:href="#a" fill="#94a3b8"/><use xlink:href="#a" fill="#f8fafc" fill-opacity="0.1"/><use xlink:href="#b" fill="#94a3b8" fill-opacity=".4" fill-rule="evenodd"/><use xlink:href="#b" fill="#f8fafc" fill-opacity="0.1" fill-rule="evenodd"/><path fill="#94a3b8" fill-opacity=".8" fill-rule="evenodd" d="M14 6a2 2 0 0 1 1.74 1 2.3 2.3 0 0 0-2.8.08l-1.6-.8a2.25 2.25 0 0 0-2.5.34L5.8 9.33l-1.45.27a2.24 2.24 0 0 0-1.84 2.2c0 1.22.98 2.2 2.2 2.2h2.07q.65 0 1.21-.31l.39-.22q.06.24.16.48l.5 1.05H3.9a3 3 0 0 1-2.93-2.35L.04 8.43 0 8.16v-.32A2 2 0 0 1 2 6zm.31 7.13q.22.12.48.19-.29.57-.77.98l-.31-.87z"/><path fill="#f8fafc" fill-opacity="0.1" d="M3.9 14h4.66l.47 1H3.9a3 3 0 0 1-2.93-2.35L.04 8.43 0 8.16v-.32A2 2 0 0 1 2 6h12a2 2 0 0 1 1.74 1 2.3 2.3 0 0 0-2.7 0h-.27l-1.42-.71a2.25 2.25 0 0 0-2.5.33L8.4 7H2a1 1 0 0 0-.97 1.22l.93 4.21A2 2 0 0 0 3.91 14m10.41-.87q.22.12.48.19-.29.57-.77.98l-.31-.87z"/></svg>