<svg xmlns="http://www.w3.org/2000/svg" xmlns:xlink="http://www.w3.org/1999/xlink" viewBox="0 0 16 16"><defs><path id="a" d="M9.75 15h4.5q.23.02.25.25v.5q-.02.23-.25.25h-4.5a.25.25 0 0 1-.25-.25v-.5q.02-.23.25-.25m-1.5-2h2.5q.23.02.25.25v.5q-.02.23-.25.25h-2.5a.25.25 0 0 1-.25-.25v-.5q.02-.23.25-.25m0-2h2.5q.23.02.25.25v.5q-.02.23-.25.25h-2.5a.25.25 0 0 1-.25-.25v-.5q.02-.23.25-.25m0-2h2.5q.23.02.25.25v.5q-.02.23-.25.25h-2.5A.25.25 0 0 1 8 9.75v-.5q.02-.23.25-.25m5 0h2.5q.23.02.25.25v.5q-.02.23-.25.25h-2.5a.25.25 0 0 1-.25-.25v-.5q.02-.23.25-.25m0 4h2.5q.23.02.25.25v.5q-.02.23-.25.25h-2.5a.25.25 0 0 1-.25-.25v-.5q.02-.23.25-.25m-3.5-6h6c.14 0 .25.11.25.25v.5c0 .14-.11.25-.25.25h-6a.25.25 0 0 1-.25-.25v-.5c0-.14.11-.25.25-.25"/><path id="b" d="M9.5 3H13a2 2 0 0 1 2 2H1V4a3 3 0 0 1 3-3h1.5C8 1 8 3 9.5 3"/></defs><use xlink:href="#a" fill="#94a3b8" fill-rule="evenodd"/><use xlink:href="#a" fill="#f8fafc" fill-opacity="0.1" fill-rule="evenodd"/><use xlink:href="#b" fill="#94a3b8" fill-opacity=".4" fill-rule="evenodd"/><use xlink:href="#b" fill="#f8fafc" fill-opacity="0.1" fill-rule="evenodd"/><path fill="#94a3b8" fill-opacity=".8" fill-rule="evenodd" d="M7.5 7.13C6.64 7.43 6 8.27 6 9.25v.5q0 .4.13.75-.12.35-.13.75v.5q0 .4.13.75-.12.35-.13.75v.5q.01.7.38 1.25H3.9a3 3 0 0 1-2.93-2.35L.04 8.43 0 8.16v-.32A2 2 0 0 1 2 6h5.88q-.33.5-.37 1.13"/><path fill="#f8fafc" fill-opacity="0.1" d="M7.54 6.82 7.52 7H1.99a1 1 0 0 0-.97 1.22l.93 4.21A2 2 0 0 0 3.91 14H6q.06.55.37 1H3.9a3 3 0 0 1-2.93-2.35L.04 8.43 0 8.16v-.32A2 2 0 0 1 2 6h5.88q-.25.37-.34.82"/></svg>