<svg xmlns="http://www.w3.org/2000/svg" xmlns:xlink="http://www.w3.org/1999/xlink" viewBox="0 0 16 16"><defs><path id="a" d="M11.5 7a4.5 4.5 0 1 1 0 9 4.5 4.5 0 0 1 0-9m1 .5-4 4h3l-1 4 4-4h-3z"/><path id="b" d="M9.5 3H12a3 3 0 0 1 3 3v.02a7 7 0 0 0-1.97-.84A3 3 0 0 0 12 5H4a3 3 0 0 0-3 3V4a3 3 0 0 1 3-3h1.5C8 1 8 3 9.5 3"/></defs><use xlink:href="#a" fill="#94a3b8" fill-rule="evenodd"/><use xlink:href="#a" fill="#f8fafc" fill-opacity="0.1" fill-rule="evenodd"/><use xlink:href="#b" fill="#94a3b8" fill-opacity=".4" fill-rule="evenodd"/><use xlink:href="#b" fill="#f8fafc" fill-opacity="0.1" fill-rule="evenodd"/><path fill="#94a3b8" fill-opacity=".8" fill-rule="evenodd" d="M4 5h7.5a6.5 6.5 0 0 0-5.48 10H4a3 3 0 0 1-3-3V8a3 3 0 0 1 3-3"/><path fill="#f8fafc" fill-opacity="0.1" d="M4 5h7.5c-1.27 0-2.46.37-3.47 1H4a2 2 0 0 0-2 2v4c0 1.1.9 2 2 2h1.5q.21.53.52 1H4a3 3 0 0 1-3-3V8a3 3 0 0 1 3-3"/></svg>