<svg xmlns="http://www.w3.org/2000/svg" xmlns:xlink="http://www.w3.org/1999/xlink" viewBox="0 0 16 16"><defs><path id="a" d="M15.94 12.2a.75.75 0 0 1-.4 1l-1.62.67 1.62.69a.75.75 0 1 1-.58 1.38L12 14.7l-2.96 1.25a.75.75 0 1 1-.58-1.38l1.61-.69-1.61-.68a.75.75 0 1 1 .58-1.38L12 13.06l2.96-1.25c.38-.16.82.02.98.4M12 7c1.93 0 3.5 1.12 3.5 2.5S13.93 12 12 12s-3.5-1.12-3.5-2.5S10.07 7 12 7m-1.5 1.5a1 1 0 1 0 0 2 1 1 0 0 0 0-2m3 0a1 1 0 1 0 0 2 1 1 0 0 0 0-2"/><path id="b" d="M9.5 3H12a3 3 0 0 1 2.99 2.7A6.5 6.5 0 0 0 12 5H4a3 3 0 0 0-3 3V4a3 3 0 0 1 3-3h1.5C8 1 8 3 9.5 3"/></defs><use xlink:href="#a" fill="#94a3b8" fill-rule="evenodd"/><use xlink:href="#a" fill="#f8fafc" fill-opacity="0.1" fill-rule="evenodd"/><use xlink:href="#b" fill="#94a3b8" fill-opacity=".4" fill-rule="evenodd"/><use xlink:href="#b" fill="#f8fafc" fill-opacity="0.1" fill-rule="evenodd"/><path fill="#94a3b8" fill-opacity=".8" fill-rule="evenodd" d="M4 5h8c-1.35 0-2.64.39-3.64 1.1A4.2 4.2 0 0 0 6.5 9.5q0 .61.19 1.18-.3.33-.47.75c-.35.82-.27 1.73.15 2.44q-.3.53-.36 1.13H4a3 3 0 0 1-3-3V8a3 3 0 0 1 3-3"/><path fill="#f8fafc" fill-opacity="0.1" d="M4 5h8a6.3 6.3 0 0 0-3.48 1H4a2 2 0 0 0-2 2v4c0 1.1.9 2 2 2h2.3l-.02.05q-.23.45-.27.95H4a3 3 0 0 1-3-3V8a3 3 0 0 1 3-3"/></svg>