<svg xmlns="http://www.w3.org/2000/svg" xmlns:xlink="http://www.w3.org/1999/xlink" viewBox="0 0 16 16"><defs><path id="a" d="M7 14.87c.02.22.09.44.27.74.22.35.59.55.86.23.19-.2 2.18-4.07 3.13-5.53a.3.3 0 0 1 .24-.14q.15 0 .23.14c.96 1.46 2.95 5.32 3.13 5.53.28.32.65.12.87-.23s.27-.6.27-.85c0-.18-3.1-6.58-3.4-7.12-.3-.51-.4-.62-.9-.64h-.4c-.5.02-.6.13-.9.64-.3.52-3.28 6.67-3.4 7.1z"/><path id="b" d="M9.5 3H13a2 2 0 0 1 2 2H1V4a3 3 0 0 1 3-3h1.5C8 1 8 3 9.5 3"/></defs><use xlink:href="#a" fill="#94a3b8"/><use xlink:href="#a" fill="#f8fafc" fill-opacity="0.1"/><use xlink:href="#b" fill="#94a3b8" fill-opacity=".4" fill-rule="evenodd"/><use xlink:href="#b" fill="#f8fafc" fill-opacity="0.1" fill-rule="evenodd"/><path fill="#94a3b8" fill-opacity=".8" fill-rule="evenodd" d="m8.68 6.63-.16.29c-.74 1.43-3.28 6.72-3.44 7.25a2 2 0 0 0-.08.57V15H3.9a3 3 0 0 1-2.92-2.35L.04 8.43 0 8.16v-.32A2 2 0 0 1 2 6h7.1q-.21.28-.42.63m7.28 1.8-.23 1.03-.07-.14a74 74 0 0 0-1.34-2.69 5 5 0 0 0-.43-.63H14a2 2 0 0 1 2 1.84v.32z"/><path fill="#f8fafc" fill-opacity="0.1" d="m8.68 6.63-.1.19-.1.18H2a1 1 0 0 0-.97 1.22l.93 4.21A2 2 0 0 0 3.91 14h1.23l-.06.17a2 2 0 0 0-.08.57V15H3.9a3 3 0 0 1-2.92-2.35L.04 8.43 0 8.16v-.32A2 2 0 0 1 2 6h7.1q-.21.28-.42.63m7.28 1.8-.23 1.03-.07-.14L15 7.98a1 1 0 0 0-.39-.77l-.3-.58a5 5 0 0 0-.43-.63H14a2 2 0 0 1 2 1.84v.32z"/></svg>