<svg xmlns="http://www.w3.org/2000/svg" viewBox="0 0 16 16"><path fill="#64748b" fill-opacity=".4" fill-rule="evenodd" d="M7 1h4a4 4 0 0 1 4 4v6a4 4 0 0 1-4 4H7z"/><path fill="#0f172a" fill-opacity="0.1" d="M15 5v6a4 4 0 0 1-4 4H7V1h4a4 4 0 0 1 4 4m-4 9a3 3 0 0 0 3-3V5a3 3 0 0 0-3-3H8v12z"/><path fill="#64748b" fill-rule="evenodd" d="M8 1v14H5a4 4 0 0 1-4-4V5a4 4 0 0 1 4-4zM7 4H2v2h3v.02C3.23 7.53 2.5 9.52 2.5 12h2c0-2.08.6-3.57 2.1-4.7L7 7z"/><path fill="#64748b" d="m13 8.27-.17.21-1.69 2.02H13V12H9v-1.27l.17-.21 1.69-2.02H9V7h4z"/></svg>