<svg xmlns="http://www.w3.org/2000/svg" xmlns:xlink="http://www.w3.org/1999/xlink" viewBox="0 0 16 16"><defs><path id="a" d="M14 14h2v2h-2zm0-3h2v2h-2zm-3-3h2v2h-2zm0 3h2v2h-2z"/><path id="b" d="M8 11h2v2H8zm0 3h2v2H8zm3 0h2v2h-2zm-6 0h2v2H5z"/><path id="c" d="M9.5 3H13a2 2 0 0 1 2 2H1V4a3 3 0 0 1 3-3h1.5C8 1 8 3 9.5 3"/></defs><use xlink:href="#a" fill="#64748b" fill-opacity=".4" fill-rule="evenodd"/><use xlink:href="#a" fill="#0f172a" fill-opacity="0.1" fill-rule="evenodd"/><use xlink:href="#b" fill="#64748b" fill-rule="evenodd"/><use xlink:href="#b" fill="#0f172a" fill-opacity="0.1" fill-rule="evenodd"/><use xlink:href="#c" fill="#64748b" fill-opacity=".4" fill-rule="evenodd"/><use xlink:href="#c" fill="#0f172a" fill-opacity="0.1" fill-rule="evenodd"/><path fill="#64748b" fill-opacity=".8" fill-rule="evenodd" d="M2 6h9a2 2 0 0 0-2 2v1H8a2 2 0 0 0-2 2v1H5a2 2 0 0 0-2 2v.86a3 3 0 0 1-2.02-2.2L.04 8.42 0 8.16v-.32A2 2 0 0 1 2 6m12 0a2 2 0 0 1 2 1.83v.33q0 .14-.04.27l-.13.57H15V8a2 2 0 0 0-2-2z"/><path fill="#0f172a" fill-opacity="0.1" d="M2 6h9a2 2 0 0 0-1.73 1H1.99a1 1 0 0 0-.97 1.22l.93 4.21a2 2 0 0 0 1.06 1.36L3 14v.86a3 3 0 0 1-2.02-2.2L.04 8.42 0 8.16v-.32A2 2 0 0 1 2 6m13 3V7.85 8a2 2 0 0 0-2-2h1a2 2 0 0 1 2 1.83v.33q0 .14-.04.27l-.13.57z"/></svg>