<svg xmlns="http://www.w3.org/2000/svg" xmlns:xlink="http://www.w3.org/1999/xlink" viewBox="0 0 16 16"><defs><path id="a" d="M12 11H9V7h3zm-2-3v2h1V8zm4 0V7h2v4h-1V8zm-5 5v-1h2v4h-1v-3zm7 3h-3v-4h3zm-2-3v2h1v-2z"/><path id="b" d="M9.5 3H13a2 2 0 0 1 2 2H1V4a3 3 0 0 1 3-3h1.5C8 1 8 3 9.5 3"/></defs><use xlink:href="#a" fill="#64748b" fill-rule="evenodd"/><use xlink:href="#a" fill="#0f172a" fill-opacity="0.1" fill-rule="evenodd"/><use xlink:href="#b" fill="#64748b" fill-opacity=".4" fill-rule="evenodd"/><use xlink:href="#b" fill="#0f172a" fill-opacity="0.1" fill-rule="evenodd"/><path fill="#64748b" fill-opacity=".8" fill-rule="evenodd" d="M7 7v4q0 .26.07.5A2 2 0 0 0 7 12v1a2 2 0 0 0 1 1.73V15H3.9a3 3 0 0 1-2.92-2.35L.04 8.43 0 8.16v-.32A2 2 0 0 1 2 6h5.27A2 2 0 0 0 7 7"/><path fill="#0f172a" fill-opacity="0.1" d="M7 7H2a1 1 0 0 0-.98 1.22l.93 4.21A2 2 0 0 0 3.91 14h3.36a2 2 0 0 0 .73.73V15H3.9a3 3 0 0 1-2.92-2.35L.04 8.43 0 8.16v-.32A2 2 0 0 1 2 6h5.27A2 2 0 0 0 7 7"/></svg>