<svg xmlns="http://www.w3.org/2000/svg" xmlns:xlink="http://www.w3.org/1999/xlink" viewBox="0 0 16 16"><defs><path id="b" d="M9.5 3H13a2 2 0 0 1 2 2H1V4a3 3 0 0 1 3-3h1.5C8 1 8 3 9.5 3"/><path id="a" d="M16 9a1 1 0 0 1-1 1v3a1 1 0 0 1 1 1q0 .7-.23 1.2c-.25.5-.71.8-1.27.8a1.4 1.4 0 0 1-1.27-.8A3 3 0 0 1 13 14v-4h-1.02q-.1 3.48-1.09 5.45a1 1 0 0 1-1.78-.9q.71-1.42.86-4.23l-.08.13a1 1 0 0 1-1.78-.9A2.6 2.6 0 0 1 10.5 8H15a1 1 0 0 1 1 1"/></defs><use fill="#64748b" href="#a"/><use fill="#0f172a" fill-opacity="0.1" href="#a"/><use xlink:href="#b" fill="#64748b" fill-opacity=".4" fill-rule="evenodd"/><use xlink:href="#b" fill="#0f172a" fill-opacity="0.1" fill-rule="evenodd"/><path fill="#64748b" fill-opacity=".8" fill-rule="evenodd" d="m7.4 13.5-.08.16Q6.99 14.32 7 15H3.9a3 3 0 0 1-2.92-2.35L.04 8.43 0 8.16v-.32A2 2 0 0 1 2 6h8.5C8.67 6 7.15 7 6.32 8.66a3 3 0 0 0 1.33 4.02q-.1.48-.26.82"/><path fill="#0f172a" fill-opacity="0.1" d="M2 6h8.5a4.5 4.5 0 0 0-2.87 1H1.99a1 1 0 0 0-.97 1.22l.93 4.21A2 2 0 0 0 3.91 14h3.26Q7 14.5 7 15H3.9a3 3 0 0 1-2.92-2.35L.04 8.43 0 8.16v-.32A2 2 0 0 1 2 6"/></svg>