<svg xmlns="http://www.w3.org/2000/svg" xmlns:xlink="http://www.w3.org/1999/xlink" viewBox="0 0 16 16"><defs><path id="a" d="M5.35 4h.21c2.34.27 2.02 2.64 1.12 3.4-1.67 1.44-3.42 0-3.22-1.43A2.2 2.2 0 0 1 5.35 4m.15 1a.5.5 0 1 0 0 1 .5.5 0 0 0 0-1"/><path id="b" d="M10.42 4c.73-.07 1.93.58 2.1 1.97.2 1.44-1.54 2.87-3.22 1.44-.9-.77-1.2-3.14 1.12-3.4m.08 1a.5.5 0 1 0 0 1 .5.5 0 0 0 0-1"/></defs><path fill="#64748b" fill-opacity=".4" fill-rule="evenodd" d="M14 7v2.25c0 1 .21 1.27 0 2.75-.25 1.75-2 3-6 3s-5.75-1.25-6-3c-.21-1.48 0-1.75 0-2.75V7c0-.42.02-1.07.17-1.8C1.5 5.05 1 4.37 1 3.5a1.5 1.5 0 0 1 2.6-1.02C4.49 1.62 5.86 1 8 1s3.51.62 4.4 1.48A1.5 1.5 0 0 1 15 3.5c0 .72-.5 1.5-1.17 1.7.15.73.17 1.38.17 1.8"/><path fill="#0f172a" fill-opacity="0.1" d="M12.4 2.48A1.5 1.5 0 0 1 15 3.5c0 .72-.5 1.5-1.17 1.7.15.73.17 1.38.17 1.8v2.25c0 1 .21 1.27 0 2.75-.25 1.75-2 3-6 3s-5.75-1.25-6-3c-.21-1.48 0-1.75 0-2.75V7c0-.42.02-1.07.17-1.8C1.5 5.05 1 4.37 1 3.5a1.5 1.5 0 0 1 2.6-1.02C4.49 1.62 5.86 1 8 1s3.51.62 4.4 1.48m-8.1.72a1 1 0 0 1-1.43-.04.5.5 0 0 0-.87.34c0 .4.2.68.41.74a1 1 0 0 1 .74 1.17A8 8 0 0 0 3 7v2.25a9 9 0 0 1-.06 1.02c-.05.55-.05.89.05 1.59q.1.88 1.08 1.42 1.28.7 3.93.72 2.66-.02 3.93-.72.98-.54 1.08-1.42a6 6 0 0 0 .04-1.69 8 8 0 0 1-.05-.92V7c0-.56-.04-1.06-.15-1.59a1 1 0 0 1 .7-1.17c.2-.06.45-.43.45-.74a.5.5 0 0 0-.87-.34 1 1 0 0 1-1.42.04C10.9 2.43 9.72 2 8 2s-2.92.43-3.7 1.2"/><path fill="#0f172a" fill-opacity=".8" fill-rule="evenodd" d="m8.4 8.53.5.67a.5.5 0 0 1-.4.8h-1a.5.5 0 0 1-.4-.8l.5-.67a.5.5 0 0 1 .8 0"/><use xlink:href="#a" fill="#64748b" fill-rule="evenodd"/><use xlink:href="#a" fill="#0f172a" fill-opacity="0.1" fill-rule="evenodd"/><use xlink:href="#b" fill="#64748b" fill-rule="evenodd"/><use xlink:href="#b" fill="#0f172a" fill-opacity="0.1" fill-rule="evenodd"/></svg>