<svg xmlns="http://www.w3.org/2000/svg" xmlns:xlink="http://www.w3.org/1999/xlink" viewBox="0 0 16 16"><defs><path id="a" d="m13.09 11.8 1.04 1.82a.6.6 0 0 1-.59.9l-1.29-.16-.51 1.2a.6.6 0 0 1-1.07.06l-1.05-1.8a7 7 0 0 0 3.47-2.01"/><path id="b" d="m6.07 13.73.3.08-1.04 1.81a.6.6 0 0 1-1.07-.06l-.51-1.2-1.3.16a.6.6 0 0 1-.58-.9l1.04-1.81a7 7 0 0 0 3.16 1.92"/></defs><circle cx="8" cy="7" r="7" fill="#64748b" fill-opacity=".4" fill-rule="evenodd"/><path fill="#0f172a" fill-opacity="0.1" d="M15 7A7 7 0 1 1 1 7a7 7 0 0 1 14 0M2 7a6 6 0 1 0 12 0A6 6 0 0 0 2 7"/><use xlink:href="#a" fill="#64748b" fill-opacity=".4" fill-rule="evenodd"/><use xlink:href="#a" fill="#0f172a" fill-opacity="0.1" fill-rule="evenodd"/><use xlink:href="#b" fill="#64748b" fill-opacity=".4" fill-rule="evenodd"/><use xlink:href="#b" fill="#0f172a" fill-opacity="0.1" fill-rule="evenodd"/><path fill="#64748b" fill-rule="evenodd" d="m8 8.96-1.5.89a.5.5 0 0 1-.74-.54l.38-1.7-1.31-1.16a.5.5 0 0 1 .28-.87l1.74-.16.7-1.6a.5.5 0 0 1 .9 0l.7 1.6 1.74.16a.5.5 0 0 1 .28.87L9.86 7.6l.38 1.7a.5.5 0 0 1-.74.55z"/><path fill="#0f172a" fill-opacity="0.1" d="m8.46 3.82.69 1.6 1.74.16a.5.5 0 0 1 .28.87L9.86 7.6l.38 1.7a.5.5 0 0 1-.74.55L8 8.95l-1.5.9a.5.5 0 0 1-.74-.54l.38-1.7-1.31-1.16a.5.5 0 0 1 .28-.87l1.74-.16.7-1.6a.5.5 0 0 1 .9 0m-.7 2-.23.54-.59.05-.58.06.44.38.45.4-.13.57-.13.57.5-.3.51-.3.51.3.5.3-.13-.57-.13-.58.45-.39.44-.38-.58-.06-.6-.05-.23-.55L8 5.28z"/></svg>