<svg xmlns="http://www.w3.org/2000/svg" xmlns:xlink="http://www.w3.org/1999/xlink" viewBox="0 0 16 16"><defs><path id="a" d="M10 10a.5.5 0 0 1 .36.15l.5.5a.5.5 0 0 1-.71.7L9.79 11H8v1h1a.5.5 0 1 1 0 1H8v1h1.96l.08-.19a.5.5 0 0 1 .92.38l-.2.5a.5.5 0 0 1-.46.31H6.64a.5.5 0 1 1 0-1H7v-3h-.25a.5.5 0 1 1 0-1zm4.5 3H13a.5.5 0 0 1 0-1l-.5-.67-.63.84q.13.13.13.33a.5.5 0 0 1-.5.5h-1a.5.5 0 0 1 0-1h.25l1.13-1.5L10.75 9h-.25a.5.5 0 1 1 0-1h1.42A.5.5 0 0 1 12 9l.5.67.63-.84A.5.5 0 0 1 13.5 8h.58l.52.01a.5.5 0 0 1-.02 1h-.35l-1.12 1.49 1.13 1.5h.25a.5.5 0 1 1 0 1m-13 .5c0-.28.22-.5.5-.5h1V9h-.83L2 10.08a.5.5 0 1 1-.98-.16l.25-1.5A.5.5 0 0 1 1.75 8h3.5a.5.5 0 0 1 .5.42l.24 1.5a.5.5 0 0 1-.98.16L4.83 9H4v4h1a.5.5 0 1 1 0 1H2a.5.5 0 0 1-.5-.5M10 7H9a.5.5 0 0 1 0-1h.16l1.88-4.69a.5.5 0 0 1 .92 0L13.84 6H14a.5.5 0 1 1 0 1h-1a.5.5 0 0 1-.22-.95L12.36 5h-1.72l-.42 1.05A.5.5 0 0 1 10 7m1.04-3h.92l-.46-1.15zM7 7H3.5a.5.5 0 0 1 0-1H4V2h-.5a.5.5 0 0 1 0-1h2a.5.5 0 0 1 0 1H5v4h1.7l.4-.73a.5.5 0 0 1 .88.48l-.54.99A.5.5 0 0 1 7 7"/></defs><use xlink:href="#a" fill="#64748b" fill-rule="evenodd"/><use xlink:href="#a" fill="#0f172a" fill-opacity="0.1" fill-rule="evenodd"/></svg>