<svg xmlns="http://www.w3.org/2000/svg" xmlns:xlink="http://www.w3.org/1999/xlink" viewBox="0 0 16 16"><defs><path id="a" d="M15 6.03V10h-.15A2 2 0 0 1 13 8V6.3L9 8.57v4.56L11.02 12a2 2 0 0 1 2.68.68q-.22.18-.46.32l-3.5 2a3.5 3.5 0 0 1-3.48 0l-3.5-2-.46-.32-.04.08A2 2 0 0 1 4.98 12L7 13.14V8.58L3 6.29V8a2 2 0 0 1-2 2V6.03A3.5 3.5 0 0 1 2.76 3l3.48-1.98a2 2 0 0 1-.75 2.73l-1.47.84L8 6.85l3.97-2.28-1.46-.83A2 2 0 0 1 9.76 1l3.48 1.98A3.5 3.5 0 0 1 15 6.03"/></defs><path fill="#64748b" fill-opacity=".4" fill-rule="evenodd" d="M15 6.03v3.94A3.5 3.5 0 0 1 13.24 13l-3.5 2a3.5 3.5 0 0 1-3.48 0l-3.5-2A3.5 3.5 0 0 1 1 9.97V6.03A3.5 3.5 0 0 1 2.76 3l3.5-2a3.5 3.5 0 0 1 3.48 0l3.5 2A3.5 3.5 0 0 1 15 6.03"/><use xlink:href="#a" fill="#64748b" fill-rule="evenodd"/><use xlink:href="#a" fill="#0f172a" fill-opacity="0.1" fill-rule="evenodd"/><path fill="none" stroke="#0f172a" stroke-opacity="0.1" d="m9.31 1.33.18.1 3.5 2a3 3 0 0 1 1.51 2.6v3.94a3 3 0 0 1-1.51 2.6l-3.5 2a3 3 0 0 1-2.98 0l-3.5-2a3 3 0 0 1-1.51-2.6V6.03a3 3 0 0 1 1.51-2.6l3.5-2a3 3 0 0 1 2.8-.1Z"/></svg>