<svg xmlns="http://www.w3.org/2000/svg" xmlns:xlink="http://www.w3.org/1999/xlink" viewBox="0 0 16 16"><defs><path id="a" d="M8 8h3v3H8zm5 0h3v3h-3zm0 5h3v3h-3zm-5 0h3v3H8z"/><path id="b" d="M9.5 3H12a3 3 0 0 1 3 3h-.76A3 3 0 0 0 12 5H4a3 3 0 0 0-3 3V4a3 3 0 0 1 3-3h1.5C8 1 8 3 9.5 3"/></defs><use xlink:href="#a" fill="--sky" fill-rule="evenodd"/><use xlink:href="#a" fill="--border" fill-opacity="--borderOpacity" fill-rule="evenodd"/><use xlink:href="#b" fill="--blue" fill-opacity=".4" fill-rule="evenodd"/><use xlink:href="#b" fill="--border" fill-opacity="--borderOpacity" fill-rule="evenodd"/><path fill="--blue" fill-opacity=".8" fill-rule="evenodd" d="M12 5a3 3 0 0 1 2.24 1H8a2 2 0 0 0-2 2v7H4a3 3 0 0 1-3-3V8a3 3 0 0 1 3-3z"/><path fill="--border" fill-opacity="--borderOpacity" d="M14.24 6H4a2 2 0 0 0-2 2v4c0 1.1.9 2 2 2h2v1H4a3 3 0 0 1-3-3V8a3 3 0 0 1 3-3h8a3 3 0 0 1 2.24 1"/></svg>