<svg xmlns="http://www.w3.org/2000/svg" xmlns:xlink="http://www.w3.org/1999/xlink" viewBox="0 0 16 16"><defs><path id="a" d="M16 9v5l-4 2v-5zm-1 2.25-2 1v1.5l2-1z"/><path id="b" d="m12 11 4-2-5-2-4 2z"/><path id="c" d="m7 9 5 2v5l-2-.8v-2.45L8 12v2.4L7 14z"/><path id="d" d="M9.5 3H12a3 3 0 0 1 3 3v.45l-.6-.24A3 3 0 0 0 12 5H4a3 3 0 0 0-3 3V4a3 3 0 0 1 3-3h1.5C8 1 8 3 9.5 3"/></defs><use xlink:href="#a" fill="--orange" fill-opacity=".8" fill-rule="evenodd"/><use xlink:href="#a" fill="--border" fill-opacity="--borderOpacity" fill-rule="evenodd"/><use xlink:href="#b" fill="--gray" fill-rule="evenodd"/><use xlink:href="#b" fill="--border" fill-opacity="--borderOpacity" fill-rule="evenodd"/><use xlink:href="#c" fill="--orange" fill-rule="evenodd"/><use xlink:href="#c" fill="--border" fill-opacity="--borderOpacity" fill-rule="evenodd"/><use xlink:href="#d" fill="--orange" fill-opacity=".4" fill-rule="evenodd"/><use xlink:href="#d" fill="--border" fill-opacity="--borderOpacity" fill-rule="evenodd"/><path fill="--orange" fill-opacity=".8" fill-rule="evenodd" d="M12 5a3 3 0 0 1 2.4 1.2l-2.66-1.06a2 2 0 0 0-1.46 0l-.17.07-4 2A2 2 0 0 0 5 9v5q0 .54.27 1H4a3 3 0 0 1-3-3V8a3 3 0 0 1 3-3z"/><path fill="--border" fill-opacity="--borderOpacity" d="M12 5a3 3 0 0 1 2.4 1.2l-2.66-1.06a2 2 0 0 0-1.46 0l-.17.07L8.53 6H4a2 2 0 0 0-2 2v4c0 1.1.9 2 2 2h1q0 .54.27 1H4a3 3 0 0 1-3-3V8a3 3 0 0 1 3-3z"/></svg>