<svg xmlns="http://www.w3.org/2000/svg" xmlns:xlink="http://www.w3.org/1999/xlink" viewBox="0 0 16 16"><defs><path id="a" d="M16 14v-2l-4.5 2v2z"/><path id="b" d="m11.5 10 4.5 2v2l-4.5-2L7 14v-2zm0-3L16 9v2l-4.5-2L7 11V9z"/><path id="c" d="M9.5 3H12a3 3 0 0 1 3 3v.37l-.73-.33A3 3 0 0 0 12 5H4a3 3 0 0 0-3 3V4a3 3 0 0 1 3-3h1.5C8 1 8 3 9.5 3"/></defs><use xlink:href="#a" fill="--blue" fill-opacity=".8" fill-rule="evenodd"/><use xlink:href="#a" fill="--border" fill-opacity="--borderOpacity" fill-rule="evenodd"/><use xlink:href="#b" fill="--blue" fill-rule="evenodd"/><use xlink:href="#b" fill="--border" fill-opacity="--borderOpacity" fill-rule="evenodd"/><use xlink:href="#c" fill="--blue" fill-opacity=".4" fill-rule="evenodd"/><use xlink:href="#c" fill="--border" fill-opacity="--borderOpacity" fill-rule="evenodd"/><path fill="--blue" fill-opacity=".8" fill-rule="evenodd" d="M12 5a3 3 0 0 1 2.27 1.04l-1.96-.87a2 2 0 0 0-1.45-.07l-.17.07-4.5 2A2 2 0 0 0 5 9v5q0 .56.27 1H4a3 3 0 0 1-3-3V8a3 3 0 0 1 3-3z"/><path fill="--border" fill-opacity="--borderOpacity" d="M12 5a3 3 0 0 1 2.27 1.04l-1.96-.87a2 2 0 0 0-1.45-.07l-.17.07L8.82 6H4a2 2 0 0 0-2 2v4c0 1.1.9 2 2 2h1q0 .56.27 1H4a3 3 0 0 1-3-3V8a3 3 0 0 1 3-3z"/></svg>