<svg xmlns="http://www.w3.org/2000/svg" xmlns:xlink="http://www.w3.org/1999/xlink" viewBox="0 0 16 16"><defs><circle id="a" cx="12" cy="10" r="3"/><circle id="b" cx="12" cy="10" r="1"/><path id="c" d="m12.04 16-.02-.18L12 16q-2 0-3-1t-1-3a3.4 3.4 0 0 1 3 1q.9.9 1.02 2.06.12-1.16 1.02-2.06a3.4 3.4 0 0 1 3-1q0 2-1 3-.99 1-3 1"/><path id="d" d="M9.5 3H12a3 3 0 0 1 3 3c-.84-.63-1.87-1-3-1H4a3 3 0 0 0-3 3V4a3 3 0 0 1 3-3h1.5C8 1 8 3 9.5 3"/></defs><use xlink:href="#a" fill="--yellow" fill-rule="evenodd"/><use xlink:href="#a" fill="--border" fill-opacity="--borderOpacity" fill-rule="evenodd"/><use xlink:href="#b" fill="--orange" fill-rule="evenodd"/><use xlink:href="#b" fill="--border" fill-opacity="--borderOpacity" fill-rule="evenodd"/><use xlink:href="#c" fill="--green" fill-rule="evenodd"/><use xlink:href="#c" fill="--border" fill-opacity="--borderOpacity" fill-rule="evenodd"/><use xlink:href="#d" fill="--green" fill-opacity=".4" fill-rule="evenodd"/><use xlink:href="#d" fill="--border" fill-opacity="--borderOpacity" fill-rule="evenodd"/><path fill="--green" fill-opacity=".8" fill-rule="evenodd" d="M4 5h8a5 5 0 0 0-5 5.26A2 2 0 0 0 6 12q0 1.7.6 3H4a3 3 0 0 1-3-3V8a3 3 0 0 1 3-3"/><path fill="--border" fill-opacity="--borderOpacity" d="M4 5h8c-1.13 0-2.16.37-3 1H4a2 2 0 0 0-2 2v4c0 1.1.9 2 2 2h2.24q.14.53.36 1H4a3 3 0 0 1-3-3V8a3 3 0 0 1 3-3"/></svg>