<svg xmlns="http://www.w3.org/2000/svg" xmlns:xlink="http://www.w3.org/1999/xlink" viewBox="0 0 16 16"><defs><path id="a" d="M14.5 12a1.5 1.5 0 1 0 0-3 1.5 1.5 0 0 0 0 3m-4 2a1.5 1.5 0 1 0 0-3 1.5 1.5 0 0 0 0 3"/><path id="b" d="M10.5 10a1.5 1.5 0 1 0 0-3 1.5 1.5 0 0 0 0 3m4 6a1.5 1.5 0 1 0 0-3 1.5 1.5 0 0 0 0 3"/><path id="c" d="M9.5 3H12a3 3 0 0 1 3 3v1.04l-.16-.02A3 3 0 0 0 12 5H4a3 3 0 0 0-3 3V4a3 3 0 0 1 3-3h1.5C8 1 8 3 9.5 3"/></defs><use xlink:href="#a" fill="--lime" fill-rule="evenodd"/><use xlink:href="#a" fill="--border" fill-opacity="--borderOpacity" fill-rule="evenodd"/><use xlink:href="#b" fill="--teal" fill-rule="evenodd"/><use xlink:href="#b" fill="--border" fill-opacity="--borderOpacity" fill-rule="evenodd"/><use xlink:href="#c" fill="--teal" fill-opacity=".4" fill-rule="evenodd"/><use xlink:href="#c" fill="--border" fill-opacity="--borderOpacity" fill-rule="evenodd"/><path fill="--teal" fill-opacity=".8" fill-rule="evenodd" d="M12 5a3 3 0 0 1 2.84 2.02 3 3 0 0 0-1.14.07 3.5 3.5 0 1 0-6.07 3.41 3.5 3.5 0 0 0 .42 4.5H4a3 3 0 0 1-3-3V8a3 3 0 0 1 3-3z"/><path fill="--border" fill-opacity="--borderOpacity" d="M12 5a3 3 0 0 1 2.84 2.02 3 3 0 0 0-1.07.06q-.12-.25-.31-.45A3.5 3.5 0 0 0 8.06 6H4a2 2 0 0 0-2 2v4c0 1.1.9 2 2 2h3.34q.27.57.71 1H4a3 3 0 0 1-3-3V8a3 3 0 0 1 3-3z"/></svg>