<svg xmlns="http://www.w3.org/2000/svg" viewBox="0 0 16 16"><circle cx="8" cy="5" r="3" fill="--green" fill-rule="evenodd"/><path fill="--border" fill-opacity="--borderOpacity" d="M11 5a3 3 0 1 1-6 0 3 3 0 0 1 6 0M6 5a2 2 0 1 0 4 0 2 2 0 0 0-4 0"/><circle cx="4" cy="12" r="3" fill="--red" fill-rule="evenodd"/><path fill="--border" fill-opacity="--borderOpacity" d="M7 12a3 3 0 1 1-6 0 3 3 0 0 1 6 0m-5 0a2 2 0 1 0 4 0 2 2 0 0 0-4 0"/><circle cx="12" cy="12" r="3" fill="--purple" fill-opacity=".4" fill-rule="evenodd"/><path fill="--border" fill-opacity="--borderOpacity" d="M15 12a3 3 0 1 1-6 0 3 3 0 0 1 6 0m-5 0a2 2 0 1 0 4 0 2 2 0 0 0-4 0"/></svg>