<svg xmlns="http://www.w3.org/2000/svg" xmlns:xlink="http://www.w3.org/1999/xlink" viewBox="0 0 16 16"><defs><path id="a" d="M14.78 7C14 5.27 11.26 4 8 4S2 5.28 1.22 7Q4 6 8 6t6.78 1"/><path id="b" d="M14.78 9C14 10.73 11.26 12 8 12s-6-1.27-6.78-3Q4 10 8 10t6.78-1"/></defs><circle cx="2.5" cy="2.5" r="1.5" fill="--gray" fill-opacity=".4" fill-rule="evenodd"/><path fill="--border" fill-opacity="--borderOpacity" d="M4 2.5a1.5 1.5 0 1 1-3 0 1.5 1.5 0 0 1 3 0m-2 0a.5.5 0 1 0 1 0 .5.5 0 0 0-1 0"/><circle cx="13.5" cy="2.5" r="1.5" fill="--gray" fill-opacity=".4" fill-rule="evenodd"/><path fill="--border" fill-opacity="--borderOpacity" d="M15 2.5a1.5 1.5 0 1 1-3 0 1.5 1.5 0 0 1 3 0m-2 0a.5.5 0 1 0 1 0 .5.5 0 0 0-1 0"/><circle cx="2.5" cy="13.5" r="1.5" fill="--gray" fill-opacity=".4" fill-rule="evenodd"/><path fill="--border" fill-opacity="--borderOpacity" d="M4 13.5a1.5 1.5 0 1 1-3 0 1.5 1.5 0 0 1 3 0m-2 0a.5.5 0 1 0 1 0 .5.5 0 0 0-1 0"/><ellipse cx="8" cy="8" fill="--orange" fill-opacity=".4" fill-rule="evenodd" rx="7" ry="4"/><path fill="--border" fill-opacity="--borderOpacity" d="M15 8c0 2.2-3.13 4-7 4s-7-1.8-7-4 3.13-4 7-4 7 1.8 7 4M2 8c0 1.5 2.61 3 6 3s6-1.5 6-3-2.61-3-6-3-6 1.5-6 3"/><use xlink:href="#a" fill="--orange" fill-rule="evenodd"/><use xlink:href="#a" fill="--border" fill-opacity="--borderOpacity" fill-rule="evenodd"/><use xlink:href="#b" fill="--orange" fill-rule="evenodd"/><use xlink:href="#b" fill="--border" fill-opacity="--borderOpacity" fill-rule="evenodd"/></svg>