<svg xmlns="http://www.w3.org/2000/svg" xmlns:xlink="http://www.w3.org/1999/xlink" viewBox="0 0 16 16"><defs><path id="a" d="M1 2h8v3H8q0-2-2-2v6a1 1 0 0 0 1 1v1H3v-1a1 1 0 0 0 1-1V3Q2 3 2 5H1z"/><path id="b" d="M7 6h8v3h-1q0-2-2-2v6a1 1 0 0 0 1 1v1H9v-1a1 1 0 0 0 1-1V7Q8 7 8 9H7z"/></defs><use xlink:href="#a" fill="--gray" fill-opacity=".4" fill-rule="evenodd"/><use xlink:href="#a" fill="--border" fill-opacity="--borderOpacity" fill-rule="evenodd"/><use xlink:href="#b" fill="--blue" fill-rule="evenodd"/><use xlink:href="#b" fill="--border" fill-opacity="--borderOpacity" fill-rule="evenodd"/></svg>