<svg xmlns="http://www.w3.org/2000/svg" xmlns:xlink="http://www.w3.org/1999/xlink" viewBox="0 0 16 16"><defs><path id="a" d="M7.03 11h2.02A2.5 2.5 0 0 0 11 13.95v2.02A4.5 4.5 0 0 1 7.03 11"/><path id="b" d="M11.5 7a4.5 4.5 0 1 1-.5 8.97v-2.02a2.5 2.5 0 0 0 3-2.45 2.5 2.5 0 0 0-3-2.45V7.03q.24-.03.5-.03"/><path id="d" d="M9.5 3H12a3 3 0 0 1 3 3v.02a7 7 0 0 0-1.97-.84A3 3 0 0 0 12 5H4a3 3 0 0 0-3 3V4a3 3 0 0 1 3-3h1.5C8 1 8 3 9.5 3"/><circle id="c" cx="11.5" cy="11.5" r="1.5"/></defs><use xlink:href="#a" fill="#e11d48" fill-rule="evenodd"/><use xlink:href="#a" fill="#020617" fill-opacity="0.1" fill-rule="evenodd"/><use xlink:href="#b" fill="#2563eb" fill-rule="evenodd"/><use xlink:href="#b" fill="#020617" fill-opacity="0.1" fill-rule="evenodd"/><use xlink:href="#c" fill="#475569" fill-rule="evenodd"/><use xlink:href="#c" fill="#020617" fill-opacity="0.1" fill-rule="evenodd"/><use xlink:href="#d" fill="#2563eb" fill-opacity=".4" fill-rule="evenodd"/><use xlink:href="#d" fill="#020617" fill-opacity="0.1" fill-rule="evenodd"/><path fill="#2563eb" fill-opacity=".8" fill-rule="evenodd" d="M4 5h7.5q-.36 0-.72.04A2 2 0 0 0 9 7.03V9H7.03a2 2 0 0 0-1.99 1.78A6.6 6.6 0 0 0 6.02 15H4a3 3 0 0 1-3-3V8a3 3 0 0 1 3-3"/><path fill="#020617" fill-opacity="0.1" d="M4 5h7.5q-.36 0-.72.04a2 2 0 0 0-1.5.96H4a2 2 0 0 0-2 2v4c0 1.1.9 2 2 2h1.5q.22.53.52 1H4a3 3 0 0 1-3-3V8a3 3 0 0 1 3-3"/></svg>