<svg xmlns="http://www.w3.org/2000/svg" viewBox="0 0 16 16"><path fill="#fde047" fill-opacity=".4" fill-rule="evenodd" d="M4 9h8a3 3 0 0 1 0 6H4a3 3 0 0 1 0-6"/><path fill="#f8fafc" fill-opacity="0.1" d="M15 12a3 3 0 0 1-3 3H4a3 3 0 0 1 0-6h8a3 3 0 0 1 3 3M4 10a2 2 0 1 0 0 4h8a2 2 0 1 0 0-4z"/><path fill="#cbd5e1" fill-opacity=".4" fill-rule="evenodd" d="M4 1h8a3 3 0 0 1 0 6H4a3 3 0 1 1 0-6"/><path fill="#f8fafc" fill-opacity="0.1" d="M15 4a3 3 0 0 1-3 3H4a3 3 0 1 1 0-6h8a3 3 0 0 1 3 3M4 2a2 2 0 1 0 0 4h8a2 2 0 1 0 0-4z"/><path fill="#cbd5e1" fill-rule="evenodd" d="M5 3h1a1 1 0 1 1 0 2H5a1 1 0 1 1 0-2"/><path fill="#f8fafc" fill-opacity="0.1" d="M7 4a1 1 0 0 1-1 1H5a1 1 0 1 1 0-2h1a1 1 0 0 1 1 1"/><path fill="#fde047" fill-rule="evenodd" d="M10 11h1a1 1 0 0 1 0 2h-1a1 1 0 0 1 0-2"/><path fill="#f8fafc" fill-opacity="0.1" d="M12 12a1 1 0 0 1-1 1h-1a1 1 0 0 1 0-2h1a1 1 0 0 1 1 1"/></svg>