<svg xmlns="http://www.w3.org/2000/svg" viewBox="0 0 16 16" xmlns:xlink="http://www.w3.org/1999/xlink"><defs><path id="a" d="M11 5v6a1 1 0 0 1-2 0V8.62l-2 1V11a1 1 0 0 1-2 0V5a1 1 0 1 1 2 0v2.38l2-1V5a1 1 0 1 1 2 0"/></defs><path fill="#4ade80" fill-opacity=".4" fill-rule="evenodd" d="M5 1h6a4 4 0 0 1 4 4v6a4 4 0 0 1-4 4H5a4 4 0 0 1-4-4V5a4 4 0 0 1 4-4"/><path fill="#f8fafc" fill-opacity="0.1" d="M15 5v6a4 4 0 0 1-4 4H5a4 4 0 0 1-4-4V5a4 4 0 0 1 4-4h6a4 4 0 0 1 4 4M5 2a3 3 0 0 0-3 3v6a3 3 0 0 0 3 3h6a3 3 0 0 0 3-3V5a3 3 0 0 0-3-3z"/><use fill="#4ade80" href="#a"/><use fill="#f8fafc" fill-opacity="0.1" href="#a"/></svg>