<svg xmlns="http://www.w3.org/2000/svg" viewBox="0 0 16 16"><path fill="#c88857" fill-opacity=".4" fill-rule="evenodd" d="M2 7h12a1 1 0 0 1 1 1v5a2 2 0 0 1-2 2H3a2 2 0 0 1-2-2V8a1 1 0 0 1 1-1"/><path fill="#f8fafc" fill-opacity="0.1" d="M15 8v5a2 2 0 0 1-2 2H3a2 2 0 0 1-2-2V8a1 1 0 0 1 1-1h12a1 1 0 0 1 1 1M2 8v5a1 1 0 0 0 1 1h10a1 1 0 0 0 1-1V8z"/><path fill="#facc15" fill-rule="evenodd" d="M1 8c0-.47.24-.9.64-1.15l7.71-4.82a2 2 0 0 1 2.73.59l2.42 3.62a3 3 0 0 1 .5 1.67V8z"/><path fill="#f8fafc" fill-opacity="0.1" d="m12.08 2.62 2.42 3.62a3 3 0 0 1 .5 1.67V8H1c0-.47.24-.9.64-1.15l7.71-4.82a2 2 0 0 1 2.73.59m-2.2.26L3.28 7h10.5l-.12-.2-2.41-3.63a1 1 0 0 0-1.37-.3M14 12H2v-1h12z"/><circle cx="7" cy="4" r="2" fill="#fb7185" fill-rule="evenodd"/><path fill="#f8fafc" fill-opacity="0.1" d="M9 4a2 2 0 1 1-4 0 2 2 0 0 1 4 0M6 4a1 1 0 1 0 2 0 1 1 0 0 0-2 0"/><path fill="#fb7185" d="M5.35.65Q7 2.26 7 3.5a.5.5 0 0 1-1 0q0-.76-1.35-2.15a.5.5 0 1 1 .7-.7"/></svg>