<svg xmlns="http://www.w3.org/2000/svg" viewBox="0 0 16 16" xmlns:xlink="http://www.w3.org/1999/xlink"><defs><linearGradient id="a" x1="0%" x2="100%" y1="50%" y2="50%"><stop offset="0%" stop-color="#4ade80" stop-opacity=".8"/><stop offset="100%" stop-color="#60a5fa" stop-opacity=".8"/></linearGradient></defs><path fill="#4ade80" fill-opacity=".4" fill-rule="evenodd" d="M.54 5.33A4.3 4.3 0 0 1 5 4.21q1.5.4 2.44 3.63l.08.3q1.05 3.99 3.2 4.6 2.1.63 3.92-.28A8 8 0 0 1 .42 5.45z"/><path fill="#f8fafc" fill-opacity="0.1" d="M5 4.21q1.5.4 2.44 3.63l.08.3q1.05 3.99 3.2 4.6 2.1.63 3.92-.28A8 8 0 0 1 .42 5.45l.12-.12A4.3 4.3 0 0 1 5 4.21m-3.71 1.8Q.99 6.95 1 8a7 7 0 0 0 10.67 5.96 7 7 0 0 1-1.22-.25c-1.85-.52-3.1-2.33-3.9-5.31l-.07-.28c-.53-1.84-1.17-2.78-1.75-2.94l-.02-.01A3.3 3.3 0 0 0 1.3 6"/><path fill="#60a5fa" fill-opacity=".4" fill-rule="evenodd" d="M8 0a8 8 0 0 1 7.58 10.55Q13.53 12.56 11 11.8q-1.49-.4-2.43-3.63l-.08-.29q-1.05-4-3.21-4.63a5.2 5.2 0 0 0-3.92.3A8 8 0 0 1 8 0"/><path fill="#f8fafc" fill-opacity="0.1" d="M16 8a8 8 0 0 1-.42 2.55Q13.53 12.56 11 11.8q-1.49-.4-2.43-3.63l-.08-.29q-1.05-4-3.21-4.63a5.2 5.2 0 0 0-3.92.3A8 8 0 0 1 16 8M4.33 2.04q.6.06 1.22.25c1.86.52 3.1 2.33 3.9 5.32l.08.27c.52 1.84 1.16 2.79 1.74 2.94l.02.01c1.27.38 2.35.13 3.42-.83q.3-.96.29-2A7 7 0 0 0 4.33 2.04"/><circle cx="8" cy="8" r="5" fill="url(#a)" fill-rule="evenodd"/><path fill="#f8fafc" fill-rule="evenodd" d="M8.39 7.69a.5.5 0 0 1-.08.7 5.7 5.7 0 0 0-2.3 4.2 5 5 0 0 1-.95-.54A6.7 6.7 0 0 1 7.7 7.6a.5.5 0 0 1 .7.08"/><path fill="#f8fafc" fill-rule="evenodd" d="m8.4 7.54.09.33C9.1 10.22 9.97 11.5 11 11.8l.2.05a5 5 0 0 1-1.05.68q-1.73-.94-2.63-4.39Q6.56 4.63 5 4.21l-.2-.05a5 5 0 0 1 1.05-.68l.1.05q1.57.94 2.45 4.01"/><circle cx="8" cy="8" r="4.5" fill="none" stroke="#f8fafc" stroke-opacity="0.1"/></svg>