<svg xmlns="http://www.w3.org/2000/svg" viewBox="0 0 16 16" xmlns:xlink="http://www.w3.org/1999/xlink"><defs><path id="a" d="M13.81 5.07c.38.17.54.61.37.99l-3.75 8.25a.75.75 0 0 1-1.36-.62l1.64-3.61-1.89-4.01a.75.75 0 0 1 1.36-.64l1.34 2.86 1.3-2.85a.75.75 0 0 1 .99-.37m-6.47.24a.75.75 0 0 1-.67 1.35 1.5 1.5 0 1 0 0 2.69.75.75 0 0 1 .67 1.34A3 3 0 0 1 3 8a3 3 0 0 1 4.34-2.69"/></defs><circle cx="8" cy="8" r="7" fill="#4ade80" fill-opacity=".4" fill-rule="evenodd"/><path fill="#f8fafc" fill-opacity="0.1" d="M15 8A7 7 0 1 1 1 8a7 7 0 0 1 14 0M2 8a6 6 0 1 0 12 0A6 6 0 0 0 2 8"/><use fill="#4ade80" href="#a"/><use fill="#f8fafc" fill-opacity="0.1" href="#a"/></svg>