<svg xmlns="http://www.w3.org/2000/svg" viewBox="0 0 16 16"><path fill="#94a3b8" fill-rule="evenodd" d="M13.75 4.75c.9-.12 1.51-.17 2.25.5 0 0-.25 2.75-2.25 2.5-1.5 4-3.25 7.25-7.25 7.25C0 15 0 9 0 7h11l.75-.5c-.75-1-1-2.25-.25-3.5 1.07.63 1.4 1.38 2.25 1.75M4 9a1 1 0 1 0 0 2 1 1 0 0 0 0-2"/><path fill="#f8fafc" fill-opacity="0.1" d="M13.75 4.75c.9-.12 1.51-.17 2.25.5 0 0-.25 2.75-2.25 2.5-1.5 4-3.25 7.25-7.25 7.25C0 15 0 9 0 7h11l.75-.5c-.75-1-1-2.25-.25-3.5 1.07.63 1.4 1.38 2.25 1.75m-1.2 1.15a1 1 0 0 1-.25 1.43l-.75.5A1 1 0 0 1 11 8H1.02c.03.9.13 1.62.36 2.4.66 2.31 2.19 3.6 5.12 3.6a4.7 4.7 0 0 0 3.8-1.78c.91-1.05 1.65-2.53 2.51-4.82a1 1 0 0 1 1.06-.64c.4.05.65-.15.88-.66l.14-.38a3 3 0 0 0-1.01.02 1 1 0 0 1-.52-.07 4 4 0 0 1-1.3-.93q.06.59.49 1.16M6 10a2 2 0 1 1-4 0 2 2 0 0 1 4 0m-3 0a1 1 0 1 0 2 0 1 1 0 0 0-2 0"/><path fill="#94a3b8" fill-opacity=".4" fill-rule="evenodd" d="M1.25 4h1.5c.14 0 .25.11.25.25v1.5c0 .14-.11.25-.25.25h-1.5A.25.25 0 0 1 1 5.75v-1.5c0-.14.11-.25.25-.25m3 0h1.5c.14 0 .25.11.25.25v1.5c0 .14-.11.25-.25.25h-1.5A.25.25 0 0 1 4 5.75v-1.5c0-.14.11-.25.25-.25m3 0h1.5c.14 0 .25.11.25.25v1.5c0 .14-.11.25-.25.25h-1.5A.25.25 0 0 1 7 5.75v-1.5c0-.14.11-.25.25-.25m0-3h1.5c.14 0 .25.11.25.25v1.5c0 .14-.11.25-.25.25h-1.5A.25.25 0 0 1 7 2.75v-1.5c0-.14.11-.25.25-.25m-3 0h1.5c.14 0 .25.11.25.25v1.5c0 .14-.11.25-.25.25h-1.5A.25.25 0 0 1 4 2.75v-1.5c0-.14.11-.25.25-.25"/></svg>