<svg xmlns="http://www.w3.org/2000/svg" viewBox="0 0 16 16"><path fill="#94a3b8" fill-opacity=".4" fill-rule="evenodd" d="M3.5 13h9c.28 0 .5.22.5.5v1a.5.5 0 0 1-.5.5h-9a.5.5 0 0 1-.5-.5v-1c0-.28.22-.5.5-.5"/><path fill="#60a5fa" fill-rule="evenodd" d="M12 1a1 1 0 0 1 1 1v9a1 1 0 0 1-1 1h-1a1 1 0 0 1-.97-.78A4.5 4.5 0 1 1 10 3.75V2a1 1 0 0 1 1-1zM7.5 6a1.5 1.5 0 1 0 0 3 1.5 1.5 0 0 0 0-3"/><path fill="#f8fafc" fill-opacity="0.1" d="M13 2v9a1 1 0 0 1-1 1h-1a1 1 0 0 1-.97-.78A4.5 4.5 0 1 1 10 3.75V2a1 1 0 0 1 1-1h1a1 1 0 0 1 1 1m-2 3.63L9.44 4.6a3.5 3.5 0 1 0 .02 5.8l1.21-.82L11 11h1V2h-1zM10 7.5a2.5 2.5 0 1 1-5 0 2.5 2.5 0 0 1 5 0m-4 0a1.5 1.5 0 1 0 3 0 1.5 1.5 0 0 0-3 0"/></svg>