<svg xmlns="http://www.w3.org/2000/svg" viewBox="0 0 16 16"><path fill="#60a5fa" fill-opacity=".4" fill-rule="evenodd" d="M4 2h8a3 3 0 0 1 3 3v6a3 3 0 0 1-3 3H4a3 3 0 0 1-3-3V5a3 3 0 0 1 3-3"/><path fill="#f8fafc" fill-opacity="0.1" d="M15 5v6a3 3 0 0 1-3 3H4a3 3 0 0 1-3-3V5a3 3 0 0 1 3-3h8a3 3 0 0 1 3 3M4 3a2 2 0 0 0-2 2v6c0 1.1.9 2 2 2h8a2 2 0 0 0 2-2V5a2 2 0 0 0-2-2z"/><path fill="#60a5fa" fill-rule="evenodd" d="M4 2h8a3 3 0 0 1 3 3v1.5l-5.32 3.6a3 3 0 0 1-3.36 0L1 6.5V5a3 3 0 0 1 3-3"/><path fill="#f8fafc" fill-opacity="0.1" d="M15 5v1.5l-5.32 3.6a3 3 0 0 1-3.36 0L1 6.5V5a3 3 0 0 1 3-3h8a3 3 0 0 1 3 3M4 3a2 2 0 0 0-2 2v.97l4.88 3.3a2 2 0 0 0 2.24 0L14 5.98V5a2 2 0 0 0-2-2z"/></svg>