<svg xmlns="http://www.w3.org/2000/svg" xmlns:xlink="http://www.w3.org/1999/xlink" viewBox="0 0 16 16"><defs><path id="a" d="m16 10-4-3v2H7v2h9z"/><path id="b" d="M7 13v-1h9v2h-5v2z"/><path id="c" d="M9.5 3H12a3 3 0 0 1 3 3v.75l-.46-.35A3 3 0 0 0 11.87 5H4a3 3 0 0 0-3 3V4a3 3 0 0 1 3-3h1.5C8 1 8 3 9.5 3"/></defs><use xlink:href="#a" fill="#fb923c" fill-rule="evenodd"/><use xlink:href="#a" fill="#f8fafc" fill-opacity="0.1" fill-rule="evenodd"/><use xlink:href="#b" fill="#facc15" fill-rule="evenodd"/><use xlink:href="#b" fill="#f8fafc" fill-opacity="0.1" fill-rule="evenodd"/><use xlink:href="#c" fill="#fb923c" fill-opacity=".4" fill-rule="evenodd"/><use xlink:href="#c" fill="#f8fafc" fill-opacity="0.1" fill-rule="evenodd"/><path fill="#fb923c" fill-opacity=".8" fill-rule="evenodd" d="M4 5h7.87a2 2 0 0 0-1.86 1.85L10 7H7a2 2 0 0 0-2 2v4a2 2 0 0 0 .8 1.6l.53.4H4a3 3 0 0 1-3-3V8a3 3 0 0 1 3-3m8.38.03-.17-.02.14.01a3 3 0 0 1 2.2 1.38l-1.35-1a2 2 0 0 0-.82-.37"/><path fill="#f8fafc" fill-opacity="0.1" d="M4 5h7.87c-.66.05-1.27.42-1.6 1H4a2 2 0 0 0-2 2v4c0 1.1.9 2 2 2h1.27a2 2 0 0 0 .53.6l.53.4H4a3 3 0 0 1-3-3V8a3 3 0 0 1 3-3m8.38.03-.17-.02.14.01a3 3 0 0 1 2.2 1.38l-1.35-1a2 2 0 0 0-.82-.37"/></svg>