<svg xmlns="http://www.w3.org/2000/svg" xmlns:xlink="http://www.w3.org/1999/xlink" viewBox="0 0 16 16"><defs><path id="b" d="m13.28 12.22.72.72.72-.72a.75.75 0 0 1 1.06 1.06l-.72.72.72.72a.75.75 0 0 1-1.06 1.06l-.72-.72-.72.72a.75.75 0 0 1-1.06-1.06l.72-.72-.72-.72a.75.75 0 0 1 1.06-1.06"/><path id="c" d="M15.25 7c.41 0 .75.34.75.75V10a.75.75 0 1 1-1.5 0v-.44l-6.22 6.22a.75.75 0 0 1-1.06-1.06l6.22-6.22h-.69a.75.75 0 1 1 0-1.5z"/><path id="d" d="M9.5 3H12a3 3 0 0 1 2.83 2h-2.08q-.19 0-.36.02L12 5H4a3 3 0 0 0-3 3V4a3 3 0 0 1 3-3h1.5C8 1 8 3 9.5 3"/><circle id="a" cx="9" cy="9" r="2"/></defs><use xlink:href="#a" fill="#a3e635" fill-rule="evenodd"/><use xlink:href="#a" fill="#f8fafc" fill-opacity="0.1" fill-rule="evenodd"/><use xlink:href="#b" fill="#fb7185" fill-rule="evenodd"/><use xlink:href="#b" fill="#f8fafc" fill-opacity="0.1" fill-rule="evenodd"/><use xlink:href="#c" fill="#94a3b8" fill-rule="evenodd"/><use xlink:href="#c" fill="#f8fafc" fill-opacity="0.1" fill-rule="evenodd"/><use xlink:href="#d" fill="#a3e635" fill-opacity=".4" fill-rule="evenodd"/><use xlink:href="#d" fill="#f8fafc" fill-opacity="0.1" fill-rule="evenodd"/><path fill="#a3e635" fill-opacity=".8" fill-rule="evenodd" d="M4 5h5a4 4 0 0 0-2.22 7.33l-.97.98A2.7 2.7 0 0 0 5 15H4a3 3 0 0 1-3-3V8a3 3 0 0 1 3-3m8 0q.2 0 .39.02-.76.12-1.32.56A4 4 0 0 0 9.03 5z"/><path fill="#f8fafc" fill-opacity="0.1" d="M4 5h5c-1.01 0-1.94.38-2.65 1H4a2 2 0 0 0-2 2v4c0 1.1.9 2 2 2h1.3q-.24.49-.29 1H4a3 3 0 0 1-3-3V8a3 3 0 0 1 3-3m8 0q.2 0 .39.02-.76.12-1.32.56A4 4 0 0 0 9.03 5z"/></svg>