<svg xmlns="http://www.w3.org/2000/svg" xmlns:xlink="http://www.w3.org/1999/xlink" viewBox="0 0 16 16"><defs><path id="a" d="M16 10v3l-4.5 3L7 13v-3l4.5 3z"/><path id="b" d="M9.25 11.5 11.5 13l2.25-1.5L11.5 10z"/><path id="c" d="m11.5 7 4.5 3v3l-4.5-3L7 13v-3z"/><path id="d" d="M9.5 3H13a2 2 0 0 1 2 2H1V4a3 3 0 0 1 3-3h1.5C8 1 8 3 9.5 3"/></defs><use xlink:href="#a" fill="#fb923c" fill-rule="evenodd"/><use xlink:href="#a" fill="#f8fafc" fill-opacity="0.1" fill-rule="evenodd"/><use xlink:href="#b" fill="#fb923c" fill-opacity=".4" fill-rule="evenodd"/><use xlink:href="#b" fill="#f8fafc" fill-opacity="0.1" fill-rule="evenodd"/><use xlink:href="#c" fill="#fb923c" fill-opacity=".6" fill-rule="evenodd"/><use xlink:href="#c" fill="#f8fafc" fill-opacity="0.1" fill-rule="evenodd"/><use xlink:href="#d" fill="#fb923c" fill-opacity=".4" fill-rule="evenodd"/><use xlink:href="#d" fill="#f8fafc" fill-opacity="0.1" fill-rule="evenodd"/><path fill="#fb923c" fill-opacity=".8" fill-rule="evenodd" d="M9.4 6 5.9 8.34A2 2 0 0 0 5 10v3a2 2 0 0 0 .9 1.66l.5.34H3.9a3 3 0 0 1-2.92-2.35L.04 8.43 0 8.16v-.32A2 2 0 0 1 2 6zM14 6a2 2 0 0 1 1.96 1.57L13.61 6z"/><path fill="#f8fafc" fill-opacity="0.1" d="M9.4 6 7.9 7H2a1 1 0 0 0-.98 1.22l.93 4.21A2 2 0 0 0 3.91 14h1.36a2 2 0 0 0 .62.66l.5.34H3.91a3 3 0 0 1-2.93-2.35L.04 8.43 0 8.16v-.32A2 2 0 0 1 2 6zM14 6a2 2 0 0 1 1.96 1.57L13.61 6z"/></svg>