<svg xmlns="http://www.w3.org/2000/svg" xmlns:xlink="http://www.w3.org/1999/xlink" viewBox="0 0 16 16"><defs><path id="a" d="M12.2 7.25 8.6 11.6a.25.25 0 0 0 .18.41h2.2c.14 0 .26.13.24.27l-.3 3.1a.5.5 0 0 0 .87.38l3.62-4.34a.25.25 0 0 0-.2-.41h-2.18a.25.25 0 0 1-.25-.27l.3-3.1a.5.5 0 0 0-.87-.38"/><path id="b" d="M9.5 3H13a2 2 0 0 1 2 2H1V4a3 3 0 0 1 3-3h1.5C8 1 8 3 9.5 3"/></defs><use xlink:href="#a" fill="#facc15"/><use xlink:href="#a" fill="#f8fafc" fill-opacity="0.1"/><use xlink:href="#b" fill="#facc15" fill-opacity=".4" fill-rule="evenodd"/><use xlink:href="#b" fill="#f8fafc" fill-opacity="0.1" fill-rule="evenodd"/><path fill="#facc15" fill-opacity=".8" fill-rule="evenodd" d="m10.65 6-3.6 4.31A2.25 2.25 0 0 0 8.79 14h.26l-.1 1H3.9a3 3 0 0 1-2.93-2.35L.04 8.43 0 8.16v-.32A2 2 0 0 1 2 6zm4.08.25-.1-.15.07.02A2 2 0 0 1 16 7.84v.32q0 .13-.04.27l-.15.65a2 2 0 0 0-.6-.08h-.25l.12-1.18q.07-.9-.35-1.57"/><path fill="#f8fafc" fill-opacity="0.1" d="M10.65 6 9.8 7H2a1 1 0 0 0-.97 1.22l.93 4.21A2 2 0 0 0 3.91 14h5.13l-.1 1H3.9a3 3 0 0 1-2.93-2.35L.04 8.43 0 8.16v-.32A2 2 0 0 1 2 6zm4.08.25-.1-.15.07.02A2 2 0 0 1 16 7.84v.32q0 .13-.04.27l-.15.65a2 2 0 0 0-.6-.08h-.25l.12-1.18q.07-.9-.35-1.57"/></svg>