<svg xmlns="http://www.w3.org/2000/svg" xmlns:xlink="http://www.w3.org/1999/xlink" viewBox="0 0 16 16"><defs><path id="a" d="M7 14.87c.02.22.09.44.27.74.22.35.59.55.86.23.19-.2 2.18-4.07 3.13-5.53a.3.3 0 0 1 .24-.14q.15 0 .23.14c.96 1.46 2.95 5.32 3.13 5.53.28.32.65.12.87-.23s.27-.6.27-.85c0-.18-3.1-6.58-3.4-7.12-.3-.51-.4-.62-.9-.64h-.4c-.5.02-.6.13-.9.64-.3.52-3.28 6.67-3.4 7.1z"/><path id="b" d="M9.5 3H12a3 3 0 0 1 3 3v2a3 3 0 0 0-3-3H4a3 3 0 0 0-3 3V4a3 3 0 0 1 3-3h1.5C8 1 8 3 9.5 3"/></defs><use xlink:href="#a" fill="#94a3b8"/><use xlink:href="#a" fill="#f8fafc" fill-opacity="0.1"/><use xlink:href="#b" fill="#94a3b8" fill-opacity=".4" fill-rule="evenodd"/><use xlink:href="#b" fill="#f8fafc" fill-opacity="0.1" fill-rule="evenodd"/><path fill="#94a3b8" fill-opacity=".8" fill-rule="evenodd" d="M4 5h7.23c-1.26.05-1.91.54-2.55 1.63a141 141 0 0 0-3.6 7.54 2 2 0 0 0-.08.57V15H4a3 3 0 0 1-3-3V8a3 3 0 0 1 3-3m11 2.97-.18-.36-.5-.98c-.64-1.08-1.3-1.58-2.56-1.63h-.03.27a3 3 0 0 1 3 2.97"/><path fill="#f8fafc" fill-opacity="0.1" d="M4 5h7.23c-.98.04-1.6.35-2.12 1H4a2 2 0 0 0-2 2v4c0 1.1.9 2 2 2h1.14l-.06.17a2 2 0 0 0-.08.57V15H4a3 3 0 0 1-3-3V8a3 3 0 0 1 3-3m11 2.97-.18-.36-.5-.98c-.64-1.08-1.3-1.58-2.56-1.63h-.03.27a3 3 0 0 1 3 2.97"/></svg>