<svg xmlns="http://www.w3.org/2000/svg" xmlns:xlink="http://www.w3.org/1999/xlink" viewBox="0 0 16 16"><defs><path id="a" d="m9.5 8.25-2.32 3.47a.5.5 0 0 0 0 .56l2.32 3.47a.6.6 0 0 0 1 0l2.32-3.47a.5.5 0 0 0 0-.56L10.5 8.25a.6.6 0 0 0-1 0"/><path id="c" d="M9.5 3H12a3 3 0 0 1 3 3v.63a3 3 0 0 0-.54-.35A3 3 0 0 0 12 5H4a3 3 0 0 0-3 3V4a3 3 0 0 1 3-3h1.5C8 1 8 3 9.5 3"/><path id="b" d="M12.86 8.11a.75.75 0 0 0-.25 1.03L14.37 12l-1.76 2.86a.75.75 0 1 0 1.28.78l2-3.25a.8.8 0 0 0 0-.78l-2-3.25a.75.75 0 0 0-1.03-.25"/></defs><use xlink:href="#a" fill="#facc15" fill-rule="evenodd"/><use xlink:href="#a" fill="#f8fafc" fill-opacity="0.1" fill-rule="evenodd"/><use fill="#fb923c" href="#b"/><use fill="#f8fafc" fill-opacity="0.1" href="#b"/><use xlink:href="#c" fill="#fb923c" fill-opacity=".4" fill-rule="evenodd"/><use xlink:href="#c" fill="#f8fafc" fill-opacity="0.1" fill-rule="evenodd"/><path fill="#fb923c" fill-opacity=".8" fill-rule="evenodd" d="M12 5a3 3 0 0 1 2.46 1.28 3 3 0 0 0-.9-.26l-.2-.02a2.8 2.8 0 0 0-1.75.54 2.6 2.6 0 0 0-3.57.33l-.2.27-2.32 3.47a2.5 2.5 0 0 0 0 2.78L6.6 15H4a3 3 0 0 1-3-3V8a3 3 0 0 1 3-3z"/><path fill="#f8fafc" fill-opacity="0.1" d="M12 5a3 3 0 0 1 2.46 1.28 3 3 0 0 0-.9-.26l-.2-.02q-.4 0-.78.08A2 2 0 0 0 12 6h-1.71q-.3-.03-.6 0H4a2 2 0 0 0-2 2v4c0 1.1.9 2 2 2h1.93l.67 1H4a3 3 0 0 1-3-3V8a3 3 0 0 1 3-3z"/></svg>