<svg xmlns="http://www.w3.org/2000/svg" xmlns:xlink="http://www.w3.org/1999/xlink" viewBox="0 0 16 16"><defs><path id="b" d="M9.5 3H12a3 3 0 0 1 3 3v2a3 3 0 0 0-3-3H4a3 3 0 0 0-3 3V4a3 3 0 0 1 3-3h1.5C8 1 8 3 9.5 3"/><path id="a" d="m10.71 7.51 1.79 5.37.79-2.37c.1-.3.39-.51.71-.51h1.25a.75.75 0 1 1 0 1.5h-.7l-1.34 3.99a.75.75 0 0 1-1.42 0L10 10.12l-.79 2.37c-.1.3-.39.51-.71.51H6.75a.75.75 0 1 1 0-1.5h1.2L9.3 7.51a.75.75 0 0 1 1.42 0"/></defs><use fill="#4ade80" href="#a"/><use fill="#f8fafc" fill-opacity="0.1" href="#a"/><use xlink:href="#b" fill="#4ade80" fill-opacity=".4" fill-rule="evenodd"/><use xlink:href="#b" fill="#f8fafc" fill-opacity="0.1" fill-rule="evenodd"/><path fill="#4ade80" fill-opacity=".8" fill-rule="evenodd" d="M12 5a3 3 0 0 1 3 3h-1q-.5 0-.96.17l-.43-1.29a2.75 2.75 0 0 0-5.22 0l-.88 2.63A2.75 2.75 0 0 0 6.75 15H4a3 3 0 0 1-3-3V8a3 3 0 0 1 3-3z"/><path fill="#f8fafc" fill-opacity="0.1" d="M12 5a3 3 0 0 1 3 3h-1a2 2 0 0 0-1.86-2 2.78 2.78 0 0 0-4.27 0H4a2 2 0 0 0-2 2v4c0 1.1.9 2 2 2h.63c.5.61 1.27 1 2.12 1H4a3 3 0 0 1-3-3V8a3 3 0 0 1 3-3z"/></svg>