<svg xmlns="http://www.w3.org/2000/svg" xmlns:xlink="http://www.w3.org/1999/xlink" viewBox="0 0 16 16"><defs><path id="a" d="M9 10 7 7h7l2 2h-2V8h-4v8l-3-2h2l-2-2h2l-2-2zm5 4 2 2h-4v-2zm0-2 2 2h-2zm0-3 2 2h-2v1h-2v-2h2z"/><path id="b" d="M9.5 3H12a3 3 0 0 1 2.9 2.21 2 2 0 0 0-.72-.2L14 5H4a3 3 0 0 0-3 3V4a3 3 0 0 1 3-3h1.5C8 1 8 3 9.5 3"/></defs><use xlink:href="#a" fill="#facc15" fill-rule="evenodd"/><use xlink:href="#a" fill="#f8fafc" fill-opacity="0.1" fill-rule="evenodd"/><use xlink:href="#b" fill="#facc15" fill-opacity=".4" fill-rule="evenodd"/><use xlink:href="#b" fill="#f8fafc" fill-opacity="0.1" fill-rule="evenodd"/><path fill="#facc15" fill-opacity=".8" fill-rule="evenodd" d="M4 5h3a2 2 0 0 0-1.66 3.1l.28.44A2 2 0 0 0 5.27 11c-.34.6-.38 1.36 0 2-.34.6-.38 1.37-.01 2H4a3 3 0 0 1-3-3V8a3 3 0 0 1 3-3"/><path fill="#f8fafc" fill-opacity="0.1" d="M4 5h3c-.77 0-1.4.42-1.73 1H4a2 2 0 0 0-2 2v4c0 1.1.9 2 2 2h1q0 .52.26 1H4a3 3 0 0 1-3-3V8a3 3 0 0 1 3-3"/></svg>