<svg xmlns="http://www.w3.org/2000/svg" xmlns:xlink="http://www.w3.org/1999/xlink" viewBox="0 0 16 16"><defs><path id="a" d="m12.49 7.28 3 1.68a1 1 0 0 1 .51.87v3.34a1 1 0 0 1-.51.87l-3 1.68a1 1 0 0 1-.98 0l-3-1.68a1 1 0 0 1-.51-.87V9.83c0-.36.2-.69.51-.87l3-1.68a1 1 0 0 1 .98 0m-1.75 2.15A.75.75 0 0 0 9.5 10v3a.75.75 0 1 0 1.5 0v-1.37l2.26 1.94A.75.75 0 0 0 14.5 13v-3a.75.75 0 1 0-1.5 0v1.37z"/><path id="b" d="M9.5 3H12a3 3 0 0 1 3 3v.4l-.84-.48A3 3 0 0 0 12 5H4a3 3 0 0 0-3 3V4a3 3 0 0 1 3-3h1.5C8 1 8 3 9.5 3"/></defs><use xlink:href="#a" fill="#4ade80" fill-rule="evenodd"/><use xlink:href="#a" fill="#f8fafc" fill-opacity="0.1" fill-rule="evenodd"/><use xlink:href="#b" fill="#4ade80" fill-opacity=".4" fill-rule="evenodd"/><use xlink:href="#b" fill="#f8fafc" fill-opacity="0.1" fill-rule="evenodd"/><path fill="#4ade80" fill-opacity=".8" fill-rule="evenodd" d="M12 5a3 3 0 0 1 2.16.92l-.69-.39a3 3 0 0 0-2.76-.1l-.18.1-3 1.69A3 3 0 0 0 6 9.83v3.34A3 3 0 0 0 6.63 15H4a3 3 0 0 1-3-3V8a3 3 0 0 1 3-3z"/><path fill="#f8fafc" fill-opacity="0.1" d="M12 5a3 3 0 0 1 2.16.92l-.69-.39a3 3 0 0 0-2.76-.1l-.18.1L9.7 6H4a2 2 0 0 0-2 2v4c0 1.1.9 2 2 2h2.12q.16.54.5 1H4a3 3 0 0 1-3-3V8a3 3 0 0 1 3-3z"/></svg>