<svg xmlns="http://www.w3.org/2000/svg" xmlns:xlink="http://www.w3.org/1999/xlink" viewBox="0 0 16 16"><defs><path id="a" d="M12.22 7h2.03c.97 0 1.75.78 1.75 1.75v2.03c0 .46-.18.9-.51 1.23l-3.5 3.5c-.69.69-1.8.69-2.48 0L7.5 13.5a1.75 1.75 0 0 1 0-2.48l3.5-3.5c.33-.33.77-.51 1.23-.51m.28 2a1.5 1.5 0 1 0 0 3 1.5 1.5 0 0 0 0-3"/><path id="b" d="M9.5 3H13a2 2 0 0 1 2 2H1V4a3 3 0 0 1 3-3h1.5C8 1 8 3 9.5 3"/></defs><use xlink:href="#a" fill="#60a5fa" fill-rule="evenodd"/><use xlink:href="#a" fill="#f8fafc" fill-opacity="0.1" fill-rule="evenodd"/><use xlink:href="#b" fill="#60a5fa" fill-opacity=".4" fill-rule="evenodd"/><use xlink:href="#b" fill="#f8fafc" fill-opacity="0.1" fill-rule="evenodd"/><path fill="#60a5fa" fill-opacity=".8" fill-rule="evenodd" d="M2 6h7.68l-.1.1-3.5 3.5a3.75 3.75 0 0 0 0 5.3l.1.1H3.9a3 3 0 0 1-2.93-2.35L.04 8.43 0 8.16v-.32A2 2 0 0 1 2 6"/><path fill="#f8fafc" fill-opacity="0.1" d="M2 6h7.68l-.1.1-.91.9H1.99a1 1 0 0 0-.97 1.22l.93 4.21A2 2 0 0 0 3.91 14h1.5q.26.49.66.9l.1.1H3.91a3 3 0 0 1-2.93-2.35L.04 8.43 0 8.16v-.32A2 2 0 0 1 2 6"/></svg>