<svg xmlns="http://www.w3.org/2000/svg" xmlns:xlink="http://www.w3.org/1999/xlink" viewBox="0 0 16 16"><defs><path id="a" d="M12 8v3l2.75-3H16v1.25l-2.58 2.74L16 14.75V16h-1.25l-2.52-2.75-.23.25V16h-.5L10 12V8zm-4.54 4.31.6 1.47.5-1a.5.5 0 0 1 .9.03l1 2.5a.5.5 0 1 1-.92.38l-.6-1.47-.5 1a.5.5 0 0 1-.9-.03l-1-2.5a.5.5 0 1 1 .92-.38"/><path id="b" d="M9.5 3H13a2 2 0 0 1 2 2H1V4a3 3 0 0 1 3-3h1.5C8 1 8 3 9.5 3"/></defs><use xlink:href="#a" fill="#2dd4bf" fill-rule="evenodd"/><use xlink:href="#a" fill="#f8fafc" fill-opacity="0.1" fill-rule="evenodd"/><use xlink:href="#b" fill="#2dd4bf" fill-opacity=".4" fill-rule="evenodd"/><use xlink:href="#b" fill="#f8fafc" fill-opacity="0.1" fill-rule="evenodd"/><path fill="#2dd4bf" fill-opacity=".8" fill-rule="evenodd" d="M2 6h8a2 2 0 0 0-2 2v2.21a2.5 2.5 0 0 0-3.32 3.22L5.3 15H3.9a3 3 0 0 1-2.93-2.35L.04 8.43 0 8.16v-.32A2 2 0 0 1 2 6m12 0q.2 0 .38.03-.58.12-1 .52A2 2 0 0 0 12 6z"/><path fill="#f8fafc" fill-opacity="0.1" d="M2 6h8a2 2 0 0 0-1.73 1H1.99a1 1 0 0 0-.97 1.22l.93 4.21A2 2 0 0 0 3.91 14h1l.4 1H3.9a3 3 0 0 1-2.93-2.35L.04 8.43 0 8.16v-.32A2 2 0 0 1 2 6m12 0q.2 0 .38.03-.58.12-1 .52A2 2 0 0 0 12 6z"/></svg>