<svg xmlns="http://www.w3.org/2000/svg" xmlns:xlink="http://www.w3.org/1999/xlink" viewBox="0 0 16 16"><defs><path id="a" d="M8.5 8.5 10 12l-1.5 3.5H6.75l1.5-3.5-1.5-3.5zm3 0L13 12l-1.5 3.5H9.75l1.5-3.5-1.5-3.5zm3 0L16 12l-1.5 3.5h-1.75l1.5-3.5-1.5-3.5z"/><path id="b" d="M9.5 3H13a2 2 0 0 1 2 2H1V4a3 3 0 0 1 3-3h1.5C8 1 8 3 9.5 3"/></defs><use xlink:href="#a" fill="#a78bfa" fill-rule="evenodd"/><use xlink:href="#a" fill="#f8fafc" fill-opacity="0.1" fill-rule="evenodd"/><use xlink:href="#b" fill="#a78bfa" fill-opacity=".4" fill-rule="evenodd"/><use xlink:href="#b" fill="#f8fafc" fill-opacity="0.1" fill-rule="evenodd"/><path fill="#a78bfa" fill-opacity=".8" fill-rule="evenodd" d="M14 6a2 2 0 0 1 1.66.87 2 2 0 0 0-1.16-.37h-1.75q-.33 0-.62.1-.3-.1-.63-.1H9.75q-.33 0-.62.1-.3-.1-.63-.1H6.75a2 2 0 0 0-1.84 2.79L6.07 12l-1.16 2.71-.1.3-.9-.01a3 3 0 0 1-2.93-2.35L.04 8.43 0 8.16v-.32A2 2 0 0 1 2 6z"/><path fill="#f8fafc" fill-opacity="0.1" d="M14 6a2 2 0 0 1 1.66.87 2 2 0 0 0-1.16-.37h-1.75q-.33 0-.62.1-.3-.1-.63-.1H9.75q-.33 0-.62.1-.3-.1-.63-.1H6.75a2 2 0 0 0-1.32.5H1.99a1 1 0 0 0-.97 1.22l.93 4.21A2 2 0 0 0 3.91 14h1.3l-.3.71-.1.3-.9-.01a3 3 0 0 1-2.93-2.35L.04 8.43 0 8.16v-.32A2 2 0 0 1 2 6z"/></svg>