<svg xmlns="http://www.w3.org/2000/svg" xmlns:xlink="http://www.w3.org/1999/xlink" viewBox="0 0 16 16"><defs><path id="a" d="M13.5 14h-3a.5.5 0 0 1-.5-.5v-.08a3.75 3.75 0 1 1 4 0v.08a.5.5 0 0 1-.5.5M11 15h2a.5.5 0 1 1 0 1h-2a.5.5 0 1 1 0-1"/><path id="b" d="M9.5 3H12a3 3 0 0 1 2.92 2.3A5.7 5.7 0 0 0 9.65 5H4a3 3 0 0 0-3 3V4a3 3 0 0 1 3-3h1.5C8 1 8 3 9.5 3"/></defs><use xlink:href="#a" fill="#facc15" fill-rule="evenodd"/><use xlink:href="#a" fill="#f8fafc" fill-opacity="0.1" fill-rule="evenodd"/><use xlink:href="#b" fill="#facc15" fill-opacity=".4" fill-rule="evenodd"/><use xlink:href="#b" fill="#f8fafc" fill-opacity="0.1" fill-rule="evenodd"/><path fill="#facc15" fill-opacity=".8" fill-rule="evenodd" d="M6.25 10.25c0 1.71.76 3.3 2.02 4.37q.1.2.23.38H4a3 3 0 0 1-3-3V8a3 3 0 0 1 3-3h5.65c-2 .9-3.4 2.91-3.4 5.25"/><path fill="#f8fafc" fill-opacity="0.1" d="m8.36 5.8-.23.2H4a2 2 0 0 0-2 2v4c0 1.1.9 2 2 2h3.64q.3.33.63.62.1.2.23.38H4a3 3 0 0 1-3-3V8a3 3 0 0 1 3-3h5.65q-.7.32-1.3.8"/></svg>