<svg xmlns="http://www.w3.org/2000/svg" xmlns:xlink="http://www.w3.org/1999/xlink" viewBox="0 0 16 16"><defs><path id="a" d="M15.54 8.46c.69.7.5 2.1-.38 3.54.87 1.45 1.07 2.84.38 3.54-.7.69-2.1.5-3.54-.38-1.45.87-2.84 1.07-3.54.38-.69-.7-.5-2.1.38-3.54-.87-1.45-1.07-2.84-.38-3.54.7-.69 2.1-.5 3.54.38 1.45-.87 2.84-1.07 3.54-.38m-5.7 4.88-.2-.21-.03.07q-.1.23-.17.45c-.2.58-.17.92-.1 1 .09.08.43.1 1.01-.09q.25-.08.52-.2a11 11 0 0 1-1.04-1.02m4.51-.21-.05.06a10 10 0 0 1-1.17 1.16q.27.13.52.21c.58.2.92.17 1 .1.08-.09.1-.43-.09-1.01zM12 10.34l-.2.16a9 9 0 0 0-1.46 1.5A9 9 0 0 0 12 13.66 9 9 0 0 0 13.66 12a9 9 0 0 0-.78-.88l-.3-.3zm-2.65-1c-.08.09-.1.43.09 1.01q.08.25.2.52a11 11 0 0 1 1.23-1.22l-.52-.21c-.58-.2-.92-.17-1-.1m4.3.1-.52.2a10 10 0 0 1 1.22 1.23q.13-.27.21-.52c.2-.58.17-.92.1-1-.09-.08-.43-.1-1.01.09"/><path id="b" d="M9.5 3H12a3 3 0 0 1 3 3v.1a4 4 0 0 0-.72-.05A3 3 0 0 0 12 5H4a3 3 0 0 0-3 3V4a3 3 0 0 1 3-3h1.5C8 1 8 3 9.5 3"/></defs><use xlink:href="#a" fill="#60a5fa" fill-rule="evenodd"/><use xlink:href="#a" fill="#f8fafc" fill-opacity="0.1" fill-rule="evenodd"/><use xlink:href="#b" fill="#60a5fa" fill-opacity=".4" fill-rule="evenodd"/><use xlink:href="#b" fill="#f8fafc" fill-opacity="0.1" fill-rule="evenodd"/><path fill="#60a5fa" fill-opacity=".8" fill-rule="evenodd" d="M12 5a3 3 0 0 1 2.28 1.05l-.46.03q-.9.1-1.82.51a6 6 0 0 0-1.82-.51 3.7 3.7 0 0 0-3.13.97 3.7 3.7 0 0 0-.97 3.13q.1.9.51 1.82a6 6 0 0 0-.51 1.82q-.08.6.01 1.18H4a3 3 0 0 1-3-3V8a3 3 0 0 1 3-3z"/><path fill="#f8fafc" fill-opacity="0.1" d="M12 5a3 3 0 0 1 2.28 1.05 5 5 0 0 0-1.31.2A2 2 0 0 0 12 6H4a2 2 0 0 0-2 2v4c0 1.1.9 2 2 2h2.06v.08q-.03.47.03.92H4a3 3 0 0 1-3-3V8a3 3 0 0 1 3-3z"/></svg>