<svg xmlns="http://www.w3.org/2000/svg" xmlns:xlink="http://www.w3.org/1999/xlink" viewBox="0 0 16 16"><defs><path id="a" d="m13.37 8.29-.92 1.98a.5.5 0 0 1-.9 0l-.92-1.98a.5.5 0 0 0-.45-.29H8.75c-.57 0-.93.6-.67 1.1l3.48 6.57c.19.35.7.35.88 0l3.48-6.57a.75.75 0 0 0-.67-1.1h-1.43a.5.5 0 0 0-.45.29"/><path id="b" d="M9.5 3H12a3 3 0 0 1 3 3h-.76A3 3 0 0 0 12 5H4a3 3 0 0 0-3 3V4a3 3 0 0 1 3-3h1.5C8 1 8 3 9.5 3"/></defs><use xlink:href="#a" fill="#4ade80" fill-rule="evenodd"/><use xlink:href="#a" fill="#f8fafc" fill-opacity="0.1" fill-rule="evenodd"/><use xlink:href="#b" fill="#4ade80" fill-opacity=".4" fill-rule="evenodd"/><use xlink:href="#b" fill="#f8fafc" fill-opacity="0.1" fill-rule="evenodd"/><path fill="#4ade80" fill-opacity=".8" fill-rule="evenodd" d="M12 5a3 3 0 0 1 2.24 1h-.42c-.7 0-1.36.3-1.82.79A2.5 2.5 0 0 0 10.18 6H8.75c-2.08 0-3.4 2.2-2.43 4.04L8.94 15H4a3 3 0 0 1-3-3V8a3 3 0 0 1 3-3z"/><path fill="#f8fafc" fill-opacity="0.1" d="M12 6H4a2 2 0 0 0-2 2v4c0 1.1.9 2 2 2h4.41l.53 1H4a3 3 0 0 1-3-3V8a3 3 0 0 1 3-3h8a3 3 0 0 1 2.24 1h-.42q-.51 0-.96.2A2 2 0 0 0 12 6"/></svg>