<svg xmlns="http://www.w3.org/2000/svg" xmlns:xlink="http://www.w3.org/1999/xlink" viewBox="0 0 16 16"><defs><path id="a" d="M14 8a2 2 0 0 1 2 2v4a2 2 0 0 1-2 2h-4a2 2 0 0 1-2-2v-4c0-1.1.9-2 2-2zm.49 1.13a1 1 0 0 0-1.36.38l-1.51 2.69-.83-1.06a1 1 0 1 0-1.58 1.22l1.75 2.25a1 1 0 0 0 1.66-.12l2.25-4a1 1 0 0 0-.38-1.36"/><path id="b" d="M9.5 3H12a3 3 0 0 1 3 3v.13a4 4 0 0 0-.76-.12A3 3 0 0 0 12 5H4a3 3 0 0 0-3 3V4a3 3 0 0 1 3-3h1.5C8 1 8 3 9.5 3"/></defs><use xlink:href="#a" fill="#fb923c" fill-rule="evenodd"/><use xlink:href="#a" fill="#f8fafc" fill-opacity="0.1" fill-rule="evenodd"/><use xlink:href="#b" fill="#fb923c" fill-opacity=".4" fill-rule="evenodd"/><use xlink:href="#b" fill="#f8fafc" fill-opacity="0.1" fill-rule="evenodd"/><path fill="#fb923c" fill-opacity=".8" fill-rule="evenodd" d="M12 5a3 3 0 0 1 2.24 1H10a4 4 0 0 0-4 4v4a4 4 0 0 0 .13 1H4a3 3 0 0 1-3-3V8a3 3 0 0 1 3-3z"/><path fill="#f8fafc" fill-opacity="0.1" d="M14 6H4a2 2 0 0 0-2 2v4c0 1.1.9 2 2 2h2v.27a4 4 0 0 0 .13.73H4a3 3 0 0 1-3-3V8a3 3 0 0 1 3-3h8a3 3 0 0 1 2.24 1z"/></svg>