<svg xmlns="http://www.w3.org/2000/svg" xmlns:xlink="http://www.w3.org/1999/xlink" viewBox="0 0 16 16"><defs><path id="b" d="M11.5 9q.83 0 1.57.28l-1.03 1.78A2.5 2.5 0 0 0 9 13.5q.02.86.5 1.5H7.26a4.5 4.5 0 0 1 4.24-6m3.9 2.25a4.5 4.5 0 0 1 .34 3.75H13.5q.43-.56.5-1.32z"/><path id="c" d="m11.13 15.93-.11-.05-.02-.01-.01-.01a1 1 0 0 1 .5-1.86l2.83-4.88a.5.5 0 1 1 .86.5l-2.81 4.88a1 1 0 0 1-1.24 1.43"/><path id="d" d="M9.5 3H12a3 3 0 0 1 3 3v.88h-.22A3 3 0 0 0 12 5H4a3 3 0 0 0-3 3V4a3 3 0 0 1 3-3h1.5C8 1 8 3 9.5 3"/><linearGradient id="a" x1="99.1%" x2="0%" y1="100%" y2="100%"><stop offset="0%" stop-color="#4ade80"/><stop offset="100%" stop-color="#fb7185"/></linearGradient></defs><use xlink:href="#b" fill="url(#a)" fill-rule="evenodd"/><use xlink:href="#b" fill="#f8fafc" fill-opacity="0.1" fill-rule="evenodd"/><use xlink:href="#c" fill="#94a3b8" fill-rule="evenodd"/><use xlink:href="#c" fill="#f8fafc" fill-opacity="0.1" fill-rule="evenodd"/><use xlink:href="#d" fill="#94a3b8" fill-opacity=".4" fill-rule="evenodd"/><use xlink:href="#d" fill="#f8fafc" fill-opacity="0.1" fill-rule="evenodd"/><path fill="#94a3b8" fill-opacity=".8" fill-rule="evenodd" d="M12 5a3 3 0 0 1 2.78 1.87q-.76 0-1.4.4A6.5 6.5 0 0 0 5.18 15L4 15.01a3 3 0 0 1-3-3V8a3 3 0 0 1 3-3z"/><path fill="#f8fafc" fill-opacity="0.1" d="M12 5a3 3 0 0 1 2.78 1.87q-.54 0-1 .2A2 2 0 0 0 12 6H4a2 2 0 0 0-2 2v4c0 1.1.9 2 2 2h1.02q.04.5.15 1H4a3 3 0 0 1-3-3V8a3 3 0 0 1 3-3z"/></svg>