<svg xmlns="http://www.w3.org/2000/svg" xmlns:xlink="http://www.w3.org/1999/xlink" viewBox="0 0 16 16"><defs><path id="a" d="M12 8h.16L9 11.18a1 1 0 0 0-.24.4l-.7 2.11a1 1 0 0 0 1.26 1.27l2.12-.7a1 1 0 0 0 .39-.25L14 11.83V14a2 2 0 0 1-2 2H8a2 2 0 0 1-2-2v-4c0-1.1.9-2 2-2z"/><path id="b" d="m14.66 9.76-3.54 3.53L9 14l.7-2.12 3.54-3.54zm1.06-2.48a1 1 0 0 1 0 1.42l-.36.35-1.41-1.41.35-.36a1 1 0 0 1 1.33-.07z"/><path id="c" d="M9.5 3H12a3 3 0 0 1 2.83 2 3 3 0 0 0-1.34.4Q12.83 5.01 12 5H4a3 3 0 0 0-3 3V4a3 3 0 0 1 3-3h1.5C8 1 8 3 9.5 3"/></defs><use xlink:href="#a" fill="#94a3b8" fill-opacity=".4" fill-rule="evenodd"/><use xlink:href="#a" fill="#f8fafc" fill-opacity="0.1" fill-rule="evenodd"/><use xlink:href="#b" fill="#94a3b8" fill-rule="evenodd"/><use xlink:href="#b" fill="#f8fafc" fill-opacity="0.1" fill-rule="evenodd"/><use xlink:href="#c" fill="#94a3b8" fill-opacity=".4" fill-rule="evenodd"/><use xlink:href="#c" fill="#f8fafc" fill-opacity="0.1" fill-rule="evenodd"/><path fill="#94a3b8" fill-opacity=".8" fill-rule="evenodd" d="M12 5q.82.01 1.5.4-.33.19-.6.47l-.2.2A4 4 0 0 0 12 6H8a4 4 0 0 0-4 4v4a4 4 0 0 0 .13 1H4a3 3 0 0 1-3-3V8a3 3 0 0 1 3-3z"/><path fill="#f8fafc" fill-opacity="0.1" d="M12 6H4a2 2 0 0 0-2 2v4c0 1.1.9 2 2 2q0 .52.13 1H4a3 3 0 0 1-3-3V8a3 3 0 0 1 3-3h8q.82.01 1.5.4-.33.19-.6.47l-.2.2A4 4 0 0 0 12 6"/></svg>