<svg xmlns="http://www.w3.org/2000/svg" xmlns:xlink="http://www.w3.org/1999/xlink" viewBox="0 0 16 16"><defs><path id="a" d="M13.98 11.79 12.48 9h.02a3.5 3.5 0 1 1-3.16 5h3.32a1.5 1.5 0 0 0 1.32-2.21"/><path id="b" d="m10.44 7.32 2.66 4.94a.5.5 0 0 1-.44.74H7.34a.5.5 0 0 1-.44-.74l2.66-4.94a.5.5 0 0 1 .88 0"/><path id="c" d="M9.5 3H12a3 3 0 0 1 3 3v1.6l-.03-.01A3 3 0 0 0 12 5H4a3 3 0 0 0-3 3V4a3 3 0 0 1 3-3h1.5C8 1 8 3 9.5 3"/></defs><use xlink:href="#a" fill="#facc15" fill-rule="evenodd"/><use xlink:href="#a" fill="#f8fafc" fill-opacity="0.1" fill-rule="evenodd"/><use xlink:href="#b" fill="#2dd4bf" fill-rule="evenodd"/><use xlink:href="#b" fill="#f8fafc" fill-opacity="0.1" fill-rule="evenodd"/><use xlink:href="#c" fill="#2dd4bf" fill-opacity=".4" fill-rule="evenodd"/><use xlink:href="#c" fill="#f8fafc" fill-opacity="0.1" fill-rule="evenodd"/><path fill="#2dd4bf" fill-opacity=".8" fill-rule="evenodd" d="M12 5a3 3 0 0 1 2.97 2.59A5.5 5.5 0 0 0 12.54 7l-.34-.63a2.5 2.5 0 0 0-4.4 0L5.14 11.3a2.5 2.5 0 0 0 2.2 3.7H4a3 3 0 0 1-3-3V8a3 3 0 0 1 3-3z"/><path fill="#f8fafc" fill-opacity="0.1" d="M12.16 6h-.2a2.5 2.5 0 0 0-3.92 0H4a2 2 0 0 0-2 2v4c0 1.1.9 2 2 2h1.34c.44.6 1.15 1 2 1H4a3 3 0 0 1-3-3V8a3 3 0 0 1 3-3h8a3 3 0 0 1 2.97 2.59 6 6 0 0 0-1.15-.43 2 2 0 0 0-1.66-1.15"/></svg>