<svg xmlns="http://www.w3.org/2000/svg" xmlns:xlink="http://www.w3.org/1999/xlink" viewBox="0 0 16 16"><defs><path id="a" d="M15 11.5q0 .58-.18 1.11l1.03 1.04c.2.2.2.5 0 .7l-1.5 1.5a.5.5 0 0 1-.7 0l-1.04-1.03q-.53.18-1.11.18a3.5 3.5 0 0 1-3.35-4.52.5.5 0 0 1 .83-.2l1.67 1.66c.2.2.5.2.7 0l.59-.59a.5.5 0 0 0 0-.7l-1.67-1.67a.5.5 0 0 1 .21-.83A3.5 3.5 0 0 1 15 11.5"/><path id="b" d="M9.5 3H13a2 2 0 0 1 2 2H1V4a3 3 0 0 1 3-3h1.5C8 1 8 3 9.5 3"/></defs><use xlink:href="#a" fill="#facc15"/><use xlink:href="#a" fill="#f8fafc" fill-opacity="0.1"/><use xlink:href="#b" fill="#facc15" fill-opacity=".4" fill-rule="evenodd"/><use xlink:href="#b" fill="#f8fafc" fill-opacity="0.1" fill-rule="evenodd"/><path fill="#facc15" fill-opacity=".8" fill-rule="evenodd" d="M16 7.83v.33l-.02.15.02.03a5.5 5.5 0 0 0-6.1-2.1 2.5 2.5 0 0 0-1.73 1.93c-.86.16-1.64.77-1.93 1.73A5.5 5.5 0 0 0 7.26 15H3.9a3 3 0 0 1-2.93-2.35L.04 8.43 0 8.16v-.33A2 2 0 0 1 2 6h12a2 2 0 0 1 2 1.83"/><path fill="#f8fafc" fill-opacity="0.1" d="M16 7.83v.33l-.02.15.02.03a5.5 5.5 0 0 0-6.1-2.1q-.73.22-1.17.76H1.99a1 1 0 0 0-.97 1.22l.93 4.21A2 2 0 0 0 3.91 14H6.6q.27.54.66 1H3.9a3 3 0 0 1-2.93-2.35L.04 8.43 0 8.16v-.33A2 2 0 0 1 2 6h12a2 2 0 0 1 2 1.83"/></svg>