<svg xmlns="http://www.w3.org/2000/svg" xmlns:xlink="http://www.w3.org/1999/xlink" viewBox="0 0 16 16"><defs><path id="a" d="M16 8c0 3.5-1.5 4.5-3.5 4.5 2 0 2.5 1.5 2.5 3.5h-1c-1.5 0-2.5-.97-2.5-2 0 1.05-1 2-2.5 2H8c0-2 .5-3.5 2.5-3.5-2 0-3.5-1-3.5-4.5q4.5 0 4.5 3 0-3 4.5-3"/><path id="b" d="M9.5 3H13a2 2 0 0 1 2 2H1V4a3 3 0 0 1 3-3h1.5C8 1 8 3 9.5 3"/></defs><use xlink:href="#a" fill="#60a5fa" fill-rule="evenodd"/><use xlink:href="#a" fill="#f8fafc" fill-opacity="0.1" fill-rule="evenodd"/><use xlink:href="#b" fill="#60a5fa" fill-opacity=".4" fill-rule="evenodd"/><use xlink:href="#b" fill="#f8fafc" fill-opacity="0.1" fill-rule="evenodd"/><path fill="#60a5fa" fill-opacity=".8" fill-rule="evenodd" d="M2 6h5a2 2 0 0 0-2 2q.02 3.28 1.55 4.93-.41.92-.51 2.07H3.91a3 3 0 0 1-2.93-2.35L.04 8.43 0 8.16v-.32A2 2 0 0 1 2 6m9.75.94-.23.15h-.04Q9.81 5.99 7.08 6H14a2 2 0 0 1 .55.08q-1.65.17-2.81.86"/><path fill="#f8fafc" fill-opacity="0.1" d="M2 6h5a2 2 0 0 0-1.73 1H1.99a1 1 0 0 0-.97 1.22l.93 4.21A2 2 0 0 0 3.91 14h2.28q-.1.48-.15 1H3.91a3 3 0 0 1-2.93-2.35L.04 8.43 0 8.16v-.32A2 2 0 0 1 2 6m12 0a2 2 0 0 1 .56.08q-1.65.17-2.81.86l-.1.06h-.3l-.1-.06A8 8 0 0 0 7.07 6z"/></svg>