<svg xmlns="http://www.w3.org/2000/svg" xmlns:xlink="http://www.w3.org/1999/xlink" viewBox="0 0 16 16"><defs><path id="a" d="M13.5 12h1c.28 0 .5.22.5.5s.22.5.5.5.5.22.5.5v1a.5.5 0 0 1-.5.5.5.5 0 0 0-.5.5.5.5 0 0 1-.5.5h-1a.5.5 0 0 1-.5-.5.5.5 0 0 0-.5-.5.5.5 0 0 1-.5-.5v-1c0-.28.22-.5.5-.5a.5.5 0 0 0 .5-.5c0-.28.22-.5.5-.5"/><path id="b" d="M8.5 12h1c.83 0 1.5.67 1.5 1.5v1c0 .83-.67 1.5-1.5 1.5h-1A1.5 1.5 0 0 1 7 14.5v-1c0-.83.67-1.5 1.5-1.5"/><path id="c" d="M8.5 7h1c.83 0 1.5.67 1.5 1.5v1c0 .83-.67 1.5-1.5 1.5h-1A1.5 1.5 0 0 1 7 9.5v-1C7 7.67 7.67 7 8.5 7"/><path id="d" d="M13.5 7h1c.83 0 1.5.67 1.5 1.5v1c0 .83-.67 1.5-1.5 1.5h-1A1.5 1.5 0 0 1 12 9.5v-1c0-.83.67-1.5 1.5-1.5"/><path id="e" d="M9.5 3H12a3 3 0 0 1 2.84 2.02L14.5 5h-1q-.4 0-.78.09A3 3 0 0 0 12 5H4a3 3 0 0 0-3 3V4a3 3 0 0 1 3-3h1.5C8 1 8 3 9.5 3"/></defs><use xlink:href="#a" fill="#4ade80" fill-rule="evenodd"/><use xlink:href="#a" fill="#f8fafc" fill-opacity="0.1" fill-rule="evenodd"/><use xlink:href="#b" fill="#facc15" fill-rule="evenodd"/><use xlink:href="#b" fill="#f8fafc" fill-opacity="0.1" fill-rule="evenodd"/><use xlink:href="#c" fill="#fb7185" fill-rule="evenodd"/><use xlink:href="#c" fill="#f8fafc" fill-opacity="0.1" fill-rule="evenodd"/><use xlink:href="#d" fill="#60a5fa" fill-rule="evenodd"/><use xlink:href="#d" fill="#f8fafc" fill-opacity="0.1" fill-rule="evenodd"/><use xlink:href="#e" fill="#60a5fa" fill-opacity=".4" fill-rule="evenodd"/><use xlink:href="#e" fill="#f8fafc" fill-opacity="0.1" fill-rule="evenodd"/><path fill="#60a5fa" fill-opacity=".8" fill-rule="evenodd" d="M4 5h4.5A3.5 3.5 0 0 0 5 8.5v1q.02 1.13.63 2-.62.87-.63 2v1q0 .26.04.5H4a3 3 0 0 1-3-3V8a3 3 0 0 1 3-3m8 0a3 3 0 0 1 .72.09q-.68.16-1.22.54a3.5 3.5 0 0 0-2-.63z"/><path fill="#f8fafc" fill-opacity="0.1" d="M4 5h4.5c-.95 0-1.82.38-2.45 1H4a2 2 0 0 0-2 2v4c0 1.1.9 2 2 2h1v.5q0 .26.04.5H4a3 3 0 0 1-3-3V8a3 3 0 0 1 3-3m8 0a3 3 0 0 1 .72.09q-.68.16-1.22.54a3.5 3.5 0 0 0-2-.63z"/></svg>