<svg xmlns="http://www.w3.org/2000/svg" xmlns:xlink="http://www.w3.org/1999/xlink" viewBox="0 0 16 16"><defs><path id="a" d="M9 14.25v.5q.02.23.25.25h.5q.23.02.25.25v.5q-.02.23-.25.25h-1.5a.25.25 0 0 1-.25-.25v-1.5q.02-.23.25-.25h.5q.23.02.25.25m7-6v3.64q0 .11-.09.18l-1.82 1.6a.3.3 0 0 0-.09.2v1.88q-.02.23-.25.25H11.6a.3.3 0 0 1-.17-.07l-.79-.79a.25.25 0 0 1-.03-.31l.28-.4a.25.25 0 0 0-.03-.32l-.97-.97a.25.25 0 0 0-.31-.03l-.4.28a.25.25 0 0 1-.32-.03l-.79-.79A.3.3 0 0 1 8 12.4v-2.15q.02-.23.25-.25h2.13q.12 0 .2-.1l1.35-1.8q.07-.1.2-.1h3.62q.23.02.25.25M14 9a1 1 0 1 0 0 2 1 1 0 0 0 0-2"/><path id="b" d="M9.5 3H13a2 2 0 0 1 2 2H1V4a3 3 0 0 1 3-3h1.5C8 1 8 3 9.5 3"/></defs><use xlink:href="#a" fill="#38bdf8" fill-rule="evenodd"/><use xlink:href="#a" fill="#f8fafc" fill-opacity="0.1" fill-rule="evenodd"/><use xlink:href="#b" fill="#38bdf8" fill-opacity=".4" fill-rule="evenodd"/><use xlink:href="#b" fill="#f8fafc" fill-opacity="0.1" fill-rule="evenodd"/><path fill="#38bdf8" fill-opacity=".8" fill-rule="evenodd" d="M2 6h10a2 2 0 0 0-1.6.8L9.5 8H8a2 2 0 0 0-2 2v5H3.9a3 3 0 0 1-2.92-2.35L.04 8.43 0 8.16v-.32A2 2 0 0 1 2 6"/><path fill="#f8fafc" fill-opacity="0.1" d="M2 6h10a2 2 0 0 0-1.6.8l-.15.2H1.99a1 1 0 0 0-.97 1.22l.93 4.21A2 2 0 0 0 3.91 14H6v1H3.9a3 3 0 0 1-2.92-2.35L.04 8.43 0 8.16v-.32A2 2 0 0 1 2 6"/></svg>