<svg xmlns="http://www.w3.org/2000/svg" xmlns:xlink="http://www.w3.org/1999/xlink" viewBox="0 0 16 16"><defs><path id="a" d="M13 7a3 3 0 0 1 .83 5.88L16 16h-3l-2-3h-1v3H8v-5h1.75L8 8.38V7zm-1.86 2 1.39 2h.39a1 1 0 0 0 0-2z"/><path id="b" d="M9.5 3H13a2 2 0 0 1 2 2H1V4a3 3 0 0 1 3-3h1.5C8 1 8 3 9.5 3"/></defs><use xlink:href="#a" fill="#94a3b8" fill-rule="evenodd"/><use xlink:href="#a" fill="#f8fafc" fill-opacity="0.1" fill-rule="evenodd"/><use xlink:href="#b" fill="#94a3b8" fill-opacity=".4" fill-rule="evenodd"/><use xlink:href="#b" fill="#f8fafc" fill-opacity="0.1" fill-rule="evenodd"/><path fill="#94a3b8" fill-opacity=".8" fill-rule="evenodd" d="M6 7v1.38q0 .6.34 1.1l.14.22q-.46.54-.48 1.3v4H3.9a3 3 0 0 1-2.92-2.35L.04 8.43 0 8.16v-.32A2 2 0 0 1 2 6h4.27A2 2 0 0 0 6 7"/><path fill="#f8fafc" fill-opacity="0.1" d="M6 7H2a1 1 0 0 0-.98 1.22l.93 4.21A2 2 0 0 0 3.91 14H6v1H3.9a3 3 0 0 1-2.92-2.35L.04 8.43 0 8.16v-.32A2 2 0 0 1 2 6h4.27A2 2 0 0 0 6 7"/></svg>