<svg xmlns="http://www.w3.org/2000/svg" xmlns:xlink="http://www.w3.org/1999/xlink" viewBox="0 0 16 16"><defs><path id="a" d="m10 14-3-2V8l3 2zm3-6v4l3-2z"/><path id="b" d="M16 10v4l-3 2v-4zm-3-2v4l-3 2v-4z"/><path id="c" d="M9.5 3H12a3 3 0 0 1 3 3v.93l-.27-.19A3 3 0 0 0 12 5H4a3 3 0 0 0-3 3V4a3 3 0 0 1 3-3h1.5C8 1 8 3 9.5 3"/></defs><use xlink:href="#a" fill="#4ade80"/><use xlink:href="#a" fill="#f8fafc" fill-opacity="0.1"/><use xlink:href="#b" fill="#4ade80" fill-opacity=".6"/><use xlink:href="#b" fill="#f8fafc" fill-opacity="0.1"/><use xlink:href="#c" fill="#4ade80" fill-opacity=".4" fill-rule="evenodd"/><use xlink:href="#c" fill="#f8fafc" fill-opacity="0.1" fill-rule="evenodd"/><path fill="#4ade80" fill-opacity=".8" fill-rule="evenodd" d="M12 5a3 3 0 0 1 2.73 1.74l-.62-.4a2 2 0 0 0-2.07-.1l-.15.1L10 7.6 8.1 6.34A2 2 0 0 0 5 8v4a2 2 0 0 0 .9 1.66l2 1.34H4a3 3 0 0 1-3-3V8a3 3 0 0 1 3-3z"/><path fill="#f8fafc" fill-opacity="0.1" d="M12 5a3 3 0 0 1 2.73 1.74l-.62-.4a2 2 0 0 0-1.61-.28A2 2 0 0 0 12 6H4a2 2 0 0 0-2 2v4c0 1.1.9 2 2 2h2.4l1.5 1H4a3 3 0 0 1-3-3V8a3 3 0 0 1 3-3z"/></svg>