<svg xmlns="http://www.w3.org/2000/svg" xmlns:xlink="http://www.w3.org/1999/xlink" viewBox="0 0 16 16"><defs><path id="a" d="m10.76 15.69-3.08-3.4A.77.77 0 0 1 8.25 11H9.5a.5.5 0 0 0 .5-.5V9a1 1 0 0 1 1-1h1a1 1 0 0 1 1 1v1.5c0 .28.22.5.5.5h1.25c.67 0 1.02.8.57 1.3l-3.08 3.39a1 1 0 0 1-1.48 0"/><path id="b" d="M9.5 3H13a2 2 0 0 1 2 2H1V4a3 3 0 0 1 3-3h1.5C8 1 8 3 9.5 3"/></defs><use xlink:href="#a" fill="#e879f9" fill-rule="evenodd"/><use xlink:href="#a" fill="#f8fafc" fill-opacity="0.1" fill-rule="evenodd"/><use xlink:href="#b" fill="#e879f9" fill-opacity=".4" fill-rule="evenodd"/><use xlink:href="#b" fill="#f8fafc" fill-opacity="0.1" fill-rule="evenodd"/><path fill="#e879f9" fill-opacity=".8" fill-rule="evenodd" d="M8 8.82v.2a2.77 2.77 0 0 0-1.8 4.62L7.43 15H3.91a3 3 0 0 1-2.93-2.35L.04 8.43 0 8.16v-.33A2 2 0 0 1 2 6h9a3 3 0 0 0-3 2.82m7 .2V9a3 3 0 0 0-3-3h2a2 2 0 0 1 2 1.84v.32q0 .13-.04.27l-.17.77q-.36-.15-.79-.18"/><path fill="#f8fafc" fill-opacity="0.1" d="M2 6h9a3 3 0 0 0-2.24 1H2a1 1 0 0 0-.97 1.22l.93 4.21A2 2 0 0 0 3.91 14h2.61l.91 1H3.91a3 3 0 0 1-2.93-2.35L.04 8.43 0 8.16v-.33A2 2 0 0 1 2 6m13 3.02V9q0-.3-.06-.6l.04-.18a1 1 0 0 0-.71-1.19A3 3 0 0 0 12 6h2a2 2 0 0 1 2 1.84v.32q0 .13-.04.27l-.17.77q-.36-.15-.79-.18"/></svg>