<svg xmlns="http://www.w3.org/2000/svg" xmlns:xlink="http://www.w3.org/1999/xlink" viewBox="0 0 16 16"><defs><path id="a" d="m11 7.68.13-.1q.84-.62 1.65-.6.46.02.87.28c.76.47.98 1.3.83 2.31.94.4 1.52 1.04 1.52 1.93 0 .9-.58 1.52-1.52 1.93.15 1-.07 1.84-.83 2.31q-.42.25-.87.28a2.8 2.8 0 0 1-1.78-.7q-.9.71-1.78.7-.46-.02-.87-.28c-.76-.47-.98-1.3-.83-2.31C6.58 13.03 6 12.39 6 11.5c0-.9.58-1.52 1.52-1.93-.15-1 .07-1.84.83-2.31q.42-.25.87-.28a2.8 2.8 0 0 1 1.78.7m-1.99 7q.1.06.24.08.35.02.83-.3l-.43-.53a10 10 0 0 1-.92-.14q-.05.68.28.89m4.27-.74v-.15l-.18.04q-.36.07-.75.1-.21.28-.43.52.48.33.83.3.14 0 .24-.07.3-.19.29-.74m-3.34-1.78.25.4.13.17a14 14 0 0 0 1.36 0 14 14 0 0 0 .77-1.23l-.39-.66-.24-.37-.14-.2a14 14 0 0 0-1.36 0 15 15 0 0 0-.77 1.23zm-2.1-1.37-.06.03q-.53.31-.53.68 0 .4.6.71l.3-.71zm6.31 0-.11.28-.13.29-.06.14.3.71q.6-.31.6-.71t-.6-.71M9.01 8.32q-.34.21-.28.89.44-.1.92-.14l.43-.52a2 2 0 0 0-.72-.3.6.6 0 0 0-.35.07m2.95.2-.04.03.43.52q.48.05.92.14.05-.68-.28-.89l-.24-.08q-.33-.02-.8.28"/><path id="b" d="M9.5 3H12a3 3 0 0 1 2.99 2.76l-.28-.2a3.8 3.8 0 0 0-2.47-.55L12 5H9.66l-.53-.01-.18.01H4a3 3 0 0 0-3 3V4a3 3 0 0 1 3-3h1.5C8 1 8 3 9.5 3"/></defs><use xlink:href="#a" fill="#38bdf8" fill-rule="evenodd"/><use xlink:href="#a" fill="#f8fafc" fill-opacity="0.1" fill-rule="evenodd"/><use xlink:href="#b" fill="#38bdf8" fill-opacity=".4" fill-rule="evenodd"/><use xlink:href="#b" fill="#f8fafc" fill-opacity="0.1" fill-rule="evenodd"/><path fill="#38bdf8" fill-opacity=".8" fill-rule="evenodd" d="M4 5h4.95l.18-.01q-.99.04-1.84.57a3.8 3.8 0 0 0-1.78 2.9A3.8 3.8 0 0 0 4 11.5c0 1.27.56 2.3 1.5 3.04l.08.46H4a3 3 0 0 1-3-3V8a3 3 0 0 1 3-3m8 0 .25.01a4 4 0 0 0-1.25.35q-.65-.3-1.34-.36z"/><path fill="#f8fafc" fill-opacity="0.1" d="M4 5h4.95l.18-.01A3.8 3.8 0 0 0 6.7 6H4a2 2 0 0 0-2 2v4c0 1.1.9 2 2 2h.93q.26.3.58.54.02.24.07.46H4a3 3 0 0 1-3-3V8a3 3 0 0 1 3-3m8 0 .25.01a4 4 0 0 0-1.25.35q-.65-.3-1.34-.36z"/></svg>