<svg xmlns="http://www.w3.org/2000/svg" xmlns:xlink="http://www.w3.org/1999/xlink" viewBox="0 0 16 16"><defs><path id="a" d="M11 8a4 4 0 1 1 0 8 4 4 0 0 1 0-8m1 1.5a1.5 1.5 0 1 0 0 3 1.5 1.5 0 0 0 0-3M15 7a1 1 0 1 1 0 2 1 1 0 0 1 0-2"/><path id="b" d="M9.5 3H12a3 3 0 0 1 2.83 2H15q-.83.01-1.5.4-.67-.39-1.5-.4H4a3 3 0 0 0-3 3V4a3 3 0 0 1 3-3h1.5C8 1 8 3 9.5 3"/></defs><use xlink:href="#a" fill="#60a5fa" fill-rule="evenodd"/><use xlink:href="#a" fill="#f8fafc" fill-opacity="0.1" fill-rule="evenodd"/><use xlink:href="#b" fill="#60a5fa" fill-opacity=".4" fill-rule="evenodd"/><use xlink:href="#b" fill="#f8fafc" fill-opacity="0.1" fill-rule="evenodd"/><path fill="#60a5fa" fill-opacity=".8" fill-rule="evenodd" d="M12 5q.83.01 1.5.4a3 3 0 0 0-.91.82A6 6 0 0 0 5.8 15H4a3 3 0 0 1-3-3V8a3 3 0 0 1 3-3z"/><path fill="#f8fafc" fill-opacity="0.1" d="M12 6H4a2 2 0 0 0-2 2v4c0 1.1.9 2 2 2h1.34q.2.52.46 1H4a3 3 0 0 1-3-3V8a3 3 0 0 1 3-3h8q.83.01 1.5.4a3 3 0 0 0-.83.71A2 2 0 0 0 12 6"/></svg>