<svg xmlns="http://www.w3.org/2000/svg" xmlns:xlink="http://www.w3.org/1999/xlink" viewBox="0 0 16 16"><defs><path id="a" d="M13.8 7a1 1 0 0 1 .75.34l1.2 1.38a1 1 0 0 1 .25.66v5.37c0 .69-.56 1.25-1.25 1.25h-5.5C8.56 16 8 15.44 8 14.75V9.38a1 1 0 0 1 .25-.66l1.2-1.38A1 1 0 0 1 10.2 7zm-2.3 3a.5.5 0 0 0-.5.5v1a.5.5 0 0 1-.5.5h-.75a.5.5 0 0 0-.33.85l2.24 2.08c.2.18.49.18.68 0l2.24-2.08a.5.5 0 0 0-.33-.85h-.75a.5.5 0 0 1-.5-.5v-1a.5.5 0 0 0-.5-.5zm2-2h-3l-1 1h5z"/><path id="b" d="M9.5 3H12a3 3 0 0 1 2.9 2.2q-.53-.2-1.1-.2H4a3 3 0 0 0-3 3V4a3 3 0 0 1 3-3h1.5C8 1 8 3 9.5 3"/></defs><use xlink:href="#a" fill="#60a5fa" fill-rule="evenodd"/><use xlink:href="#a" fill="#f8fafc" fill-opacity="0.1" fill-rule="evenodd"/><use xlink:href="#b" fill="#60a5fa" fill-opacity=".4" fill-rule="evenodd"/><use xlink:href="#b" fill="#f8fafc" fill-opacity="0.1" fill-rule="evenodd"/><path fill="#60a5fa" fill-opacity=".8" fill-rule="evenodd" d="M4 5h6.2a3 3 0 0 0-2.25 1.02L6.75 7.4A3 3 0 0 0 6 9.38v5.37l.01.25H4a3 3 0 0 1-3-3V8a3 3 0 0 1 3-3"/><path fill="#f8fafc" fill-opacity="0.1" d="M4 5h6.2a3 3 0 0 0-2.23 1H4a2 2 0 0 0-2 2v4c0 1.1.9 2 2 2h2v.75l.01.25H4a3 3 0 0 1-3-3V8a3 3 0 0 1 3-3"/></svg>