<svg xmlns="http://www.w3.org/2000/svg" xmlns:xlink="http://www.w3.org/1999/xlink" viewBox="0 0 16 16"><defs><path id="a" d="M7.25 14C6.63 14 6 13.5 6 11c0-1.25 1.75-3.25 3-3.25A2.7 2.7 0 0 1 11 7q1.25 0 2 .75c1.25 0 3 2 3 3.25 0 2.5-.62 3-1.25 3q-.63 0-.75-.5c0 1.25-.81 1.69-3 1.69s-3-.44-3-1.69q-.12.5-.75.5"/><path id="b" d="M9.5 13.5c.75 0 .81-.25 1-.75h1c.19.5.25.75 1 .75v1a1.5 1.5 0 0 1-3 0z"/><path id="c" d="m11.53 12-.05-.15c.25.82.53 1.15.77 1.15.3 0 .56-.2.8-.71a.5.5 0 0 1 .9.42c-.38.83-.96 1.29-1.7 1.29q-.76 0-1.25-.78-.49.77-1.25.78c-.74 0-1.32-.46-1.7-1.29a.5.5 0 1 1 .9-.42c.24.5.5.71.8.71.22 0 .48-.3.72-1h.03a.5.5 0 1 1 0-1h1a.5.5 0 0 1 .03 1M9 9h1v1H9zm3 0h1v1h-1z"/><path id="d" d="M9.5 3H13a2 2 0 0 1 2 2H1V4a3 3 0 0 1 3-3h1.5C8 1 8 3 9.5 3"/></defs><use xlink:href="#a" fill="#facc15" fill-rule="evenodd"/><use xlink:href="#a" fill="#f8fafc" fill-opacity="0.1" fill-rule="evenodd"/><use xlink:href="#b" fill="#fb7185" fill-rule="evenodd"/><use xlink:href="#b" fill="#f8fafc" fill-opacity="0.1" fill-rule="evenodd"/><use xlink:href="#c" fill="#1e293b" fill-rule="evenodd"/><use xlink:href="#c" fill="#1e293b" fill-rule="evenodd"/><use xlink:href="#d" fill="#facc15" fill-opacity=".4" fill-rule="evenodd"/><use xlink:href="#d" fill="#f8fafc" fill-opacity="0.1" fill-rule="evenodd"/><path fill="#facc15" fill-opacity=".8" fill-rule="evenodd" d="M4 11c0 1.47.19 2.56.63 3.38q.18.35.42.62H3.91a3 3 0 0 1-2.93-2.35L.04 8.43 0 8.16v-.32A2 2 0 0 1 2 6h5.75C5.79 6.75 4 9.07 4 11"/><path fill="#f8fafc" fill-opacity="0.1" d="M6.34 6.82 6.13 7H1.99a1 1 0 0 0-.97 1.22l.93 4.21A2 2 0 0 0 3.91 14h.54a4 4 0 0 0 .6 1H3.91a3 3 0 0 1-2.93-2.35L.04 8.43 0 8.16v-.32A2 2 0 0 1 2 6h5.75q-.75.29-1.4.82"/></svg>