<svg xmlns="http://www.w3.org/2000/svg" xmlns:xlink="http://www.w3.org/1999/xlink" viewBox="0 0 16 16"><defs><path id="a" d="M10.5 14H16v2h-5.5a4.5 4.5 0 1 1 4.24-6H12.5a2.5 2.5 0 1 0-2 4m2.45-3H16v2h-3.5a2.5 2.5 0 0 0 .45-2"/><path id="b" d="M9.5 3H13a2 2 0 0 1 2 2H1V4a3 3 0 0 1 3-3h1.5C8 1 8 3 9.5 3"/></defs><use xlink:href="#a" fill="#fb7185" fill-rule="evenodd"/><use xlink:href="#a" fill="#f8fafc" fill-opacity="0.1" fill-rule="evenodd"/><use xlink:href="#b" fill="#fb7185" fill-opacity=".4" fill-rule="evenodd"/><use xlink:href="#b" fill="#f8fafc" fill-opacity="0.1" fill-rule="evenodd"/><path fill="#fb7185" fill-opacity=".8" fill-rule="evenodd" d="M4 11.5c0 1.29.38 2.5 1.02 3.5H3.91a3 3 0 0 1-2.93-2.35L.04 8.43 0 8.16v-.32A2 2 0 0 1 2 6h5.03A6.5 6.5 0 0 0 4 11.5M13.96 6h.05a2 2 0 0 1 2 1.84v.2A6.5 6.5 0 0 0 13.95 6"/><path fill="#f8fafc" fill-opacity="0.1" d="M5.8 7H2a1 1 0 0 0-.98 1.22l.93 4.21A2 2 0 0 0 3.91 14h.59q.21.53.52 1H3.91a3 3 0 0 1-2.93-2.35L.04 8.43 0 8.16v-.32A2 2 0 0 1 2 6h5.03q-.67.42-1.22 1m8.16-1h.05a2 2 0 0 1 2 1.84v.2A6.5 6.5 0 0 0 13.95 6"/></svg>