<svg xmlns="http://www.w3.org/2000/svg" xmlns:xlink="http://www.w3.org/1999/xlink" viewBox="0 0 16 16"><defs><path id="a" d="M12.5 7A2.5 2.5 0 0 1 15 9.5v.5a1 1 0 0 1 1 1v4a1 1 0 0 1-1 1h-5a1 1 0 0 1-1-1v-4a1 1 0 0 1 1-1v-.5A2.5 2.5 0 0 1 12.5 7m0 1c-.83 0-1.5.67-1.5 1.5v.5h3v-.5c0-.83-.67-1.5-1.5-1.5m0 6a1 1 0 1 0 0-2 1 1 0 0 0 0 2"/><path id="b" d="M9.5 3H13a2 2 0 0 1 2 2H1V4a3 3 0 0 1 3-3h1.5C8 1 8 3 9.5 3"/></defs><use xlink:href="#a" fill="#fb7185" fill-rule="evenodd"/><use xlink:href="#a" fill="#f8fafc" fill-opacity="0.1" fill-rule="evenodd"/><use xlink:href="#b" fill="#fb7185" fill-opacity=".4" fill-rule="evenodd"/><use xlink:href="#b" fill="#f8fafc" fill-opacity="0.1" fill-rule="evenodd"/><path fill="#fb7185" fill-opacity=".8" fill-rule="evenodd" d="M7 11v4H3.9a3 3 0 0 1-2.92-2.35L.04 8.43 0 8.16v-.32A2 2 0 0 1 2 6h7.67a4.5 4.5 0 0 0-1.6 2.7A3 3 0 0 0 7 11"/><path fill="#f8fafc" fill-opacity="0.1" d="M3.9 14H7v1H3.9a3 3 0 0 1-2.92-2.35L.04 8.43 0 8.16v-.32A2 2 0 0 1 2 6h7.67q-.53.42-.91 1H1.99a1 1 0 0 0-.97 1.22l.93 4.21A2 2 0 0 0 3.91 14"/></svg>