<svg xmlns="http://www.w3.org/2000/svg" xmlns:xlink="http://www.w3.org/1999/xlink" viewBox="0 0 16 16"><defs><path id="a" d="M9 8h3a1 1 0 0 1 0 2H9a1 1 0 1 1 0-2m6 0a1 1 0 1 1 0 2 1 1 0 0 1 0-2m0 3h-3a1 1 0 0 0 0 2h3a1 1 0 0 0 0-2m-6 0a1 1 0 1 0 0 2 1 1 0 0 0 0-2m0 3h3a1 1 0 0 1 0 2H9a1 1 0 0 1 0-2m6 0a1 1 0 1 1 0 2 1 1 0 0 1 0-2"/><path id="b" d="M9.5 3H12a3 3 0 0 1 3 2.82V6a3 3 0 0 0-.7.08A3 3 0 0 0 12 5H4a3 3 0 0 0-3 3V4a3 3 0 0 1 3-3h1.5C8 1 8 3 9.5 3"/></defs><use xlink:href="#a" fill="#fb923c" fill-rule="evenodd"/><use xlink:href="#a" fill="#f8fafc" fill-opacity="0.1" fill-rule="evenodd"/><use xlink:href="#b" fill="#fb923c" fill-opacity=".4" fill-rule="evenodd"/><use xlink:href="#b" fill="#f8fafc" fill-opacity="0.1" fill-rule="evenodd"/><path fill="#fb923c" fill-opacity=".8" fill-rule="evenodd" d="M6 14.77V15H4a3 3 0 0 1-3-3V8a3 3 0 0 1 3-3h8a3 3 0 0 1 2.3 1.08q-.42.1-.8.32-.67-.39-1.5-.4H9a3 3 0 0 0-2.6 4.5 3 3 0 0 0 0 3q-.33.57-.4 1.27"/><path fill="#f8fafc" fill-opacity="0.1" d="M12 6H4a2 2 0 0 0-2 2v4c0 1.1.9 2 2 2h2.17Q6 14.47 6 15H4a3 3 0 0 1-3-3V8a3 3 0 0 1 3-3h8a3 3 0 0 1 2.3 1.08q-.42.1-.8.32-.67-.39-1.5-.4"/></svg>