<svg xmlns="http://www.w3.org/2000/svg" xmlns:xlink="http://www.w3.org/1999/xlink" viewBox="0 0 16 16"><defs><path id="a" d="M16 11v3c0 1.1-1.8 2-4 2s-4-.9-4-2v-3c0 1.1 1.8 2 4 2s4-.9 4-2m-4-4c2.2 0 4 .9 4 2s-1.8 2-4 2-4-.9-4-2 1.8-2 4-2"/><path id="b" d="M9.5 3H13a2 2 0 0 1 2 2H1V4a3 3 0 0 1 3-3h1.5C8 1 8 3 9.5 3"/></defs><use xlink:href="#a" fill="#facc15" fill-rule="evenodd"/><use xlink:href="#a" fill="#f8fafc" fill-opacity="0.1" fill-rule="evenodd"/><use xlink:href="#b" fill="#facc15" fill-opacity=".4" fill-rule="evenodd"/><use xlink:href="#b" fill="#f8fafc" fill-opacity="0.1" fill-rule="evenodd"/><path fill="#facc15" fill-opacity=".8" fill-rule="evenodd" d="M6 9v5q0 .54.16 1H3.91a3 3 0 0 1-2.93-2.35L.04 8.43 0 8.16v-.32A2 2 0 0 1 2 6h5.9C6.77 6.68 6 7.7 6 9"/><path fill="#f8fafc" fill-opacity="0.1" d="M6.88 6.81 6.72 7H2a1 1 0 0 0-.97 1.22l.93 4.21A2 2 0 0 0 3.91 14H6q0 .54.16 1H3.91a3 3 0 0 1-2.93-2.35L.04 8.43 0 8.16v-.32A2 2 0 0 1 2 6h5.9q-.58.35-1.02.81"/></svg>