<svg xmlns="http://www.w3.org/2000/svg" xmlns:xlink="http://www.w3.org/1999/xlink" viewBox="0 0 16 16"><defs><path id="a" d="M16 13.5v.26c0 1.78-.18 2.24-4 2.24-4 0-4-.5-4-2.5 0-1.25 1.8-2.5 4-2.5s4 1.25 4 2.5M12 7a2 2 0 1 1 0 4 2 2 0 0 1 0-4"/><path id="b" d="M9.5 3H12a3 3 0 0 1 3 3v.36A4 4 0 0 0 12 5H4a3 3 0 0 0-3 3V4a3 3 0 0 1 3-3h1.5C8 1 8 3 9.5 3"/></defs><use xlink:href="#a" fill="#facc15" fill-rule="evenodd"/><use xlink:href="#a" fill="#f8fafc" fill-opacity="0.1" fill-rule="evenodd"/><use xlink:href="#b" fill="#facc15" fill-opacity=".4" fill-rule="evenodd"/><use xlink:href="#b" fill="#f8fafc" fill-opacity="0.1" fill-rule="evenodd"/><path fill="#facc15" fill-opacity=".8" fill-rule="evenodd" d="m8.15 10.07-.03.01-.04.02C6.83 10.92 6 12.11 6 13.5c0 .78.01 1.1.08 1.5H4a3 3 0 0 1-3-3V8a3 3 0 0 1 3-3h8a4 4 0 0 0-3.85 5.07"/><path fill="#f8fafc" fill-opacity="0.1" d="M4 5h8c-1.01 0-1.94.38-2.65 1H4a2 2 0 0 0-2 2v4c0 1.1.9 2 2 2h2c0 .44.03.7.08 1H4a3 3 0 0 1-3-3V8a3 3 0 0 1 3-3"/></svg>