<svg xmlns="http://www.w3.org/2000/svg" xmlns:xlink="http://www.w3.org/1999/xlink" viewBox="0 0 16 16"><defs><path id="a" d="M8 14.8V8.2a1 1 0 0 1 1.49-.87l5.94 3.3a1 1 0 0 1 0 1.74l-5.94 3.3A1 1 0 0 1 8 14.8"/><path id="b" d="M9.5 3H12a3 3 0 0 1 3 3v2a3 3 0 0 0-3-3H4a3 3 0 0 0-3 3V4a3 3 0 0 1 3-3h1.5C8 1 8 3 9.5 3"/></defs><use xlink:href="#a" fill="#60a5fa" fill-rule="evenodd"/><use xlink:href="#a" fill="#f8fafc" fill-opacity="0.1" fill-rule="evenodd"/><use xlink:href="#b" fill="#60a5fa" fill-opacity=".4" fill-rule="evenodd"/><use xlink:href="#b" fill="#f8fafc" fill-opacity="0.1" fill-rule="evenodd"/><path fill="#60a5fa" fill-opacity=".8" fill-rule="evenodd" d="M12 5a3 3 0 0 1 3 3v.1l-4.54-2.52A3 3 0 0 0 6 8.03V15H4a3 3 0 0 1-3-3V8a3 3 0 0 1 3-3z"/><path fill="#f8fafc" fill-opacity="0.1" d="M12 5a3 3 0 0 1 3 3v.1l-1.06-.59A2 2 0 0 0 12 6h-.78l-.76-.42a3 3 0 0 0-3.5.42H4a2 2 0 0 0-2 2v4c0 1.1.9 2 2 2h2v1H4a3 3 0 0 1-3-3V8a3 3 0 0 1 3-3z"/></svg>