<svg xmlns="http://www.w3.org/2000/svg" xmlns:xlink="http://www.w3.org/1999/xlink" viewBox="0 0 16 16"><defs><path id="a" d="m12.38 7.43 3.19 3.19c.48.48.48 1.28 0 1.76l-3.19 3.19c-.48.48-1.28.48-1.76 0l-3.19-3.19a1.25 1.25 0 0 1 0-1.76l3.19-3.19a1.25 1.25 0 0 1 1.76 0M10 9v5h1v-1.27a2 2 0 1 0 0-3.46V9zm2 1a1 1 0 1 1 0 2 1 1 0 0 1 0-2"/><path id="b" d="M9.5 3H13a2 2 0 0 1 2 2h-2.3a2.3 2.3 0 0 0-2.4 0H1V4a3 3 0 0 1 3-3h1.5C8 1 8 3 9.5 3"/></defs><use xlink:href="#a" fill="#facc15" fill-rule="evenodd"/><use xlink:href="#a" fill="#f8fafc" fill-opacity="0.1" fill-rule="evenodd"/><use xlink:href="#b" fill="#facc15" fill-opacity=".4" fill-rule="evenodd"/><use xlink:href="#b" fill="#f8fafc" fill-opacity="0.1" fill-rule="evenodd"/><path fill="#facc15" fill-opacity=".8" fill-rule="evenodd" d="m9.22 6-3.9 3.9a2.25 2.25 0 0 0 0 3.2l1.9 1.9H3.91a3 3 0 0 1-2.93-2.35L.04 8.43 0 8.16v-.32A2 2 0 0 1 2 6zM16 7.83v.39L13.78 6H14a2 2 0 0 1 2 1.83"/><path fill="#f8fafc" fill-opacity="0.1" d="m9.22 6-1 1H1.99a1 1 0 0 0-.97 1.22l.93 4.21A2 2 0 0 0 3.91 14h2.31l1 1H3.91a3 3 0 0 1-2.93-2.35L.04 8.43 0 8.16v-.32A2 2 0 0 1 2 6zM16 7.83v.39L13.78 6H14a2 2 0 0 1 2 1.83"/></svg>