<svg xmlns="http://www.w3.org/2000/svg" xmlns:xlink="http://www.w3.org/1999/xlink" viewBox="0 0 16 16"><defs><path id="a" d="m13.85 10.5.07.04c1.73 1 2.59 2.88 1.77 4.29-.53.92-1.5 1.25-2.93 1.25-.4 0-.72-.3-.75-.69l-.14.09c-1.71.98-3.74.76-4.56-.65-.6-1.02-.31-2.31.6-3.33.2-.23.5-.3.77-.23l-.02-.31C8.66 9 9.86 7.5 11.5 7.5c1.18 0 2.16.89 2.6 2.17.1.32 0 .65-.25.84m-4.82 1.98c-.52.59-.65 1.2-.42 1.6.34.6 1.45.71 2.52.1q.59-.37 1.15-1.66a.75.75 0 0 1 1.37.62 8 8 0 0 1-.8 1.44h-.1c.96 0 1.45-.17 1.64-.5.34-.58-.13-1.62-1.21-2.24a4 4 0 0 0-2.02-.35A.75.75 0 1 1 11 10c.5-.05 1.1-.02 1.66.1l.02.06C12.43 9.43 11.96 9 11.5 9c-.73 0-1.34.77-1.34 1.96 0 .48.43 1.41.9 2.05a.75.75 0 0 1-1.21.89q-.48-.66-.82-1.42"/><path id="b" d="M9.5 3H12a3 3 0 0 1 3 3v1.22l-.16-.19A3 3 0 0 0 12 5H4a3 3 0 0 0-3 3V4a3 3 0 0 1 3-3h1.5C8 1 8 3 9.5 3"/></defs><use xlink:href="#a" fill="#a78bfa" fill-rule="evenodd"/><use xlink:href="#a" fill="#f8fafc" fill-opacity="0.1" fill-rule="evenodd"/><use xlink:href="#b" fill="#a78bfa" fill-opacity=".4" fill-rule="evenodd"/><use xlink:href="#b" fill="#f8fafc" fill-opacity="0.1" fill-rule="evenodd"/><path fill="#a78bfa" fill-opacity=".8" fill-rule="evenodd" d="M12 5a3 3 0 0 1 2.84 2.03 4.5 4.5 0 0 0-3.12-1.52l-.22-.01c-2.47 0-4.32 1.87-4.75 4.34q-.18.14-.35.33A5 5 0 0 0 5.2 15H4a3 3 0 0 1-3-3V8a3 3 0 0 1 3-3z"/><path fill="#f8fafc" fill-opacity="0.1" d="M12 5a3 3 0 0 1 2.84 2.03 4.5 4.5 0 0 0-3.12-1.52l-.22-.01q-1.16.01-2.1.5H4a2 2 0 0 0-2 2v4c0 1.1.9 2 2 2h1q.05.5.2 1H4a3 3 0 0 1-3-3V8a3 3 0 0 1 3-3z"/></svg>