<svg xmlns="http://www.w3.org/2000/svg" xmlns:xlink="http://www.w3.org/1999/xlink" viewBox="0 0 16 16"><defs><path id="a" d="M14.08 7c.9 0 1.59.77 1.5 1.66l-.5 4.58c-.05.48-.33.9-.75 1.14l-2.09 1.2a1.5 1.5 0 0 1-1.48 0l-2.1-1.2a1.5 1.5 0 0 1-.74-1.14l-.5-4.58A1.5 1.5 0 0 1 8.93 7zm-3.36 2.16a.75.75 0 0 0-1.06.12l-1 1.25a.75.75 0 0 0 0 .94l1 1.25a.75.75 0 0 0 1.18-.94L10.2 11l.63-.78c.25-.32.2-.8-.12-1.06m2.62.12a.75.75 0 1 0-1.18.94l.63.78-.63.78a.75.75 0 0 0 1.18.94l1-1.25a.75.75 0 0 0 0-.94z"/><path id="b" d="M9.5 3H13a2 2 0 0 1 2 2H1V4a3 3 0 0 1 3-3h1.5C8 1 8 3 9.5 3"/></defs><use xlink:href="#a" fill="#fb923c" fill-rule="evenodd"/><use xlink:href="#a" fill="#f8fafc" fill-opacity="0.1" fill-rule="evenodd"/><use xlink:href="#b" fill="#fb923c" fill-opacity=".4" fill-rule="evenodd"/><use xlink:href="#b" fill="#f8fafc" fill-opacity="0.1" fill-rule="evenodd"/><path fill="#fb923c" fill-opacity=".8" fill-rule="evenodd" d="m5.42 8.49.02.38.49 4.58q.1.86.56 1.55H3.9a3 3 0 0 1-2.93-2.35L.04 8.43 0 8.16v-.32A2 2 0 0 1 2 6h4.47a3.5 3.5 0 0 0-1.05 2.49"/><path fill="#f8fafc" fill-opacity="0.1" d="M5.87 6.78 5.76 7H1.99a1 1 0 0 0-.97 1.22l.93 4.21A2 2 0 0 0 3.91 14h2.12q.15.54.46 1H3.9a3 3 0 0 1-2.93-2.35L.04 8.43 0 8.16v-.32A2 2 0 0 1 2 6h4.47q-.36.35-.6.78"/></svg>