<svg xmlns="http://www.w3.org/2000/svg" xmlns:xlink="http://www.w3.org/1999/xlink" viewBox="0 0 16 16"><defs><path id="a" d="m15.31 10.86-.8 2.8q.34.38.35.93a1.4 1.4 0 1 1-1.79-1.35l.13-.45.67-2.34a.75.75 0 0 1 1.44.41"/><path id="b" d="M9.53 13.19c.5 0 .94.26 1.2.65h2.74a.75.75 0 1 1 0 1.5h-2.75a1.4 1.4 0 1 1-1.19-2.15"/><path id="c" d="M8.4 9.25a1.4 1.4 0 0 1 1.06 2.34l.8 2.8a.75.75 0 0 1-1.45.41l-.8-2.8a1.4 1.4 0 0 1 .4-2.75"/><path id="d" d="M11.5 7a1.4 1.4 0 1 1-.52 2.71l-2.13 1.55a.75.75 0 0 1-.88-1.21L10.1 8.5v-.1c0-.72.55-1.33 1.26-1.4z"/><path id="e" d="M13.19 10.66v-.1l-2.13-1.55a.75.75 0 0 1 .88-1.21l2.13 1.55a1.4 1.4 0 0 1 1.93 1.3 1.4 1.4 0 0 1-2.81 0"/><path id="f" d="M14.8 9.94c.4.1.63.52.51.92l-.66 2.34a.75.75 0 1 1-1.45-.41l.67-2.34c.12-.4.53-.63.93-.51"/><path id="g" d="M9.5 3H13a2 2 0 0 1 2 2H1V4a3 3 0 0 1 3-3h1.5C8 1 8 3 9.5 3"/></defs><use xlink:href="#a" fill="#4ade80" fill-rule="evenodd"/><use xlink:href="#a" fill="#f8fafc" fill-opacity="0.1" fill-rule="evenodd"/><use xlink:href="#b" fill="#a78bfa" fill-rule="evenodd"/><use xlink:href="#b" fill="#f8fafc" fill-opacity="0.1" fill-rule="evenodd"/><use xlink:href="#c" fill="#2dd4bf" fill-rule="evenodd"/><use xlink:href="#c" fill="#f8fafc" fill-opacity="0.1" fill-rule="evenodd"/><use xlink:href="#d" fill="#fb7185" fill-rule="evenodd"/><use xlink:href="#d" fill="#f8fafc" fill-opacity="0.1" fill-rule="evenodd"/><use xlink:href="#e" fill="#60a5fa" fill-rule="evenodd"/><use xlink:href="#e" fill="#f8fafc" fill-opacity="0.1" fill-rule="evenodd"/><use xlink:href="#f" fill="#4ade80"/><use xlink:href="#f" fill="#f8fafc" fill-opacity="0.1"/><use xlink:href="#g" fill="#60a5fa" fill-opacity=".4" fill-rule="evenodd"/><use xlink:href="#g" fill="#f8fafc" fill-opacity="0.1" fill-rule="evenodd"/><path fill="#60a5fa" fill-opacity=".8" fill-rule="evenodd" d="M8.3 7.26a3.4 3.4 0 0 0-1.99 6.08l.03.08a3.4 3.4 0 0 0-.2 1.58H3.92a3 3 0 0 1-2.93-2.35L.04 8.43 0 8.16v-.32A2 2 0 0 1 2 6h7.09a3.4 3.4 0 0 0-.8 1.26m7.65.27.05.03q-.6-.3-1.3-.3A3.4 3.4 0 0 0 13.9 6h.1a2 2 0 0 1 1.95 1.53"/><path fill="#f8fafc" fill-opacity="0.1" d="M8.4 7H2a1 1 0 0 0-.98 1.22l.93 4.21A2 2 0 0 0 3.91 14h2.27a3 3 0 0 0-.03 1H3.9a3 3 0 0 1-2.93-2.35L.04 8.43 0 8.16v-.32A2 2 0 0 1 2 6h7.09a3 3 0 0 0-.69 1m7.55.53.05.03q-.6-.3-1.3-.3A3.4 3.4 0 0 0 13.9 6h.1a2 2 0 0 1 1.95 1.53"/></svg>