<svg xmlns="http://www.w3.org/2000/svg" xmlns:xlink="http://www.w3.org/1999/xlink" viewBox="0 0 16 16"><defs><path id="a" d="M9.5 3H12a3 3 0 0 1 2.84 2.02L14.5 5H4a3 3 0 0 0-3 3V4a3 3 0 0 1 3-3h1.5C8 1 8 3 9.5 3"/></defs><path fill="#a78bfa" fill-rule="evenodd" d="M10.41 13.25a.75.75 0 0 1 1.18 0l1.2 1.54a.75.75 0 0 1-.58 1.21H9.79a.75.75 0 0 1-.59-1.21zM14.5 7c.83 0 1.5.67 1.5 1.5v5c0 .83-.67 1.5-1.5 1.5h-.56a2 2 0 0 0-.36-.83l-1.2-1.54a1.75 1.75 0 0 0-2.62-.15l-.14.15-1.2 1.54q-.3.4-.36.83H7.5A1.5 1.5 0 0 1 6 13.5v-5C6 7.67 6.67 7 7.5 7z"/><use xlink:href="#a" fill="#a78bfa" fill-opacity=".4" fill-rule="evenodd"/><use xlink:href="#a" fill="#f8fafc" fill-opacity="0.1" fill-rule="evenodd"/><path fill="#a78bfa" fill-opacity=".8" fill-rule="evenodd" d="M4 5h3.5A3.5 3.5 0 0 0 4 8.5v5q0 .82.34 1.5H4a3 3 0 0 1-3-3V8a3 3 0 0 1 3-3"/><path fill="#f8fafc" fill-opacity="0.1" d="M3.85 14h.19q.08.53.3 1H4a3 3 0 0 1-3-3V8a3 3 0 0 1 3-3h3.5c-.95 0-1.82.38-2.45 1H4a2 2 0 0 0-2 2v4a2 2 0 0 0 1.85 2"/></svg>