<svg xmlns="http://www.w3.org/2000/svg" xmlns:xlink="http://www.w3.org/1999/xlink" viewBox="0 0 16 16"><defs><path id="a" d="M7.8 12H9l1.64-3.28a.5.5 0 0 0-.45-.72h-.88a.5.5 0 0 0-.45.28l-1.5 3a.5.5 0 0 0 .45.72"/><path id="b" d="M10.2 16h-.9a.5.5 0 0 1-.44-.28l-1.75-3.5a.5.5 0 0 1 0-.44l.44-.89a.5.5 0 0 1 .9 0l2.19 4.39a.5.5 0 0 1-.45.72"/><path id="c" d="M15.2 12H14l-1.64 3.28a.5.5 0 0 0 .45.72h.88a.5.5 0 0 0 .45-.28l1.5-3a.5.5 0 0 0-.45-.72"/><path id="d" d="M12.8 8h.9q.29 0 .44.28l1.75 3.5a.5.5 0 0 1 0 .44l-.44.89a.5.5 0 0 1-.9 0l-2.19-4.39a.5.5 0 0 1 .45-.72"/><path id="e" d="M9.5 3H13a2 2 0 0 1 2 2H1V4a3 3 0 0 1 3-3h1.5C8 1 8 3 9.5 3"/></defs><use xlink:href="#a" fill="#fb7185" fill-rule="evenodd"/><use xlink:href="#a" fill="#f8fafc" fill-opacity="0.1" fill-rule="evenodd"/><use xlink:href="#b" fill="#60a5fa" fill-rule="evenodd"/><use xlink:href="#b" fill="#f8fafc" fill-opacity="0.1" fill-rule="evenodd"/><use xlink:href="#c" fill="#facc15" fill-rule="evenodd"/><use xlink:href="#c" fill="#f8fafc" fill-opacity="0.1" fill-rule="evenodd"/><use xlink:href="#d" fill="#4ade80" fill-rule="evenodd"/><use xlink:href="#d" fill="#f8fafc" fill-opacity="0.1" fill-rule="evenodd"/><use xlink:href="#e" fill="#60a5fa" fill-opacity=".4" fill-rule="evenodd"/><use xlink:href="#e" fill="#f8fafc" fill-opacity="0.1" fill-rule="evenodd"/><path fill="#60a5fa" fill-opacity=".8" fill-rule="evenodd" d="M2 6h7.3a2.5 2.5 0 0 0-2.23 1.38l-1.75 3.5a2.5 2.5 0 0 0 0 2.24L6.26 15H3.91a3 3 0 0 1-2.93-2.35L.04 8.43 0 8.16v-.32A2 2 0 0 1 2 6m8.2 0h2.6q-.73.01-1.3.37A2.4 2.4 0 0 0 10.2 6m5.67 1.28.06.1a2.5 2.5 0 0 0-2.06-1.37L13.69 6h.32a2 2 0 0 1 1.86 1.28"/><path fill="#f8fafc" fill-opacity="0.1" d="M2 6h7.3c-.79 0-1.52.38-2 1H2a1 1 0 0 0-.98 1.22l.93 4.21A2 2 0 0 0 3.91 14h1.85l.5 1H3.91a3 3 0 0 1-2.93-2.35L.04 8.43 0 8.16v-.32A2 2 0 0 1 2 6m8.2 0h2.6q-.73.01-1.3.37A2.4 2.4 0 0 0 10.2 6m5.67 1.28.06.1a2.5 2.5 0 0 0-2.06-1.37L13.69 6h.32a2 2 0 0 1 1.86 1.28"/></svg>