<svg xmlns="http://www.w3.org/2000/svg" xmlns:xlink="http://www.w3.org/1999/xlink" viewBox="0 0 16 16"><defs><linearGradient id="b" x1="44.98%" x2="60.69%" y1="50%" y2="27.04%"><stop offset="0%" stop-color="#fb7185" stop-opacity="0"/><stop offset="100%" stop-color="#fb7185"/></linearGradient><linearGradient id="c" x1="44.94%" x2="34.21%" y1="40.61%" y2="30.75%"><stop offset="0%" stop-color="#4ade80" stop-opacity="0"/><stop offset="100%" stop-color="#4ade80"/></linearGradient><linearGradient id="d" x1="50%" x2="50%" y1="22.66%" y2="0%"><stop offset="0%" stop-color="#facc15" stop-opacity="0"/><stop offset="100%" stop-color="#facc15"/></linearGradient><path id="a" d="M14.5 15.75c.75.5 2 .25 1.25-.5C13.5 13 14 7 11.02 7s-2.52 6-4.77 8.25c-.75.75.5 1 1.25.5C9.5 14.5 9 12 11 12s1.5 2.5 3.5 3.75"/><path id="e" d="M9.5 3H13a2 2 0 0 1 2 2H1V4a3 3 0 0 1 3-3h1.5C8 1 8 3 9.5 3"/></defs><use xlink:href="#a" fill="#60a5fa" fill-rule="evenodd"/><use xlink:href="#a" fill="url(#b)" fill-rule="evenodd"/><use xlink:href="#a" fill="url(#c)" fill-rule="evenodd"/><use xlink:href="#a" fill="url(#d)" fill-rule="evenodd"/><use xlink:href="#a" fill="#f8fafc" fill-opacity="0.1" fill-rule="evenodd"/><use xlink:href="#e" fill="#60a5fa" fill-opacity=".4" fill-rule="evenodd"/><use xlink:href="#e" fill="#f8fafc" fill-opacity="0.1" fill-rule="evenodd"/><path fill="#60a5fa" fill-opacity=".8" fill-rule="evenodd" d="m6.25 10.37-.1.31-.08.3c-.47 1.63-.82 2.44-1.23 2.86q-.54.54-.71 1.16H3.9a3 3 0 0 1-2.93-2.35L.04 8.43 0 8.16v-.32A2 2 0 0 1 2 6h6.4q-.52.49-.93 1.18c-.49.81-.77 1.6-1.22 3.2m9.7-1.94-.32 1.47-.16-.55a10 10 0 0 0-.9-2.17A5 5 0 0 0 13.61 6H14a2 2 0 0 1 2 1.83l-.01.33q0 .14-.04.27"/><path fill="#f8fafc" fill-opacity="0.1" d="M7.72 6.78 7.57 7H2a1 1 0 0 0-.97 1.22l.93 4.21A2 2 0 0 0 3.91 14h.77q-.4.47-.55 1H3.9a3 3 0 0 1-2.93-2.35L.04 8.43 0 8.16v-.32A2 2 0 0 1 2 6h6.4q-.36.35-.68.78m8.24 1.65-.33 1.47-.16-.55q-.23-.75-.47-1.3a1 1 0 0 0-.45-.9l.01.03A5 5 0 0 0 13.62 6h.39a2 2 0 0 1 2 1.83l-.01.33q0 .14-.04.27"/></svg>