<svg xmlns="http://www.w3.org/2000/svg" xmlns:xlink="http://www.w3.org/1999/xlink" viewBox="0 0 16 16"><defs><path id="a" d="M12 7.25c.41 0 .75.34.75.75v1h2.5a.75.75 0 1 1 0 1.5h-.27a5 5 0 0 1-1.68 3.32q.75.39 1.7.72a.75.75 0 0 1-.5 1.42A13 13 0 0 1 12 14.8q-1.07.66-2.5 1.16a.75.75 0 0 1-.5-1.42q.96-.33 1.7-.72a5 5 0 0 1-1.68-3.32h-.27a.75.75 0 1 1 0-1.5h2.5V8c0-.41.34-.75.75-.75m-.08 5.65.08.07a3.8 3.8 0 0 0 1.47-2.47h-2.94q.18 1.35 1.39 2.4"/><path id="b" d="M9.5 3H13a2 2 0 0 1 2 2H1V4a3 3 0 0 1 3-3h1.5C8 1 8 3 9.5 3"/></defs><use xlink:href="#a" fill="#a78bfa" fill-rule="evenodd"/><use xlink:href="#a" fill="#f8fafc" fill-opacity="0.1" fill-rule="evenodd"/><use xlink:href="#b" fill="#a78bfa" fill-opacity=".4" fill-rule="evenodd"/><use xlink:href="#b" fill="#f8fafc" fill-opacity="0.1" fill-rule="evenodd"/><path fill="#a78bfa" fill-opacity=".8" fill-rule="evenodd" d="M9.44 7h-.69a2.75 2.75 0 0 0-1.44 5.09q.13.47.35.92a2.8 2.8 0 0 0-1.15 2L3.91 15a3 3 0 0 1-2.93-2.35L.04 8.43 0 8.16v-.32A2 2 0 0 1 2 6h8.11q-.44.42-.67 1m4.57-1a2 2 0 0 1 1.76 1.05 3 3 0 0 0-.52-.05h-.7a3 3 0 0 0-.66-1z"/><path fill="#f8fafc" fill-opacity="0.1" d="M9.44 7H1.99a1 1 0 0 0-.97 1.22l.93 4.21A2 2 0 0 0 3.91 14h2.9q-.25.47-.3 1h-2.6a3 3 0 0 1-2.93-2.35L.04 8.43 0 8.16v-.32A2 2 0 0 1 2 6h8.11q-.44.42-.67 1m4.57-1a2 2 0 0 1 1.76 1.05 3 3 0 0 0-.52-.05h-.7a3 3 0 0 0-.66-1z"/></svg>