<svg xmlns="http://www.w3.org/2000/svg" xmlns:xlink="http://www.w3.org/1999/xlink" viewBox="0 0 16 16"><defs><path id="a" d="M16 8c0 3.5-1.5 4.5-3.5 4.5 2 0 2.5 1.5 2.5 3.5h-1c-1.5 0-2.5-.97-2.5-2 0 1.05-1 2-2.5 2H8c0-2 .5-3.5 2.5-3.5-2 0-3.5-1-3.5-4.5q4.5 0 4.5 3 0-3 4.5-3"/><path id="b" d="M9.5 3H12a3 3 0 0 1 3 3v.04q-.35.02-.68.07A3 3 0 0 0 12 5H4a3 3 0 0 0-3 3V4a3 3 0 0 1 3-3h1.5C8 1 8 3 9.5 3"/></defs><use xlink:href="#a" fill="#60a5fa" fill-rule="evenodd"/><use xlink:href="#a" fill="#f8fafc" fill-opacity="0.1" fill-rule="evenodd"/><use xlink:href="#b" fill="#60a5fa" fill-opacity=".4" fill-rule="evenodd"/><use xlink:href="#b" fill="#f8fafc" fill-opacity="0.1" fill-rule="evenodd"/><path fill="#60a5fa" fill-opacity=".8" fill-rule="evenodd" d="m11.75 6.94-.23.15h-.04C10.35 6.33 8.86 6 7 6a2 2 0 0 0-2 2q.02 3.28 1.55 4.93-.41.92-.51 2.07H4a3 3 0 0 1-3-3V8a3 3 0 0 1 3-3h8a3 3 0 0 1 2.33 1.1q-1.5.2-2.58.84"/><path fill="#f8fafc" fill-opacity="0.1" d="M12 6H4a2 2 0 0 0-2 2v4c0 1.1.9 2 2 2h2.2q-.12.48-.16 1H4a3 3 0 0 1-3-3V8a3 3 0 0 1 3-3h8a3 3 0 0 1 2.33 1.1q-.65.09-1.2.25A2 2 0 0 0 12 6"/></svg>