<svg xmlns="http://www.w3.org/2000/svg" xmlns:xlink="http://www.w3.org/1999/xlink" viewBox="0 0 16 16"><defs><path id="a" d="M14 8h1a1 1 0 0 1 1 1v1h-2zm-2 2h-2V8h2z"/><path id="b" d="M12 10h2v2h-2zm-2 2H8v-2h2zm4 0h2v2h-2zm-2 0v2h2v2h-2v-2h-2v2H9a1 1 0 0 1-1-1v-1h2v-2z"/><path id="c" d="M14 10h2v2h-2zm-2 4v2h-2v-2zv-2h-2v2H8v-2h2v-2h2v2h2v2zm2 0h2v1a1 1 0 0 1-1 1h-1z"/><path id="d" d="M12 8h2v2h-2zm-2 2H8V9a1 1 0 0 1 1-1h1z"/><path id="e" d="M9.5 3H12a3 3 0 0 1 3 3h-.76A3 3 0 0 0 12 5H4a3 3 0 0 0-3 3V4a3 3 0 0 1 3-3h1.5C8 1 8 3 9.5 3"/></defs><use xlink:href="#a" fill="#4ade80" fill-rule="evenodd"/><use xlink:href="#a" fill="#f8fafc" fill-opacity="0.1" fill-rule="evenodd"/><use xlink:href="#b" fill="#c88857" fill-rule="evenodd"/><use xlink:href="#b" fill="#f8fafc" fill-opacity="0.1" fill-rule="evenodd"/><use xlink:href="#c" fill="#facc15" fill-rule="evenodd"/><use xlink:href="#c" fill="#f8fafc" fill-opacity="0.1" fill-rule="evenodd"/><use xlink:href="#d" fill="#a3e635" fill-rule="evenodd"/><use xlink:href="#d" fill="#f8fafc" fill-opacity="0.1" fill-rule="evenodd"/><use xlink:href="#e" fill="#4ade80" fill-opacity=".4" fill-rule="evenodd"/><use xlink:href="#e" fill="#f8fafc" fill-opacity="0.1" fill-rule="evenodd"/><path fill="#4ade80" fill-opacity=".8" fill-rule="evenodd" d="M6 9v6H4a3 3 0 0 1-3-3V8a3 3 0 0 1 3-3h8a3 3 0 0 1 2.24 1H9a3 3 0 0 0-3 3"/><path fill="#f8fafc" fill-opacity="0.1" d="M14.24 6H4a2 2 0 0 0-2 2v4c0 1.1.9 2 2 2h2v1H4a3 3 0 0 1-3-3V8a3 3 0 0 1 3-3h8a3 3 0 0 1 2.24 1"/></svg>