<svg xmlns="http://www.w3.org/2000/svg" xmlns:xlink="http://www.w3.org/1999/xlink" viewBox="0 0 16 16"><defs><path id="a" d="M12.5 16c-2 0-3.5-1.5-3.5-3.5C9 9.75 11 9 12 6q2 1.75 1 4 1.75-1 1.5-2c.83.94 1.5 2.5 1.5 4.5S14.5 16 12.5 16"/><path id="b" d="M9.5 3H12a3 3 0 0 1 3 3v.05l-.24-.04-.16-.02a6 6 0 0 0-1.28-1.5 2 2 0 0 0-3.05.51H4a3 3 0 0 0-3 3V4a3 3 0 0 1 3-3h1.5C8 1 8 3 9.5 3"/></defs><use xlink:href="#a" fill="#fb923c" fill-rule="evenodd"/><use xlink:href="#a" fill="#f8fafc" fill-opacity="0.1" fill-rule="evenodd"/><use xlink:href="#b" fill="#fb923c" fill-opacity=".4" fill-rule="evenodd"/><use xlink:href="#b" fill="#f8fafc" fill-opacity="0.1" fill-rule="evenodd"/><path fill="#fb923c" fill-opacity=".8" fill-rule="evenodd" d="m9.3 7-.18.29-.76 1.1A7 7 0 0 0 7 12.5q0 1.37.57 2.5H4a3 3 0 0 1-3-3V8a3 3 0 0 1 3-3h6.27l-.11.23-.06.14c-.2.58-.44 1.07-.8 1.63"/><path fill="#f8fafc" fill-opacity="0.1" d="m10.16 5.23-.06.14q-.1.33-.24.63H4a2 2 0 0 0-2 2v4c0 1.1.9 2 2 2h3.2q.14.53.37 1H4a3 3 0 0 1-3-3V8a3 3 0 0 1 3-3h6.27z"/></svg>