<svg xmlns="http://www.w3.org/2000/svg" xmlns:xlink="http://www.w3.org/1999/xlink" viewBox="0 0 16 16"><defs><path id="a" d="M7.8 12H9l1.64-3.28a.5.5 0 0 0-.45-.72h-.88a.5.5 0 0 0-.45.28l-1.5 3a.5.5 0 0 0 .45.72"/><path id="b" d="M10.2 16h-.9a.5.5 0 0 1-.44-.28l-1.75-3.5a.5.5 0 0 1 0-.44l.44-.89a.5.5 0 0 1 .9 0l2.19 4.39a.5.5 0 0 1-.45.72"/><path id="c" d="M15.2 12H14l-1.64 3.28a.5.5 0 0 0 .45.72h.88a.5.5 0 0 0 .45-.28l1.5-3a.5.5 0 0 0-.45-.72"/><path id="d" d="M12.8 8h.9q.29 0 .44.28l1.75 3.5a.5.5 0 0 1 0 .44l-.44.89a.5.5 0 0 1-.9 0l-2.19-4.39a.5.5 0 0 1 .45-.72"/><path id="e" d="M9.5 3H12a3 3 0 0 1 3 3v.37a3 3 0 0 0-.7-.3A3 3 0 0 0 12 5H4a3 3 0 0 0-3 3V4a3 3 0 0 1 3-3h1.5C8 1 8 3 9.5 3"/></defs><use xlink:href="#a" fill="#fb7185" fill-rule="evenodd"/><use xlink:href="#a" fill="#f8fafc" fill-opacity="0.1" fill-rule="evenodd"/><use xlink:href="#b" fill="#60a5fa" fill-rule="evenodd"/><use xlink:href="#b" fill="#f8fafc" fill-opacity="0.1" fill-rule="evenodd"/><use xlink:href="#c" fill="#facc15" fill-rule="evenodd"/><use xlink:href="#c" fill="#f8fafc" fill-opacity="0.1" fill-rule="evenodd"/><use xlink:href="#d" fill="#4ade80" fill-rule="evenodd"/><use xlink:href="#d" fill="#f8fafc" fill-opacity="0.1" fill-rule="evenodd"/><use xlink:href="#e" fill="#60a5fa" fill-opacity=".4" fill-rule="evenodd"/><use xlink:href="#e" fill="#f8fafc" fill-opacity="0.1" fill-rule="evenodd"/><path fill="#60a5fa" fill-opacity=".8" fill-rule="evenodd" d="M12 5a3 3 0 0 1 2.3 1.08L13.87 6h-1.06q-.75.01-1.31.37A2.4 2.4 0 0 0 10.2 6h-.9a2.5 2.5 0 0 0-2.23 1.38l-1.75 3.5a2.5 2.5 0 0 0 0 2.24L6.26 15H4a3 3 0 0 1-3-3V8a3 3 0 0 1 3-3z"/><path fill="#f8fafc" fill-opacity="0.1" d="M12 6H4a2 2 0 0 0-2 2v4c0 1.1.9 2 2 2h1.76l.5 1H4a3 3 0 0 1-3-3V8a3 3 0 0 1 3-3h8a3 3 0 0 1 2.3 1.08L13.87 6h-1.06q-.23 0-.43.04z"/></svg>