<svg xmlns="http://www.w3.org/2000/svg" xmlns:xlink="http://www.w3.org/1999/xlink" viewBox="0 0 16 16"><defs><path id="a" d="M10.5 7a3.5 3.5 0 0 1 3.48 3.16A3 3 0 0 1 13 16H8.5a3.5 3.5 0 0 1-1.27-6.76A3.5 3.5 0 0 1 10.5 7m.88 2.62a1.25 1.25 0 0 0-1.76 0l-2 2a1.25 1.25 0 0 0 1.76 1.76l.47-.47 1.87 1.87c.27.27.68.3.98.07l.08-.07c.3-.3.3-.77 0-1.06l-1.87-1.87.47-.47c.46-.45.49-1.17.1-1.66z"/><path id="b" d="M9.5 3H13a2 2 0 0 1 2 2H1V4a3 3 0 0 1 3-3h1.5C8 1 8 3 9.5 3"/></defs><use xlink:href="#a" fill="#94a3b8" fill-rule="evenodd"/><use xlink:href="#a" fill="#f8fafc" fill-opacity="0.1" fill-rule="evenodd"/><use xlink:href="#b" fill="#94a3b8" fill-opacity=".4" fill-rule="evenodd"/><use xlink:href="#b" fill="#f8fafc" fill-opacity="0.1" fill-rule="evenodd"/><path fill="#94a3b8" fill-opacity=".8" fill-rule="evenodd" d="M5.74 7.74a5.5 5.5 0 0 0-2.15 7.24 3 3 0 0 1-2.61-2.33L.04 8.43 0 8.16v-.32A2 2 0 0 1 2 6h5.34a5.5 5.5 0 0 0-1.6 1.74m10.22.7-.1.46-.13-.09A5.5 5.5 0 0 0 13.66 6h.35a2 2 0 0 1 2 1.85v.3z"/><path fill="#f8fafc" fill-opacity="0.1" d="m6.45 6.78-.2.22H2a1 1 0 0 0-.97 1.22l.93 4.21a2 2 0 0 0 1.22 1.43q.15.6.42 1.12a3 3 0 0 1-2.61-2.33L.04 8.43 0 8.16v-.32A2 2 0 0 1 2 6h5.34q-.48.34-.89.78m9.5 1.65-.1.47-.12-.09A5.5 5.5 0 0 0 13.66 6h.35a2 2 0 0 1 2 1.85v.3z"/></svg>