<svg xmlns="http://www.w3.org/2000/svg" xmlns:xlink="http://www.w3.org/1999/xlink" viewBox="0 0 16 16"><defs><path id="a" d="M10.25 8c.53 0 .89.53.7 1.02l-2.1 5.48h1.4a.75.75 0 1 1 0 1.5h-2.5a.75.75 0 0 1-.7-1.02l2.1-5.48h-1.4a.75.75 0 0 1 0-1.5zm3.25 0a2.5 2.5 0 0 1 2.5 2.5v2h-3.5v1a1 1 0 0 0 2 0H16a2.5 2.5 0 1 1-5 0v-3A2.5 2.5 0 0 1 13.5 8m0 1.5a1 1 0 0 0-1 1v.5h2v-.5a1 1 0 0 0-1-1"/><path id="b" d="M9.5 3H13a2 2 0 0 1 2 2H1V4a3 3 0 0 1 3-3h1.5C8 1 8 3 9.5 3"/></defs><use xlink:href="#a" fill="#60a5fa" fill-rule="evenodd"/><use xlink:href="#a" fill="#f8fafc" fill-opacity="0.1" fill-rule="evenodd"/><use xlink:href="#b" fill="#60a5fa" fill-opacity=".4" fill-rule="evenodd"/><use xlink:href="#b" fill="#f8fafc" fill-opacity="0.1" fill-rule="evenodd"/><path fill="#60a5fa" fill-opacity=".8" fill-rule="evenodd" d="M2 6h5.75a2.75 2.75 0 0 0-1.36 5.14l-1.2 3.12q-.15.38-.18.74H3.9a3 3 0 0 1-2.93-2.35L.04 8.43 0 8.16v-.32A2 2 0 0 1 2 6m12 0q.54.01.97.25a4.5 4.5 0 0 0-3.3.14q-.63-.38-1.42-.39z"/><path fill="#f8fafc" fill-opacity="0.1" d="M2 6h5.75c-.85 0-1.62.39-2.12 1H1.99a1 1 0 0 0-.97 1.22l.93 4.21A2 2 0 0 0 3.91 14h1.37l-.1.26q-.14.38-.17.74H3.9a3 3 0 0 1-2.93-2.35L.04 8.43 0 8.16v-.32A2 2 0 0 1 2 6m12 0q.54.01.97.25a4.5 4.5 0 0 0-3.3.14q-.63-.38-1.42-.39z"/></svg>