<svg xmlns="http://www.w3.org/2000/svg" xmlns:xlink="http://www.w3.org/1999/xlink" viewBox="0 0 16 16"><defs><path id="a" d="M11.5 7a4.5 4.5 0 1 1 0 9 4.5 4.5 0 0 1 0-9m-3.3 5.25h-.12a3.5 3.5 0 0 0 2.49 2.62l.18.05q-.04-2.56-2.55-2.67m4.05 2.55v.12a3.5 3.5 0 0 0 2.62-2.49l.05-.18q-2.56.04-2.67 2.55m-.75-5.3c1.75 0 1.5 1 3.5 1.25l-.08-.01a3.5 3.5 0 0 0-6.84 0C10 10.47 9.78 9.5 11.5 9.5"/><path id="b" d="M9.5 3H12a3 3 0 0 1 3 3v.02a7 7 0 0 0-1.97-.84A3 3 0 0 0 12 5H4a3 3 0 0 0-3 3V4a3 3 0 0 1 3-3h1.5C8 1 8 3 9.5 3"/></defs><use xlink:href="#a" fill="#a78bfa" fill-rule="evenodd"/><use xlink:href="#a" fill="#f8fafc" fill-opacity="0.1" fill-rule="evenodd"/><use xlink:href="#b" fill="#a78bfa" fill-opacity=".4" fill-rule="evenodd"/><use xlink:href="#b" fill="#f8fafc" fill-opacity="0.1" fill-rule="evenodd"/><path fill="#a78bfa" fill-opacity=".8" fill-rule="evenodd" d="M4 5h7.5a6.5 6.5 0 0 0-5.48 10H4a3 3 0 0 1-3-3V8a3 3 0 0 1 3-3"/><path fill="#f8fafc" fill-opacity="0.1" d="M4 5h7.5c-1.27 0-2.46.37-3.47 1H4a2 2 0 0 0-2 2v4c0 1.1.9 2 2 2h1.5q.21.53.52 1H4a3 3 0 0 1-3-3V8a3 3 0 0 1 3-3"/></svg>