<svg xmlns="http://www.w3.org/2000/svg" xmlns:xlink="http://www.w3.org/1999/xlink" viewBox="0 0 16 16"><defs><path id="a" d="M9 16v-2h1v-1h1v-1H8v-1h1v-1h1V8h1V7h5v1h-1v1h-1v1h1v2h-1v1h-1v1h-1v1h-1v1z"/><path id="b" d="M9.5 3H13a2 2 0 0 1 2 2H1V4a3 3 0 0 1 3-3h1.5C8 1 8 3 9.5 3"/></defs><use xlink:href="#a" fill="#4ade80" fill-rule="evenodd"/><use xlink:href="#a" fill="#f8fafc" fill-opacity="0.1" fill-rule="evenodd"/><use xlink:href="#b" fill="#4ade80" fill-opacity=".4" fill-rule="evenodd"/><use xlink:href="#b" fill="#f8fafc" fill-opacity="0.1" fill-rule="evenodd"/><path fill="#4ade80" fill-opacity=".8" fill-rule="evenodd" d="M2 6h7a1 1 0 0 0-1 1v1a1 1 0 0 0-1 1 1 1 0 0 0-1 1v3a1 1 0 0 0 1 1v1H3.9a3 3 0 0 1-2.92-2.35L.04 8.43 0 8.16v-.32A2 2 0 0 1 2 6"/><path fill="#f8fafc" fill-opacity="0.1" d="M2 6h7a1 1 0 0 0-1 1H2a1 1 0 0 0-.98 1.22l.93 4.21A2 2 0 0 0 3.91 14H7v1H3.9a3 3 0 0 1-2.92-2.35L.04 8.43 0 8.16v-.32A2 2 0 0 1 2 6"/></svg>