<svg xmlns="http://www.w3.org/2000/svg" xmlns:xlink="http://www.w3.org/1999/xlink" viewBox="0 0 16 16"><defs><path id="a" d="M6.5 11h1c.28 0 .5.22.5.5v1a.5.5 0 0 1-.5.5h-1a.5.5 0 0 1-.5-.5v-1c0-.28.22-.5.5-.5"/><path id="c" d="m12.07 12.3.47-1.05a.5.5 0 0 1 .92 0l.47 1.04a.5.5 0 0 1-.46.71h-.94a.5.5 0 0 1-.46-.7"/><path id="d" d="M9.5 3H13a2 2 0 0 1 2 2H1V4a3 3 0 0 1 3-3h1.5C8 1 8 3 9.5 3"/><circle id="b" cx="10" cy="12" r="1"/></defs><path fill="#94a3b8" fill-opacity=".4" fill-rule="evenodd" d="M6 9h8a2 2 0 0 1 2 2v2a2 2 0 0 1-2 2H6a2 2 0 0 1-2-2v-2c0-1.1.9-2 2-2"/><use xlink:href="#a" fill="#facc15" fill-rule="evenodd"/><use xlink:href="#a" fill="#f8fafc" fill-opacity="0.1" fill-rule="evenodd"/><use xlink:href="#b" fill="#2dd4bf" fill-rule="evenodd"/><use xlink:href="#b" fill="#f8fafc" fill-opacity="0.1" fill-rule="evenodd"/><use xlink:href="#c" fill="#e879f9" fill-rule="evenodd"/><use xlink:href="#c" fill="#f8fafc" fill-opacity="0.1" fill-rule="evenodd"/><use xlink:href="#d" fill="#94a3b8" fill-opacity=".4" fill-rule="evenodd"/><use xlink:href="#d" fill="#f8fafc" fill-opacity="0.1" fill-rule="evenodd"/><path fill="#94a3b8" fill-opacity=".8" fill-rule="evenodd" d="m15.95 7.5.05.04A4 4 0 0 0 14 7H6a4 4 0 0 0-4 4v2q0 .81.3 1.54a3 3 0 0 1-1.32-1.89L.04 8.43 0 8.16v-.32A2 2 0 0 1 2 6h12a2 2 0 0 1 1.95 1.5"/><path fill="#f8fafc" fill-opacity="0.1" d="m15.95 7.5.05.04A4 4 0 0 0 14.02 7H2a1 1 0 0 0-.98 1.22l.93 4.21.05.17v.4q0 .81.3 1.54a3 3 0 0 1-1.32-1.89L.04 8.43 0 8.16v-.32A2 2 0 0 1 2 6h12a2 2 0 0 1 1.95 1.5"/></svg>