<svg xmlns="http://www.w3.org/2000/svg" xmlns:xlink="http://www.w3.org/1999/xlink" viewBox="0 0 16 16"><defs><path id="a" d="M15 14q0 .75-.5.75T14 13.5c0-.5-.45-1.5-1-1.5.41 0 2-.5 2-2s-1.5-2-2-2H7v1h1v6H7v1h4v-1h-1v-2h1.25c1.25 0 .5 3 2.07 3H16v-2zm-5-3V9h2c.5 0 1 .5 1 1s-.5 1-1 1z"/><path id="b" d="M9.5 3H12a3 3 0 0 1 3 3v.59q-.24-.14-.5-.26A3 3 0 0 0 12 5H4a3 3 0 0 0-3 3V4a3 3 0 0 1 3-3h1.5C8 1 8 3 9.5 3"/></defs><use xlink:href="#a" fill="#fb923c"/><use xlink:href="#a" fill="#f8fafc" fill-opacity="0.1"/><use xlink:href="#b" fill="#fb923c" fill-opacity=".4" fill-rule="evenodd"/><use xlink:href="#b" fill="#f8fafc" fill-opacity="0.1" fill-rule="evenodd"/><path fill="#fb923c" fill-opacity=".8" fill-rule="evenodd" d="M12 5a3 3 0 0 1 2.5 1.33A4 4 0 0 0 13 6H7a2 2 0 0 0-2 2v3h1v2H5v2H4a3 3 0 0 1-3-3V8a3 3 0 0 1 3-3z"/><path fill="#f8fafc" fill-opacity="0.1" d="M13 6H4a2 2 0 0 0-2 2v4c0 1.1.9 2 2 2h1v1H4a3 3 0 0 1-3-3V8a3 3 0 0 1 3-3h8a3 3 0 0 1 2.5 1.33A4 4 0 0 0 13 6"/></svg>