<svg xmlns="http://www.w3.org/2000/svg" xmlns:xlink="http://www.w3.org/1999/xlink" viewBox="0 0 16 16"><defs><path id="a" d="m7.46 13.41 5.95-5.95a1 1 0 0 1 1.42 0l.7.71a1 1 0 0 1 0 1.42L9.6 15.54a1 1 0 0 1-1.42 0l-.7-.71a1 1 0 0 1 0-1.42"/><path id="b" d="M8.5 8h1c.28 0 .5.22.5.5v1a.5.5 0 0 1-.5.5h-1a.5.5 0 0 1-.5-.5v-1c0-.28.22-.5.5-.5"/><path id="c" d="M13.5 13h1c.28 0 .5.22.5.5v1a.5.5 0 0 1-.5.5h-1a.5.5 0 0 1-.5-.5v-1c0-.28.22-.5.5-.5"/><path id="d" d="M9.5 3H13a2 2 0 0 1 2 2H1V4a3 3 0 0 1 3-3h1.5C8 1 8 3 9.5 3"/></defs><use xlink:href="#a" fill="#e879f9" fill-rule="evenodd"/><use xlink:href="#a" fill="#f8fafc" fill-opacity="0.1" fill-rule="evenodd"/><use xlink:href="#b" fill="#fb7185" fill-rule="evenodd"/><use xlink:href="#b" fill="#f8fafc" fill-opacity="0.1" fill-rule="evenodd"/><path fill="#e879f9" fill-rule="evenodd" d="M7 11h1v1H7zm4 4h1v1h-1z"/><path fill="#a78bfa" fill-rule="evenodd" d="M15 11h1v1h-1zm-4-3V7h1v1z"/><use xlink:href="#c" fill="#a78bfa" fill-rule="evenodd"/><use xlink:href="#c" fill="#f8fafc" fill-opacity="0.1" fill-rule="evenodd"/><use xlink:href="#d" fill="#e879f9" fill-opacity=".4" fill-rule="evenodd"/><use xlink:href="#d" fill="#f8fafc" fill-opacity="0.1" fill-rule="evenodd"/><path fill="#e879f9" fill-opacity=".8" fill-rule="evenodd" d="M2 6h6.5A2.5 2.5 0 0 0 6 8.5v.77A2 2 0 0 0 5 11v1q.01.64.35 1.12A3 3 0 0 0 5.3 15H3.9a3 3 0 0 1-2.92-2.35L.04 8.43 0 8.16v-.32A2 2 0 0 1 2 6"/><path fill="#f8fafc" fill-opacity="0.1" d="M2 6h6.5c-.82 0-1.54.4-2 1H2a1 1 0 0 0-.98 1.22l.93 4.21A2 2 0 0 0 3.91 14h1.27a3 3 0 0 0 .12 1H3.9a3 3 0 0 1-2.92-2.35L.04 8.43 0 8.16v-.32A2 2 0 0 1 2 6"/></svg>