<svg xmlns="http://www.w3.org/2000/svg" xmlns:xlink="http://www.w3.org/1999/xlink" viewBox="0 0 16 16"><defs><path id="b" d="M9.5 3H13a2 2 0 0 1 2 2H1V4a3 3 0 0 1 3-3h1.5C8 1 8 3 9.5 3"/><path id="a" d="M14.17 7.13c1.2.8 1.83 1.95 1.83 3.37 0 .84-.69 2.47-2.09 5.1-.32.6-1.2.5-1.38-.14l-.52-1.8-1.4 2.02a.75.75 0 0 1-1.32-.2L7.63 10.5h-.38a.75.75 0 1 1 0-1.5H9a.75.75 0 0 1 .2 1.47l1.04 3.12 1.24-1.8-.37-1.29H11A.75.75 0 1 1 11 9h2a.75.75 0 1 1 0 1.5h-.33l.78 2.72c.7-1.42 1.05-2.36 1.05-2.72q.02-1.35-1.17-2.13a.75.75 0 1 1 .84-1.24"/></defs><use fill="#60a5fa" href="#a"/><use fill="#f8fafc" fill-opacity="0.1" href="#a"/><use xlink:href="#b" fill="#60a5fa" fill-opacity=".4" fill-rule="evenodd"/><use xlink:href="#b" fill="#f8fafc" fill-opacity="0.1" fill-rule="evenodd"/><path fill="#60a5fa" fill-opacity=".8" fill-rule="evenodd" d="M11.46 6.22q-.24.38-.36.78H11q-.54 0-1 .19-.46-.18-1-.19H7.25a2.75 2.75 0 0 0-1.15 5.25L7.02 15H3.9a3 3 0 0 1-2.93-2.35L.04 8.43 0 8.16v-.32A2 2 0 0 1 2 6h9.63z"/><path fill="#f8fafc" fill-opacity="0.1" d="M11.1 7H2a1 1 0 0 0-.97 1.22l.93 4.21A2 2 0 0 0 3.91 14h2.77l.34 1H3.9a3 3 0 0 1-2.93-2.35L.04 8.43 0 8.16v-.32A2 2 0 0 1 2 6h9.63a3 3 0 0 0-.53 1"/></svg>