<svg xmlns="http://www.w3.org/2000/svg" xmlns:xlink="http://www.w3.org/1999/xlink" viewBox="0 0 16 16"><defs><path id="a" d="M12 14h2v-3h-1.5a.5.5 0 0 1-.5-.5v-1c0-.28.22-.5.5-.5h3c.28 0 .5.22.5.5V14a2 2 0 1 1-4 0"/><path id="b" d="M10.5 9c.28 0 .5.22.5.5v1a.5.5 0 0 1-.5.5H10v3h.5c.28 0 .5.22.5.5v1a.5.5 0 0 1-.5.5h-3a.5.5 0 0 1-.5-.5v-1c0-.28.22-.5.5-.5H8v-3h-.5a.5.5 0 0 1-.5-.5v-1c0-.28.22-.5.5-.5z"/><path id="c" d="M9.5 3H13a2 2 0 0 1 2 2H1V4a3 3 0 0 1 3-3h1.5C8 1 8 3 9.5 3"/></defs><use xlink:href="#a" fill="#60a5fa" fill-rule="evenodd"/><use xlink:href="#a" fill="#f8fafc" fill-opacity="0.1" fill-rule="evenodd"/><use xlink:href="#b" fill="#e879f9" fill-rule="evenodd"/><use xlink:href="#b" fill="#f8fafc" fill-opacity="0.1" fill-rule="evenodd"/><use xlink:href="#c" fill="#e879f9" fill-opacity=".4" fill-rule="evenodd"/><use xlink:href="#c" fill="#f8fafc" fill-opacity="0.1" fill-rule="evenodd"/><path fill="#e879f9" fill-opacity=".8" fill-rule="evenodd" d="M14 6a2 2 0 0 1 1.75 1.01L15.5 7h-3q-.54 0-1 .2-.46-.2-1-.2h-3A2.5 2.5 0 0 0 5 9.5v1c0 .82.4 1.54 1 2-.6.46-1 1.18-1 2v.5H3.9a3 3 0 0 1-2.92-2.35L.04 8.43 0 8.16v-.32A2 2 0 0 1 2 6z"/><path fill="#f8fafc" fill-opacity="0.1" d="M15.5 7H1.99a1 1 0 0 0-.97 1.22l.93 4.21A2 2 0 0 0 3.91 14h1.14q-.05.24-.05.5v.5H3.9a3 3 0 0 1-2.92-2.35L.04 8.43 0 8.16v-.32A2 2 0 0 1 2 6h12a2 2 0 0 1 1.75 1.01z"/></svg>