<svg xmlns="http://www.w3.org/2000/svg" xmlns:xlink="http://www.w3.org/1999/xlink" viewBox="0 0 16 16"><defs><path id="a" d="M15.5 8c.28 0 .5.22.5.5v6c0 .83-.67 1.5-1.5 1.5h-6A1.5 1.5 0 0 1 7 14.5v-6a.5.5 0 0 1 1 0v6c0 .28.22.5.5.5h6a.5.5 0 0 0 .5-.5v-6c0-.28.22-.5.5-.5m-2 4c.28 0 .5.22.5.5v1a.5.5 0 0 1-.5.5h-4a.5.5 0 0 1-.5-.5v-1c0-.28.22-.5.5-.5zm0-2a.5.5 0 1 1 0 1h-4a.5.5 0 1 1 0-1zm0-2a.5.5 0 1 1 0 1h-4a.5.5 0 0 1 0-1z"/><path id="b" d="M9.5 3H13a2 2 0 0 1 2 2H1V4a3 3 0 0 1 3-3h1.5C8 1 8 3 9.5 3"/></defs><use xlink:href="#a" fill="#facc15" fill-rule="evenodd"/><use xlink:href="#a" fill="#f8fafc" fill-opacity="0.1" fill-rule="evenodd"/><use xlink:href="#b" fill="#facc15" fill-opacity=".4" fill-rule="evenodd"/><use xlink:href="#b" fill="#f8fafc" fill-opacity="0.1" fill-rule="evenodd"/><path fill="#facc15" fill-opacity=".8" fill-rule="evenodd" d="M2 6h5.5A2.5 2.5 0 0 0 5 8.5v6q0 .26.04.5H3.9a3 3 0 0 1-2.93-2.35L.04 8.43 0 8.16v-.32A2 2 0 0 1 2 6"/><path fill="#f8fafc" fill-opacity="0.1" d="M2 6h5.5c-.82 0-1.54.4-2 1H2a1 1 0 0 0-.98 1.22l.93 4.21A2 2 0 0 0 3.91 14H5v.5q0 .26.04.5H3.9a3 3 0 0 1-2.93-2.35L.04 8.43 0 8.16v-.32A2 2 0 0 1 2 6"/></svg>