<svg xmlns="http://www.w3.org/2000/svg" xmlns:xlink="http://www.w3.org/1999/xlink" viewBox="0 0 16 16"><defs><path id="a" d="M11 8v7a1 1 0 0 1-1.7.7l-2-2a1 1 0 0 1 1.4-1.4l.3.29V8a1 1 0 1 1 2 0m2.7-.7 2 2a1 1 0 1 1-1.4 1.4l-.3-.29V15a1 1 0 0 1-2 0V8a1 1 0 0 1 1.7-.7"/><path id="b" d="M9.5 3H12a3 3 0 0 1 2.99 2.75l.13.13c-.76-.76-1.73-1-2.62-.84A3 3 0 0 0 12 5H4a3 3 0 0 0-3 3V4a3 3 0 0 1 3-3h1.5C8 1 8 3 9.5 3"/></defs><use xlink:href="#a" fill="#4ade80" fill-rule="evenodd"/><use xlink:href="#a" fill="#f8fafc" fill-opacity="0.1" fill-rule="evenodd"/><use xlink:href="#b" fill="#4ade80" fill-opacity=".4" fill-rule="evenodd"/><use xlink:href="#b" fill="#f8fafc" fill-opacity="0.1" fill-rule="evenodd"/><path fill="#4ade80" fill-opacity=".8" fill-rule="evenodd" d="M12 5q.26 0 .5.04-.45.08-.84.28l-.16.08q-.67-.39-1.5-.4a3 3 0 0 0-3 3v2.17q-.63.22-1.12.7A3 3 0 0 0 5.76 15H4a3 3 0 0 1-3-3V8a3 3 0 0 1 3-3z"/><path fill="#f8fafc" fill-opacity="0.1" d="M12 5q.26 0 .5.04-.45.08-.84.28l-.16.08q-.67-.39-1.5-.4a3 3 0 0 0-2.24 1H4a2 2 0 0 0-2 2v4c0 1.1.9 2 2 2h1.17q.2.54.6 1H4a3 3 0 0 1-3-3V8a3 3 0 0 1 3-3z"/></svg>