<svg xmlns="http://www.w3.org/2000/svg" xmlns:xlink="http://www.w3.org/1999/xlink" viewBox="0 0 16 16"><defs><path id="a" d="M16 14V9l-4 2v5z"/><path id="b" d="M8 14V9l4 2v5z"/><path id="c" d="m12 11 4-2-4-2-4 2z"/><path id="d" d="M9.5 3H12a3 3 0 0 1 3 3v.26l-1-.5A3 3 0 0 0 11.98 5H4a3 3 0 0 0-3 3V4a3 3 0 0 1 3-3h1.5C8 1 8 3 9.5 3"/></defs><use xlink:href="#a" fill="#60a5fa" fill-rule="evenodd"/><use xlink:href="#a" fill="#f8fafc" fill-opacity="0.1" fill-rule="evenodd"/><use xlink:href="#b" fill="#60a5fa" fill-opacity=".6" fill-rule="evenodd"/><use xlink:href="#b" fill="#f8fafc" fill-opacity="0.1" fill-rule="evenodd"/><use xlink:href="#c" fill="#60a5fa" fill-opacity=".8" fill-rule="evenodd"/><use xlink:href="#c" fill="#f8fafc" fill-opacity="0.1" fill-rule="evenodd"/><use xlink:href="#d" fill="#60a5fa" fill-opacity=".4" fill-rule="evenodd"/><use xlink:href="#d" fill="#f8fafc" fill-opacity="0.1" fill-rule="evenodd"/><path fill="#60a5fa" fill-opacity=".8" fill-rule="evenodd" d="m11.28 5.14-.17.07-4 2A2 2 0 0 0 6 9v5q0 .54.27 1H4a3 3 0 0 1-3-3V8a3 3 0 0 1 3-3h7.98a2 2 0 0 0-.7.14m.94-.13h-.17L12 5a3 3 0 0 1 2 .76l-1.1-.55a2 2 0 0 0-.68-.2"/><path fill="#f8fafc" fill-opacity="0.1" d="m11.28 5.14-.17.07L9.53 6H4a2 2 0 0 0-2 2v4c0 1.1.9 2 2 2h2q0 .54.27 1H4a3 3 0 0 1-3-3V8a3 3 0 0 1 3-3h7.98a2 2 0 0 0-.7.14m.94-.13h-.17L12 5a3 3 0 0 1 2 .76l-1.1-.55a2 2 0 0 0-.68-.2"/></svg>