<svg xmlns="http://www.w3.org/2000/svg" xmlns:xlink="http://www.w3.org/1999/xlink" viewBox="0 0 16 16"><defs><path id="a" d="M16 13v2.5a.5.5 0 1 1-1 0v-.78A4 4 0 0 1 12 16a5.3 5.3 0 0 1-3.87-1.67.5.5 0 0 1 .74-.66A4.3 4.3 0 0 0 12 15c.93 0 1.6-.3 2.31-1h-.81a.5.5 0 0 1 0-1zm-3.5-5c.83 0 1.5.67 1.5 1.5v2c0 .83-.67 1.5-1.5 1.5h-1a1.5 1.5 0 0 1 0-3H13v-.5a.5.5 0 0 0-.5-.5H11a.5.5 0 1 1 0-1zm-1 3a.5.5 0 1 0 0 1h1a.5.5 0 0 0 .5-.5V11z"/><path id="b" d="M9.5 3H12a3 3 0 0 1 3 3v1.05l-.23-.22A3 3 0 0 0 12 5H4a3 3 0 0 0-3 3V4a3 3 0 0 1 3-3h1.5C8 1 8 3 9.5 3"/></defs><use xlink:href="#a" fill="#fb923c" fill-rule="evenodd"/><use xlink:href="#a" fill="#f8fafc" fill-opacity="0.1" fill-rule="evenodd"/><use xlink:href="#b" fill="#fb923c" fill-opacity=".4" fill-rule="evenodd"/><use xlink:href="#b" fill="#f8fafc" fill-opacity="0.1" fill-rule="evenodd"/><path fill="#fb923c" fill-opacity=".8" fill-rule="evenodd" d="M8 11.27v.28q-.64.12-1.17.59A2.5 2.5 0 0 0 6.21 15H4a3 3 0 0 1-3-3V8a3 3 0 0 1 3-3h8a3 3 0 0 1 2.76 1.83c-.6-.52-1.4-.83-2.26-.83H11a2.5 2.5 0 0 0-2.32 3.43 3.5 3.5 0 0 0-.67 1.84"/><path fill="#f8fafc" fill-opacity="0.1" d="M12.5 6H4a2 2 0 0 0-2 2v4c0 1.1.9 2 2 2h2q0 .52.2 1H4a3 3 0 0 1-3-3V8a3 3 0 0 1 3-3h8a3 3 0 0 1 2.76 1.83c-.6-.52-1.4-.83-2.26-.83"/></svg>