<svg xmlns="http://www.w3.org/2000/svg" xmlns:xlink="http://www.w3.org/1999/xlink" viewBox="0 0 16 16"><defs><path id="a" d="M12 7a2 2 0 0 1 2 2h.5c.83 0 1.5.67 1.5 1.5v4c0 .83-.67 1.5-1.5 1.5h-4A1.5 1.5 0 0 1 9 14.5V14a2 2 0 0 1-2-2V9c0-1.1.9-2 2-2zM9 8a1 1 0 0 0-1 1v3a1 1 0 0 0 1 1v-2.5c0-.83.67-1.5 1.5-1.5H13a1 1 0 0 0-1-1z"/><path id="b" d="M9.5 3H13a2 2 0 0 1 2 2H1V4a3 3 0 0 1 3-3h1.5C8 1 8 3 9.5 3"/></defs><use xlink:href="#a" fill="#fb7185" fill-rule="evenodd"/><use xlink:href="#a" fill="#f8fafc" fill-opacity="0.1" fill-rule="evenodd"/><use xlink:href="#b" fill="#fb7185" fill-opacity=".4" fill-rule="evenodd"/><use xlink:href="#b" fill="#f8fafc" fill-opacity="0.1" fill-rule="evenodd"/><path fill="#fb7185" fill-opacity=".8" fill-rule="evenodd" d="M5 9v3c0 1.2.53 2.27 1.36 3H3.9a3 3 0 0 1-2.93-2.35L.04 8.43 0 8.16v-.32A2 2 0 0 1 2 6h4.35A4 4 0 0 0 5 9m10.87-1.72.13.06q-.22-.1-.45-.18a4 4 0 0 0-.72-.98l.12.06a2 2 0 0 1 .92 1.04"/><path fill="#f8fafc" fill-opacity="0.1" d="M5.67 6.78 5.54 7H1.99a1 1 0 0 0-.97 1.22l.93 4.21A2 2 0 0 0 3.91 14h1.63a4 4 0 0 0 .82 1H3.9a3 3 0 0 1-2.93-2.35L.04 8.43 0 8.16v-.32A2 2 0 0 1 2 6h4.35q-.38.34-.68.78m10.2.5.13.06q-.22-.1-.45-.18a4 4 0 0 0-.72-.98l.12.06a2 2 0 0 1 .92 1.04"/></svg>