<svg xmlns="http://www.w3.org/2000/svg" xmlns:xlink="http://www.w3.org/1999/xlink" viewBox="0 0 16 16"><defs><path id="a" d="M14.25 16h-4.5c0-3.5-2-5.5-2.75-5.5.75-.5 1.53-.8 3 0q.42.23.74.64C10.43 9 9.76 7.88 8.5 7.25c.75-.25 1.54-.35 2.25 0 1.06.53 2.12 1.69 2.64 4.45q.53-.7 1.36-.7 1 0 1.25 1.25-.5-.25-1.25.5c-.75.75-.5 2.25-.5 3.25"/><path id="b" d="M9.5 3H13a2 2 0 0 1 2 2H1V4a3 3 0 0 1 3-3h1.5C8 1 8 3 9.5 3"/></defs><use xlink:href="#a" fill="#4ade80"/><use xlink:href="#a" fill="#f8fafc" fill-opacity="0.1"/><use xlink:href="#b" fill="#4ade80" fill-opacity=".4" fill-rule="evenodd"/><use xlink:href="#b" fill="#f8fafc" fill-opacity="0.1" fill-rule="evenodd"/><path fill="#4ade80" fill-opacity=".8" fill-rule="evenodd" d="M6.82 8.33q-.46.2-.93.5c-1.5 1-.99 3.23.62 3.61q.21.19.46.57.52.82.7 1.99H3.92a3 3 0 0 1-2.93-2.35L.04 8.43 0 8.16v-.32A2 2 0 0 1 2 6h4.93a2 2 0 0 0-.11 2.33m8.16.68L14.75 9h-.05a7 7 0 0 0-2.18-3H14a2 2 0 0 1 2 1.84v.32l-.05.27-.16.73a3 3 0 0 0-.82-.15"/><path fill="#f8fafc" fill-opacity="0.1" d="M6.55 6.82 6.52 7H1.99a1 1 0 0 0-.97 1.22l.93 4.21A2 2 0 0 0 3.91 14h3.53q.15.46.24 1H3.9a3 3 0 0 1-2.93-2.35L.04 8.43 0 8.16v-.32A2 2 0 0 1 2 6h4.93q-.3.37-.38.82M14 6a2 2 0 0 1 2 1.84v.32l-.05.27-.16.73a3 3 0 0 0-.82-.15L14.8 9l.17-.78A1 1 0 0 0 14.01 7h-.46a6 6 0 0 0-1.03-1z"/></svg>