<svg xmlns="http://www.w3.org/2000/svg" xmlns:xlink="http://www.w3.org/1999/xlink" viewBox="0 0 16 16"><defs><path id="a" d="M11 9a3 3 0 0 0 4 2.83V14a2 2 0 0 1-2 2H9a2 2 0 0 1-2-2v-4c0-1.1.9-2 2-2h2.17A3 3 0 0 0 11 9"/><path id="c" d="M9.5 3H12a3 3 0 0 1 2.86 2.1 4 4 0 0 0-1.93.05Q12.49 5 12 5H4a3 3 0 0 0-3 3V4a3 3 0 0 1 3-3h1.5C8 1 8 3 9.5 3"/><circle id="b" cx="14" cy="9" r="2"/></defs><use xlink:href="#a" fill="#60a5fa" fill-rule="evenodd"/><use xlink:href="#a" fill="#f8fafc" fill-opacity="0.1" fill-rule="evenodd"/><use xlink:href="#b" fill="#fb7185" fill-rule="evenodd"/><use xlink:href="#b" fill="#f8fafc" fill-opacity="0.1" fill-rule="evenodd"/><use xlink:href="#c" fill="#60a5fa" fill-opacity=".4" fill-rule="evenodd"/><use xlink:href="#c" fill="#f8fafc" fill-opacity="0.1" fill-rule="evenodd"/><path fill="#60a5fa" fill-opacity=".8" fill-rule="evenodd" d="M12 5a3 3 0 0 1 .93.15q-.9.25-1.57.85H9a4 4 0 0 0-4 4v4a4 4 0 0 0 .13 1H4a3 3 0 0 1-3-3V8a3 3 0 0 1 3-3z"/><path fill="#f8fafc" fill-opacity="0.1" d="M11.36 6H4a2 2 0 0 0-2 2v4c0 1.1.9 2 2 2h1v.27a4 4 0 0 0 .13.73H4a3 3 0 0 1-3-3V8a3 3 0 0 1 3-3h8a3 3 0 0 1 .93.15q-.9.25-1.57.85"/></svg>