<svg xmlns="http://www.w3.org/2000/svg" xmlns:xlink="http://www.w3.org/1999/xlink" viewBox="0 0 16 16"><defs><path id="a" d="M9.5 7h4A2.5 2.5 0 0 1 16 9.5v4a2.5 2.5 0 0 1-2.5 2.5h-4A2.5 2.5 0 0 1 7 13.5v-4A2.5 2.5 0 0 1 9.5 7"/><path id="b" d="m13.1 9.25-1.17 2.01a.5.5 0 0 1-.86 0L9.89 9.25A.5.5 0 0 0 9.46 9h-.71a.58.58 0 0 0-.5.87l2.82 4.88a.5.5 0 0 0 .86 0l2.82-4.88a.58.58 0 0 0-.5-.87h-.71a.5.5 0 0 0-.43.25"/><path id="c" d="M9.5 3H13a2 2 0 0 1 2 2H1V4a3 3 0 0 1 3-3h1.5C8 1 8 3 9.5 3"/></defs><use xlink:href="#a" fill="#94a3b8" fill-opacity=".4" fill-rule="evenodd"/><use xlink:href="#a" fill="#f8fafc" fill-opacity="0.1" fill-rule="evenodd"/><use xlink:href="#b" fill="#4ade80" fill-rule="evenodd"/><use xlink:href="#b" fill="#f8fafc" fill-opacity="0.1" fill-rule="evenodd"/><use xlink:href="#c" fill="#4ade80" fill-opacity=".4" fill-rule="evenodd"/><use xlink:href="#c" fill="#f8fafc" fill-opacity="0.1" fill-rule="evenodd"/><path fill="#4ade80" fill-opacity=".8" fill-rule="evenodd" d="M5 9.5v4q0 .8.26 1.5H3.9a3 3 0 0 1-2.93-2.35L.04 8.43 0 8.16v-.32A2 2 0 0 1 2 6h4.67A4.5 4.5 0 0 0 5 9.5"/><path fill="#f8fafc" fill-opacity="0.1" d="M5.92 6.78 5.76 7H1.99a1 1 0 0 0-.97 1.22l.93 4.21A2 2 0 0 0 3.91 14h1.12q.06.52.23 1H3.9a3 3 0 0 1-2.93-2.35L.04 8.43 0 8.16v-.32A2 2 0 0 1 2 6h4.67q-.42.34-.75.78"/></svg>