<svg xmlns="http://www.w3.org/2000/svg" xmlns:xlink="http://www.w3.org/1999/xlink" viewBox="0 0 16 16"><defs><path id="a" d="M9 12a2 2 0 1 1 0 4 2 2 0 0 1 0-4m3.98-3.76.05.09c.66 1.23-.15 1.73.46 2.79s1.45.6 2.2 1.8l.04.08.07.12a2 2 0 0 1-3.44 2.02l-.1-.14c-.74-1.3.12-1.8-.5-2.88-.59-1.02-1.4-.64-2.1-1.67l-.14-.21a2 2 0 0 1 3.46-2"/><path id="b" d="M9.5 3H13a2 2 0 0 1 2 2H1V4a3 3 0 0 1 3-3h1.5C8 1 8 3 9.5 3"/></defs><use xlink:href="#a" fill="#a78bfa" fill-rule="evenodd"/><use xlink:href="#a" fill="#f8fafc" fill-opacity="0.1" fill-rule="evenodd"/><use xlink:href="#b" fill="#a78bfa" fill-opacity=".4" fill-rule="evenodd"/><use xlink:href="#b" fill="#f8fafc" fill-opacity="0.1" fill-rule="evenodd"/><path fill="#a78bfa" fill-opacity=".8" fill-rule="evenodd" d="M2 6h6.9a4 4 0 0 0-1.5 4.33A4 4 0 0 0 5.13 15H3.9a3 3 0 0 1-2.93-2.35L.04 8.43 0 8.16v-.33A2 2 0 0 1 2 6m13.96 2.43-.4 1.8-.06-.02-.24-.11v-.08c.11-1 .04-1.7-.47-2.64v-.01l-.01-.02-.05-.09v-.01l-.02-.01A4 4 0 0 0 13.6 6h.4a2 2 0 0 1 2 1.84v.32q0 .13-.04.27"/><path fill="#f8fafc" fill-opacity="0.1" d="M2 6h6.9q-.57.42-.97 1H2a1 1 0 0 0-.97 1.22l.93 4.21A2 2 0 0 0 3.91 14H5v.27a4 4 0 0 0 .13.73H3.9a3 3 0 0 1-2.93-2.35L.04 8.43 0 8.16v-.33A2 2 0 0 1 2 6m13.96 2.43-.4 1.8-.06-.02-.24-.11v-.08a4 4 0 0 0-.46-2.63v-.01l-.01-.01-.01-.02-.05-.09v-.01l-.02-.01A4 4 0 0 0 13.6 6h.4a2 2 0 0 1 2 1.84v.32q0 .13-.04.27"/></svg>