<svg xmlns="http://www.w3.org/2000/svg" xmlns:xlink="http://www.w3.org/1999/xlink" viewBox="0 0 16 16"><defs><path id="a" d="m10.79 15-1.15.6a1 1 0 0 1-1.45-1.05l.22-1.26a1 1 0 0 0-.29-.88l-.91-.9a1 1 0 0 1 .55-1.7L9 9.63a1 1 0 0 0 .78-.6l.56-1.31a1 1 0 0 1 1.84 0l.56 1.31a1 1 0 0 0 .78.6l1.23.18a1 1 0 0 1 .55 1.7l-.91.9a1 1 0 0 0-.3.88l.23 1.26a1 1 0 0 1-1.45 1.06L11.7 15a1 1 0 0 0-.92 0"/><path id="b" d="M9.5 3H12a3 3 0 0 1 3 3v1.83A3 3 0 0 0 12 5H4a3 3 0 0 0-3 3V4a3 3 0 0 1 3-3h1.5C8 1 8 3 9.5 3"/></defs><use xlink:href="#a" fill="#facc15" fill-rule="evenodd"/><use xlink:href="#a" fill="#f8fafc" fill-opacity="0.1" fill-rule="evenodd"/><use xlink:href="#b" fill="#facc15" fill-opacity=".4" fill-rule="evenodd"/><use xlink:href="#b" fill="#f8fafc" fill-opacity="0.1" fill-rule="evenodd"/><path fill="#facc15" fill-opacity=".8" fill-rule="evenodd" d="M12 5a3 3 0 0 1 3 2.83l-.64-.1-.34-.8a3 3 0 0 0-5.53 0l-.34.8-.67.1a3 3 0 0 0-1.66 5.12l.54.52-.13.74q-.07.4-.04.8L4 15a3 3 0 0 1-3-3V8a3 3 0 0 1 3-3z"/><path fill="#f8fafc" fill-opacity="0.1" d="M12 5a3 3 0 0 1 3 2.83l-.64-.1-.34-.8A3 3 0 0 0 9.1 6H4a2 2 0 0 0-2 2v4c0 1.1.9 2 2 2h2.26l-.03.21q-.07.4-.04.8L4 15a3 3 0 0 1-3-3V8a3 3 0 0 1 3-3z"/></svg>