<svg xmlns="http://www.w3.org/2000/svg" xmlns:xlink="http://www.w3.org/1999/xlink" viewBox="0 0 16 16"><defs><path id="a" d="M11 9c2 0 5 1 5 3s-3 3-5 3-5-1-5-3 2.95-3 5-3m0 1a2 2 0 1 0 0 4 2 2 0 0 0 0-4m0 1a1 1 0 1 1 0 2 1 1 0 0 1 0-2"/><path id="b" d="M9.5 3H13a2 2 0 0 1 2 2H1V4a3 3 0 0 1 3-3h1.5C8 1 8 3 9.5 3"/></defs><use xlink:href="#a" fill="#60a5fa"/><use xlink:href="#a" fill="#f8fafc" fill-opacity="0.1"/><use xlink:href="#b" fill="#60a5fa" fill-opacity=".4" fill-rule="evenodd"/><use xlink:href="#b" fill="#f8fafc" fill-opacity="0.1" fill-rule="evenodd"/><path fill="#60a5fa" fill-opacity=".8" fill-rule="evenodd" d="m16 8.15-.01.14-.03.15-.23-.15-.59-.33A10 10 0 0 0 11 7c-1.39 0-2.93.34-4.17.96C5.13 8.82 4 10.2 4 12c0 1.2.5 2.2 1.34 3H3.9a3 3 0 0 1-2.93-2.35L.04 8.43 0 8.16v-.32A2 2 0 0 1 2 6h12a2 2 0 0 1 2 1.85z"/><path fill="#f8fafc" fill-opacity="0.1" d="m16 8.15-.01.14-.03.15-.23-.15-.59-.33L15 7.9a1 1 0 0 0-1-.9H2a1 1 0 0 0-.98 1.22l.93 4.21A2 2 0 0 0 3.91 14h.63q.31.55.8 1H3.9a3 3 0 0 1-2.93-2.35L.04 8.43 0 8.16v-.32A2 2 0 0 1 2 6h12a2 2 0 0 1 2 1.85z"/></svg>