<svg xmlns="http://www.w3.org/2000/svg" xmlns:xlink="http://www.w3.org/1999/xlink" viewBox="0 0 16 16"><defs><path id="a" d="M12.57 7.13A4.5 4.5 0 0 1 16 11.5c0 1.15-.66 2.25-2 2.25q-.96-.01-1.57-.77-.41.26-.93.27a1.75 1.75 0 1 1 1.75-1.75l-.04-.24c.24.73.5.99.79.99s.5-.32.5-.75a3 3 0 1 0-1.93 2.8.75.75 0 1 1 .53 1.4 4.5 4.5 0 1 1-.53-8.57"/><path id="b" d="M9.5 3H12a3 3 0 0 1 3 3v.02a7 7 0 0 0-1.97-.84A3 3 0 0 0 12 5H4a3 3 0 0 0-3 3V4a3 3 0 0 1 3-3h1.5C8 1 8 3 9.5 3"/></defs><use xlink:href="#a" fill="#a78bfa" fill-rule="evenodd"/><use xlink:href="#a" fill="#f8fafc" fill-opacity="0.1" fill-rule="evenodd"/><use xlink:href="#b" fill="#a78bfa" fill-opacity=".4" fill-rule="evenodd"/><use xlink:href="#b" fill="#f8fafc" fill-opacity="0.1" fill-rule="evenodd"/><path fill="#a78bfa" fill-opacity=".8" fill-rule="evenodd" d="M4 5h7.5a6.5 6.5 0 0 0-5.48 10H4a3 3 0 0 1-3-3V8a3 3 0 0 1 3-3"/><path fill="#f8fafc" fill-opacity="0.1" d="M4 5h7.5c-1.27 0-2.46.37-3.47 1H4a2 2 0 0 0-2 2v4c0 1.1.9 2 2 2h1.5q.21.53.52 1H4a3 3 0 0 1-3-3V8a3 3 0 0 1 3-3"/></svg>