<svg xmlns="http://www.w3.org/2000/svg" xmlns:xlink="http://www.w3.org/1999/xlink" viewBox="0 0 16 16"><defs><path id="a" d="M12.72 15.38c-.37.65-1.05.83-1.7.46-.65-.38-.62-.93-1.27-1.3-.65-.38-1.12-.08-1.77-.45-.65-.38-.83-1.06-.45-1.7.37-.66 2.08-1.12 2.89-1.52.9-.44 2.1.27 2.16 1.26.06.9.52 2.6.14 3.25M9 8.6a.9.9 0 0 1 .32 1.2l-.25.43a.88.88 0 0 1-1.52-.87l.25-.43A.9.9 0 0 1 9 8.6m6.27 3.63c.42.24.57.78.32 1.2l-.25.43a.87.87 0 0 1-1.51-.88l.25-.43a.87.87 0 0 1 1.2-.32m-2.95-4.88c.42.24.56.78.32 1.2L12 9.62a.87.87 0 0 1-1.51-.88l.62-1.08a.9.9 0 0 1 1.2-.32m2.38 1.37c.42.25.56.78.32 1.2L14.4 11a.88.88 0 0 1-1.52-.87l.63-1.09a.87.87 0 0 1 1.2-.32"/><path id="b" d="M9.5 3H13a2 2 0 0 1 2 2H1V4a3 3 0 0 1 3-3h1.5C8 1 8 3 9.5 3"/></defs><use xlink:href="#a" fill="#94a3b8" fill-rule="evenodd"/><use xlink:href="#a" fill="#f8fafc" fill-opacity="0.1" fill-rule="evenodd"/><use xlink:href="#b" fill="#94a3b8" fill-opacity=".4" fill-rule="evenodd"/><use xlink:href="#b" fill="#f8fafc" fill-opacity="0.1" fill-rule="evenodd"/><path fill="#94a3b8" fill-opacity=".8" fill-rule="evenodd" d="M9.41 6.62a2.9 2.9 0 0 0-3.35 1.3l-.25.44c-.55.94-.5 2.07.04 2.94l-.06.08A3.2 3.2 0 0 0 6.02 15H3.91a3 3 0 0 1-2.93-2.35L.04 8.43 0 8.16v-.32A2 2 0 0 1 2 6h7.92q-.3.27-.5.62m6.35.41L15.69 7q-.66-.37-1.36-.38-.2-.33-.5-.61H14a2 2 0 0 1 1.75 1.03"/><path fill="#f8fafc" fill-opacity="0.1" d="M9.41 6.62a2.9 2.9 0 0 0-2.5.38H1.99a1 1 0 0 0-.97 1.22l.93 4.21A2 2 0 0 0 3.91 14h1.57q.18.54.54 1H3.91a3 3 0 0 1-2.93-2.35L.04 8.43 0 8.16v-.32A2 2 0 0 1 2 6h7.92q-.3.27-.5.62m6.35.41L15.69 7q-.66-.37-1.36-.38-.2-.33-.5-.61H14a2 2 0 0 1 1.75 1.03"/></svg>