<svg xmlns="http://www.w3.org/2000/svg" viewBox="0 0 16 16"><path fill="#94a3b8" fill-opacity=".4" fill-rule="evenodd" d="M14 6a1 1 0 0 1 1 1v6a1 1 0 0 1-1.91.41q-.92.57-2.09.59a4 4 0 1 1 2.09-7.41A1 1 0 0 1 14 6m-3 3a1 1 0 1 0 0 2 1 1 0 0 0 0-2"/><path fill="#f8fafc" fill-opacity="0.1" d="M15 7v6a1 1 0 0 1-1.91.41q-.92.57-2.09.59a4 4 0 1 1 2.09-7.41A1 1 0 0 1 15 7m-7 3a3 3 0 0 0 4.56 2.56A1 1 0 0 1 14 13V7a1 1 0 0 1-1.43.44Q11.86 7 11 7a3 3 0 0 0-3 3m5 0a2 2 0 1 1-4 0 2 2 0 0 1 4 0m-3 0a1 1 0 1 0 2 0 1 1 0 0 0-2 0"/><path fill="#94a3b8" d="M3.58 2a1.5 1.5 0 0 1 2.84 0l3.5 10a1.5 1.5 0 1 1-2.84 1l-.34-1H3.26l-.34 1a1.5 1.5 0 0 1-1.78.96L1 13.92A1.5 1.5 0 0 1 .08 12zM5 7.04 4.31 9H5.7z"/><path fill="#f8fafc" fill-opacity="0.1" d="m6.42 2 3.5 10a1.5 1.5 0 1 1-2.84 1l-.34-1H3.26l-.34 1a1.5 1.5 0 0 1-1.78.96L1 13.92A1.5 1.5 0 0 1 .08 12l3.5-10a1.5 1.5 0 0 1 2.84 0m-1.9.33-3.5 10a.5.5 0 0 0 .3.64l.07.02a.5.5 0 0 0 .58-.32l.35-1 .23-.67h4.9l.23.67.35 1a.5.5 0 0 0 .94-.34l-3.5-10a.5.5 0 0 0-.94 0m1.42 4.38.69 1.96L7.1 10H2.9l.47-1.33.69-1.96L5 4zM4.31 9H5.7L5 7.04z"/></svg>