<svg xmlns="http://www.w3.org/2000/svg" viewBox="0 0 16 16"><path fill="#38bdf8" fill-rule="evenodd" d="M5.71 1.58 1.18 6.26a2.5 2.5 0 0 0 0 3.48l4.53 4.68A.75.75 0 0 0 7 13.9v-1.7a.5.5 0 0 0-.15-.35l-3.5-3.5a.5.5 0 0 1 0-.7l3.5-3.5A.5.5 0 0 0 7 3.79V2.1c0-.67-.82-1-1.29-.52"/><path fill="#f8fafc" fill-opacity="0.1" d="M7 2.1v1.7a.5.5 0 0 1-.15.35l-3.5 3.5a.5.5 0 0 0 0 .7l3.5 3.5q.15.15.15.36v1.69c0 .67-.82 1-1.29.52L1.18 9.74a2.5 2.5 0 0 1 0-3.48l4.53-4.68A.75.75 0 0 1 7 2.1M1.9 6.96a1.5 1.5 0 0 0 0 2.08L6 13.28v-.87L2.65 9.06a1.5 1.5 0 0 1 0-2.12L6 3.59v-.87z"/><path fill="#38bdf8" fill-rule="evenodd" d="M8 6.2v3.6a.5.5 0 0 1-.85.35l-1.8-1.8a.5.5 0 0 1 0-.7l1.8-1.8a.5.5 0 0 1 .85.36"/><path fill="#f8fafc" fill-opacity="0.1" d="M8 6.2v3.6a.5.5 0 0 1-.85.35l-1.8-1.8a.5.5 0 0 1 0-.7l1.8-1.8a.5.5 0 0 1 .85.36M6.41 8l.59.59V7.4z"/><path fill="#38bdf8" fill-opacity=".4" fill-rule="evenodd" d="m10.29 1.58 4.53 4.68c.94.97.94 2.5 0 3.48l-4.53 4.68A.75.75 0 0 1 9 13.9v-1.7a.5.5 0 0 1 .15-.35l3.5-3.5a.5.5 0 0 0 0-.7l-3.5-3.5A.5.5 0 0 1 9 3.79V2.1c0-.67.82-1 1.29-.52"/><path fill="#f8fafc" fill-opacity="0.1" d="m10.29 1.58 4.53 4.68c.94.97.94 2.5 0 3.48l-4.53 4.68A.75.75 0 0 1 9 13.9v-1.7a.5.5 0 0 1 .15-.35l3.5-3.5a.5.5 0 0 0 0-.7l-3.5-3.5A.5.5 0 0 1 9 3.79V2.1c0-.67.82-1 1.29-.52m-.29 2 3.35 3.36a1.5 1.5 0 0 1 0 2.12L10 12.41v.87l4.1-4.24a1.5 1.5 0 0 0 0-2.08L10 2.72z"/></svg>