<svg xmlns="http://www.w3.org/2000/svg" viewBox="0 0 16 16" xmlns:xlink="http://www.w3.org/1999/xlink"><defs><path id="a" d="m12.45 11.14-4 2a1 1 0 0 1-.9 0l-4-2a1 1 0 0 1-.55-.89v-4.5a1 1 0 0 1 .55-.9l4-2a1 1 0 0 1 .9 1.8L5 6.36v3.26l3 1.5 3-1.5V7.46L8.49 8.87a1 1 0 0 1-.98-1.74l4-2.25a1 1 0 0 1 1.49.87v4.5a1 1 0 0 1-.55.9"/></defs><path fill="#fb923c" fill-opacity=".4" fill-rule="evenodd" d="M15 6.03v3.94A3.5 3.5 0 0 1 13.24 13l-3.5 2a3.5 3.5 0 0 1-3.48 0l-3.5-2A3.5 3.5 0 0 1 1 9.97V6.03A3.5 3.5 0 0 1 2.76 3l3.5-2a3.5 3.5 0 0 1 3.48 0l3.5 2A3.5 3.5 0 0 1 15 6.03"/><path fill="#f8fafc" fill-opacity="0.1" d="m9.74 1 3.5 2A3.5 3.5 0 0 1 15 6.02v3.94A3.5 3.5 0 0 1 13.24 13l-3.5 2a3.5 3.5 0 0 1-3.48 0l-3.5-2A3.5 3.5 0 0 1 1 9.97V6.03A3.5 3.5 0 0 1 2.76 3l3.5-2a3.5 3.5 0 0 1 3.48 0m-2.98.86-3.5 2A2.5 2.5 0 0 0 2 6.03v3.94c0 .9.48 1.72 1.26 2.17l3.5 2a2.5 2.5 0 0 0 2.48 0l3.5-2A2.5 2.5 0 0 0 14 9.97V6.03c0-.9-.48-1.72-1.26-2.17l-3.5-2a2.5 2.5 0 0 0-2.48 0"/><use fill="#fb923c" href="#a"/><use fill="#f8fafc" fill-opacity="0.1" href="#a"/></svg>