<svg xmlns="http://www.w3.org/2000/svg" viewBox="0 0 16 16"><path fill="#e879f9" fill-opacity=".4" fill-rule="evenodd" d="M9.04 13.8 6 15.48a1 1 0 0 1-1.47-.75l-.43-3.44a1 1 0 0 0-.3-.61L1.25 8.3a1 1 0 0 1 .26-1.64L4.65 5.2a1 1 0 0 0 .48-.49L6.6 1.57a1 1 0 0 1 1.64-.26l2.36 2.54a1 1 0 0 0 .61.3l3.45.43a1 1 0 0 1 .75 1.48L13.74 9.1a1 1 0 0 0-.11.68l.66 3.4a1 1 0 0 1-1.17 1.18l-3.4-.67a1 1 0 0 0-.68.11"/><path fill="#f8fafc" fill-opacity="0.1" d="m8.25 1.32 2.36 2.54a1 1 0 0 0 .61.3l3.45.43a1 1 0 0 1 .75 1.48L13.74 9.1a1 1 0 0 0-.11.68l.66 3.4a1 1 0 0 1-1.17 1.18l-3.4-.67a1 1 0 0 0-.68.11L6 15.48a1 1 0 0 1-1.47-.75l-.43-3.44a1 1 0 0 0-.3-.61L1.25 8.3a1 1 0 0 1 .26-1.64L4.65 5.2a1 1 0 0 0 .48-.49L6.6 1.57a1 1 0 0 1 1.64-.26m-2.2 3.83a2 2 0 0 1-.97.96L1.94 7.58l2.54 2.36a2 2 0 0 1 .62 1.22l.42 3.45 3.03-1.68.16-.08a2 2 0 0 1 1.2-.14l3.4.66-.66-3.4a2 2 0 0 1 .21-1.35l1.69-3.04-3.45-.42a2 2 0 0 1-1.22-.62L7.52 2z"/><path fill="#e879f9" d="M10.18 9.51c.23.15.3.46.15.7a2 2 0 0 1-2.95.46.5.5 0 1 1 .63-.77 1 1 0 0 0 1.48-.24.5.5 0 0 1 .69-.15"/><path fill="#e879f9" fill-rule="evenodd" d="M6.67 9.44a1 1 0 1 0-.31-1.98 1 1 0 0 0 .3 1.98m3.96-.63a1 1 0 1 0-.31-1.98 1 1 0 0 0 .3 1.98"/></svg>