<svg xmlns="http://www.w3.org/2000/svg" viewBox="0 0 16 16" xmlns:xlink="http://www.w3.org/1999/xlink"><defs><path id="a" d="M9.74 1.29c1.27.42 1.6 2.4.96 3.99-.29.71-.9 1.55-1.59 2.2-.84.8-1.63 1.22-2.35.98-.63-.21-.9-.79-.82-1.48q.09-.71.64-1.82a.75.75 0 1 1 1.34.68q-.3.62-.43 1.02.27-.17.59-.47A5 5 0 0 0 9.3 4.72c.2-.47.25-1.02.18-1.47a1 1 0 0 0-.18-.5q-.18.07-.47.23c-.43.23-.96.59-1.48 1.01-1.18.95-2.11 2.01-2.4 2.77-.57 1.53-.53 2.35-.17 2.71.1.1.55.22 1.13.22.74 0 1.53-.2 2.22-.6a7.4 7.4 0 0 0 2.71-2.95c.37-.66 1.36-.43 1.4.31q.29 4.25-1.39 6.5C9.69 14.5 7.93 15.18 5.69 15a.75.75 0 1 1 .12-1.5c1.76.15 3-.34 3.84-1.45a6 6 0 0 0 1.07-3.15 8 8 0 0 1-1.85 1.5c-1.8 1.03-4.25 1.03-5.15.13q-1.3-1.26-.17-4.3c.4-1.06 1.49-2.3 2.85-3.4C7.8 1.7 9 1.04 9.74 1.28"/></defs><path fill="#2dd4bf" fill-opacity=".4" fill-rule="evenodd" d="M7.53 13.74 4.21 15.5a1 1 0 0 1-1.45-1.05l.63-3.7a1 1 0 0 0-.28-.89L.4 7.23a1 1 0 0 1 .56-1.7l3.72-.55a1 1 0 0 0 .75-.54L7.1 1.07a1 1 0 0 1 1.8 0l1.66 3.37c.14.3.43.5.75.54l3.72.54a1 1 0 0 1 .55 1.7L12.9 9.86a1 1 0 0 0-.28.89l.63 3.7a1 1 0 0 1-1.45 1.05l-3.32-1.75a1 1 0 0 0-.94 0"/><path fill="#f8fafc" fill-opacity="0.1" d="m8.9 1.07 1.66 3.37c.14.3.43.5.75.54l3.72.54a1 1 0 0 1 .55 1.7L12.9 9.86a1 1 0 0 0-.28.89l.63 3.7a1 1 0 0 1-1.45 1.05l-3.32-1.75a1 1 0 0 0-.94 0L4.21 15.5a1 1 0 0 1-1.45-1.05l.63-3.7a1 1 0 0 0-.28-.89L.4 7.23a1 1 0 0 1 .56-1.7l3.72-.55a1 1 0 0 0 .75-.54L7.1 1.07a1 1 0 0 1 1.8 0m-2.56 3.8a2 2 0 0 1-1.5 1.1l-3.73.54 2.7 2.62a2 2 0 0 1 .57 1.78l-.64 3.7 3.33-1.75.11-.05a2 2 0 0 1 1.75.05l3.33 1.75-.64-3.7a2 2 0 0 1 .58-1.78l2.69-2.62-3.72-.54a2 2 0 0 1-1.5-1.1L8 1.52z"/><use fill="#2dd4bf" href="#a"/><use fill="#f8fafc" fill-opacity="0.1" href="#a"/></svg>