<svg xmlns="http://www.w3.org/2000/svg" viewBox="0 0 16 16"><path fill="#94a3b8" fill-opacity=".4" d="m10.75 5.95.15.22q.23.29.69.68a16 16 0 0 0 1.33 1.04l.32.24.29.2c.3.23.48.38.62.55q.37.42.28.98c-.08.44-.25.65-1.09 1.53q-.7.72-1.49.81a3 3 0 0 1-1.33-.2l-.44-.13a7 7 0 0 1-1.84-.75l-1.36-.72.74-1.3.38.2 1.22.63c.53.26.95.43 1.16.47a5 5 0 0 1 .7.2c.6.2.77.17 1.18-.25l.6-.64-.22-.16-.28-.2-1.09-.82-.67-.55C9.72 7.2 9.25 6.63 9.25 6h1.5v-.07z"/><path fill="#e879f9" fill-rule="evenodd" d="M12.85 4.86c.29-.2.38-.7.17-.98l-.8-1.16a.76.76 0 0 0-1-.18L8 4.81a1 1 0 0 1-1.4-.25L4.34 1.33a.76.76 0 0 0-.98-.17l-1.16.8a.8.8 0 0 0-.17 1c3.65 5.2 3.59 2.66 2.2 10.53q-.18 1 .81 1.16l.99.18q.98.17 1.15-.81c1.4-7.88.47-5.5 5.68-9.16"/><path fill="#f8fafc" fill-opacity="0.1" d="M4.33 1.33 6.6 4.56a1 1 0 0 0 1.4.25l3.23-2.27c.29-.2.78-.11.98.18l.81 1.16c.2.29.12.78-.17.98-5.21 3.65-4.29 1.28-5.68 9.16q-.17.98-1.15.8l-.99-.17q-.99-.17-.81-1.16C5.6 5.62 5.67 8.16 2.02 2.95a.76.76 0 0 1 .17-.98l1.16-.81c.29-.2.78-.12.98.17M3 2.62a39 39 0 0 0 1.88 2.45c.65.82.93 1.28 1.1 1.9.17.64.15 1.32-.02 2.44-.1.62-.69 3.87-.76 4.26l.99.17c.07-.39.62-3.65.74-4.26a6 6 0 0 1 .83-2.3c.37-.53.79-.86 1.67-1.4-.02 0 .89-.55 1.2-.75q.7-.44 1.4-.92l-.47-.68-3 2.1a2 2 0 0 1-2.78-.5l-2.1-2.99z"/><path fill="#94a3b8" d="M4.97 2.6a.5.5 0 0 1-.12.7l-1.16.81a.5.5 0 1 1-.57-.82l1.16-.8a.5.5 0 0 1 .7.12M9.9 3.82a.5.5 0 0 0 .11.7l1.16.81a.5.5 0 1 0 .58-.82l-1.16-.81a.5.5 0 0 0-.7.12"/></svg>