<svg xmlns="http://www.w3.org/2000/svg" xmlns:xlink="http://www.w3.org/1999/xlink" viewBox="0 0 16 16"><defs><path id="a" d="M14.33 2.97c.58.07 1.15.3 1.46.79.33.53.23 1.15-.01 1.68a6 6 0 0 1-1.25 1.69 21 21 0 0 1-4.9 3.5A22 22 0 0 1 3.9 12.8a7 7 0 0 1-2.18.15c-.6-.07-1.19-.29-1.5-.8-.36-.56-.23-1.22.04-1.77q.3-.6.84-1.21.06.51.36 1.35l-.2.35c-.2.42-.15.61-.1.68.05.1.23.23.7.29q.69.08 1.82-.14c1.5-.3 3.44-1 5.42-2.06a20 20 0 0 0 4.64-3.3q.76-.8 1.02-1.36c.17-.38.13-.56.08-.63-.05-.08-.21-.22-.66-.28l-.4-.02q-.3-.45-.9-1.07a6 6 0 0 1 1.45-.01"/></defs><circle cx="8" cy="8" r="7" fill="#60a5fa" fill-opacity=".4" fill-rule="evenodd"/><path fill="#f8fafc" fill-opacity="0.1" d="M15 8A7 7 0 1 1 1 8a7 7 0 0 1 14 0M2 8a6 6 0 1 0 12 0A6 6 0 0 0 2 8"/><use xlink:href="#a" fill="#60a5fa"/><use xlink:href="#a" fill="#f8fafc" fill-opacity="0.1"/></svg>