<svg xmlns="http://www.w3.org/2000/svg" viewBox="0 0 16 16"><path fill="#4ade80" fill-opacity=".4" fill-rule="evenodd" d="M5 1h6a4 4 0 0 1 4 4v6a4 4 0 0 1-4 4H5a4 4 0 0 1-4-4V5a4 4 0 0 1 4-4"/><path fill="#f8fafc" fill-opacity="0.1" d="M15 5v6a4 4 0 0 1-4 4H5a4 4 0 0 1-4-4V5a4 4 0 0 1 4-4h6a4 4 0 0 1 4 4M5 2a3 3 0 0 0-3 3v6a3 3 0 0 0 3 3h6a3 3 0 0 0 3-3V5a3 3 0 0 0-3-3z"/><circle cx="9.5" cy="5.5" r="1.5" fill="#facc15" fill-rule="evenodd"/><path fill="#f8fafc" fill-opacity="0.1" d="M11 5.5a1.5 1.5 0 1 1-3 0 1.5 1.5 0 0 1 3 0m-2 0a.5.5 0 1 0 1 0 .5.5 0 0 0-1 0"/><path fill="#4ade80" fill-rule="evenodd" d="M12.58 8.58 14 10v1a3 3 0 0 1-3 3H5a3 3 0 0 1-3-3V9l1.5-1.81a1.5 1.5 0 0 1 2.16-.16l2.76 2.46a1 1 0 0 0 1.22.08l1.68-1.12a1 1 0 0 1 1.26.13"/><path fill="#f8fafc" fill-opacity="0.1" d="m5.66 7.03 2.76 2.46a1 1 0 0 0 1.22.08l1.68-1.12a1 1 0 0 1 1.26.13L14 10v1a3 3 0 0 1-3 3H5a3 3 0 0 1-3-3V9l1.5-1.81a1.5 1.5 0 0 1 2.16-.16m-1.38.8L3 9.36V11c0 1.1.9 2 2 2h6a2 2 0 0 0 2-2v-.59L11.87 9.3l-1.67 1.1a2 2 0 0 1-2.44-.17L4.99 7.78a.5.5 0 0 0-.71.05"/></svg>