<svg xmlns="http://www.w3.org/2000/svg" viewBox="0 0 16 16" xmlns:xlink="http://www.w3.org/1999/xlink"><defs><path id="a" d="M12.73 5h-.23c-1.8 0-3.4.87-4.4 2.21Q8 6.88 8 6.5C8 5.07 8.99 4 10.5 4h.5l.24.03c.67.17 1.2.5 1.49.97"/><path id="b" d="M6.99 5.1v.13L7 5.5V10c0 1.05-.95 2-2 2-.23 0-.34 0-.5-.02a2 2 0 0 1-.74-.27Q2.98 11.16 3 10a1 1 0 0 1 2-.04V6h-.5a1 1 0 1 1 0-2h1l.4.01a1.2 1.2 0 0 1 1.09 1.1"/></defs><path fill="#fb7185" fill-rule="evenodd" d="M12.5 16q3.5-3.57 3.5-5.5a3.5 3.5 0 0 0-7 0q0 1.93 3.5 5.5"/><path fill="#f8fafc" fill-opacity="0.1" d="M16 10.5q0 1.93-3.5 5.5Q9 12.43 9 10.5a3.5 3.5 0 0 1 7 0m-6 0c0 .83.82 2.22 2.5 4.05 1.68-1.83 2.5-3.22 2.5-4.05a2.5 2.5 0 1 0-5 0"/><path fill="#facc15" fill-opacity=".4" fill-rule="evenodd" d="M11 1a4 4 0 0 1 4 4v.6q-1.14-.58-2.5-.6A5.5 5.5 0 0 0 7 10.5c0 1.37.66 2.83 1.95 4.5H5a4 4 0 0 1-4-4V5a4 4 0 0 1 4-4z"/><path fill="#f8fafc" fill-opacity="0.1" d="M11 1a4 4 0 0 1 4 4v.6q-.48-.25-1-.4V5a3 3 0 0 0-3-3H5a3 3 0 0 0-3 3v6a3 3 0 0 0 3 3h3.24q.31.5.7 1H5a4 4 0 0 1-4-4V5a4 4 0 0 1 4-4z"/><use fill="#facc15" href="#a"/><use fill="#f8fafc" fill-opacity="0.1" href="#a"/><use fill="#facc15" href="#b"/><use fill="#f8fafc" fill-opacity="0.1" href="#b"/></svg>