<svg xmlns="http://www.w3.org/2000/svg" viewBox="0 0 16 16"><path fill="#fb7185" fill-opacity=".4" fill-rule="evenodd" d="M13.88 1H7.12a1 1 0 0 0-.95 1.3L8 8l2.5-3L13 8l1.83-5.7a1 1 0 0 0-.95-1.3"/><path fill="#f8fafc" fill-opacity="0.1" d="M13.88 1a1 1 0 0 1 .95 1.3L13 8l-2.5-3L8 8 6.17 2.3A1 1 0 0 1 7.12 1zM7.12 2 8.4 5.96l1.33-1.6a1 1 0 0 1 1.54 0l1.33 1.6L13.88 2z"/><path fill="#fb7185" fill-rule="evenodd" d="M10.5 14c-1.5.25-1.5 1-5 1-1 0-2.75-.25-3.25-2q-.34-1.2.14-3.1a2 2 0 0 0 1.03.06Q4.02 11 5.5 11C8 11 7.5 8 9 7h4q2.5 1.5 2 4c-.5 2.5-3 2.75-4.5 3"/><path fill="#f8fafc" fill-opacity="0.1" d="M15 11c-.5 2.5-3 2.75-4.5 3s-1.5 1-5 1c-1 0-2.75-.25-3.25-2q-.34-1.2.14-3.1a2 2 0 0 0 1.03.06Q4.02 11 5.5 11C8 11 7.5 8 9 7h4q2.5 1.5 2 4M9.37 8c-.18.2-.34.54-.6 1.2a5 5 0 0 1-.93 1.77A3 3 0 0 1 5.5 12a3.4 3.4 0 0 1-2.35-.8q-.1.93.06 1.53C3.47 13.63 4.3 14 5.5 14c1.65 0 2.43-.14 3.22-.47l.32-.13c.47-.2.82-.3 1.3-.39l.8-.13q.46-.08.82-.18c1.2-.33 1.85-.87 2.06-1.9.23-1.16-.16-2.04-1.3-2.8z"/><circle cx="13" cy="8" r="2" fill="#facc15" fill-rule="evenodd"/><path fill="#f8fafc" fill-opacity="0.1" d="M15 8a2 2 0 1 1-4 0 2 2 0 0 1 4 0m-3 0a1 1 0 1 0 2 0 1 1 0 0 0-2 0"/><circle cx="8" cy="8" r="2" fill="#facc15" fill-rule="evenodd"/><path fill="#f8fafc" fill-opacity="0.1" d="M10 8a2 2 0 1 1-4 0 2 2 0 0 1 4 0M7 8a1 1 0 1 0 2 0 1 1 0 0 0-2 0"/><circle cx="3" cy="8" r="2" fill="#fb7185" fill-opacity=".4" fill-rule="evenodd"/><path fill="#f8fafc" fill-opacity="0.1" d="M5 8a2 2 0 1 1-4 0 2 2 0 0 1 4 0M2 8a1 1 0 1 0 2 0 1 1 0 0 0-2 0"/></svg>