<svg xmlns="http://www.w3.org/2000/svg" xmlns:xlink="http://www.w3.org/1999/xlink" viewBox="0 0 16 16"><defs><path id="a" d="M13 3.5v9a.5.5 0 0 1-.85.35L9 9.71v2.79a.5.5 0 1 1-1 0v-4c0-.3.23-.49.48-.5H8l-.04.2-2 4.5a.5.5 0 0 1-.92 0l-2-4.5a.5.5 0 0 1 .03-.45L3 7.5v-4a.5.5 0 0 1 1 0V7h8V6H8.5a.5.5 0 0 1 0-1H12V4H8.5a.5.5 0 0 1 0-1h4c.28 0 .5.22.5.5M8.51 8q.18 0 .34.15L12 11.29V8zm-2.45 2H4.94l.56 1.27zM4.05 8l.44 1h2.02l.44-1z"/></defs><path fill="#60a5fa" fill-opacity=".4" fill-rule="evenodd" d="M5 1h6a4 4 0 0 1 4 4v6a4 4 0 0 1-4 4H5a4 4 0 0 1-4-4V5a4 4 0 0 1 4-4"/><path fill="#f8fafc" fill-opacity="0.1" d="M15 5v6a4 4 0 0 1-4 4H5a4 4 0 0 1-4-4V5a4 4 0 0 1 4-4h6a4 4 0 0 1 4 4M5 2a3 3 0 0 0-3 3v6a3 3 0 0 0 3 3h6a3 3 0 0 0 3-3V5a3 3 0 0 0-3-3z"/><use xlink:href="#a" fill="#60a5fa" fill-rule="evenodd"/><use xlink:href="#a" fill="#f8fafc" fill-opacity="0.1" fill-rule="evenodd"/></svg>