<svg xmlns="http://www.w3.org/2000/svg" xmlns:xlink="http://www.w3.org/1999/xlink" viewBox="0 0 16 16"><defs><path id="a" d="M3 9c1.5 0 1.5 1 3 1s1.5-1 3-1 1.5 1 3 1 1.5-1 3-1v2a4 4 0 0 1-4 4H5a4 4 0 0 1-4-4V9.8c.63-.3.94-.8 2-.8"/></defs><path fill="#60a5fa" fill-opacity=".4" fill-rule="evenodd" d="M5 1h6a4 4 0 0 1 4 4v6a4 4 0 0 1-4 4H5a4 4 0 0 1-4-4V5a4 4 0 0 1 4-4"/><use xlink:href="#a" fill="#60a5fa" fill-rule="evenodd"/><use xlink:href="#a" fill="#f8fafc" fill-opacity="0.1" fill-rule="evenodd"/><path fill="#60a5fa" fill-opacity=".4" fill-rule="evenodd" d="M5 8c1.5 0 1.5-1 3-1s1.5 1 3 1 1.5-1 3-1q.64.01 1 .2V11a4 4 0 0 1-4 4H5a4 4 0 0 1-4-4V7.2q.36-.19 1-.2c1.5 0 1.5 1 3 1"/><path fill="#60a5fa" fill-opacity=".4" fill-rule="evenodd" d="M13 6c1.06 0 1.37-.5 2-.8V11a4 4 0 0 1-4 4H5a4 4 0 0 1-4-4V6c1.5 0 1.5-1 3-1s1.5 1 3 1 1.5-1 3-1 1.5 1 3 1"/><path fill="none" stroke="#f8fafc" stroke-opacity="0.1" d="M14.5 5v6a3.5 3.5 0 0 1-3.5 3.5H5A3.5 3.5 0 0 1 1.5 11V5A3.5 3.5 0 0 1 5 1.5h6A3.5 3.5 0 0 1 14.5 5Z"/></svg>