<svg xmlns="http://www.w3.org/2000/svg" viewBox="0 0 16 16"><path fill="#fb923c" fill-opacity=".4" fill-rule="evenodd" d="m.6 12.48 5.45-5.1a1.5 1.5 0 0 1 1.96-.07l.28.23c.66.52.76 1.5.21 2.14l-4.9 5.78a1.5 1.5 0 0 1-2.25.04l-.84-.9a1.5 1.5 0 0 1 .08-2.12"/><path fill="#f8fafc" fill-opacity="0.1" d="m8.01 7.31.28.23c.66.52.76 1.5.21 2.14l-4.9 5.78a1.5 1.5 0 0 1-2.25.04l-.84-.9a1.5 1.5 0 0 1 .08-2.12l5.46-5.1a1.5 1.5 0 0 1 1.96-.07m-1.28.8-5.46 5.1-.03.04a.5.5 0 0 0 0 .67l.85.9c.2.23.55.22.74 0l4.9-5.79a.5.5 0 0 0-.06-.71l-.28-.23a.5.5 0 0 0-.66.03"/><path fill="#94a3b8" fill-rule="evenodd" d="m3.32 2.29.48.48a1 1 0 0 0 .54.28l2.7.47.14 1.59a1 1 0 0 0 .28.61L9.33 7.6q.88.18 1.77 0v1.35q0 .41.3.71l.76.77a1 1 0 0 0 1.41 0L15.7 8.3a1 1 0 0 0 0-1.42l-.76-.77a1 1 0 0 0-.71-.29h-1.35q.16-.88 0-1.77C10.74 1.93 8.62-.9 3.32 2.3"/><path fill="#f8fafc" fill-opacity="0.1" d="M12.87 4.05q.16.9 0 1.77h1.35a1 1 0 0 1 .7.3l.77.76a1 1 0 0 1 0 1.42l-2.12 2.12a1 1 0 0 1-1.41 0l-.77-.77a1 1 0 0 1-.3-.7V7.58q-.87.18-1.76 0L7.46 5.72a1 1 0 0 1-.28-.61l-.15-1.59-2.7-.47a1 1 0 0 1-.53-.28l-.48-.48c5.3-3.19 7.42-.36 9.55 1.76m-7.25-1.8 1.59.29a1 1 0 0 1 .82.9l.14 1.58 1.64 1.63q.54.07 1.1-.04a1 1 0 0 1 1.19.98v1.35l.77.77 2.12-2.12-.77-.77h-1.35a1 1 0 0 1-.99-1.2q.12-.54.05-1.1l-.2-.2-.08-.08-.17-.17C10.24 2.8 9.5 2.25 8.55 1.99a4.6 4.6 0 0 0-2.93.27"/></svg>