<svg xmlns="http://www.w3.org/2000/svg" viewBox="0 0 16 16" xmlns:xlink="http://www.w3.org/1999/xlink"><defs><linearGradient id="a" x1="71.36%" x2="0%" y1="10.65%" y2="66.72%"><stop offset="0%" stop-color="#a78bfa" stop-opacity=".4"/><stop offset="100%" stop-color="#60a5fa" stop-opacity=".4"/></linearGradient></defs><path fill="url(#a)" d="m0 8.85 4.55-1.77q.7-.88 1.56-1.63c.38-.19 1.08-.08 2.38-1.64C9.75 2.3 10.15 1 10.74 1c.93 0 1.61 1.94 2.65 4.88a63 63 0 0 0 2.61 6.6c-1.09-.98-2.01-2.03-3.07-2-.98.02-2.07 1.14-3.27 2.59-.95 1.15-2.2 1.95-2.7 1.93 0 0-1.26-3.46-2.33-4.02a1.6 1.6 0 0 0-1.36.1z"/><path fill="#f8fafc" fill-opacity="0.1" d="M13.4 5.88a63 63 0 0 0 2.6 6.6c-1.09-.98-2.01-2.03-3.07-2-.98.02-2.07 1.14-3.27 2.59-.95 1.15-2.2 1.95-2.7 1.93 0 0-1.26-3.46-2.33-4.02a1.6 1.6 0 0 0-1.36.1L0 8.86l4.54-1.77q.7-.88 1.56-1.63c.38-.19 1.08-.08 2.38-1.64C9.75 2.3 10.15 1 10.74 1c.93 0 1.61 1.94 2.65 4.88m-2.88-3.21c-.5.78-.8 1.23-1.26 1.78a6 6 0 0 1-1.6 1.45 4 4 0 0 1-.9.39l-.12.04q-.7.62-1.29 1.37a1 1 0 0 1-.42.31L2.13 9.1l1.26.86a2.5 2.5 0 0 1 1.71.13q.4.21.74.62.56.65 1.13 1.8.3.56.55 1.18l.05-.04c.46-.31.93-.75 1.32-1.22a16 16 0 0 1 1.84-1.95c.74-.63 1.44-.99 2.18-1q.38-.01.76.09a63 63 0 0 1-1.23-3.38l.01.02a24 24 0 0 0-1.52-3.8l-.12-.2z"/><path fill="#fb7185" d="M4.05 10.86c1.29-.2 2.4 2.89 2.92 4.14 2.29-.38 4.18-4.07 6.03-4 1.06.04 1.91.5 3 1.48C13.52 7.45 12.36 1 10.74 1c-1.24 0-2.1 6.33-6.7 9.86"/><path fill="#f8fafc" fill-opacity="0.1" d="M16 12.48c-1.09-.98-1.94-1.44-3-1.48-1.85-.07-3.74 3.62-6.03 4-.51-1.25-1.63-4.34-2.92-4.14C8.65 7.33 9.5 1 10.75 1c1.61 0 2.77 6.45 5.25 11.48M10.73 2.46a26 26 0 0 0-.62 1.34A29 29 0 0 1 8.2 7.6q-1.05 1.73-2.4 3.05l.2.22q.59.71 1.12 1.88l.43.97a10 10 0 0 0 1.73-1.43 15 15 0 0 1 1.64-1.49 3.3 3.3 0 0 1 2.97-.7l-.04-.09-.82-2.23-.73-2.08a23 23 0 0 0-1.24-3.1l-.21-.35z"/></svg>