<svg xmlns="http://www.w3.org/2000/svg" xmlns:xlink="http://www.w3.org/1999/xlink" viewBox="0 0 16 16"><defs><path id="a" d="M12.5 7A2.5 2.5 0 0 1 15 9.5v.59c.58.2 1 .76 1 1.41v3c0 .83-.67 1.5-1.5 1.5h-4A1.5 1.5 0 0 1 9 14.5v-3c0-.65.42-1.2 1-1.41V9.5A2.5 2.5 0 0 1 12.5 7m0 1c-.83 0-1.5.67-1.5 1.5v.5h3v-.5c0-.83-.67-1.5-1.5-1.5"/></defs><use xlink:href="#a" fill="#94a3b8" fill-rule="evenodd"/><use xlink:href="#a" fill="#f8fafc" fill-opacity="0.1" fill-rule="evenodd"/><path fill="#fb7185" fill-opacity=".4" fill-rule="evenodd" d="M11 1a4 4 0 0 1 4 4v.76a4.5 4.5 0 0 0-6.98 3.27A3.5 3.5 0 0 0 7 11.5v3q0 .26.04.5H5a4 4 0 0 1-4-4V5a4 4 0 0 1 4-4z"/><path fill="#f8fafc" fill-opacity="0.1" d="M11 1a4 4 0 0 1 4 4v.76q-.46-.31-1-.5V5a3 3 0 0 0-3-3H5a3 3 0 0 0-3 3v6a3 3 0 0 0 3 3h2v.5q0 .26.04.5H5a4 4 0 0 1-4-4V5a4 4 0 0 1 4-4z"/><path fill="#f8fafc" fill-rule="evenodd" d="M10.5 4c.67 0 1.23.43 1.43 1.04a4.4 4.4 0 0 0-2.42 1.1A1 1 0 0 0 8 7l-.01 2.05-.12.13A3.5 3.5 0 0 0 7 11.5v.41a2 2 0 0 1-.5.09h-1A1.5 1.5 0 0 1 4 10.5v-5C4 4.67 4.67 4 5.5 4z"/><path fill="#f8fafc" fill-opacity="0.1" d="M10.5 4c.67 0 1.23.43 1.43 1.04q-.52.06-.99.24A.5.5 0 0 0 10.5 5h-5a.5.5 0 0 0-.5.5v5c0 .28.22.5.5.5h1a.5.5 0 0 0 .5-.5V7a2 2 0 0 1 3.37-1.46q-.47.25-.86.6A1 1 0 0 0 8 7l-.01 2.05-.12.13A3.5 3.5 0 0 0 7 11.5v.41a2 2 0 0 1-.5.09h-1A1.5 1.5 0 0 1 4 10.5v-5C4 4.67 4.67 4 5.5 4z"/></svg>