<svg xmlns="http://www.w3.org/2000/svg" viewBox="0 0 16 16"><path fill="#4ade80" fill-opacity=".4" fill-rule="evenodd" d="M11.5 12a.5.5 0 0 1-.5-.5V10a1 1 0 0 0-2 0v2.5c0 .83.67 1.5 1.5 1.5h3c.83 0 1.5-.67 1.5-1.5V5a1 1 0 0 0-1-1h-1a1 1 0 0 0-1 1v6.5a.5.5 0 0 1-.5.5"/><path fill="#f8fafc" fill-opacity="0.1" d="M15 5v7.5c0 .83-.67 1.5-1.5 1.5h-3A1.5 1.5 0 0 1 9 12.5V10a1 1 0 1 1 2 0v1.5a.5.5 0 1 0 1 0V5a1 1 0 0 1 1-1h1a1 1 0 0 1 1 1m-5 7.5c0 .28.22.5.5.5h1a1.5 1.5 0 0 1-1.5-1.5zM13 5v6.5c0 .83-.67 1.5-1.5 1.5h2a.5.5 0 0 0 .5-.5V5z"/><path fill="#4ade80" fill-rule="evenodd" d="M1 13V3a1 1 0 0 1 1-1h.38a1 1 0 0 1 .9.55l1.25 2.5c.11.24.47.15.47-.1V3a1 1 0 0 1 1-1h1a1 1 0 0 1 1 1v10a1 1 0 0 1-1 1h-.38a1 1 0 0 1-.9-.55l-1.25-2.5c-.11-.24-.47-.15-.47.1V13a1 1 0 0 1-1 1H2a1 1 0 0 1-1-1"/><path fill="#f8fafc" fill-opacity="0.1" d="m3.28 2.55 1.25 2.5c.11.24.47.15.47-.1V3a1 1 0 0 1 1-1h1a1 1 0 0 1 1 1v10a1 1 0 0 1-1 1h-.38a1 1 0 0 1-.9-.55l-1.25-2.5c-.11-.24-.47-.15-.47.1V13a1 1 0 0 1-1 1H2a1 1 0 0 1-1-1V3a1 1 0 0 1 1-1h.38a1 1 0 0 1 .9.55M2 3v10h1v-1.94c0-1.32 1.78-1.74 2.37-.56L6.62 13H7V3H6v1.94c0 1.32-1.78 1.74-2.37.56L2.38 3z"/></svg>