<svg xmlns="http://www.w3.org/2000/svg" viewBox="0 0 16 16"><path fill="#94a3b8" fill-rule="evenodd" d="M14 0a2 2 0 1 1-.52 3.93L8.93 8.48a2 2 0 1 1-1.41-1.41l4.55-4.55A2 2 0 0 1 14 0"/><path fill="#f8fafc" fill-opacity="0.1" d="M16 2a2 2 0 0 1-2.52 1.93L8.93 8.48a2 2 0 1 1-1.41-1.41l4.55-4.55A2 2 0 1 1 16 2m-3 0 .03.26.15.56-.4.4-4.56 4.55-.4.41-.56-.15A1 1 0 0 0 6 9a1 1 0 1 0 1.97-.26l-.15-.56 5.36-5.36.56.15A1 1 0 0 0 15 2a1 1 0 0 0-2 0"/><path fill="#4ade80" fill-opacity=".4" fill-rule="evenodd" d="M7 2q1.54.02 2.85.6L6.96 5.5h-.15a3.5 3.5 0 0 0 .19 7h.2a3.5 3.5 0 0 0 3.3-3.3v-.16l2.9-2.9q.59 1.32.6 2.86a7 7 0 1 1-7-7"/><path fill="#4ade80" fill-rule="evenodd" d="M13.4 6.14q.59 1.32.6 2.86h-3.47zM7 2q1.54.02 2.85.6L7 5.47zm2.85 9.03 2.85 2.04q-.52.71-1.18 1.27l-2.26-2.67q.33-.28.59-.64M5.6 12.21l.22.09-1.17 3.3a7 7 0 0 1-2.38-1.44l2.37-2.58q.42.39.96.63M2.9 3.32l.22-.14 1.94 2.9A3.5 3.5 0 0 0 3.5 9H0a7 7 0 0 1 2.9-5.68"/><path fill="none" stroke="#f8fafc" stroke-opacity="0.1" d="m8.95 2.8-2.2 2.21A4 4 0 0 0 7 13h.2A4 4 0 0 0 11 9.24l2.2-2.2q.3.94.3 1.95a6.5 6.5 0 1 1-4.55-6.2Z"/></svg>