<svg xmlns="http://www.w3.org/2000/svg" viewBox="0 0 16 16" xmlns:xlink="http://www.w3.org/1999/xlink"><defs><path id="a" d="M11.1 5.37a6.4 6.4 0 0 1-.28 3.28q.4.64 1.01 1.53a8 8 0 0 1 2.42-.07q.8.1 1.3.59c.42.42.54 1 .38 1.6-.14.53-.54.86-1.04 1.04q-.51.18-1.04.14a4 4 0 0 1-2.8-1.1q-1.04.23-2.04.6a8 8 0 0 1-2.43 2.72c-.74.5-1.91.4-2.39-.44-.29-.5-.23-1.05.01-1.54q.27-.51.7-.86c.65-.53 1.61-1.04 2.7-1.49a12 12 0 0 0 .57-1.3l.47-1.21a7 7 0 0 1-.8-2.24c-.08-.5-.09-.9.02-1.3.18-.74.73-1.26 1.55-1.32.73-.05 1.55.61 1.7 1.37"/></defs><path fill="#fb7185" fill-opacity=".4" fill-rule="evenodd" d="M5 1h3.76a3 3 0 0 1 2.12.88l2.24 2.24A3 3 0 0 1 14 6.24V12a3 3 0 0 1-3 3H5a3 3 0 0 1-3-3V4a3 3 0 0 1 3-3"/><path fill="#f8fafc" fill-opacity="0.1" d="m10.88 1.88 2.24 2.24A3 3 0 0 1 14 6.24V12a3 3 0 0 1-3 3H5a3 3 0 0 1-3-3V4a3 3 0 0 1 3-3h3.76a3 3 0 0 1 2.12.88M5 2a2 2 0 0 0-2 2v8c0 1.1.9 2 2 2h6a2 2 0 0 0 2-2V6.24a2 2 0 0 0-.59-1.41l-2.24-2.24A2 2 0 0 0 8.76 2z"/><use fill="#fb7185" href="#a"/><use fill="#f8fafc" fill-opacity="0.1" href="#a"/></svg>