<svg xmlns="http://www.w3.org/2000/svg" viewBox="0 0 16 16"><path fill="#60a5fa" fill-opacity=".4" fill-rule="evenodd" d="M12 1c2 0 4 2.5 4 5 0 3.5-1.5 5-3 5q-1.01 0-1.57-1.36l-.31.27Q8.57 15.01 6 15c-2.85 0-4.35-1.8-4.49-4.56C.64 9.73 0 8.3 0 6c0-2.5 2-5 4-5q1.12 0 1.69.56a5 5 0 0 1 4.62 0Q10.88 1 12 1M4.57 9.64q-.45 1.07-1.16 1.3Q4.26 11.99 5 12q.58 0 1.16-1.35a5 5 0 0 1-1.48-.91z"/><path fill="#f8fafc" fill-opacity="0.1" d="M16 6c0 3.5-1.5 5-3 5q-1.01 0-1.57-1.36l-.31.27Q8.57 15.01 6 15c-2.85 0-4.35-1.8-4.49-4.56C.64 9.73 0 8.3 0 6c0-2.5 2-5 4-5q1.12 0 1.69.56a5 5 0 0 1 4.62 0Q10.88 1 12 1c2 0 4 2.5 4 5m-4.98-3.73a1 1 0 0 1-1.17.18 4 4 0 0 0-3.7 0 1 1 0 0 1-1.17-.18C4.81 2.1 4.51 2 4 2 2.6 2 1 4 1 6c0 1.86.46 3.1 1.15 3.67a1 1 0 0 1 .36.72v.1a1 1 0 0 1 .6-.5q.23-.06.53-.73a1 1 0 0 1 1.6-.36l.1.1a4 4 0 0 0 1.19.72c.52.2.77.8.55 1.33q-.34.8-.74 1.27c-.37.42-.81.68-1.34.68-.82 0-1.57-.48-2.3-1.34C3.15 13.19 4.25 14 6 14c1.21 0 2.67-1.45 4.22-4.54a1 1 0 0 1 .27-.33q.14-.1.25-.22a1 1 0 0 1 1.62.35c.23.57.43.74.64.74q.69.01 1.24-.76Q14.98 8.2 15 6c0-2-1.6-4-3-4q-.74 0-.98.27m-7.61 8.67Q4.26 11.99 5 12q.58 0 1.16-1.35a5 5 0 0 1-1.48-.91l-.11-.1q-.45 1.07-1.16 1.3"/><path fill="#60a5fa" d="M5.73 5.78c.4.13.61.55.49.95l-1.5 4.75a.75.75 0 1 1-1.44-.46l1.5-4.75c.13-.4.55-.61.95-.49"/><circle cx="5.5" cy="6.5" r="3.5" fill="#60a5fa" fill-rule="evenodd"/><path fill="#f8fafc" fill-opacity="0.1" d="M9 6.5a3.5 3.5 0 1 1-7 0 3.5 3.5 0 0 1 7 0m-6 0a2.5 2.5 0 1 0 5 0 2.5 2.5 0 0 0-5 0"/></svg>