<svg xmlns="http://www.w3.org/2000/svg" xmlns:xlink="http://www.w3.org/1999/xlink" viewBox="0 0 16 16"><defs><path id="a" d="M5.5 4a2.5 2.5 0 1 1 0 5 2.5 2.5 0 0 1 0-5m0 1.5a1 1 0 1 0 0 2 1 1 0 0 0 0-2"/><path id="b" d="M10.5 4a2.5 2.5 0 1 1 0 5 2.5 2.5 0 0 1 0-5m0 1.5a1 1 0 1 0 0 2 1 1 0 0 0 0-2"/><path id="c" d="m6.9 9.74.66 1.2a.5.5 0 0 0 .88 0l.66-1.2A.5.5 0 0 0 8.66 9H7.34a.5.5 0 0 0-.44.74"/></defs><path fill="#fb923c" fill-opacity=".4" d="M13.46.69q-.4 1.04-.25 1.83A7.6 7.6 0 0 1 15.25 8c0 1.32-.14 2.03-.53 3.13l-.03.1a7 7 0 0 0-.44 2.52.5.5 0 0 1-.85.35l-.9-.9-.32.33q.31.46.32.97-.01.72-.65 1.35a.5.5 0 0 1-.84-.23c-.11-.46-.27-.62-.51-.62s-.4.16-.51.62a.5.5 0 0 1-.84.23q-.51-.52-.62-1.35H7.47a2.3 2.3 0 0 1-.62 1.35.5.5 0 0 1-.84-.23c-.11-.46-.27-.62-.51-.62s-.4.16-.51.62a.5.5 0 0 1-.84.23 2 2 0 0 1-.65-1.35q0-.5.32-.97l-.32-.32-.9.9a.5.5 0 0 1-.85-.36c0-1.04-.11-1.58-.44-2.52l-.03-.1A8 8 0 0 1 .75 8q0-3.38 2.08-5.53.34-.71-.26-1.71A.5.5 0 0 1 3 0q1.62 0 2.54.97A3.5 3.5 0 0 1 8 0q1.43 0 2.46.97Q11.37.01 13 0c.35 0 .6.36.46.69"/><path fill="#f8fafc" fill-opacity="0.1" d="M13.46.69q-.4 1.04-.25 1.83A7.6 7.6 0 0 1 15.25 8c0 1.32-.14 2.03-.53 3.13l-.03.1a7 7 0 0 0-.44 2.52.5.5 0 0 1-.85.35l-.9-.9-.32.33q.31.46.32.97-.01.72-.65 1.35a.5.5 0 0 1-.84-.23c-.11-.46-.27-.62-.51-.62s-.4.16-.51.62a.5.5 0 0 1-.84.23q-.51-.52-.62-1.35H7.47a2.3 2.3 0 0 1-.62 1.35.5.5 0 0 1-.84-.23c-.11-.46-.27-.62-.51-.62s-.4.16-.51.62a.5.5 0 0 1-.84.23 2 2 0 0 1-.65-1.35q0-.5.32-.97l-.32-.32-.9.9a.5.5 0 0 1-.85-.36c0-1.04-.11-1.58-.44-2.52l-.03-.1A8 8 0 0 1 .75 8q0-3.38 2.08-5.53.34-.71-.26-1.71A.5.5 0 0 1 3 0q1.62 0 2.54.97A3.5 3.5 0 0 1 8 0q1.43 0 2.46.97Q11.37.01 13 0c.35 0 .6.36.46.69M6.22 1.7a1 1 0 0 1-1.41-.05 2 2 0 0 0-1-.56q.31.94-.07 1.8a1 1 0 0 1-.2.28A6.6 6.6 0 0 0 1.75 8c0 1.15.1 1.75.47 2.8l.03.1c.24.66.37 1.16.44 1.7l.1-.1a1 1 0 0 1 1.42 0l.32.32a1 1 0 0 1 .12 1.28q-.12.16-.14.3.37-.4.99-.4a1.3 1.3 0 0 1 .98.37 1 1 0 0 1 .99-.87h1.06a1 1 0 0 1 1 .88q.36-.37.97-.38.62 0 .99.4a1 1 0 0 0-.14-.3 1 1 0 0 1 .12-1.28l.32-.32a1 1 0 0 1 1.42 0l.1.1c.07-.54.2-1.04.44-1.7l.03-.1a7 7 0 0 0 .47-2.8 6.6 6.6 0 0 0-1.76-4.79 1 1 0 0 1-.26-.5q-.15-.77.06-1.64-.69.16-1.1.58a1 1 0 0 1-1.41.05A2.5 2.5 0 0 0 8 1q-1.04 0-1.78.7"/><use xlink:href="#a" fill="#fb923c" fill-rule="evenodd"/><use xlink:href="#a" fill="#f8fafc" fill-opacity="0.1" fill-rule="evenodd"/><use xlink:href="#b" fill="#fb923c" fill-rule="evenodd"/><use xlink:href="#b" fill="#f8fafc" fill-opacity="0.1" fill-rule="evenodd"/><use xlink:href="#c" fill="#fb923c" fill-rule="evenodd"/><use xlink:href="#c" fill="#f8fafc" fill-opacity="0.1" fill-rule="evenodd"/></svg>