<svg xmlns="http://www.w3.org/2000/svg" viewBox="0 0 16 16"><path fill="#fb7185" fill-rule="evenodd" d="M8.4 6.95a17 17 0 0 1 3.2 7.06 7 7 0 0 1-6.97.13q.66-3.78 3.22-7.19l.27-.35z"/><path fill="#f8fafc" fill-opacity="0.1" d="M8.4 6.95a17 17 0 0 1 3.2 7.06 7 7 0 0 1-6.97.13q.66-3.78 3.22-7.19l.27-.35zm-2.63 6.62a6 6 0 0 0 4.69-.1A16 16 0 0 0 8.13 8.3a16 16 0 0 0-2.36 5.28"/><path fill="#fb7185" fill-opacity=".4" fill-rule="evenodd" d="M3.18 2.92q2.23.88 3.93 2.55l-.46.58a18 18 0 0 0-3.36 7.13 7 7 0 0 1-.24-10.13z"/><path fill="#f8fafc" fill-opacity="0.1" d="m7.1 5.47-.45.58a18 18 0 0 0-3.36 7.13 7 7 0 0 1-.24-10.13l.13-.13q2.23.88 3.93 2.55M2 8c0 1.1.3 2.15.84 3.06q.97-2.85 2.9-5.47a10 10 0 0 0-2.3-1.47A6 6 0 0 0 2 8"/><path fill="#60a5fa" fill-rule="evenodd" d="M8 1a7 7 0 0 1 4.91 11.99A18 18 0 0 0 9.6 6.05a13.5 13.5 0 0 0-5.02-4.16A7 7 0 0 1 8 1"/><path fill="#f8fafc" fill-opacity="0.1" d="M15 8c0 1.95-.8 3.72-2.09 4.99A18 18 0 0 0 9.6 6.05a13.5 13.5 0 0 0-5.02-4.16A7 7 0 0 1 15 8M6.92 2.1a15 15 0 0 1 3.48 3.35 20 20 0 0 1 2.91 5.34 6 6 0 0 0-6.39-8.7"/></svg>