<svg xmlns="http://www.w3.org/2000/svg" xmlns:xlink="http://www.w3.org/1999/xlink" viewBox="0 0 16 16"><defs><path id="a" d="M12.5 6a1 1 0 0 1 0 2H11v1h1a.5.5 0 1 1 0 1h-1v1h1.5a1 1 0 1 1 0 2H10a1 1 0 0 1-1-1V7a1 1 0 0 1 1-1zm-7 0C6.87 6 8 7 8 8.5c0 .84-.35 1.52-.9 1.96l.7.94a1 1 0 1 1-1.6 1.2L5 11v1a1 1 0 0 1-2 0l-.02-5a1 1 0 0 1 1-1zm-.51 2v1h.51q.49 0 .5-.5-.01-.5-.5-.5z"/></defs><path fill="#fb7185" fill-opacity=".4" fill-rule="evenodd" d="M5 1h6a4 4 0 0 1 4 4v6a4 4 0 0 1-4 4H5a4 4 0 0 1-4-4V5a4 4 0 0 1 4-4"/><path fill="#f8fafc" fill-opacity="0.1" d="M15 5v6a4 4 0 0 1-4 4H5a4 4 0 0 1-4-4V5a4 4 0 0 1 4-4h6a4 4 0 0 1 4 4M5 2a3 3 0 0 0-3 3v6a3 3 0 0 0 3 3h6a3 3 0 0 0 3-3V5a3 3 0 0 0-3-3z"/><use xlink:href="#a" fill="#fb7185" fill-rule="evenodd"/><use xlink:href="#a" fill="#f8fafc" fill-opacity="0.1" fill-rule="evenodd"/></svg>