<svg xmlns="http://www.w3.org/2000/svg" viewBox="0 0 16 16" xmlns:xlink="http://www.w3.org/1999/xlink"><defs><path id="a" d="m3.95 10.28 1 2a.5.5 0 1 1-.9.44l-1-2a.5.5 0 1 1 .9-.44m2 0 1 2a.5.5 0 1 1-.9.44l-1-2a.5.5 0 1 1 .9-.44m4.77-.23a.5.5 0 0 1 .23.67l-1 2a.5.5 0 0 1-.9-.44l1-2a.5.5 0 0 1 .67-.23m2 0a.5.5 0 0 1 .23.67l-1 2a.5.5 0 0 1-.9-.44l1-2a.5.5 0 0 1 .67-.23"/></defs><path fill="#94a3b8" fill-opacity=".4" fill-rule="evenodd" d="M1 5.14v8.72c0 .4.23.76.6.92Q4.4 16 8 16t6.4-1.22a1 1 0 0 0 .6-.92V5.14a1 1 0 0 0-.6-.92Q11.6 3 8 3T1.6 4.22a1 1 0 0 0-.6.92"/><path fill="#f8fafc" fill-opacity="0.1" d="M14.4 4.22a1 1 0 0 1 .6.92v8.72a1 1 0 0 1-.6.92Q11.6 16 8 16t-6.4-1.22a1 1 0 0 1-.6-.92V5.14a1 1 0 0 1 .6-.92Q4.4 3 8 3t6.4 1.22M2 5.14v8.72A15 15 0 0 0 8 15q3.4 0 6-1.14V5.14A15 15 0 0 0 8 4Q4.6 4 2 5.14"/><use fill="#94a3b8" href="#a"/><use fill="#f8fafc" fill-opacity="0.1" href="#a"/><path fill="#fb923c" fill-rule="evenodd" d="M8 0a4 4 0 1 1 0 8 4 4 0 0 1 0-8m0 4a1 1 0 0 0-1 1v1a1 1 0 1 0 2 0V5a1 1 0 0 0-1-1"/><path fill="#f8fafc" fill-opacity="0.1" d="M12 4a4 4 0 1 1-8 0 4 4 0 0 1 8 0M7 5v1a1 1 0 1 0 2 0V5a1 1 0 1 0-2 0M5 4a3 3 0 0 0 1.02 2.25L6 6V5a2 2 0 1 1 4 0v1q0 .13-.02.25A3 3 0 1 0 5 4"/></svg>