<svg xmlns="http://www.w3.org/2000/svg" viewBox="0 0 16 16"><path fill="#facc15" fill-rule="evenodd" d="M10 12.66v2.09c0 .69-.56 1.25-1.25 1.25h-1.5C6.56 16 6 15.44 6 14.75v-2.1a6 6 0 0 0 4 0"/><path fill="#f8fafc" fill-opacity="0.1" d="M10 14.75c0 .69-.56 1.25-1.25 1.25h-1.5C6.56 16 6 15.44 6 14.75v-2.1a6 6 0 0 0 4 0zM8 14q-.5 0-1-.07v.82c0 .14.11.25.25.25h1.5q.23-.02.25-.25v-.82Q8.5 14 8 14"/><path fill="#facc15" d="M11.5 12.5a.5.5 0 0 1-.5.5H5a.5.5 0 1 1 0-1h6c.28 0 .5.22.5.5"/><circle cx="8" cy="7" r="6" fill="#facc15" fill-opacity=".4" fill-rule="evenodd"/><path fill="#f8fafc" fill-opacity="0.1" d="M14 7A6 6 0 1 1 2 7a6 6 0 0 1 12 0M3 7a5 5 0 1 0 10 0A5 5 0 0 0 3 7"/></svg>