<svg xmlns="http://www.w3.org/2000/svg" viewBox="0 0 16 16"><path fill="#a78bfa" fill-opacity=".4" fill-rule="evenodd" d="m11 0 3 5H8z"/><path fill="#f8fafc" fill-opacity="0.1" d="M14 5H8l3-5zM9.77 4h2.46L11 1.94z"/><path fill="#a78bfa" fill-opacity=".6" fill-rule="evenodd" d="M11 0 8 5 5 0z"/><path fill="#f8fafc" fill-opacity="0.1" d="M8 5 5 0h6zM6.77 1 8 3.06 9.23 1z"/><path fill="#a78bfa" fill-opacity=".8" fill-rule="evenodd" d="M8 5H2l3-5z"/><path fill="#f8fafc" fill-opacity="0.1" d="M8 5H2l3-5zM3.77 4h2.46L5 1.94z"/><path fill="#a78bfa" fill-rule="evenodd" d="m8 5-3 5-3-5z"/><path fill="#f8fafc" fill-opacity="0.1" d="M5 10 2 5h6zM3.77 6 5 8.06 6.23 6z"/><path fill="#a78bfa" fill-opacity=".4" fill-rule="evenodd" d="m5 16-3-5h6z"/><path fill="#f8fafc" fill-opacity="0.1" d="m5 16-3-5h6zm-1.23-4L5 14.06 6.23 12z"/><path fill="#a78bfa" fill-opacity=".6" fill-rule="evenodd" d="m5 16 3-5 3 5z"/><path fill="#f8fafc" fill-opacity="0.1" d="M11 16H5l3-5zm-4.23-1h2.46L8 12.94z"/><path fill="#a78bfa" fill-opacity=".8" fill-rule="evenodd" d="M8 11h6l-3 5z"/><path fill="#f8fafc" fill-opacity="0.1" d="m11 16-3-5h6zm-1.23-4L11 14.06 12.23 12z"/><path fill="#a78bfa" fill-rule="evenodd" d="m8 11 3-5 3 5z"/><path fill="#f8fafc" fill-opacity="0.1" d="M14 11H8l3-5zm-4.23-1h2.46L11 7.94z"/></svg>