<svg xmlns="http://www.w3.org/2000/svg" viewBox="0 0 16 16"><path fill="#fb7185" fill-opacity=".4" fill-rule="evenodd" d="M8 1a7 7 0 1 1 0 14A7 7 0 0 1 8 1m0 4a3 3 0 1 0 0 6 3 3 0 0 0 0-6"/><path fill="#f8fafc" fill-opacity="0.1" d="M15 8A7 7 0 1 1 1 8a7 7 0 0 1 14 0M2 8a6 6 0 1 0 12 0A6 6 0 0 0 2 8m10 0a4 4 0 1 1-8 0 4 4 0 0 1 8 0M5 8a3 3 0 1 0 6 0 3 3 0 0 0-6 0"/><path fill="#f8fafc" fill-rule="evenodd" d="m2.24 3.86 1.62-1.62a.5.5 0 0 1 .77.07l1.72 2.52a.5.5 0 0 1-.06.63l-.83.83a.5.5 0 0 1-.63.06L2.3 4.63a.5.5 0 0 1-.07-.77m11.52 8.28-1.62 1.62a.5.5 0 0 1-.77-.07l-1.72-2.52a.5.5 0 0 1 .06-.63l.83-.83a.5.5 0 0 1 .63-.06l2.52 1.72c.26.18.3.55.07.77m-1.62-9.9 1.62 1.62a.5.5 0 0 1-.07.77l-2.52 1.72a.5.5 0 0 1-.63-.06l-.83-.83a.5.5 0 0 1-.06-.63l1.72-2.52a.5.5 0 0 1 .77-.07M3.86 13.76l-1.62-1.62a.5.5 0 0 1 .07-.77l2.52-1.72a.5.5 0 0 1 .63.06l.83.83c.17.17.2.43.06.63L4.63 13.7a.5.5 0 0 1-.77.07"/></svg>