<svg xmlns="http://www.w3.org/2000/svg" xmlns:xlink="http://www.w3.org/1999/xlink" viewBox="0 0 16 16"><defs><path id="b" d="M9 5a1 1 0 0 0 1 1h1v1h-1a2 2 0 0 1-2-2V4h1zm0-2H8V1h1zm5 4h-2V6h2z"/><path id="a" d="M4.5 14.96a3 3 0 0 1-1.17-.46l-.41-.28.55-.83.42.27Q4.39 14 5 14h2.5v1h-3zm7.59-.12-.5.1Q11.3 15 11 15H9v-1h2q.2 0 .4-.04l.49-.1zM14 10.33v1.73a3 3 0 0 1-.18.98l-.18.46-.93-.34.17-.47q.11-.31.12-.64v-1.72zM3 12.36H2v-3h1zm11-6.03v2.5h-1v-3h1zM3 7.86H2v-3h1zm8.32-5.5 1.77 1.77-.7.7-.36-.34-1.77-1.77.7-.7zm-6.38-.42-.48.13A2 2 0 0 0 3.22 3.1l-.23.44-.89-.45.23-.45a3 3 0 0 1 1.86-1.52l.48-.13zM6.8 1h2.03l.5.02-.04 1L8.8 2H6.32V1z"/></defs><path fill="#94a3b8" fill-opacity=".4" fill-rule="evenodd" d="M5 1h3.76a3 3 0 0 1 2.12.88l2.24 2.24A3 3 0 0 1 14 6.24V12a3 3 0 0 1-3 3H5a3 3 0 0 1-3-3V4a3 3 0 0 1 3-3"/><use fill="#94a3b8" href="#a"/><use fill="#f8fafc" fill-opacity="0.1" href="#a"/><use xlink:href="#b" fill="#94a3b8" fill-rule="evenodd"/><use xlink:href="#b" fill="#f8fafc" fill-opacity="0.1" fill-rule="evenodd"/></svg>