<svg xmlns="http://www.w3.org/2000/svg" viewBox="0 0 16 16"><path fill="#60a5fa" fill-opacity=".4" fill-rule="evenodd" d="m12.1 1.54.28.21c.83.64.85 1.89.04 2.56l-9.08 7.5a1 1 0 0 1-1.46-.2l-.64-.9a1 1 0 0 1 .13-1.3l8.14-7.73a2 2 0 0 1 2.6-.14"/><path fill="#f8fafc" fill-opacity="0.1" d="m12.1 1.54.28.21c.83.64.85 1.89.04 2.56l-9.08 7.5a1 1 0 0 1-1.46-.2l-.64-.9a1 1 0 0 1 .13-1.3l8.14-7.73a2 2 0 0 1 2.6-.14m-1.9.86-8.14 7.73.64.9 9.08-7.5a.63.63 0 0 0-.01-.99l-.27-.2-.08-.06a1 1 0 0 0-1.22.12"/><path fill="#60a5fa" fill-opacity=".8" fill-rule="evenodd" d="m12.38 14.25-.27.2a2 2 0 0 1-2.6-.13L1.37 6.6a1 1 0 0 1-.13-1.3l.64-.9a1 1 0 0 1 1.46-.2l9.08 7.5c.8.67.79 1.92-.04 2.56"/><path fill="#f8fafc" fill-opacity="0.1" d="m3.34 4.19 9.08 7.5c.8.67.79 1.92-.04 2.56l-.27.2a2 2 0 0 1-2.6-.13L1.37 6.6a1 1 0 0 1-.13-1.3l.64-.9a1 1 0 0 1 1.46-.2M2.06 5.87l8.14 7.73a1 1 0 0 0 1.3.06l.27-.2.05-.05a.63.63 0 0 0-.04-.94L2.7 4.97z"/><path fill="#60a5fa" fill-rule="evenodd" d="m11.54 1.25 2.55 1.66A2 2 0 0 1 15 4.59v6.82a2 2 0 0 1-.91 1.68l-2.55 1.66A1 1 0 0 1 10 13.9V2.09a1 1 0 0 1 1.54-.84"/><path fill="#f8fafc" fill-opacity="0.1" d="m11.54 1.25 2.55 1.66A2 2 0 0 1 15 4.59v6.82a2 2 0 0 1-.91 1.68l-2.55 1.66A1 1 0 0 1 10 13.9V2.09a1 1 0 0 1 1.54-.84M11 13.91l2.54-1.66a1 1 0 0 0 .46-.84V4.6a1 1 0 0 0-.46-.84L11 2.09z"/></svg>